<?xml version="1.0" standalone="no"?>
<!DOCTYPE svg PUBLIC "-//W3C//DTD SVG 1.1//EN" "http://www.w3.org/Graphics/SVG/1.1/DTD/svg11.dtd" >
<svg xmlns="http://www.w3.org/2000/svg">
    <defs>
        <font id="Aileron-UltraLight">
            <font-face font-family="Aileron-UltraLight"
                       units-per-em="1000"
                       ascent="970"
                       descent="-230"
                       bbox="-200 -223 1080 895"
                    />
            <missing-glyph horiz-adv-x="0" />
            
            <glyph glyph-name="!" unicode="&#x21;" horiz-adv-x="121" d=" M111,110 L91,110 L87,690 L115,690 M93,26 Q109,26 115,20 Q121,14 121,6 Q121,-2 115,-8 Q109,-14 101,-14 Q93,-14 87,-8 Q81,-2 81,6 Q81,14 93,26"/> 
            <glyph glyph-name="&quot;" unicode="&#x22;" horiz-adv-x="115" d=" M40,491 L24,491 L21,735 L43,735 M112,491 L96,491 L93,735 L115,735"/> 
            <glyph glyph-name="#" unicode="&#x23;" horiz-adv-x="475" d=" M358,424 L325,266 L445,266 L445,245 L320,245 L268,0 L247,0 L299,245 L188,245 L136,0 L115,0 L167,245 L55,245 L55,266 L172,266 L205,424 L85,424 L85,445 L210,445 L262,690 L283,690 L231,445 L342,445 L394,690 L415,690 L363,445 L475,445 L475,424 M338,424 L227,424 L193,266 L304,266"/> 
            <glyph glyph-name="$" unicode="&#x24;" horiz-adv-x="479" d=" M286,683 L286,354 Q477,299 477,155 Q477,86 426.5,37.5 Q376,-11 286,-14 L286,-90 L264,-90 L264,-14 Q179,-10 120,39.5 Q61,89 52,180 L74,180 Q83,101 134.5,56 Q186,11 264,7 L264,333 Q180,358 131,401.5 Q82,445 82,525 Q82,602 133.5,650.5 Q185,699 264,704 L264,780 L286,780 L286,704 Q371,701 420,648.5 Q469,596 479,514 L457,514 Q447,592 402.5,636 Q358,680 286,683 M106,525 Q106,455 147,418 Q188,381 264,358 L264,683 Q198,679 152,638 Q106,597 106,525 M286,329 L286,7 Q364,9 408.5,49.5 Q453,90 453,153 Q453,219 411,261 Q369,303 286,329"/> 
            <glyph glyph-name="%" unicode="&#x25;" horiz-adv-x="628" d=" M140,704 Q258,704 292.5,659 Q327,614 327,545 Q327,477 292,431.5 Q257,386 199,386 Q141,386 106,431.5 Q71,477 71,545 Q71,614 140,704 M139,0 L113,0 L560,690 L586,690 M249,683 Q149,683 122,645 Q95,607 95,545 Q95,483 122,445 Q149,407 199,407 Q249,407 276,445 Q303,483 303,545 Q303,607 249,683 M441,304 Q559,304 593.5,259 Q628,214 628,145 Q628,77 593,31.5 Q558,-14 500,-14 Q442,-14 407,31.5 Q372,77 372,145 Q372,214 441,304 M550,283 Q450,283 423,245 Q396,207 396,145 Q396,83 423,45 Q450,7 500,7 Q550,7 577,45 Q604,83 604,145 Q604,207 550,283"/> 
            <glyph glyph-name="&amp;" unicode="&#x26;" horiz-adv-x="618" d=" M618,355 L618,334 L508,334 L508,1 Q422,-14 333,-14 Q203,-14 136.5,24 Q70,62 70,158 Q70,238 123.5,286 Q177,334 264,344 Q108,364 108,516 Q108,598 170.5,651 Q233,704 332,704 Q398,704 452,694 L452,672 Q396,683 329,683 Q243,683 187.5,638 Q132,593 132,517 Q132,365 315,356 Q335,355 376,355 L486,355 L486,507 L508,507 L508,355 M94,158 Q94,73 155.5,40 Q217,7 335,7 Q426,7 486,19 L486,334 L376,334 Q335,334 315,332 Q94,313 94,158"/> 
            <glyph glyph-name="'" unicode="&#x27;" horiz-adv-x="43" d=" M40,491 L24,491 L21,735 L43,735"/> 
            <glyph glyph-name="(" unicode="&#x28;" horiz-adv-x="259" d=" M237,780 L259,780 Q145,593 145,350 Q145,107 259,-80 L237,-80 Q184,0 152.5,116 Q121,232 121,350 Q121,468 152.5,584 Q184,700 237,780"/> 
            <glyph glyph-name=")" unicode="&#x29;" horiz-adv-x="172" d=" M34,780 L56,780 Q109,700 140.5,584 Q172,468 172,350 Q172,232 140.5,116 Q109,0 56,-80 L34,-80 Q148,107 148,350 Q148,593 34,780"/> 
            <glyph glyph-name="*" unicode="&#x2A;" horiz-adv-x="440" d=" M274,280 L433,337 L440,315 L280,263 L393,114 L373,100 L265,254 L157,100 L137,114 L250,263 L90,315 L97,337 L256,280 L253,474 L277,474"/> 
            <glyph glyph-name="+" unicode="&#x2B;" horiz-adv-x="465" d=" M465,307 L276,307 L276,87 L254,87 L254,307 L65,307 L65,328 L254,328 L254,548 L276,548 L276,328 L465,328"/> 
            <glyph glyph-name="," unicode="&#x2C;" horiz-adv-x="68" d=" M68,19 L17,-116 L-2,-116 L44,24 L67,24"/> 
            <glyph glyph-name="-" unicode="&#x2D;" horiz-adv-x="242" d=" M242,271 L32,271 L32,292 L242,292"/> 
            <glyph glyph-name="." unicode="&#x2E;" horiz-adv-x="80" d=" M52,26 Q68,26 74,20 Q80,14 80,6 Q80,-2 74,-8 Q68,-14 60,-14 Q52,-14 46,-8 Q40,-2 40,6 Q40,14 52,26"/> 
            <glyph glyph-name="/" unicode="&#x2F;" horiz-adv-x="268" d=" M17,-30 L-5,-30 L246,720 L268,720"/> 
            <glyph glyph-name="0" unicode="&#x30;" horiz-adv-x="494" d=" M147,704 Q383,704 438.5,608 Q494,512 494,345 Q494,177 438.5,81.5 Q383,-14 265,-14 Q147,-14 91.5,82 Q36,178 36,345 Q36,513 147,704 M265,7 Q470,7 470,345 Q470,500 421.5,591.5 Q373,683 265,683 Q60,683 60,345 Q60,190 108.5,98.5 Q157,7 265,7"/> 
            <glyph glyph-name="1" unicode="&#x31;" horiz-adv-x="349" d=" M349,690 L349,0 L327,0 L327,666 L137,548 L137,573 L296,673 Q323,690 338,690"/> 
            <glyph glyph-name="2" unicode="&#x32;" horiz-adv-x="481" d=" M481,21 L481,0 L40,0 L40,16 L279,248 Q379,346 415.5,402 Q452,458 452,516 Q452,589 407,636 Q362,683 283,683 Q206,683 153.5,632.5 Q101,582 93,498 L92,488 L70,488 L71,498 Q81,591 139.5,647.5 Q198,704 283,704 Q376,704 426,651 Q476,598 476,516 Q476,453 434,390 Q392,327 298,237 L74,21"/> 
            <glyph glyph-name="3" unicode="&#x33;" horiz-adv-x="488" d=" M328,357 Q404,345 446,302 Q488,259 488,183 Q488,93 425,39.5 Q362,-14 264,-14 Q172,-14 114,40 Q56,94 46,194 L45,204 L67,204 L68,194 Q77,110 127.5,58.5 Q178,7 264,7 Q352,7 408,53.5 Q464,100 464,183 Q464,255 412,299 Q360,343 256,343 L239,343 L239,364 L256,364 Q331,364 392,409.5 Q453,455 453,529 Q453,605 406.5,644 Q360,683 286,683 Q208,683 157.5,637 Q107,591 99,509 L98,499 L76,499 L77,509 Q86,600 144,652 Q202,704 287,704 Q377,704 427,655.5 Q477,607 477,531 Q477,467 435,419 Q393,371 328,357"/> 
            <glyph glyph-name="4" unicode="&#x34;" horiz-adv-x="504" d=" M504,200 L405,200 L405,0 L383,0 L383,200 L21,200 L21,216 L388,690 L405,690 L405,221 L504,221 M383,221 L383,656 Q335,589 293,535 L50,221"/> 
            <glyph glyph-name="5" unicode="&#x35;" horiz-adv-x="481" d=" M275,432 Q370,432 425.5,369.5 Q481,307 481,211 Q481,108 416,47 Q351,-14 257,-14 Q179,-14 120,34 Q61,82 51,178 L50,188 L72,188 L73,178 Q81,102 130,54.5 Q179,7 258,7 Q338,7 397.5,59.5 Q457,112 457,210 Q457,301 406,356 Q355,411 273,411 Q140,411 86,295 L64,295 L129,686 L479,686 L479,665 L148,665 L90,334 L128,383 Q193,432 275,432"/> 
            <glyph glyph-name="6" unicode="&#x36;" horiz-adv-x="495" d=" M275,458 Q378,458 436.5,389 Q495,320 495,219 Q495,121 430.5,53.5 Q366,-14 266,-14 Q43,-14 43,299 Q43,704 285,704 Q372,704 418,659 Q464,614 482,528 L484,518 L462,518 L460,528 Q429,683 285,683 Q240,683 204,667 Q168,651 135,611.5 Q102,572 83.5,494.5 Q65,417 63,304 L83,355 Q151,458 275,458 M175,7 Q359,7 415,68 Q471,129 471,218 Q471,314 416.5,375.5 Q362,437 273,437 Q188,437 129,379.5 Q70,322 70,236 Q70,137 175,7"/> 
            <glyph glyph-name="7" unicode="&#x37;" horiz-adv-x="497" d=" M497,690 L497,679 L133,0 L107,0 L467,669 L45,669 L45,690"/> 
            <glyph glyph-name="8" unicode="&#x38;" horiz-adv-x="491" d=" M344,359 Q416,342 453.5,294 Q491,246 491,175 Q491,86 425.5,35.5 Q360,-15 265,-15 Q165,-15 102,35 Q39,85 39,175 Q39,244 80,292.5 Q121,341 194,359 Q137,375 105,418.5 Q73,462 73,525 Q73,602 126.5,653 Q180,704 273,704 Q370,704 421.5,653.5 Q473,603 473,525 Q473,462 438.5,417.5 Q404,373 344,359 M97,525 Q97,449 149,409 Q201,369 273,369 Q345,369 397,409 Q449,449 449,525 Q449,598 401,640.5 Q353,683 273,683 Q193,683 145,640.5 Q97,598 97,525 M267,6 Q345,6 406,49.5 Q467,93 467,175 Q467,253 416,300.5 Q365,348 269,348 Q173,348 118,300 Q63,252 63,175 Q63,92 123.5,49 Q184,6 267,6"/> 
            <glyph glyph-name="9" unicode="&#x39;" horiz-adv-x="487" d=" M264,704 Q487,704 487,391 Q487,188 424.5,87 Q362,-14 246,-14 Q159,-14 112,31 Q65,76 48,162 L46,172 L68,172 L70,162 Q101,7 246,7 Q461,7 467,386 L447,335 Q379,232 255,232 Q152,232 93.5,301 Q35,370 35,471 Q35,569 99.5,636.5 Q164,704 264,704 M257,253 Q342,253 401,310.5 Q460,368 460,454 Q460,553 407.5,618 Q355,683 263,683 Q171,683 115,622 Q59,561 59,472 Q59,376 113.5,314.5 Q168,253 257,253"/> 
            <glyph glyph-name=":" unicode="&#x3A;" horiz-adv-x="80" d=" M52,540 Q68,540 74,534 Q80,528 80,520 Q80,512 74,506 Q68,500 60,500 Q52,500 46,506 Q40,512 40,520 Q40,528 52,540 M52,26 Q68,26 74,20 Q80,14 80,6 Q80,-2 74,-8 Q68,-14 60,-14 Q52,-14 46,-8 Q40,-2 40,6 Q40,14 52,26"/> 
            <glyph glyph-name=";" unicode="&#x3B;" horiz-adv-x="80" d=" M52,540 Q68,540 74,534 Q80,528 80,520 Q80,512 74,506 Q68,500 60,500 Q52,500 46,506 Q40,512 40,520 Q40,528 52,540 M68,19 L17,-116 L-2,-116 L44,24 L67,24"/> 
            <glyph glyph-name="&lt;" unicode="&#x3C;" horiz-adv-x="472" d=" M472,445 L101,265 L472,85 L472,60 L71,255 L71,275 L472,470"/> 
            <glyph glyph-name="=" unicode="&#x3D;" horiz-adv-x="475" d=" M475,397 L55,397 L55,418 L475,418 M475,217 L55,217 L55,238 L475,238"/> 
            <glyph glyph-name="&gt;" unicode="&#x3E;" horiz-adv-x="459" d=" M459,275 L459,255 L58,60 L58,85 L429,265 L58,445 L58,470"/> 
            <glyph glyph-name="?" unicode="&#x3F;" horiz-adv-x="450" d=" M259,704 Q350,704 400,654 Q450,604 450,526 Q450,427 357,339 Q290,275 270.5,231.5 Q251,188 251,110 L231,110 Q232,195 251.5,239 Q271,283 341,352 Q426,436 426,526 Q426,599 380.5,641 Q335,683 259,683 Q175,683 126.5,632 Q78,581 72,494 L50,494 Q54,587 111.5,645.5 Q169,704 259,704 M234,26 Q250,26 256,20 Q262,14 262,6 Q262,-2 256,-8 Q250,-14 242,-14 Q234,-14 228,-8 Q222,-2 222,6 Q222,14 234,26"/> 
            <glyph glyph-name="@" unicode="&#x40;" horiz-adv-x="797" d=" M599,465 L549,256 Q536,198 536,168 Q536,134 557.5,115 Q579,96 615,96 Q682,96 727.5,161.5 Q773,227 773,333 Q773,477 688,560 Q603,643 464,643 Q375,643 289.5,597 Q204,551 144.5,458 Q85,365 85,247 Q85,92 176,4.5 Q267,-83 395,-83 Q475,-83 536.5,-64 Q598,-45 669,4 L681,-15 Q602,-68 539,-86 Q476,-104 395,-104 Q332,-104 273,-82 Q214,-60 166,-18.5 Q118,23 89.5,91 Q61,159 61,244 Q61,339 97.5,420 Q134,501 192.5,553 Q251,605 323.5,634.5 Q396,664 470,664 Q616,664 706.5,573 Q797,482 797,338 Q797,215 743,145 Q689,75 613,75 Q570,75 541,98 Q512,121 512,173 L494,135 Q443,67 373,67 Q323,67 286.5,102 Q250,137 250,218 Q250,326 311.5,404.5 Q373,483 462,483 Q512,483 537,449 L558,397 L574,465 M532,279 L541,319 Q555,378 531.5,420 Q508,462 458,462 Q385,462 329.5,391.5 Q274,321 274,222 Q274,155 301.5,121.5 Q329,88 377,88 Q427,88 468,134 Q509,180 532,279"/> 
            <glyph glyph-name="A" unicode="&#x41;" horiz-adv-x="599" d=" M471,269 L162,269 L59,0 L36,0 L303,690 L332,690 L599,0 L575,0 M170,290 L462,290 L317,671"/> 
            <glyph glyph-name="B" unicode="&#x42;" horiz-adv-x="548" d=" M388,364 Q467,352 507.5,304 Q548,256 548,183 Q548,104 492.5,55.5 Q437,7 356,2 Q331,0 288,0 L96,0 L96,690 L270,690 Q313,690 348,688 Q427,683 474.5,639.5 Q522,596 522,525 Q522,460 486,417 Q450,374 388,364 M118,669 L118,372 L284,372 Q316,372 339,373 Q404,377 451,411.5 Q498,446 498,520 Q498,595 451,630 Q404,665 335,668 Q312,669 270,669 M349,22 Q422,27 473,66.5 Q524,106 524,182 Q524,250 483.5,298 Q443,346 350,350 Q327,351 298,351 L118,351 L118,21 L304,21 Q336,21 349,22"/> 
            <glyph glyph-name="C" unicode="&#x43;" horiz-adv-x="628" d=" M364,704 Q472,704 538,643.5 Q604,583 624,484 L626,474 L604,474 L602,484 Q584,573 521.5,628 Q459,683 360,683 Q244,683 159.5,592 Q75,501 75,344 Q75,181 154,94 Q233,7 352,7 Q458,7 521.5,65 Q585,123 604,217 L606,227 L628,227 L626,217 Q605,113 536,49.5 Q467,-14 350,-14 Q219,-14 135,82 Q51,178 51,343 Q51,502 140.5,603 Q230,704 364,704"/> 
            <glyph glyph-name="D" unicode="&#x44;" horiz-adv-x="641" d=" M368,688 Q402,685 437,673 Q472,661 509.5,634.5 Q547,608 575.5,571 Q604,534 622.5,476 Q641,418 641,348 Q641,278 623,220 Q605,162 577,124.5 Q549,87 513.5,60 Q478,33 445.5,20.5 Q413,8 383,4 Q348,0 295,0 L96,0 L96,690 L295,690 Q343,690 368,688 M380,25 Q423,30 463.5,52.5 Q504,75 539,113.5 Q574,152 595.5,213 Q617,274 617,348 Q617,425 593.5,487 Q570,549 532.5,586 Q495,623 452.5,643 Q410,663 367,667 Q345,669 295,669 L118,669 L118,21 L295,21 Q347,21 380,25"/> 
            <glyph glyph-name="E" unicode="&#x45;" horiz-adv-x="525" d=" M525,20 L525,0 L96,0 L96,690 L515,690 L515,670 L118,670 L118,355 L495,355 L495,335 L118,335 L118,20"/> 
            <glyph glyph-name="F" unicode="&#x46;" horiz-adv-x="515" d=" M118,670 L118,355 L485,355 L485,335 L118,335 L118,0 L96,0 L96,690 L515,690 L515,670"/> 
            <glyph glyph-name="G" unicode="&#x47;" horiz-adv-x="636" d=" M379,307 L634,307 L634,0 L612,0 L612,184 L592,119 Q552,51 488.5,18.5 Q425,-14 353,-14 Q220,-14 135.5,82 Q51,178 51,343 Q51,503 143,603.5 Q235,704 374,704 Q482,704 548,643.5 Q614,583 634,484 L636,474 L614,474 L612,484 Q594,573 531.5,628 Q469,683 370,683 Q249,683 162,592.5 Q75,502 75,344 Q75,180 154.5,93.5 Q234,7 355,7 Q398,7 440,21.5 Q482,36 522,66.5 Q562,97 587,154.5 Q612,212 612,287 L379,287"/> 
            <glyph glyph-name="H" unicode="&#x48;" horiz-adv-x="584" d=" M584,690 L584,0 L562,0 L562,328 L118,328 L118,0 L96,0 L96,690 L118,690 L118,349 L562,349 L562,690"/> 
            <glyph glyph-name="I" unicode="&#x49;" horiz-adv-x="118" d=" M118,0 L96,0 L96,690 L118,690"/> 
            <glyph glyph-name="J" unicode="&#x4A;" horiz-adv-x="429" d=" M429,690 L429,260 Q429,201 427,169 Q422,92 374.5,39 Q327,-14 239,-14 Q150,-14 101,38 Q52,90 48,194 L47,224 L69,224 L70,194 Q74,96 120,51.5 Q166,7 241,7 Q314,7 356,50 Q398,93 405,172 Q407,194 407,252 L407,690"/> 
            <glyph glyph-name="K" unicode="&#x4B;" horiz-adv-x="541" d=" M180,355 L535,0 L502,0 L163,341 L118,299 L118,0 L96,0 L96,690 L118,690 L118,324 L512,690 L541,690"/> 
            <glyph glyph-name="L" unicode="&#x4C;" horiz-adv-x="525" d=" M525,20 L525,0 L96,0 L96,690 L118,690 L118,20"/> 
            <glyph glyph-name="M" unicode="&#x4D;" horiz-adv-x="723" d=" M723,690 L723,0 L702,0 L702,400 Q702,630 703,673 Q645,525 592,400 L423,0 L395,0 L227,400 Q149,587 116,673 Q118,586 118,400 L118,0 L96,0 L96,690 L131,690 L410,21 L691,690"/> 
            <glyph glyph-name="N" unicode="&#x4E;" horiz-adv-x="566" d=" M566,0 L532,0 L116,670 Q118,577 118,375 L118,0 L96,0 L96,690 L129,690 L546,20 Q544,113 544,315 L544,690 L566,690"/> 
            <glyph glyph-name="O" unicode="&#x4F;" horiz-adv-x="675" d=" M223,704 Q503,704 589,603 Q675,502 675,345 Q675,189 588.5,87.5 Q502,-14 363,-14 Q224,-14 137.5,87.5 Q51,189 51,345 Q51,502 223,704 M242,7 Q484,7 567.5,98 Q651,189 651,345 Q651,502 567.5,592.5 Q484,683 363,683 Q242,683 158.5,592.5 Q75,502 75,345 Q75,189 242,7"/> 
            <glyph glyph-name="P" unicode="&#x50;" horiz-adv-x="515" d=" M348,685 Q424,675 469.5,631 Q515,587 515,504 Q515,418 469,370.5 Q423,323 348,313 Q308,308 249,308 L118,308 L118,0 L96,0 L96,690 L249,690 Q308,690 348,685 M344,334 Q411,342 451,384 Q491,426 491,504 Q491,577 451,616.5 Q411,656 344,664 Q304,669 249,669 L118,669 L118,329 L249,329 Q304,329 344,334"/> 
            <glyph glyph-name="Q" unicode="&#x51;" horiz-adv-x="675" d=" M675,345 Q675,123 510,24 Q555,23 586,9.5 Q617,-4 656,-35 L642,-52 Q574,2 501,2 Q476,2 434,-7 Q400,-14 363,-14 Q224,-14 137.5,87.5 Q51,189 51,345 Q51,502 137,603 Q223,704 363,704 Q503,704 589,603 Q675,502 675,345 M75,345 Q75,189 158.5,98 Q242,7 363,7 Q484,7 567.5,98 Q651,189 651,345 Q651,502 567.5,592.5 Q484,683 363,683 Q242,683 158.5,592.5 Q75,502 75,345"/> 
            <glyph glyph-name="R" unicode="&#x52;" horiz-adv-x="539" d=" M493,189 Q506,74 539,0 L513,0 Q481,95 470,184 Q462,249 431.5,291.5 Q401,334 342,337 Q320,338 279,338 L118,338 L118,0 L96,0 L96,690 L263,690 Q322,690 362,685 Q443,675 486,632.5 Q529,590 529,516 Q529,450 490.5,405 Q452,360 385,348 Q478,322 493,189 M118,359 L279,359 Q322,359 354,361 Q424,366 464.5,408 Q505,450 505,515 Q505,645 358,664 Q318,669 263,669 L118,669"/> 
            <glyph glyph-name="S" unicode="&#x53;" horiz-adv-x="507" d=" M284,704 Q376,704 430.5,650.5 Q485,597 495,514 L473,514 Q460,593 408.5,638 Q357,683 283,683 Q210,683 152.5,643 Q95,603 95,533 Q95,463 138.5,429 Q182,395 294,363 Q407,331 457,288 Q507,245 507,167 Q507,90 443,38 Q379,-14 283,-14 Q186,-14 117.5,35.5 Q49,85 39,180 L61,180 Q70,98 133,52.5 Q196,7 284,7 Q369,7 426,51.5 Q483,96 483,165 Q483,236 438.5,272.5 Q394,309 284,341 Q167,374 119,414.5 Q71,455 71,531 Q71,605 134,654.5 Q197,704 284,704"/> 
            <glyph glyph-name="T" unicode="&#x54;" horiz-adv-x="582" d=" M582,670 L318,670 L318,0 L296,0 L296,670 L32,670 L32,690 L582,690"/> 
            <glyph glyph-name="U" unicode="&#x55;" horiz-adv-x="534" d=" M534,690 L534,233 Q534,212 531,166 Q526,84 469.5,35 Q413,-14 312,-14 Q211,-14 154.5,35 Q98,84 93,166 Q90,212 90,233 L90,690 L112,690 L112,229 Q112,199 115,167 Q122,96 170.5,51.5 Q219,7 312,7 Q405,7 453.5,51.5 Q502,96 509,167 Q512,199 512,229 L512,690"/> 
            <glyph glyph-name="V" unicode="&#x56;" horiz-adv-x="590" d=" M323,0 L293,0 L26,690 L50,690 L308,19 L566,690 L590,690"/> 
            <glyph glyph-name="W" unicode="&#x57;" horiz-adv-x="826" d=" M826,690 L640,0 L612,0 L427,656 L228,0 L199,0 L26,690 L49,690 L215,22 L412,680 L442,680 L626,24 L804,690"/> 
            <glyph glyph-name="X" unicode="&#x58;" horiz-adv-x="562" d=" M304,345 L556,0 L526,0 L291,329 L56,0 L28,0 L276,344 L45,690 L70,690 L290,363 L533,690 L562,690"/> 
            <glyph glyph-name="Y" unicode="&#x59;" horiz-adv-x="536" d=" M290,282 L290,0 L268,0 L268,282 L23,690 L49,690 L280,305 L509,690 L536,690"/> 
            <glyph glyph-name="Z" unicode="&#x5A;" horiz-adv-x="512" d=" M512,21 L512,0 L36,0 L36,17 L480,669 L64,669 L64,690 L506,690 L506,670 L64,21"/> 
            <glyph glyph-name="[" unicode="&#x5B;" horiz-adv-x="285" d=" M285,780 L285,759 L154,759 L154,-59 L285,-59 L285,-80 L132,-80 L132,780"/> 
            <glyph glyph-name="\" unicode="&#x5C;" horiz-adv-x="268" d=" M268,-30 L246,-30 L-5,720 L17,720"/> 
            <glyph glyph-name="]" unicode="&#x5D;" horiz-adv-x="179" d=" M179,-80 L26,-80 L26,-59 L157,-59 L157,759 L26,759 L26,780 L179,780"/> 
            <glyph glyph-name="^" unicode="&#x5E;" horiz-adv-x="451" d=" M426,215 L267,595 L106,215 L82,215 L254,616 L281,616 L451,215"/> 
            <glyph glyph-name="_" unicode="&#x5F;" horiz-adv-x="450" d=" M450,-80 L50,-80 L50,-59 L450,-59"/> 
            <glyph glyph-name="`" unicode="&#x60;" horiz-adv-x="162" d=" M162,580 L143,580 L74,690 L102,690"/> 
            <glyph glyph-name="a" unicode="&#x61;" horiz-adv-x="432" d=" M409,0 L402,129 L379,76 Q323,-14 209,-14 Q132,-14 89.5,22 Q47,58 47,127 Q47,186 94,227 Q141,268 211,285.5 Q281,303 367,303 L401,303 L401,330 Q401,375 399,398 Q394,457 356.5,488 Q319,519 254,519 Q192,519 144.5,485 Q97,451 89,382 L67,382 Q72,449 124.5,494.5 Q177,540 254,540 Q330,540 373,504 Q416,468 421,401 Q423,374 423,332 L423,170 Q423,104 432,0 M212,7 Q294,7 347.5,67.5 Q401,128 401,209 L401,281 Q320,286 247,273 Q174,260 122.5,222.5 Q71,185 71,128 Q71,71 106.5,39 Q142,7 212,7"/> 
            <glyph glyph-name="b" unicode="&#x62;" horiz-adv-x="514" d=" M287,540 Q389,540 451.5,464 Q514,388 514,267 Q514,134 445,60 Q376,-14 275,-14 Q225,-14 190,2 Q155,18 122,54 L93,120 L93,0 L71,0 L71,735 L93,735 L93,406 L121,466 Q155,507 193.5,523.5 Q232,540 287,540 M275,7 Q370,7 430,78.5 Q490,150 490,263 Q490,372 435.5,445.5 Q381,519 285,519 Q199,519 146,464.5 Q93,410 93,288 L93,229 Q93,168 109.5,122.5 Q126,77 153.5,53 Q181,29 211.5,18 Q242,7 275,7"/> 
            <glyph glyph-name="c" unicode="&#x63;" horiz-adv-x="481" d=" M271,540 Q356,540 413,491.5 Q470,443 481,363 L459,363 Q446,436 397,478 Q348,520 269,520 Q186,520 120,453.5 Q54,387 54,268 Q54,142 116,74 Q178,6 265,6 Q335,6 387.5,46 Q440,86 455,157 L477,157 Q461,78 403,32 Q345,-14 263,-14 Q163,-14 96.5,60.5 Q30,135 30,263 Q30,387 99.5,463.5 Q169,540 271,540"/> 
            <glyph glyph-name="d" unicode="&#x64;" horiz-adv-x="473" d=" M473,735 L473,0 L451,0 L451,120 L423,60 Q389,19 350.5,2.5 Q312,-14 257,-14 Q155,-14 92.5,62 Q30,138 30,259 Q30,392 99,466 Q168,540 269,540 Q319,540 354,524 Q389,508 422,472 L451,406 L451,735 M259,7 Q345,7 398,61.5 Q451,116 451,238 L451,297 Q451,358 434.5,403.5 Q418,449 390.5,473 Q363,497 332.5,508 Q302,519 269,519 Q174,519 114,447.5 Q54,376 54,263 Q54,154 108.5,80.5 Q163,7 259,7"/> 
            <glyph glyph-name="e" unicode="&#x65;" horiz-adv-x="485" d=" M485,277 Q485,269 484,258 L53,258 Q56,131 116,69 Q176,7 258,7 Q325,7 379,46 Q433,85 455,161 L477,161 Q454,77 394,31.5 Q334,-14 256,-14 Q159,-14 94.5,59.5 Q30,133 30,265 Q30,387 97,463.5 Q164,540 264,540 Q370,540 427.5,462 Q485,384 485,277 M341,519 Q183,519 119.5,456.5 Q56,394 53,279 L463,279 Q460,404 341,519"/> 
            <glyph glyph-name="f" unicode="&#x66;" horiz-adv-x="222" d=" M106,656 Q104,634 104,606 L104,522 L211,522 L211,501 L104,501 L104,0 L82,0 L82,501 L25,501 L25,522 L82,522 L82,606 Q82,638 84,659 Q88,705 114.5,729.5 Q141,754 175,754 Q200,754 222,749 L222,728 Q167,741 138.5,720 Q110,699 106,656"/> 
            <glyph glyph-name="g" unicode="&#x67;" horiz-adv-x="473" d=" M473,530 L473,140 Q473,16 472,-18 Q469,-109 412,-164.5 Q355,-220 256,-220 Q176,-220 121,-182.5 Q66,-145 55,-62 L53,-47 L75,-47 L77,-62 Q86,-133 136,-166 Q186,-199 258,-199 Q348,-199 398,-147.5 Q448,-96 450,-11 Q451,24 451,100 L451,120 L423,60 Q389,19 350.5,2.5 Q312,-14 257,-14 Q155,-14 92.5,62 Q30,138 30,259 Q30,392 99,466 Q168,540 269,540 Q319,540 354,524 Q389,508 422,472 L451,406 L451,530 M259,7 Q345,7 398,61.5 Q451,116 451,238 L451,297 Q451,358 434.5,403.5 Q418,449 390.5,473 Q363,497 332.5,508 Q302,519 269,519 Q174,519 114,447.5 Q54,376 54,263 Q54,154 108.5,80.5 Q163,7 259,7"/> 
            <glyph glyph-name="h" unicode="&#x68;" horiz-adv-x="464" d=" M460,378 Q464,342 464,292 L464,0 L442,0 L442,283 Q442,334 438,370 Q430,440 390.5,479.5 Q351,519 279,519 Q201,519 147,465 Q93,411 93,312 L93,0 L71,0 L71,740 L93,740 L93,406 L114,458 Q172,540 279,540 Q358,540 405,498 Q452,456 460,378"/> 
            <glyph glyph-name="i" unicode="&#x69;" horiz-adv-x="102" d=" M74,653 Q90,653 96,647 Q102,641 102,633 Q102,625 96,619 Q90,613 82,613 Q74,613 68,619 Q62,625 62,633 Q62,641 74,653 M93,0 L71,0 L71,526 L93,526"/> 
            <glyph glyph-name="j" unicode="&#x6A;" horiz-adv-x="95" d=" M67,653 Q83,653 89,647 Q95,641 95,633 Q95,625 89,619 Q83,613 75,613 Q67,613 61,619 Q55,625 55,633 Q55,641 67,653 M86,526 L86,-73 Q86,-107 85,-125 Q83,-167 60,-188.5 Q37,-210 3,-210 Q-15,-210 -32,-206 L-32,-187 Q13,-195 37,-181.5 Q61,-168 63,-123 Q64,-109 64,-84 L64,526"/> 
            <glyph glyph-name="k" unicode="&#x6B;" horiz-adv-x="437" d=" M138,256 L93,215 L93,0 L71,0 L71,735 L93,735 L93,241 L403,526 L436,526 L156,271 L437,0 L404,0"/> 
            <glyph glyph-name="l" unicode="&#x6C;" horiz-adv-x="147" d=" M90,735 L90,120 Q90,65 91,51 Q92,26 104,19 Q116,12 147,16 L147,-3 Q137,-5 118,-5 Q72,-5 69,46 Q68,66 68,120 L68,735"/> 
            <glyph glyph-name="m" unicode="&#x6D;" horiz-adv-x="743" d=" M739,378 Q743,342 743,292 L743,0 L721,0 L721,283 Q721,334 717,370 Q700,520 580,520 Q510,520 464,464.5 Q418,409 418,302 L418,0 L396,0 L396,283 Q396,334 392,370 Q375,520 255,520 Q185,520 139,464.5 Q93,409 93,302 L93,0 L71,0 L71,526 L93,526 L93,414 L117,471 Q170,540 256,540 Q320,540 359,504.5 Q398,469 410,403 L442,471 Q495,540 581,540 Q651,540 691,498 Q731,456 739,378"/> 
            <glyph glyph-name="n" unicode="&#x6E;" horiz-adv-x="464" d=" M460,378 Q464,342 464,292 L464,0 L442,0 L442,283 Q442,334 438,370 Q430,440 390.5,479.5 Q351,519 279,519 Q201,519 147,465 Q93,411 93,312 L93,0 L71,0 L71,526 L93,526 L93,406 L114,458 Q172,540 279,540 Q358,540 405,498 Q452,456 460,378"/> 
            <glyph glyph-name="o" unicode="&#x6F;" horiz-adv-x="524" d=" M166,540 Q388,540 456,463.5 Q524,387 524,262 Q524,138 456,62 Q388,-14 277,-14 Q166,-14 98,62 Q30,138 30,262 Q30,387 166,540 M184,7 Q370,7 435,72.5 Q500,138 500,262 Q500,387 435,453 Q370,519 277,519 Q184,519 119,453 Q54,387 54,262 Q54,138 184,7"/> 
            <glyph glyph-name="p" unicode="&#x70;" horiz-adv-x="514" d=" M287,540 Q389,540 451.5,464 Q514,388 514,267 Q514,134 445,60 Q376,-14 275,-14 Q225,-14 190,2 Q155,18 122,54 L93,120 L93,-196 L71,-196 L71,534 L93,534 L93,406 L121,466 Q155,507 193.5,523.5 Q232,540 287,540 M275,7 Q370,7 430,78.5 Q490,150 490,263 Q490,372 435.5,445.5 Q381,519 285,519 Q199,519 146,464.5 Q93,410 93,288 L93,229 Q93,168 109.5,122.5 Q126,77 153.5,53 Q181,29 211.5,18 Q242,7 275,7"/> 
            <glyph glyph-name="q" unicode="&#x71;" horiz-adv-x="474" d=" M474,534 L474,-196 L452,-196 L452,122 L423,60 Q389,19 350.5,2.5 Q312,-14 257,-14 Q155,-14 92.5,62 Q30,138 30,259 Q30,392 99,466 Q168,540 269,540 Q319,540 354,524 Q389,508 422,472 L452,404 L452,534 M452,227 L452,303 L451,297 Q451,358 434.5,403.5 Q418,449 390.5,473 Q363,497 332.5,508 Q302,519 269,519 Q174,519 114,447.5 Q54,376 54,263 Q54,154 108.5,80.5 Q163,7 259,7 Q345,7 398,61.5 Q451,116 451,238"/> 
            <glyph glyph-name="r" unicode="&#x72;" horiz-adv-x="256" d=" M233,540 Q249,540 256,539 L256,519 Q180,525 136.5,469 Q93,413 93,288 L93,0 L71,0 L71,526 L93,526 L93,413 L114,473 Q159,540 233,540"/> 
            <glyph glyph-name="s" unicode="&#x73;" horiz-adv-x="398" d=" M215,540 Q293,540 337.5,496.5 Q382,453 393,383 L371,383 Q354,452 316,485.5 Q278,519 214,519 Q156,519 115,486.5 Q74,454 74,399 Q74,347 110.5,320 Q147,293 217,277 Q312,256 355,222 Q398,188 398,124 Q398,62 348.5,24 Q299,-14 221,-14 Q142,-14 88.5,28 Q35,70 26,156 L48,156 Q71,7 223,7 Q288,7 331.5,37.5 Q375,68 375,123 Q375,177 338.5,205.5 Q302,234 207,256 Q135,273 93,305 Q51,337 51,398 Q51,459 97,499.5 Q143,540 215,540"/> 
            <glyph glyph-name="t" unicode="&#x74;" horiz-adv-x="219" d=" M114,71 Q117,31 139.5,18.5 Q162,6 219,14 L219,-4 Q200,-7 169,-7 Q99,-7 93,61 Q91,85 91,132 L91,504 L28,504 L28,522 L91,522 L91,630 L113,630 L113,522 L216,522 L216,504 L113,504 L113,128 Q113,85 114,71"/> 
            <glyph glyph-name="u" unicode="&#x75;" horiz-adv-x="455" d=" M455,526 L455,0 L433,0 L433,120 L412,68 Q354,-14 247,-14 Q168,-14 121,28 Q74,70 66,148 Q62,184 62,234 L62,526 L84,526 L84,243 Q84,192 88,156 Q96,86 135.5,46.5 Q175,7 247,7 Q325,7 379,61 Q433,115 433,214 L433,526"/> 
            <glyph glyph-name="v" unicode="&#x76;" horiz-adv-x="460" d=" M460,526 L252,0 L221,0 L13,526 L38,526 L237,19 L435,526"/> 
            <glyph glyph-name="w" unicode="&#x77;" horiz-adv-x="708" d=" M708,526 L542,0 L514,0 L364,499 L214,0 L180,0 L13,526 L38,526 L197,22 L348,524 L379,524 L530,25 L684,526"/> 
            <glyph glyph-name="x" unicode="&#x78;" horiz-adv-x="404" d=" M218,264 L404,0 L376,0 L205,249 L30,0 L3,0 L190,264 L11,526 L37,526 L205,280 L377,526 L404,526"/> 
            <glyph glyph-name="y" unicode="&#x79;" horiz-adv-x="449" d=" M449,526 L246,0 Q212,-89 182.5,-136.5 Q153,-184 130,-197 Q107,-210 75,-210 Q55,-210 40,-206 L40,-186 Q57,-190 79,-190 Q112,-190 141,-160 Q170,-130 202,-52 L219,-10 L13,526 L38,526 L231,18 L424,526"/> 
            <glyph glyph-name="z" unicode="&#x7A;" horiz-adv-x="422" d=" M422,19 L422,0 L13,0 L13,18 L390,497 L40,497 L40,518 L419,518 L419,498 L41,19"/> 
            <glyph glyph-name="{" unicode="&#x7B;" horiz-adv-x="284" d=" M284,759 L266,759 Q160,759 160,670 Q160,652 170,575 Q181,494 181,455 Q181,369 107,351 Q147,341 164,310.5 Q181,280 181,245 Q181,206 170,125 Q160,48 160,30 Q160,-59 266,-59 L284,-59 L284,-80 L267,-80 Q138,-80 138,31 Q138,60 149,135 Q159,208 159,245 Q159,282 139.5,308.5 Q120,335 78,339 L78,361 Q120,365 139.5,391.5 Q159,418 159,455 Q159,492 149,565 Q138,640 138,669 Q138,780 267,780 L284,780"/> 
            <glyph glyph-name="|" unicode="&#x7C;" horiz-adv-x="136" d=" M136,-200 L114,-200 L114,800 L136,800"/> 
            <glyph glyph-name="}" unicode="&#x7D;" horiz-adv-x="218" d=" M137,492 Q137,418 156.5,391.5 Q176,365 218,361 L218,339 Q176,335 156.5,308.5 Q137,282 137,245 Q137,208 147,135 Q158,60 158,31 Q158,-80 29,-80 L12,-80 L12,-59 L30,-59 Q136,-59 136,30 Q136,48 126,125 Q115,206 115,245 Q115,331 189,349 Q149,359 132,389.5 Q115,420 115,455 Q115,494 126,575 Q136,652 136,670 Q136,759 30,759 L12,759 L12,780 L29,780 Q158,780 158,669 Q158,640 147,565"/> 
            <glyph glyph-name="~" unicode="&#x7E;" horiz-adv-x="475" d=" M454,350 L475,350 Q475,233 388,233 Q360,233 336.5,241.5 Q313,250 259,280 Q211,307 187.5,316 Q164,325 141,325 Q77,325 77,229 L56,229 Q56,346 142,346 Q170,346 194,337.5 Q218,329 272,299 Q321,272 344,263 Q367,254 389,254 Q454,254 454,350"/> 
            <glyph glyph-name="¡" unicode="&#xA1;" horiz-adv-x="121" d=" M109,504 Q93,504 87,510 Q81,516 81,524 Q81,532 87,538 Q93,544 101,544 Q109,544 115,538 Q121,532 121,524 Q121,516 109,504 M91,420 L111,420 L115,-160 L87,-160"/> 
            <glyph glyph-name="¢" unicode="&#xA2;" horiz-adv-x="494" d=" M287,524 L287,6 Q355,9 404.5,49 Q454,89 468,157 L490,157 Q475,81 420,35 Q365,-11 287,-14 L287,-90 L265,-90 L265,-14 Q169,-9 106,66 Q43,141 43,265 Q43,383 106.5,459 Q170,535 265,543 L265,620 L287,620 L287,544 Q370,543 426.5,494.5 Q483,446 494,367 L472,367 Q459,439 411.5,481 Q364,523 287,524 M67,270 Q67,149 125,80.5 Q183,12 265,6 L265,523 Q186,516 126.5,449 Q67,382 67,270"/> 
            <glyph glyph-name="£" unicode="&#xA3;" horiz-adv-x="474" d=" M474,21 L474,0 L55,0 L55,20 Q120,39 165.5,86 Q211,133 211,205 Q211,268 159,352 L64,352 L64,373 L146,373 Q99,450 99,524 Q99,603 152,653.5 Q205,704 285,704 Q374,704 420.5,651 Q467,598 473,508 L451,508 Q446,593 403,638 Q360,683 283,683 Q217,683 170,639 Q123,595 123,525 Q123,456 173,373 L408,373 L408,352 L186,352 Q235,276 235,205 Q235,80 106,21"/> 
            <glyph glyph-name="¤" unicode="&#xA4;" horiz-adv-x="455" d=" M441,373 Q441,229 398,180 L455,123 L439,107 L382,164 Q333,121 265,121 Q197,121 148,164 L91,107 L75,123 L132,180 Q89,229 89,301 Q89,373 132,422 L75,479 L91,495 L148,438 Q197,481 265,481 Q333,481 382,438 L439,495 L455,479 L398,422 M199,142 Q331,142 374,187.5 Q417,233 417,301 Q417,369 374,414.5 Q331,460 265,460 Q199,460 156,414.5 Q113,369 113,301 Q113,233 199,142"/> 
            <glyph glyph-name="¥" unicode="&#xA5;" horiz-adv-x="507" d=" M287,342 L460,342 L460,321 L276,321 L276,242 L460,242 L460,221 L276,221 L276,0 L254,0 L254,221 L70,221 L70,242 L254,242 L254,321 L70,321 L70,342 L242,342 L21,690 L51,690 L265,345 L479,690 L507,690"/> 
            <glyph glyph-name="¦" unicode="&#xA6;" horiz-adv-x="136" d=" M136,350 L114,350 L114,690 L136,690 M136,-160 L114,-160 L114,180 L136,180"/> 
            <glyph glyph-name="§" unicode="&#xA7;" horiz-adv-x="499" d=" M499,259 Q499,193 455.5,154 Q412,115 344,104 Q399,81 423.5,47 Q448,13 448,-37 Q448,-99 397.5,-136.5 Q347,-174 269,-174 Q110,-174 74,-9 L96,-9 Q132,-153 271,-153 Q336,-153 380,-122 Q424,-91 424,-39 Q424,20 383.5,54 Q343,88 231,112 Q158,128 103.5,170 Q49,212 49,278 Q49,343 89.5,381.5 Q130,420 194,432 Q99,473 99,562 Q99,627 144,665.5 Q189,704 262,704 Q340,704 384,662 Q428,620 442,549 L420,549 Q386,683 261,683 Q203,683 163,652 Q123,621 123,565 Q123,458 291,428 Q499,390 499,259 M303,119 Q372,120 423.5,155 Q475,190 475,257 Q475,315 426.5,351 Q378,387 280,406 Q263,409 227,419 Q163,413 118,380.5 Q73,348 73,281 Q73,224 122,186 Q171,148 241,134 Q273,128 303,119"/> 
            <glyph glyph-name="¨" unicode="&#xA8;" horiz-adv-x="210" d=" M102,653 Q118,653 124,647 Q130,641 130,633 Q130,625 124,619 Q118,613 110,613 Q102,613 96,619 Q90,625 90,633 Q90,641 102,653 M182,653 Q198,653 204,647 Q210,641 210,633 Q210,625 204,619 Q198,613 190,613 Q182,613 176,619 Q170,625 170,633 Q170,641 182,653"/> 
            <glyph glyph-name="©" unicode="&#xA9;" horiz-adv-x="782" d=" M267,726 Q571,726 676.5,618 Q782,510 782,355 Q782,200 676.5,92 Q571,-16 419,-16 Q267,-16 161.5,92 Q56,200 56,355 Q56,510 267,726 M561,704 Q277,704 177.5,602.5 Q78,501 78,355 Q78,210 177,108.5 Q276,7 419,7 Q562,7 661,108.5 Q760,210 760,355 Q760,501 561,704 M422,564 Q487,564 531.5,528.5 Q576,493 585,426 L563,426 Q552,481 516.5,512 Q481,543 422,543 Q351,543 308,488 Q265,433 265,356 Q265,276 308,223 Q351,170 418,170 Q537,170 562,286 L584,286 Q571,218 526.5,183.5 Q482,149 415,149 Q343,149 293,205.5 Q243,262 243,355 Q243,450 294.5,507 Q346,564 422,564"/> 
            <glyph glyph-name="«" unicode="&#xAB;" horiz-adv-x="425" d=" M305,414 L168,248 L305,82 L276,82 L139,248 L276,414 M425,414 L288,248 L425,82 L396,82 L259,248 L396,414"/> 
            <glyph glyph-name="¬" unicode="&#xAC;" horiz-adv-x="437" d=" M437,210 L415,210 L415,344 L86,344 L86,365 L437,365"/> 
            <glyph glyph-name="®" unicode="&#xAE;" horiz-adv-x="471" d=" M169,764 Q353,764 412,705.5 Q471,647 471,555 Q471,462 412,403 Q353,344 261,344 Q169,344 110,403 Q51,462 51,555 Q51,647 169,764 M179,365 Q343,365 395.5,418.5 Q448,472 448,555 Q448,638 395.5,690.5 Q343,743 261,743 Q179,743 126.5,690.5 Q74,638 74,555 Q74,472 179,365 M291,549 Q313,540 317,510 Q322,476 335,456 L311,456 Q301,476 296,507 Q291,537 264,537 L223,537 L223,456 L203,456 L203,660 L253,660 Q267,660 276,659 Q332,652 332,600 Q332,560 291,549 M223,556 L251,556 Q268,556 274,557 Q311,563 311,597 Q311,634 275,640 Q269,641 259,641 L223,641"/> 
            <glyph glyph-name="¯" unicode="&#xAF;" horiz-adv-x="220" d=" M220,620 L80,620 L80,641 L220,641"/> 
            <glyph glyph-name="°" unicode="&#xB0;" horiz-adv-x="240" d=" M94,704 Q182,704 211,675.5 Q240,647 240,603 Q240,559 211,530.5 Q182,502 138,502 Q94,502 65,530.5 Q36,559 36,603 Q36,647 94,704 M173,683 Q103,683 81,661 Q59,639 59,603 Q59,567 81,545 Q103,523 138,523 Q173,523 195,545 Q217,567 217,603 Q217,639 173,683"/> 
            <glyph glyph-name="±" unicode="&#xB1;" horiz-adv-x="450" d=" M261,328 L450,328 L450,307 L261,307 L261,97 L239,97 L239,307 L50,307 L50,328 L239,328 L239,538 L261,538 M450,0 L50,0 L50,21 L450,21"/> 
            <glyph glyph-name="´" unicode="&#xB4;" horiz-adv-x="226" d=" M157,580 L138,580 L198,690 L226,690"/> 
            <glyph glyph-name="¶" unicode="&#xB6;" horiz-adv-x="458" d=" M458,690 L458,-110 L436,-110 L436,669 L308,669 L308,-110 L286,-110 L286,320 L263,320 Q224,320 207,321 Q133,325 91.5,377.5 Q50,430 50,505 Q50,580 91.5,632.5 Q133,685 207,689 Q224,690 263,690"/> 
            <glyph glyph-name="·" unicode="&#xB7;" horiz-adv-x="90" d=" M46,327 Q90,327 90,305 Q90,283 68,283 Q46,283 46,327"/> 
            <glyph glyph-name="¸" unicode="&#xB8;" horiz-adv-x="222" d=" M165,7 L134,-51 Q222,-59 222,-128 Q222,-168 192,-189 Q162,-210 121,-210 Q88,-210 68,-200 L68,-178 Q89,-189 121,-189 Q156,-189 177.5,-173.5 Q199,-158 199,-128 Q199,-65 101,-69 L140,7"/> 
            <glyph glyph-name="»" unicode="&#xBB;" horiz-adv-x="363" d=" M243,248 L106,82 L77,82 L214,248 L77,414 L106,414 M363,248 L226,82 L197,82 L334,248 L197,414 L226,414"/> 
            <glyph glyph-name="¿" unicode="&#xBF;" horiz-adv-x="472" d=" M288,499 Q272,499 266,505 Q260,511 260,519 Q260,527 266,533 Q272,539 280,539 Q288,539 294,533 Q300,527 300,519 Q300,511 288,499 M263,-179 Q172,-179 122,-128.5 Q72,-78 72,-1 Q72,98 165,186 Q232,250 251.5,293.5 Q271,337 271,415 L291,415 Q290,330 270.5,286 Q251,242 181,173 Q96,89 96,-1 Q96,-74 141.5,-116 Q187,-158 263,-158 Q347,-158 395.5,-107 Q444,-56 450,31 L472,31 Q468,-62 410.5,-120.5 Q353,-179 263,-179"/> 
            <glyph glyph-name="À" unicode="&#xC0;" horiz-adv-x="599" d=" M307,736 L245,830 L273,830 L326,736 M471,269 L162,269 L59,0 L36,0 L303,690 L332,690 L599,0 L575,0 M170,290 L462,290 L317,671"/> 
            <glyph glyph-name="Á" unicode="&#xC1;" horiz-adv-x="599" d=" M324,736 L305,736 L358,830 L386,830 M471,269 L162,269 L59,0 L36,0 L303,690 L332,690 L599,0 L575,0 M170,290 L462,290 L317,671"/> 
            <glyph glyph-name="Â" unicode="&#xC2;" horiz-adv-x="599" d=" M264,736 L241,736 L306,830 L329,830 L394,736 L370,736 L317,816 M471,269 L162,269 L59,0 L36,0 L303,690 L332,690 L599,0 L575,0 M170,290 L462,290 L317,671"/> 
            <glyph glyph-name="Ã" unicode="&#xC3;" horiz-adv-x="599" d=" M265,786 Q249,786 249,765 L229,765 Q229,806 265,806 Q283,806 322,793 Q358,781 369,781 Q385,781 385,802 L405,802 Q405,761 369,761 Q351,761 312,774 Q276,786 265,786 M471,269 L162,269 L59,0 L36,0 L303,690 L332,690 L599,0 L575,0 M170,290 L462,290 L317,671"/> 
            <glyph glyph-name="Ä" unicode="&#xC4;" horiz-adv-x="599" d=" M290,763 Q274,763 268,769 Q262,775 262,783 Q262,791 268,797 Q274,803 282,803 Q290,803 296,797 Q302,791 302,783 Q302,775 290,763 M360,763 Q344,763 338,769 Q332,775 332,783 Q332,791 338,797 Q344,803 352,803 Q360,803 366,797 Q372,791 372,783 Q372,775 360,763 M471,269 L162,269 L59,0 L36,0 L303,690 L332,690 L599,0 L575,0 M170,290 L462,290 L317,671"/> 
            <glyph glyph-name="Å" unicode="&#xC5;" horiz-adv-x="599" d=" M343,722 Q291,722 272.5,738.5 Q254,755 254,783 Q254,811 272.5,827.5 Q291,844 317,844 Q343,844 361.5,827.5 Q380,811 380,783 Q380,755 343,722 M335,823 Q299,823 288.5,811.5 Q278,800 278,783 Q278,766 288.5,754.5 Q299,743 317,743 Q335,743 345.5,754.5 Q356,766 356,783 Q356,800 335,823 M471,269 L162,269 L59,0 L36,0 L303,690 L332,690 L599,0 L575,0 M170,290 L462,290 L317,671"/> 
            <glyph glyph-name="Æ" unicode="&#xC6;" horiz-adv-x="865" d=" M865,20 L865,0 L463,0 L451,269 L184,269 L16,0 L-10,0 L424,690 L855,690 L855,670 L456,670 L470,355 L835,355 L835,335 L470,335 L484,20 M451,290 L434,668 L198,290"/> 
            <glyph glyph-name="Ç" unicode="&#xC7;" horiz-adv-x="628" d=" M628,227 L626,217 Q606,116 540.5,53 Q475,-10 364,-14 L344,-51 Q432,-59 432,-128 Q432,-168 402,-189 Q372,-210 331,-210 Q298,-210 278,-200 L278,-178 Q299,-189 331,-189 Q366,-189 387.5,-173.5 Q409,-158 409,-128 Q409,-65 311,-69 L339,-14 Q212,-9 131.5,86.5 Q51,182 51,343 Q51,502 140.5,603 Q230,704 364,704 Q472,704 538,643.5 Q604,583 624,484 L626,474 L604,474 L602,484 Q584,573 521.5,628 Q459,683 360,683 Q244,683 159.5,592 Q75,501 75,344 Q75,181 154,94 Q233,7 352,7 Q458,7 521.5,65 Q585,123 604,217 L606,227"/> 
            <glyph glyph-name="È" unicode="&#xC8;" horiz-adv-x="525" d=" M280,736 L218,830 L246,830 L299,736 M525,20 L525,0 L96,0 L96,690 L515,690 L515,670 L118,670 L118,355 L495,355 L495,335 L118,335 L118,20"/> 
            <glyph glyph-name="É" unicode="&#xC9;" horiz-adv-x="525" d=" M297,736 L278,736 L331,830 L359,830 M525,20 L525,0 L96,0 L96,690 L515,690 L515,670 L118,670 L118,355 L495,355 L495,335 L118,335 L118,20"/> 
            <glyph glyph-name="Ê" unicode="&#xCA;" horiz-adv-x="525" d=" M237,736 L214,736 L279,830 L302,830 L367,736 L343,736 L290,816 M525,20 L525,0 L96,0 L96,690 L515,690 L515,670 L118,670 L118,355 L495,355 L495,335 L118,335 L118,20"/> 
            <glyph glyph-name="Ë" unicode="&#xCB;" horiz-adv-x="525" d=" M263,763 Q247,763 241,769 Q235,775 235,783 Q235,791 241,797 Q247,803 255,803 Q263,803 269,797 Q275,791 275,783 Q275,775 263,763 M333,763 Q317,763 311,769 Q305,775 305,783 Q305,791 311,797 Q317,803 325,803 Q333,803 339,797 Q345,791 345,783 Q345,775 333,763 M525,20 L525,0 L96,0 L96,690 L515,690 L515,670 L118,670 L118,355 L495,355 L495,335 L118,335 L118,20"/> 
            <glyph glyph-name="Ì" unicode="&#xCC;" horiz-adv-x="118" d=" M116,736 L97,736 L35,830 L63,830 M118,0 L96,0 L96,690 L118,690"/> 
            <glyph glyph-name="Í" unicode="&#xCD;" horiz-adv-x="176" d=" M114,736 L95,736 L148,830 L176,830 M118,0 L96,0 L96,690 L118,690"/> 
            <glyph glyph-name="Î" unicode="&#xCE;" horiz-adv-x="184" d=" M184,736 L160,736 L107,816 L54,736 L31,736 L96,830 L119,830 M96,690 L118,690 L118,0 L96,0"/> 
            <glyph glyph-name="Ï" unicode="&#xCF;" horiz-adv-x="162" d=" M64,803 Q80,803 86,797 Q92,791 92,783 Q92,775 86,769 Q80,763 72,763 Q64,763 58,769 Q52,775 52,783 Q52,791 64,803 M134,803 Q150,803 156,797 Q162,791 162,783 Q162,775 156,769 Q150,763 142,763 Q134,763 128,769 Q122,775 122,783 Q122,791 134,803 M118,0 L96,0 L96,690 L118,690"/> 
            <glyph glyph-name="Ð" unicode="&#xD0;" horiz-adv-x="647" d=" M374,688 Q408,685 443,673 Q478,661 515.5,634.5 Q553,608 581.5,571 Q610,534 628.5,476 Q647,418 647,348 Q647,278 629,220 Q611,162 583,124.5 Q555,87 519.5,60 Q484,33 451.5,20.5 Q419,8 389,4 Q354,0 301,0 L102,0 L102,323 L42,323 L42,344 L102,344 L102,690 L301,690 Q349,690 374,688 M386,25 Q429,30 469.5,52.5 Q510,75 545,113.5 Q580,152 601.5,213 Q623,274 623,348 Q623,425 599.5,487 Q576,549 538.5,586 Q501,623 458.5,643 Q416,663 373,667 Q351,669 301,669 L124,669 L124,344 L308,344 L308,323 L124,323 L124,21 L301,21 Q353,21 386,25"/> 
            <glyph glyph-name="Ñ" unicode="&#xD1;" horiz-adv-x="566" d=" M279,806 Q297,806 336,793 Q372,781 383,781 Q399,781 399,802 L419,802 Q419,761 383,761 Q365,761 326,774 Q290,786 279,786 Q263,786 263,765 L243,765 Q243,806 279,806 M566,0 L532,0 L116,670 Q118,577 118,375 L118,0 L96,0 L96,690 L129,690 L546,20 Q544,113 544,315 L544,690 L566,690"/> 
            <glyph glyph-name="Ò" unicode="&#xD2;" horiz-adv-x="675" d=" M353,736 L291,830 L319,830 L372,736 M223,704 Q503,704 589,603 Q675,502 675,345 Q675,189 588.5,87.5 Q502,-14 363,-14 Q224,-14 137.5,87.5 Q51,189 51,345 Q51,502 223,704 M242,7 Q484,7 567.5,98 Q651,189 651,345 Q651,502 567.5,592.5 Q484,683 363,683 Q242,683 158.5,592.5 Q75,502 75,345 Q75,189 242,7"/> 
            <glyph glyph-name="Ó" unicode="&#xD3;" horiz-adv-x="675" d=" M370,736 L351,736 L404,830 L432,830 M223,704 Q503,704 589,603 Q675,502 675,345 Q675,189 588.5,87.5 Q502,-14 363,-14 Q224,-14 137.5,87.5 Q51,189 51,345 Q51,502 223,704 M242,7 Q484,7 567.5,98 Q651,189 651,345 Q651,502 567.5,592.5 Q484,683 363,683 Q242,683 158.5,592.5 Q75,502 75,345 Q75,189 242,7"/> 
            <glyph glyph-name="Ô" unicode="&#xD4;" horiz-adv-x="675" d=" M310,736 L287,736 L352,830 L375,830 L440,736 L416,736 L363,816 M223,704 Q503,704 589,603 Q675,502 675,345 Q675,189 588.5,87.5 Q502,-14 363,-14 Q224,-14 137.5,87.5 Q51,189 51,345 Q51,502 223,704 M242,7 Q484,7 567.5,98 Q651,189 651,345 Q651,502 567.5,592.5 Q484,683 363,683 Q242,683 158.5,592.5 Q75,502 75,345 Q75,189 242,7"/> 
            <glyph glyph-name="Õ" unicode="&#xD5;" horiz-adv-x="675" d=" M311,786 Q295,786 295,765 L275,765 Q275,806 311,806 Q329,806 368,793 Q404,781 415,781 Q431,781 431,802 L451,802 Q451,761 415,761 Q397,761 358,774 Q322,786 311,786 M223,704 Q503,704 589,603 Q675,502 675,345 Q675,189 588.5,87.5 Q502,-14 363,-14 Q224,-14 137.5,87.5 Q51,189 51,345 Q51,502 223,704 M242,7 Q484,7 567.5,98 Q651,189 651,345 Q651,502 567.5,592.5 Q484,683 363,683 Q242,683 158.5,592.5 Q75,502 75,345 Q75,189 242,7"/> 
            <glyph glyph-name="Ö" unicode="&#xD6;" horiz-adv-x="675" d=" M336,763 Q320,763 314,769 Q308,775 308,783 Q308,791 314,797 Q320,803 328,803 Q336,803 342,797 Q348,791 348,783 Q348,775 336,763 M406,763 Q390,763 384,769 Q378,775 378,783 Q378,791 384,797 Q390,803 398,803 Q406,803 412,797 Q418,791 418,783 Q418,775 406,763 M223,704 Q503,704 589,603 Q675,502 675,345 Q675,189 588.5,87.5 Q502,-14 363,-14 Q224,-14 137.5,87.5 Q51,189 51,345 Q51,502 223,704 M242,7 Q484,7 567.5,98 Q651,189 651,345 Q651,502 567.5,592.5 Q484,683 363,683 Q242,683 158.5,592.5 Q75,502 75,345 Q75,189 242,7"/> 
            <glyph glyph-name="×" unicode="&#xD7;" horiz-adv-x="431" d=" M280,313 L431,162 L416,147 L265,298 L114,147 L99,162 L250,313 L99,464 L114,479 L265,328 L416,479 L431,464"/> 
            <glyph glyph-name="Ø" unicode="&#xD8;" horiz-adv-x="679" d=" M679,646 L609,576 Q675,480 675,345 Q675,189 588.5,87.5 Q502,-14 363,-14 Q217,-14 130,97 L62,29 L47,44 L117,114 Q51,210 51,345 Q51,502 137,603 Q223,704 363,704 Q509,704 597,594 L664,661 M75,345 Q75,219 133,130 L580,577 Q499,683 363,683 Q242,683 158.5,592.5 Q75,502 75,345 M651,345 Q651,471 593,560 L146,113 Q229,7 363,7 Q484,7 567.5,98 Q651,189 651,345"/> 
            <glyph glyph-name="Ù" unicode="&#xD9;" horiz-adv-x="534" d=" M321,736 L302,736 L240,830 L268,830 M534,690 L534,233 Q534,212 531,166 Q526,84 469.5,35 Q413,-14 312,-14 Q211,-14 154.5,35 Q98,84 93,166 Q90,212 90,233 L90,690 L112,690 L112,229 Q112,199 115,167 Q122,96 170.5,51.5 Q219,7 312,7 Q405,7 453.5,51.5 Q502,96 509,167 Q512,199 512,229 L512,690"/> 
            <glyph glyph-name="Ú" unicode="&#xDA;" horiz-adv-x="534" d=" M319,736 L300,736 L353,830 L381,830 M534,690 L534,233 Q534,212 531,166 Q526,84 469.5,35 Q413,-14 312,-14 Q211,-14 154.5,35 Q98,84 93,166 Q90,212 90,233 L90,690 L112,690 L112,229 Q112,199 115,167 Q122,96 170.5,51.5 Q219,7 312,7 Q405,7 453.5,51.5 Q502,96 509,167 Q512,199 512,229 L512,690"/> 
            <glyph glyph-name="Û" unicode="&#xDB;" horiz-adv-x="534" d=" M259,736 L236,736 L301,830 L324,830 L389,736 L365,736 L312,816 M534,690 L534,233 Q534,212 531,166 Q526,84 469.5,35 Q413,-14 312,-14 Q211,-14 154.5,35 Q98,84 93,166 Q90,212 90,233 L90,690 L112,690 L112,229 Q112,199 115,167 Q122,96 170.5,51.5 Q219,7 312,7 Q405,7 453.5,51.5 Q502,96 509,167 Q512,199 512,229 L512,690"/> 
            <glyph glyph-name="Ü" unicode="&#xDC;" horiz-adv-x="534" d=" M269,803 Q285,803 291,797 Q297,791 297,783 Q297,775 291,769 Q285,763 277,763 Q269,763 263,769 Q257,775 257,783 Q257,791 269,803 M339,803 Q355,803 361,797 Q367,791 367,783 Q367,775 361,769 Q355,763 347,763 Q339,763 333,769 Q327,775 327,783 Q327,791 339,803 M534,690 L534,233 Q534,212 531,166 Q526,84 469.5,35 Q413,-14 312,-14 Q211,-14 154.5,35 Q98,84 93,166 Q90,212 90,233 L90,690 L112,690 L112,229 Q112,199 115,167 Q122,96 170.5,51.5 Q219,7 312,7 Q405,7 453.5,51.5 Q502,96 509,167 Q512,199 512,229 L512,690"/> 
            <glyph glyph-name="Ý" unicode="&#xDD;" horiz-adv-x="536" d=" M286,736 L267,736 L320,830 L348,830 M290,282 L290,0 L268,0 L268,282 L23,690 L49,690 L280,305 L509,690 L536,690"/> 
            <glyph glyph-name="Þ" unicode="&#xDE;" horiz-adv-x="515" d=" M348,567 Q515,545 515,396 Q515,314 469,269.5 Q423,225 348,215 Q308,210 249,210 L118,210 L118,0 L96,0 L96,690 L118,690 L118,572 L249,572 Q308,572 348,567 M344,236 Q491,254 491,396 Q491,528 344,546 Q304,551 249,551 L118,551 L118,231 L249,231 Q304,231 344,236"/> 
            <glyph glyph-name="ß" unicode="&#xDF;" horiz-adv-x="488" d=" M275,754 Q350,754 401.5,709.5 Q453,665 453,589 Q453,535 420,486 Q374,464 352.5,443.5 Q331,423 331,393 Q331,365 343.5,342 Q356,319 390,290 Q441,245 464.5,208 Q488,171 488,132 Q488,68 441.5,32 Q395,-4 312,-4 Q253,-4 204,6 L204,29 Q257,17 312,17 Q382,17 423,46.5 Q464,76 464,129 Q464,163 446,193 Q428,223 378,269 Q335,308 321,333.5 Q307,359 307,393 Q307,430 330.5,454 Q354,478 407,506 Q429,541 429,588 Q429,656 384.5,694.5 Q340,733 272,733 Q198,733 149.5,685 Q101,637 95,552 Q93,524 93,492 L93,0 L71,0 L71,490 Q71,518 73,554 Q78,647 134,700.5 Q190,754 275,754"/> 
            <glyph glyph-name="à" unicode="&#xE0;" horiz-adv-x="432" d=" M233,580 L164,690 L192,690 L252,580 M409,0 L402,129 L379,76 Q323,-14 209,-14 Q132,-14 89.5,22 Q47,58 47,127 Q47,186 94,227 Q141,268 211,285.5 Q281,303 367,303 L401,303 L401,330 Q401,375 399,398 Q394,457 356.5,488 Q319,519 254,519 Q192,519 144.5,485 Q97,451 89,382 L67,382 Q72,449 124.5,494.5 Q177,540 254,540 Q330,540 373,504 Q416,468 421,401 Q423,374 423,332 L423,170 Q423,104 432,0 M212,7 Q294,7 347.5,67.5 Q401,128 401,209 L401,281 Q320,286 247,273 Q174,260 122.5,222.5 Q71,185 71,128 Q71,71 106.5,39 Q142,7 212,7"/> 
            <glyph glyph-name="á" unicode="&#xE1;" horiz-adv-x="432" d=" M262,580 L243,580 L303,690 L331,690 M409,0 L402,129 L379,76 Q323,-14 209,-14 Q132,-14 89.5,22 Q47,58 47,127 Q47,186 94,227 Q141,268 211,285.5 Q281,303 367,303 L401,303 L401,330 Q401,375 399,398 Q394,457 356.5,488 Q319,519 254,519 Q192,519 144.5,485 Q97,451 89,382 L67,382 Q72,449 124.5,494.5 Q177,540 254,540 Q330,540 373,504 Q416,468 421,401 Q423,374 423,332 L423,170 Q423,104 432,0 M212,7 Q294,7 347.5,67.5 Q401,128 401,209 L401,281 Q320,286 247,273 Q174,260 122.5,222.5 Q71,185 71,128 Q71,71 106.5,39 Q142,7 212,7"/> 
            <glyph glyph-name="â" unicode="&#xE2;" horiz-adv-x="432" d=" M202,580 L179,580 L244,690 L267,690 L332,580 L308,580 L255,674 M409,0 L402,129 L379,76 Q323,-14 209,-14 Q132,-14 89.5,22 Q47,58 47,127 Q47,186 94,227 Q141,268 211,285.5 Q281,303 367,303 L401,303 L401,330 Q401,375 399,398 Q394,457 356.5,488 Q319,519 254,519 Q192,519 144.5,485 Q97,451 89,382 L67,382 Q72,449 124.5,494.5 Q177,540 254,540 Q330,540 373,504 Q416,468 421,401 Q423,374 423,332 L423,170 Q423,104 432,0 M212,7 Q294,7 347.5,67.5 Q401,128 401,209 L401,281 Q320,286 247,273 Q174,260 122.5,222.5 Q71,185 71,128 Q71,71 106.5,39 Q142,7 212,7"/> 
            <glyph glyph-name="ã" unicode="&#xE3;" horiz-adv-x="432" d=" M203,651 Q187,651 187,630 L167,630 Q167,671 203,671 Q221,671 260,658 Q296,646 307,646 Q323,646 323,667 L343,667 Q343,626 307,626 Q289,626 250,639 Q214,651 203,651 M409,0 L402,129 L379,76 Q323,-14 209,-14 Q132,-14 89.5,22 Q47,58 47,127 Q47,186 94,227 Q141,268 211,285.5 Q281,303 367,303 L401,303 L401,330 Q401,375 399,398 Q394,457 356.5,488 Q319,519 254,519 Q192,519 144.5,485 Q97,451 89,382 L67,382 Q72,449 124.5,494.5 Q177,540 254,540 Q330,540 373,504 Q416,468 421,401 Q423,374 423,332 L423,170 Q423,104 432,0 M212,7 Q294,7 347.5,67.5 Q401,128 401,209 L401,281 Q320,286 247,273 Q174,260 122.5,222.5 Q71,185 71,128 Q71,71 106.5,39 Q142,7 212,7"/> 
            <glyph glyph-name="ä" unicode="&#xE4;" horiz-adv-x="432" d=" M223,613 Q207,613 201,619 Q195,625 195,633 Q195,641 201,647 Q207,653 215,653 Q223,653 229,647 Q235,641 235,633 Q235,625 223,613 M303,613 Q287,613 281,619 Q275,625 275,633 Q275,641 281,647 Q287,653 295,653 Q303,653 309,647 Q315,641 315,633 Q315,625 303,613 M409,0 L402,129 L379,76 Q323,-14 209,-14 Q132,-14 89.5,22 Q47,58 47,127 Q47,186 94,227 Q141,268 211,285.5 Q281,303 367,303 L401,303 L401,330 Q401,375 399,398 Q394,457 356.5,488 Q319,519 254,519 Q192,519 144.5,485 Q97,451 89,382 L67,382 Q72,449 124.5,494.5 Q177,540 254,540 Q330,540 373,504 Q416,468 421,401 Q423,374 423,332 L423,170 Q423,104 432,0 M212,7 Q294,7 347.5,67.5 Q401,128 401,209 L401,281 Q320,286 247,273 Q174,260 122.5,222.5 Q71,185 71,128 Q71,71 106.5,39 Q142,7 212,7"/> 
            <glyph glyph-name="å" unicode="&#xE5;" horiz-adv-x="432" d=" M281,572 Q229,572 211,589 Q193,606 193,634 Q193,662 211,679 Q229,696 255,696 Q281,696 299,679 Q317,662 317,634 Q317,606 281,572 M273,675 Q237,675 226.5,663 Q216,651 216,634 Q216,617 226.5,605 Q237,593 255,593 Q273,593 283.5,605 Q294,617 294,634 Q294,651 273,675 M409,0 L402,129 L379,76 Q323,-14 209,-14 Q132,-14 89.5,22 Q47,58 47,127 Q47,186 94,227 Q141,268 211,285.5 Q281,303 367,303 L401,303 L401,330 Q401,375 399,398 Q394,457 356.5,488 Q319,519 254,519 Q192,519 144.5,485 Q97,451 89,382 L67,382 Q72,449 124.5,494.5 Q177,540 254,540 Q330,540 373,504 Q416,468 421,401 Q423,374 423,332 L423,170 Q423,104 432,0 M212,7 Q294,7 347.5,67.5 Q401,128 401,209 L401,281 Q320,286 247,273 Q174,260 122.5,222.5 Q71,185 71,128 Q71,71 106.5,39 Q142,7 212,7"/> 
            <glyph glyph-name="æ" unicode="&#xE6;" horiz-adv-x="886" d=" M886,277 Q886,269 885,258 L454,258 Q457,130 514,68.5 Q571,7 659,7 Q726,7 780,46 Q834,85 856,161 L878,161 Q855,77 795,31.5 Q735,-14 657,-14 Q583,-14 522,30 Q461,74 444,160 L423,96 Q349,-14 219,-14 Q145,-14 96,21 Q47,56 47,127 Q47,280 397,280 L431,280 L431,304 Q431,411 389.5,465 Q348,519 259,519 Q196,519 145,484.5 Q94,450 86,382 L64,382 Q69,449 124.5,494.5 Q180,540 259,540 Q427,540 448,381 Q469,457 530,498.5 Q591,540 666,540 Q741,540 792,500.5 Q843,461 864.5,403.5 Q886,346 886,277 M454,279 L862,279 Q859,405 802.5,462 Q746,519 664,519 Q577,519 517,457.5 Q457,396 454,279 M431,229 L431,258 Q364,261 304.5,256.5 Q245,252 190.5,238.5 Q136,225 103.5,196.5 Q71,168 71,128 Q71,73 112,40 Q153,7 222,7 Q313,7 372,69 Q431,131 431,229"/> 
            <glyph glyph-name="ç" unicode="&#xE7;" horiz-adv-x="481" d=" M270,7 L269,6 Q338,8 389,47.5 Q440,87 455,157 L477,157 Q461,78 403,32 Q345,-14 263,-14 L259,-14 L239,-51 Q327,-59 327,-128 Q327,-168 297,-189 Q267,-210 226,-210 Q193,-210 173,-200 L173,-178 Q194,-189 226,-189 Q261,-189 282.5,-173.5 Q304,-158 304,-128 Q304,-65 206,-69 L235,-12 Q145,-2 87.5,71.5 Q30,145 30,263 Q30,387 99.5,463.5 Q169,540 271,540 Q356,540 413,491.5 Q470,443 481,363 L459,363 Q446,436 397,478 Q348,520 269,520 Q186,520 120,453.5 Q54,387 54,268 Q54,150 109,82.5 Q164,15 245,7"/> 
            <glyph glyph-name="è" unicode="&#xE8;" horiz-adv-x="485" d=" M253,580 L184,690 L212,690 L272,580 M485,277 Q485,269 484,258 L53,258 Q56,131 116,69 Q176,7 258,7 Q325,7 379,46 Q433,85 455,161 L477,161 Q454,77 394,31.5 Q334,-14 256,-14 Q159,-14 94.5,59.5 Q30,133 30,265 Q30,387 97,463.5 Q164,540 264,540 Q370,540 427.5,462 Q485,384 485,277 M341,519 Q183,519 119.5,456.5 Q56,394 53,279 L463,279 Q460,404 341,519"/> 
            <glyph glyph-name="é" unicode="&#xE9;" horiz-adv-x="485" d=" M263,580 L244,580 L304,690 L332,690 M485,277 Q485,269 484,258 L53,258 Q56,131 116,69 Q176,7 258,7 Q325,7 379,46 Q433,85 455,161 L477,161 Q454,77 394,31.5 Q334,-14 256,-14 Q159,-14 94.5,59.5 Q30,133 30,265 Q30,387 97,463.5 Q164,540 264,540 Q370,540 427.5,462 Q485,384 485,277 M341,519 Q183,519 119.5,456.5 Q56,394 53,279 L463,279 Q460,404 341,519"/> 
            <glyph glyph-name="ê" unicode="&#xEA;" horiz-adv-x="485" d=" M203,580 L180,580 L245,690 L268,690 L333,580 L309,580 L256,674 M485,277 Q485,269 484,258 L53,258 Q56,131 116,69 Q176,7 258,7 Q325,7 379,46 Q433,85 455,161 L477,161 Q454,77 394,31.5 Q334,-14 256,-14 Q159,-14 94.5,59.5 Q30,133 30,265 Q30,387 97,463.5 Q164,540 264,540 Q370,540 427.5,462 Q485,384 485,277 M341,519 Q183,519 119.5,456.5 Q56,394 53,279 L463,279 Q460,404 341,519"/> 
            <glyph glyph-name="ë" unicode="&#xEB;" horiz-adv-x="485" d=" M224,613 Q208,613 202,619 Q196,625 196,633 Q196,641 202,647 Q208,653 216,653 Q224,653 230,647 Q236,641 236,633 Q236,625 224,613 M304,613 Q288,613 282,619 Q276,625 276,633 Q276,641 282,647 Q288,653 296,653 Q304,653 310,647 Q316,641 316,633 Q316,625 304,613 M485,277 Q485,269 484,258 L53,258 Q56,131 116,69 Q176,7 258,7 Q325,7 379,46 Q433,85 455,161 L477,161 Q454,77 394,31.5 Q334,-14 256,-14 Q159,-14 94.5,59.5 Q30,133 30,265 Q30,387 97,463.5 Q164,540 264,540 Q370,540 427.5,462 Q485,384 485,277 M341,519 Q183,519 119.5,456.5 Q56,394 53,279 L463,279 Q460,404 341,519"/> 
            <glyph glyph-name="ì" unicode="&#xEC;" horiz-adv-x="93" d=" M79,580 L60,580 L-9,690 L19,690 M93,0 L71,0 L71,526 L93,526"/> 
            <glyph glyph-name="í" unicode="&#xED;" horiz-adv-x="158" d=" M89,580 L70,580 L130,690 L158,690 M93,0 L71,0 L71,526 L93,526"/> 
            <glyph glyph-name="î" unicode="&#xEE;" horiz-adv-x="159" d=" M159,580 L135,580 L82,674 L29,580 L6,580 L71,690 L94,690 M71,526 L93,526 L93,0 L71,0"/> 
            <glyph glyph-name="ï" unicode="&#xEF;" horiz-adv-x="142" d=" M34,653 Q50,653 56,647 Q62,641 62,633 Q62,625 56,619 Q50,613 42,613 Q34,613 28,619 Q22,625 22,633 Q22,641 34,653 M114,653 Q130,653 136,647 Q142,641 142,633 Q142,625 136,619 Q130,613 122,613 Q114,613 108,619 Q102,625 102,633 Q102,641 114,653 M93,0 L71,0 L71,526 L93,526"/> 
            <glyph glyph-name="ð" unicode="&#xF0;" horiz-adv-x="475" d=" M448,694 L382,667 Q475,563 475,307 Q475,145 415,66 Q355,-13 248,-14 Q147,-15 88.5,61.5 Q30,138 30,257 Q30,383 92.5,463.5 Q155,544 263,544 Q339,544 396,499 L445,434 Q431,583 360,658 L193,589 L185,609 L343,674 Q296,713 234,725 L248,745 Q320,724 365,683 L440,714 M451,290 L451,309 Q451,404 399,463.5 Q347,523 263,523 Q174,523 114,453 Q54,383 54,258 Q54,140 110.5,73.5 Q167,7 251,7 Q346,7 398.5,82.5 Q451,158 451,290"/> 
            <glyph glyph-name="ñ" unicode="&#xF1;" horiz-adv-x="464" d=" M210,651 Q194,651 194,630 L174,630 Q174,671 210,671 Q228,671 267,658 Q303,646 314,646 Q330,646 330,667 L350,667 Q350,626 314,626 Q296,626 257,639 Q221,651 210,651 M460,378 Q464,342 464,292 L464,0 L442,0 L442,283 Q442,334 438,370 Q430,440 390.5,479.5 Q351,519 279,519 Q201,519 147,465 Q93,411 93,312 L93,0 L71,0 L71,526 L93,526 L93,406 L114,458 Q172,540 279,540 Q358,540 405,498 Q452,456 460,378"/> 
            <glyph glyph-name="ò" unicode="&#xF2;" horiz-adv-x="524" d=" M274,580 L205,690 L233,690 L293,580 M166,540 Q388,540 456,463.5 Q524,387 524,262 Q524,138 456,62 Q388,-14 277,-14 Q166,-14 98,62 Q30,138 30,262 Q30,387 166,540 M184,7 Q370,7 435,72.5 Q500,138 500,262 Q500,387 435,453 Q370,519 277,519 Q184,519 119,453 Q54,387 54,262 Q54,138 184,7"/> 
            <glyph glyph-name="ó" unicode="&#xF3;" horiz-adv-x="524" d=" M284,580 L265,580 L325,690 L353,690 M166,540 Q388,540 456,463.5 Q524,387 524,262 Q524,138 456,62 Q388,-14 277,-14 Q166,-14 98,62 Q30,138 30,262 Q30,387 166,540 M184,7 Q370,7 435,72.5 Q500,138 500,262 Q500,387 435,453 Q370,519 277,519 Q184,519 119,453 Q54,387 54,262 Q54,138 184,7"/> 
            <glyph glyph-name="ô" unicode="&#xF4;" horiz-adv-x="524" d=" M224,580 L201,580 L266,690 L289,690 L354,580 L330,580 L277,674 M166,540 Q388,540 456,463.5 Q524,387 524,262 Q524,138 456,62 Q388,-14 277,-14 Q166,-14 98,62 Q30,138 30,262 Q30,387 166,540 M184,7 Q370,7 435,72.5 Q500,138 500,262 Q500,387 435,453 Q370,519 277,519 Q184,519 119,453 Q54,387 54,262 Q54,138 184,7"/> 
            <glyph glyph-name="õ" unicode="&#xF5;" horiz-adv-x="524" d=" M225,651 Q209,651 209,630 L189,630 Q189,671 225,671 Q243,671 282,658 Q318,646 329,646 Q345,646 345,667 L365,667 Q365,626 329,626 Q311,626 272,639 Q236,651 225,651 M166,540 Q388,540 456,463.5 Q524,387 524,262 Q524,138 456,62 Q388,-14 277,-14 Q166,-14 98,62 Q30,138 30,262 Q30,387 166,540 M184,7 Q370,7 435,72.5 Q500,138 500,262 Q500,387 435,453 Q370,519 277,519 Q184,519 119,453 Q54,387 54,262 Q54,138 184,7"/> 
            <glyph glyph-name="ö" unicode="&#xF6;" horiz-adv-x="524" d=" M245,613 Q229,613 223,619 Q217,625 217,633 Q217,641 223,647 Q229,653 237,653 Q245,653 251,647 Q257,641 257,633 Q257,625 245,613 M325,613 Q309,613 303,619 Q297,625 297,633 Q297,641 303,647 Q309,653 317,653 Q325,653 331,647 Q337,641 337,633 Q337,625 325,613 M166,540 Q388,540 456,463.5 Q524,387 524,262 Q524,138 456,62 Q388,-14 277,-14 Q166,-14 98,62 Q30,138 30,262 Q30,387 166,540 M184,7 Q370,7 435,72.5 Q500,138 500,262 Q500,387 435,453 Q370,519 277,519 Q184,519 119,453 Q54,387 54,262 Q54,138 184,7"/> 
            <glyph glyph-name="÷" unicode="&#xF7;" horiz-adv-x="465" d=" M254,498 Q276,498 283.5,490.5 Q291,483 291,472 Q291,461 283.5,453.5 Q276,446 265,446 Q254,446 246.5,453.5 Q239,461 239,472 Q239,483 254,498 M465,307 L65,307 L65,328 L465,328 M254,188 Q276,188 283.5,180.5 Q291,173 291,162 Q291,151 283.5,143.5 Q276,136 265,136 Q254,136 246.5,143.5 Q239,151 239,162 Q239,173 254,188"/> 
            <glyph glyph-name="ø" unicode="&#xF8;" horiz-adv-x="568" d=" M568,519 L490,441 Q540,368 540,262 Q540,138 472,62 Q404,-14 293,-14 Q181,-14 112,63 L41,-8 L26,7 L99,80 Q46,153 46,262 Q46,387 114,463.5 Q182,540 293,540 Q408,540 477,458 L553,534 M70,262 Q70,162 115,96 L461,442 Q397,519 293,519 Q200,519 135,453 Q70,387 70,262 M516,262 Q516,359 474,424 L129,80 Q190,7 293,7 Q386,7 451,72.5 Q516,138 516,262"/> 
            <glyph glyph-name="ù" unicode="&#xF9;" horiz-adv-x="455" d=" M240,580 L171,690 L199,690 L259,580 M455,526 L455,0 L433,0 L433,120 L412,68 Q354,-14 247,-14 Q168,-14 121,28 Q74,70 66,148 Q62,184 62,234 L62,526 L84,526 L84,243 Q84,192 88,156 Q96,86 135.5,46.5 Q175,7 247,7 Q325,7 379,61 Q433,115 433,214 L433,526"/> 
            <glyph glyph-name="ú" unicode="&#xFA;" horiz-adv-x="455" d=" M265,580 L246,580 L306,690 L334,690 M455,526 L455,0 L433,0 L433,120 L412,68 Q354,-14 247,-14 Q168,-14 121,28 Q74,70 66,148 Q62,184 62,234 L62,526 L84,526 L84,243 Q84,192 88,156 Q96,86 135.5,46.5 Q175,7 247,7 Q325,7 379,61 Q433,115 433,214 L433,526"/> 
            <glyph glyph-name="û" unicode="&#xFB;" horiz-adv-x="455" d=" M205,580 L182,580 L247,690 L270,690 L335,580 L311,580 L258,674 M455,526 L455,0 L433,0 L433,120 L412,68 Q354,-14 247,-14 Q168,-14 121,28 Q74,70 66,148 Q62,184 62,234 L62,526 L84,526 L84,243 Q84,192 88,156 Q96,86 135.5,46.5 Q175,7 247,7 Q325,7 379,61 Q433,115 433,214 L433,526"/> 
            <glyph glyph-name="ü" unicode="&#xFC;" horiz-adv-x="455" d=" M226,613 Q210,613 204,619 Q198,625 198,633 Q198,641 204,647 Q210,653 218,653 Q226,653 232,647 Q238,641 238,633 Q238,625 226,613 M306,613 Q290,613 284,619 Q278,625 278,633 Q278,641 284,647 Q290,653 298,653 Q306,653 312,647 Q318,641 318,633 Q318,625 306,613 M455,526 L455,0 L433,0 L433,120 L412,68 Q354,-14 247,-14 Q168,-14 121,28 Q74,70 66,148 Q62,184 62,234 L62,526 L84,526 L84,243 Q84,192 88,156 Q96,86 135.5,46.5 Q175,7 247,7 Q325,7 379,61 Q433,115 433,214 L433,526"/> 
            <glyph glyph-name="ý" unicode="&#xFD;" horiz-adv-x="449" d=" M237,580 L218,580 L278,690 L306,690 M449,526 L246,0 Q212,-89 182.5,-136.5 Q153,-184 130,-197 Q107,-210 75,-210 Q55,-210 40,-206 L40,-186 Q57,-190 79,-190 Q112,-190 141,-160 Q170,-130 202,-52 L219,-10 L13,526 L38,526 L231,18 L424,526"/> 
            <glyph glyph-name="þ" unicode="&#xFE;" horiz-adv-x="514" d=" M287,540 Q389,540 451.5,464 Q514,388 514,267 Q514,134 445,60 Q376,-14 275,-14 Q225,-14 190,2 Q155,18 122,54 L93,120 L93,-196 L71,-196 L71,735 L93,735 L93,406 L121,466 Q155,507 193.5,523.5 Q232,540 287,540 M275,7 Q370,7 430,78.5 Q490,150 490,263 Q490,372 435.5,445.5 Q381,519 285,519 Q199,519 146,464.5 Q93,410 93,288 L93,229 Q93,168 109.5,122.5 Q126,77 153.5,53 Q181,29 211.5,18 Q242,7 275,7"/> 
            <glyph glyph-name="ÿ" unicode="&#xFF;" horiz-adv-x="449" d=" M198,613 Q182,613 176,619 Q170,625 170,633 Q170,641 176,647 Q182,653 190,653 Q198,653 204,647 Q210,641 210,633 Q210,625 198,613 M278,613 Q262,613 256,619 Q250,625 250,633 Q250,641 256,647 Q262,653 270,653 Q278,653 284,647 Q290,641 290,633 Q290,625 278,613 M449,526 L246,0 Q212,-89 182.5,-136.5 Q153,-184 130,-197 Q107,-210 75,-210 Q55,-210 40,-206 L40,-186 Q57,-190 79,-190 Q112,-190 141,-160 Q170,-130 202,-52 L219,-10 L13,526 L38,526 L231,18 L424,526"/> 
            <glyph glyph-name="Ā" unicode="&#x100;" horiz-adv-x="599" d=" M387,772 L247,772 L247,793 L387,793 M471,269 L162,269 L59,0 L36,0 L303,690 L332,690 L599,0 L575,0 M170,290 L462,290 L317,671"/> 
            <glyph glyph-name="ā" unicode="&#x101;" horiz-adv-x="432" d=" M325,620 L185,620 L185,641 L325,641 M409,0 L402,129 L379,76 Q323,-14 209,-14 Q132,-14 89.5,22 Q47,58 47,127 Q47,186 94,227 Q141,268 211,285.5 Q281,303 367,303 L401,303 L401,330 Q401,375 399,398 Q394,457 356.5,488 Q319,519 254,519 Q192,519 144.5,485 Q97,451 89,382 L67,382 Q72,449 124.5,494.5 Q177,540 254,540 Q330,540 373,504 Q416,468 421,401 Q423,374 423,332 L423,170 Q423,104 432,0 M212,7 Q294,7 347.5,67.5 Q401,128 401,209 L401,281 Q320,286 247,273 Q174,260 122.5,222.5 Q71,185 71,128 Q71,71 106.5,39 Q142,7 212,7"/> 
            <glyph glyph-name="Ă" unicode="&#x102;" horiz-adv-x="599" d=" M317,722 Q273,722 246.5,751 Q220,780 220,830 L238,830 Q239,789 260.5,766 Q282,743 317,743 Q352,743 373.5,766 Q395,789 396,830 L414,830 Q414,780 387,751 Q360,722 317,722 M471,269 L162,269 L59,0 L36,0 L303,690 L332,690 L599,0 L575,0 M170,290 L462,290 L317,671"/> 
            <glyph glyph-name="ă" unicode="&#x103;" horiz-adv-x="432" d=" M300,570 Q210,570 187,602 Q164,634 164,690 L182,690 Q183,643 202,617 Q221,591 255,591 Q325,591 327,690 L345,690 Q345,634 300,570 M409,0 L402,129 L379,76 Q323,-14 209,-14 Q132,-14 89.5,22 Q47,58 47,127 Q47,186 94,227 Q141,268 211,285.5 Q281,303 367,303 L401,303 L401,330 Q401,375 399,398 Q394,457 356.5,488 Q319,519 254,519 Q192,519 144.5,485 Q97,451 89,382 L67,382 Q72,449 124.5,494.5 Q177,540 254,540 Q330,540 373,504 Q416,468 421,401 Q423,374 423,332 L423,170 Q423,104 432,0 M212,7 Q294,7 347.5,67.5 Q401,128 401,209 L401,281 Q320,286 247,273 Q174,260 122.5,222.5 Q71,185 71,128 Q71,71 106.5,39 Q142,7 212,7"/> 
            <glyph glyph-name="Ą" unicode="&#x104;" horiz-adv-x="599" d=" M599,0 L594,0 Q540,-24 507,-63.5 Q474,-103 474,-151 Q474,-203 520,-203 Q554,-203 585,-172 L585,-195 Q557,-223 516,-223 Q452,-223 452,-154 Q452,-103 484.5,-59 Q517,-15 572,8 L471,269 L162,269 L59,0 L36,0 L303,690 L332,690 M170,290 L462,290 L317,671"/> 
            <glyph glyph-name="ą" unicode="&#x105;" horiz-adv-x="432" d=" M432,0 L422,0 Q369,-14 334.5,-57 Q300,-100 300,-151 Q300,-203 346,-203 Q380,-203 411,-172 L411,-195 Q383,-223 342,-223 Q278,-223 278,-154 Q278,-99 314,-52 Q350,-5 408,13 L402,129 L379,76 Q323,-14 209,-14 Q132,-14 89.5,22 Q47,58 47,127 Q47,186 94,227 Q141,268 211,285.5 Q281,303 367,303 L401,303 L401,330 Q401,375 399,398 Q394,457 356.5,488 Q319,519 254,519 Q192,519 144.5,485 Q97,451 89,382 L67,382 Q72,449 124.5,494.5 Q177,540 254,540 Q330,540 373,504 Q416,468 421,401 Q423,374 423,332 L423,170 Q423,104 432,0 M212,7 Q294,7 347.5,67.5 Q401,128 401,209 L401,281 Q320,286 247,273 Q174,260 122.5,222.5 Q71,185 71,128 Q71,71 106.5,39 Q142,7 212,7"/> 
            <glyph glyph-name="Ć" unicode="&#x106;" horiz-adv-x="628" d=" M351,736 L332,736 L385,830 L413,830 M364,704 Q472,704 538,643.5 Q604,583 624,484 L626,474 L604,474 L602,484 Q584,573 521.5,628 Q459,683 360,683 Q244,683 159.5,592 Q75,501 75,344 Q75,181 154,94 Q233,7 352,7 Q458,7 521.5,65 Q585,123 604,217 L606,227 L628,227 L626,217 Q605,113 536,49.5 Q467,-14 350,-14 Q219,-14 135,82 Q51,178 51,343 Q51,502 140.5,603 Q230,704 364,704"/> 
            <glyph glyph-name="ć" unicode="&#x107;" horiz-adv-x="481" d=" M272,580 L253,580 L313,690 L341,690 M271,540 Q356,540 413,491.5 Q470,443 481,363 L459,363 Q446,436 397,478 Q348,520 269,520 Q186,520 120,453.5 Q54,387 54,268 Q54,142 116,74 Q178,6 265,6 Q335,6 387.5,46 Q440,86 455,157 L477,157 Q461,78 403,32 Q345,-14 263,-14 Q163,-14 96.5,60.5 Q30,135 30,263 Q30,387 99.5,463.5 Q169,540 271,540"/> 
            <glyph glyph-name="Ċ" unicode="&#x10A;" horiz-adv-x="628" d=" M336,803 Q352,803 358,797 Q364,791 364,783 Q364,775 358,769 Q352,763 344,763 Q336,763 330,769 Q324,775 324,783 Q324,791 336,803 M364,704 Q472,704 538,643.5 Q604,583 624,484 L626,474 L604,474 L602,484 Q584,573 521.5,628 Q459,683 360,683 Q244,683 159.5,592 Q75,501 75,344 Q75,181 154,94 Q233,7 352,7 Q458,7 521.5,65 Q585,123 604,217 L606,227 L628,227 L626,217 Q605,113 536,49.5 Q467,-14 350,-14 Q219,-14 135,82 Q51,178 51,343 Q51,502 140.5,603 Q230,704 364,704"/> 
            <glyph glyph-name="ċ" unicode="&#x10B;" horiz-adv-x="481" d=" M257,653 Q273,653 279,647 Q285,641 285,633 Q285,625 279,619 Q273,613 265,613 Q257,613 251,619 Q245,625 245,633 Q245,641 257,653 M271,540 Q356,540 413,491.5 Q470,443 481,363 L459,363 Q446,436 397,478 Q348,520 269,520 Q186,520 120,453.5 Q54,387 54,268 Q54,142 116,74 Q178,6 265,6 Q335,6 387.5,46 Q440,86 455,157 L477,157 Q461,78 403,32 Q345,-14 263,-14 Q163,-14 96.5,60.5 Q30,135 30,263 Q30,387 99.5,463.5 Q169,540 271,540"/> 
            <glyph glyph-name="Č" unicode="&#x10C;" horiz-adv-x="628" d=" M333,736 L268,830 L292,830 L345,750 L398,830 L421,830 L356,736 M628,227 L626,217 Q605,113 536,49.5 Q467,-14 350,-14 Q219,-14 135,82 Q51,178 51,343 Q51,502 140.5,603 Q230,704 364,704 Q472,704 538,643.5 Q604,583 624,484 L626,474 L604,474 L602,484 Q584,573 521.5,628 Q459,683 360,683 Q244,683 159.5,592 Q75,501 75,344 Q75,181 154,94 Q233,7 352,7 Q458,7 521.5,65 Q585,123 604,217 L606,227"/> 
            <glyph glyph-name="č" unicode="&#x10D;" horiz-adv-x="481" d=" M254,580 L189,690 L213,690 L266,596 L319,690 L342,690 L277,580 M265,6 Q335,6 387.5,46 Q440,86 455,157 L477,157 Q461,78 403,32 Q345,-14 263,-14 Q163,-14 96.5,60.5 Q30,135 30,263 Q30,387 99.5,463.5 Q169,540 271,540 Q356,540 413,491.5 Q470,443 481,363 L459,363 Q446,436 397,478 Q348,520 269,520 Q186,520 120,453.5 Q54,387 54,268 Q54,142 116,74 Q178,6 265,6"/> 
            <glyph glyph-name="Ď" unicode="&#x10E;" horiz-adv-x="641" d=" M331,736 L266,830 L290,830 L343,750 L396,830 L419,830 L354,736 M368,688 Q402,685 437,673 Q472,661 509.5,634.5 Q547,608 575.5,571 Q604,534 622.5,476 Q641,418 641,348 Q641,278 623,220 Q605,162 577,124.5 Q549,87 513.5,60 Q478,33 445.5,20.5 Q413,8 383,4 Q348,0 295,0 L96,0 L96,690 L295,690 Q343,690 368,688 M380,25 Q423,30 463.5,52.5 Q504,75 539,113.5 Q574,152 595.5,213 Q617,274 617,348 Q617,425 593.5,487 Q570,549 532.5,586 Q495,623 452.5,643 Q410,663 367,667 Q345,669 295,669 L118,669 L118,21 L295,21 Q347,21 380,25"/> 
            <glyph glyph-name="ď" unicode="&#x10F;" horiz-adv-x="571" d=" M451,735 L473,735 L473,0 L451,0 L451,120 L423,60 Q389,19 350.5,2.5 Q312,-14 257,-14 Q155,-14 92.5,62 Q30,138 30,259 Q30,392 99,466 Q168,540 269,540 Q319,540 354,524 Q389,508 422,472 L451,406 M571,734 L571,729 L522,612 L503,612 L546,734 M259,7 Q345,7 398,61.5 Q451,116 451,238 L451,297 Q451,358 434.5,403.5 Q418,449 390.5,473 Q363,497 332.5,508 Q302,519 269,519 Q174,519 114,447.5 Q54,376 54,263 Q54,154 108.5,80.5 Q163,7 259,7"/> 
            <glyph glyph-name="Đ" unicode="&#x110;" horiz-adv-x="647" d=" M374,688 Q408,685 443,673 Q478,661 515.5,634.5 Q553,608 581.5,571 Q610,534 628.5,476 Q647,418 647,348 Q647,278 629,220 Q611,162 583,124.5 Q555,87 519.5,60 Q484,33 451.5,20.5 Q419,8 389,4 Q354,0 301,0 L102,0 L102,323 L42,323 L42,344 L102,344 L102,690 L301,690 Q349,690 374,688 M386,25 Q429,30 469.5,52.5 Q510,75 545,113.5 Q580,152 601.5,213 Q623,274 623,348 Q623,425 599.5,487 Q576,549 538.5,586 Q501,623 458.5,643 Q416,663 373,667 Q351,669 301,669 L124,669 L124,344 L308,344 L308,323 L124,323 L124,21 L301,21 Q353,21 386,25"/> 
            <glyph glyph-name="đ" unicode="&#x111;" horiz-adv-x="515" d=" M515,613 L473,613 L473,0 L451,0 L451,120 L423,60 Q389,19 350.5,2.5 Q312,-14 257,-14 Q155,-14 92.5,62 Q30,138 30,259 Q30,392 99,466 Q168,540 269,540 Q319,540 354,524 Q389,508 422,472 L451,406 L451,613 L334,613 L334,634 L451,634 L451,735 L473,735 L473,634 L515,634 M259,7 Q345,7 398,61.5 Q451,116 451,238 L451,297 Q451,358 434.5,403.5 Q418,449 390.5,473 Q363,497 332.5,508 Q302,519 269,519 Q174,519 114,447.5 Q54,376 54,263 Q54,154 108.5,80.5 Q163,7 259,7"/> 
            <glyph glyph-name="Ē" unicode="&#x112;" horiz-adv-x="525" d=" M360,772 L220,772 L220,793 L360,793 M525,20 L525,0 L96,0 L96,690 L515,690 L515,670 L118,670 L118,355 L495,355 L495,335 L118,335 L118,20"/> 
            <glyph glyph-name="ē" unicode="&#x113;" horiz-adv-x="485" d=" M326,620 L186,620 L186,641 L326,641 M485,277 Q485,269 484,258 L53,258 Q56,131 116,69 Q176,7 258,7 Q325,7 379,46 Q433,85 455,161 L477,161 Q454,77 394,31.5 Q334,-14 256,-14 Q159,-14 94.5,59.5 Q30,133 30,265 Q30,387 97,463.5 Q164,540 264,540 Q370,540 427.5,462 Q485,384 485,277 M341,519 Q183,519 119.5,456.5 Q56,394 53,279 L463,279 Q460,404 341,519"/> 
            <glyph glyph-name="Ė" unicode="&#x116;" horiz-adv-x="525" d=" M298,763 Q282,763 276,769 Q270,775 270,783 Q270,791 276,797 Q282,803 290,803 Q298,803 304,797 Q310,791 310,783 Q310,775 298,763 M525,20 L525,0 L96,0 L96,690 L515,690 L515,670 L118,670 L118,355 L495,355 L495,335 L118,335 L118,20"/> 
            <glyph glyph-name="ė" unicode="&#x117;" horiz-adv-x="485" d=" M264,613 Q248,613 242,619 Q236,625 236,633 Q236,641 242,647 Q248,653 256,653 Q264,653 270,647 Q276,641 276,633 Q276,625 264,613 M485,277 Q485,269 484,258 L53,258 Q56,131 116,69 Q176,7 258,7 Q325,7 379,46 Q433,85 455,161 L477,161 Q454,77 394,31.5 Q334,-14 256,-14 Q159,-14 94.5,59.5 Q30,133 30,265 Q30,387 97,463.5 Q164,540 264,540 Q370,540 427.5,462 Q485,384 485,277 M341,519 Q183,519 119.5,456.5 Q56,394 53,279 L463,279 Q460,404 341,519"/> 
            <glyph glyph-name="Ę" unicode="&#x118;" horiz-adv-x="525" d=" M525,20 L525,0 Q471,-24 438,-63.5 Q405,-103 405,-151 Q405,-203 451,-203 Q485,-203 516,-172 L516,-195 Q488,-223 447,-223 Q383,-223 383,-154 Q383,-107 410.5,-66 Q438,-25 485,0 L96,0 L96,690 L515,690 L515,670 L118,670 L118,355 L495,355 L495,335 L118,335 L118,20"/> 
            <glyph glyph-name="ę" unicode="&#x119;" horiz-adv-x="485" d=" M485,277 Q485,269 484,258 L53,258 Q56,131 116,69 Q176,7 258,7 Q325,7 379,46 Q433,85 455,161 L477,161 Q443,39 336,0 Q326,-4 321,-5 Q273,-23 244,-63.5 Q215,-104 215,-151 Q215,-203 261,-203 Q295,-203 326,-172 L326,-195 Q298,-223 257,-223 Q193,-223 193,-154 Q193,-114 213.5,-76.5 Q234,-39 269,-14 L256,-14 Q159,-14 94.5,59.5 Q30,133 30,265 Q30,387 97,463.5 Q164,540 264,540 Q370,540 427.5,462 Q485,384 485,277 M341,519 Q183,519 119.5,456.5 Q56,394 53,279 L463,279 Q460,404 341,519"/> 
            <glyph glyph-name="Ě" unicode="&#x11A;" horiz-adv-x="525" d=" M279,736 L214,830 L238,830 L291,750 L344,830 L367,830 L302,736 M525,20 L525,0 L96,0 L96,690 L515,690 L515,670 L118,670 L118,355 L495,355 L495,335 L118,335 L118,20"/> 
            <glyph glyph-name="ě" unicode="&#x11B;" horiz-adv-x="485" d=" M245,580 L180,690 L204,690 L257,596 L310,690 L333,690 L268,580 M485,277 Q485,269 484,258 L53,258 Q56,131 116,69 Q176,7 258,7 Q325,7 379,46 Q433,85 455,161 L477,161 Q454,77 394,31.5 Q334,-14 256,-14 Q159,-14 94.5,59.5 Q30,133 30,265 Q30,387 97,463.5 Q164,540 264,540 Q370,540 427.5,462 Q485,384 485,277 M341,519 Q183,519 119.5,456.5 Q56,394 53,279 L463,279 Q460,404 341,519"/> 
            <glyph glyph-name="Ğ" unicode="&#x11E;" horiz-adv-x="636" d=" M360,722 Q316,722 289.5,751 Q263,780 263,830 L281,830 Q282,789 303.5,766 Q325,743 360,743 Q395,743 416.5,766 Q438,789 439,830 L457,830 Q457,780 430,751 Q403,722 360,722 M379,307 L634,307 L634,0 L612,0 L612,184 L592,119 Q552,51 488.5,18.5 Q425,-14 353,-14 Q220,-14 135.5,82 Q51,178 51,343 Q51,503 143,603.5 Q235,704 374,704 Q482,704 548,643.5 Q614,583 634,484 L636,474 L614,474 L612,484 Q594,573 531.5,628 Q469,683 370,683 Q249,683 162,592.5 Q75,502 75,344 Q75,180 154.5,93.5 Q234,7 355,7 Q398,7 440,21.5 Q482,36 522,66.5 Q562,97 587,154.5 Q612,212 612,287 L379,287"/> 
            <glyph glyph-name="ğ" unicode="&#x11F;" horiz-adv-x="473" d=" M313,570 Q223,570 200,602 Q177,634 177,690 L195,690 Q196,643 215,617 Q234,591 268,591 Q338,591 340,690 L358,690 Q358,634 313,570 M473,530 L473,140 Q473,16 472,-18 Q469,-109 412,-164.5 Q355,-220 256,-220 Q176,-220 121,-182.5 Q66,-145 55,-62 L53,-47 L75,-47 L77,-62 Q86,-133 136,-166 Q186,-199 258,-199 Q348,-199 398,-147.5 Q448,-96 450,-11 Q451,24 451,100 L451,120 L423,60 Q389,19 350.5,2.5 Q312,-14 257,-14 Q155,-14 92.5,62 Q30,138 30,259 Q30,392 99,466 Q168,540 269,540 Q319,540 354,524 Q389,508 422,472 L451,406 L451,530 M259,7 Q345,7 398,61.5 Q451,116 451,238 L451,297 Q451,358 434.5,403.5 Q418,449 390.5,473 Q363,497 332.5,508 Q302,519 269,519 Q174,519 114,447.5 Q54,376 54,263 Q54,154 108.5,80.5 Q163,7 259,7"/> 
            <glyph glyph-name="Ġ" unicode="&#x120;" horiz-adv-x="636" d=" M368,763 Q352,763 346,769 Q340,775 340,783 Q340,791 346,797 Q352,803 360,803 Q368,803 374,797 Q380,791 380,783 Q380,775 368,763 M379,307 L634,307 L634,0 L612,0 L612,184 L592,119 Q552,51 488.5,18.5 Q425,-14 353,-14 Q220,-14 135.5,82 Q51,178 51,343 Q51,503 143,603.5 Q235,704 374,704 Q482,704 548,643.5 Q614,583 634,484 L636,474 L614,474 L612,484 Q594,573 531.5,628 Q469,683 370,683 Q249,683 162,592.5 Q75,502 75,344 Q75,180 154.5,93.5 Q234,7 355,7 Q398,7 440,21.5 Q482,36 522,66.5 Q562,97 587,154.5 Q612,212 612,287 L379,287"/> 
            <glyph glyph-name="ġ" unicode="&#x121;" horiz-adv-x="473" d=" M276,613 Q260,613 254,619 Q248,625 248,633 Q248,641 254,647 Q260,653 268,653 Q276,653 282,647 Q288,641 288,633 Q288,625 276,613 M473,530 L473,140 Q473,16 472,-18 Q469,-109 412,-164.5 Q355,-220 256,-220 Q176,-220 121,-182.5 Q66,-145 55,-62 L53,-47 L75,-47 L77,-62 Q86,-133 136,-166 Q186,-199 258,-199 Q348,-199 398,-147.5 Q448,-96 450,-11 Q451,24 451,100 L451,120 L423,60 Q389,19 350.5,2.5 Q312,-14 257,-14 Q155,-14 92.5,62 Q30,138 30,259 Q30,392 99,466 Q168,540 269,540 Q319,540 354,524 Q389,508 422,472 L451,406 L451,530 M259,7 Q345,7 398,61.5 Q451,116 451,238 L451,297 Q451,358 434.5,403.5 Q418,449 390.5,473 Q363,497 332.5,508 Q302,519 269,519 Q174,519 114,447.5 Q54,376 54,263 Q54,154 108.5,80.5 Q163,7 259,7"/> 
            <glyph glyph-name="Ģ" unicode="&#x122;" horiz-adv-x="636" d=" M379,307 L634,307 L634,0 L612,0 L612,184 L592,119 Q552,51 488.5,18.5 Q425,-14 353,-14 Q220,-14 135.5,82 Q51,178 51,343 Q51,503 143,603.5 Q235,704 374,704 Q482,704 548,643.5 Q614,583 634,484 L636,474 L614,474 L612,484 Q594,573 531.5,628 Q469,683 370,683 Q249,683 162,592.5 Q75,502 75,344 Q75,180 154.5,93.5 Q234,7 355,7 Q398,7 440,21.5 Q482,36 522,66.5 Q562,97 587,154.5 Q612,212 612,287 L379,287 M348,-51 L373,-51 L373,-56 L324,-173 L305,-173"/> 
            <glyph glyph-name="ģ" unicode="&#x123;" horiz-adv-x="473" d=" M280,581 L255,581 L255,586 L304,703 L323,703 M473,530 L473,140 Q473,16 472,-18 Q469,-109 412,-164.5 Q355,-220 256,-220 Q176,-220 121,-182.5 Q66,-145 55,-62 L53,-47 L75,-47 L77,-62 Q86,-133 136,-166 Q186,-199 258,-199 Q348,-199 398,-147.5 Q448,-96 450,-11 Q451,24 451,100 L451,120 L423,60 Q389,19 350.5,2.5 Q312,-14 257,-14 Q155,-14 92.5,62 Q30,138 30,259 Q30,392 99,466 Q168,540 269,540 Q319,540 354,524 Q389,508 422,472 L451,406 L451,530 M259,7 Q345,7 398,61.5 Q451,116 451,238 L451,297 Q451,358 434.5,403.5 Q418,449 390.5,473 Q363,497 332.5,508 Q302,519 269,519 Q174,519 114,447.5 Q54,376 54,263 Q54,154 108.5,80.5 Q163,7 259,7"/> 
            <glyph glyph-name="Ħ" unicode="&#x126;" horiz-adv-x="624" d=" M624,520 L584,520 L584,0 L562,0 L562,328 L118,328 L118,0 L96,0 L96,520 L56,520 L56,541 L96,541 L96,690 L118,690 L118,541 L562,541 L562,690 L584,690 L584,541 L624,541 M562,520 L118,520 L118,349 L562,349"/> 
            <glyph glyph-name="ħ" unicode="&#x127;" horiz-adv-x="474" d=" M470,378 Q474,342 474,292 L474,0 L452,0 L452,283 Q452,334 448,370 Q440,440 400.5,479.5 Q361,519 289,519 Q211,519 157,465 Q103,411 103,312 L103,0 L81,0 L81,613 L31,613 L31,634 L81,634 L81,740 L103,740 L103,634 L213,634 L213,613 L103,613 L103,406 L124,458 Q182,540 289,540 Q368,540 415,498 Q462,456 470,378"/> 
            <glyph glyph-name="Ī" unicode="&#x12A;" horiz-adv-x="177" d=" M177,772 L37,772 L37,793 L177,793 M118,0 L96,0 L96,690 L118,690"/> 
            <glyph glyph-name="ī" unicode="&#x12B;" horiz-adv-x="152" d=" M152,620 L12,620 L12,641 L152,641 M93,0 L71,0 L71,526 L93,526"/> 
            <glyph glyph-name="Į" unicode="&#x12E;" horiz-adv-x="118" d=" M118,690 L118,0 Q64,-24 31,-63.5 Q-2,-103 -2,-151 Q-2,-203 44,-203 Q78,-203 109,-172 L109,-195 Q81,-223 40,-223 Q-24,-223 -24,-154 Q-24,-102 8.5,-58.5 Q41,-15 96,9 L96,690"/> 
            <glyph glyph-name="į" unicode="&#x12F;" horiz-adv-x="102" d=" M74,653 Q90,653 96,647 Q102,641 102,633 Q102,625 96,619 Q90,613 82,613 Q74,613 68,619 Q62,625 62,633 Q62,641 74,653 M71,526 L93,526 L93,0 L84,0 Q31,-14 -3.5,-57 Q-38,-100 -38,-151 Q-38,-203 8,-203 Q42,-203 73,-172 L73,-195 Q45,-223 4,-223 Q-60,-223 -60,-154 Q-60,-99 -24,-52 Q12,-5 71,13"/> 
            <glyph glyph-name="İ" unicode="&#x130;" horiz-adv-x="127" d=" M99,803 Q115,803 121,797 Q127,791 127,783 Q127,775 121,769 Q115,763 107,763 Q99,763 93,769 Q87,775 87,783 Q87,791 99,803 M118,0 L96,0 L96,690 L118,690"/> 
            <glyph glyph-name="ı" unicode="&#x131;" horiz-adv-x="93" d=" M93,0 L71,0 L71,526 L93,526"/> 
            <glyph glyph-name="Ĳ" unicode="&#x132;" horiz-adv-x="618" d=" M118,0 L96,0 L96,690 L118,690 M618,690 L618,260 Q618,201 616,169 Q611,92 563.5,39 Q516,-14 428,-14 Q339,-14 290,38 Q241,90 237,194 L236,224 L258,224 L259,194 Q263,96 309,51.5 Q355,7 430,7 Q503,7 545,50 Q587,93 594,172 Q596,194 596,252 L596,690"/> 
            <glyph glyph-name="ĳ" unicode="&#x133;" horiz-adv-x="259" d=" M74,653 Q90,653 96,647 Q102,641 102,633 Q102,625 96,619 Q90,613 82,613 Q74,613 68,619 Q62,625 62,633 Q62,641 74,653 M231,653 Q247,653 253,647 Q259,641 259,633 Q259,625 253,619 Q247,613 239,613 Q231,613 225,619 Q219,625 219,633 Q219,641 231,653 M93,0 L71,0 L71,526 L93,526 M250,526 L250,-73 Q250,-107 249,-125 Q247,-167 224,-188.5 Q201,-210 167,-210 Q149,-210 132,-206 L132,-187 Q177,-195 201,-181.5 Q225,-168 227,-123 Q228,-109 228,-84 L228,526"/> 
            <glyph glyph-name="Ķ" unicode="&#x136;" horiz-adv-x="541" d=" M180,355 L535,0 L502,0 L163,341 L118,299 L118,0 L96,0 L96,690 L118,690 L118,324 L512,690 L541,690 M285,-51 L310,-51 L310,-56 L261,-173 L242,-173"/> 
            <glyph glyph-name="ķ" unicode="&#x137;" horiz-adv-x="437" d=" M437,0 L404,0 L138,256 L93,215 L93,0 L71,0 L71,735 L93,735 L93,241 L403,526 L436,526 L156,271 M217,-51 L242,-51 L242,-56 L193,-173 L174,-173"/> 
            <glyph glyph-name="Ĺ" unicode="&#x139;" horiz-adv-x="525" d=" M114,736 L95,736 L148,830 L176,830 M525,20 L525,0 L96,0 L96,690 L118,690 L118,20"/> 
            <glyph glyph-name="ĺ" unicode="&#x13A;" horiz-adv-x="155" d=" M86,785 L67,785 L127,895 L155,895 M90,735 L90,120 Q90,65 91,51 Q92,26 104,19 Q116,12 147,16 L147,-3 Q137,-5 118,-5 Q72,-5 69,46 Q68,66 68,120 L68,735"/> 
            <glyph glyph-name="Ļ" unicode="&#x13B;" horiz-adv-x="525" d=" M525,20 L525,0 L96,0 L96,690 L118,690 L118,20 M278,-51 L303,-51 L303,-56 L254,-173 L235,-173"/> 
            <glyph glyph-name="ļ" unicode="&#x13C;" horiz-adv-x="147" d=" M90,735 L90,120 Q90,65 91,51 Q92,26 104,19 Q116,12 147,16 L147,-3 Q137,-5 118,-5 Q72,-5 69,46 Q68,66 68,120 L68,735 M125,-56 L76,-173 L57,-173 L100,-51 L125,-51"/> 
            <glyph glyph-name="Ľ" unicode="&#x13D;" horiz-adv-x="525" d=" M525,20 L525,0 L96,0 L96,690 L118,690 L118,20"/> 
            <glyph glyph-name="ľ" unicode="&#x13E;" horiz-adv-x="147" d=" M90,735 L90,120 Q90,65 91,51 Q92,26 104,19 Q116,12 147,16 L147,-3 Q137,-5 118,-5 Q72,-5 69,46 Q68,66 68,120 L68,735"/> 
            <glyph glyph-name="Ŀ" unicode="&#x13F;" horiz-adv-x="525" d=" M525,20 L525,0 L96,0 L96,690 L118,690 L118,20 M338,380 Q322,380 316,386 Q310,392 310,400 Q310,408 316,414 Q322,420 330,420 Q338,420 344,414 Q350,408 350,400 Q350,392 338,380"/> 
            <glyph glyph-name="ŀ" unicode="&#x140;" horiz-adv-x="177" d=" M90,735 L90,120 Q90,65 91,51 Q92,26 104,19 Q116,12 147,16 L147,-3 Q137,-5 118,-5 Q72,-5 69,46 Q68,66 68,120 L68,735 M149,420 Q165,420 171,414 Q177,408 177,400 Q177,392 171,386 Q165,380 157,380 Q149,380 143,386 Q137,392 137,400 Q137,408 149,420"/> 
            <glyph glyph-name="Ł" unicode="&#x141;" horiz-adv-x="557" d=" M557,20 L557,0 L128,0 L128,313 L14,245 L14,269 L128,337 L128,690 L150,690 L150,350 L334,459 L334,435 L150,326 L150,20"/> 
            <glyph glyph-name="ł" unicode="&#x142;" horiz-adv-x="166" d=" M109,317 L109,120 Q109,65 110,51 Q111,26 123,19 Q135,12 166,16 L166,-3 Q156,-5 137,-5 Q91,-5 88,46 Q87,66 87,120 L87,301 L30,260 L30,286 L87,327 L87,735 L109,735 L109,343 L166,384 L166,358"/> 
            <glyph glyph-name="Ń" unicode="&#x143;" horiz-adv-x="566" d=" M338,736 L319,736 L372,830 L400,830 M566,0 L532,0 L116,670 Q118,577 118,375 L118,0 L96,0 L96,690 L129,690 L546,20 Q544,113 544,315 L544,690 L566,690"/> 
            <glyph glyph-name="ń" unicode="&#x144;" horiz-adv-x="464" d=" M269,580 L250,580 L310,690 L338,690 M460,378 Q464,342 464,292 L464,0 L442,0 L442,283 Q442,334 438,370 Q430,440 390.5,479.5 Q351,519 279,519 Q201,519 147,465 Q93,411 93,312 L93,0 L71,0 L71,526 L93,526 L93,406 L114,458 Q172,540 279,540 Q358,540 405,498 Q452,456 460,378"/> 
            <glyph glyph-name="Ņ" unicode="&#x145;" horiz-adv-x="566" d=" M566,0 L532,0 L116,670 Q118,577 118,375 L118,0 L96,0 L96,690 L129,690 L546,20 Q544,113 544,315 L544,690 L566,690 M344,-56 L295,-173 L276,-173 L319,-51 L344,-51"/> 
            <glyph glyph-name="ņ" unicode="&#x146;" horiz-adv-x="464" d=" M460,378 Q464,342 464,292 L464,0 L442,0 L442,283 Q442,334 438,370 Q430,440 390.5,479.5 Q351,519 279,519 Q201,519 147,465 Q93,411 93,312 L93,0 L71,0 L71,526 L93,526 L93,406 L114,458 Q172,540 279,540 Q358,540 405,498 Q452,456 460,378 M250,-51 L275,-51 L275,-56 L226,-173 L207,-173"/> 
            <glyph glyph-name="Ň" unicode="&#x147;" horiz-adv-x="566" d=" M320,736 L255,830 L279,830 L332,750 L385,830 L408,830 L343,736 M566,690 L566,0 L532,0 L116,670 Q118,577 118,375 L118,0 L96,0 L96,690 L129,690 L546,20 Q544,113 544,315 L544,690"/> 
            <glyph glyph-name="ň" unicode="&#x148;" horiz-adv-x="464" d=" M251,580 L186,690 L210,690 L263,596 L316,690 L339,690 L274,580 M460,378 Q464,342 464,292 L464,0 L442,0 L442,283 Q442,334 438,370 Q430,440 390.5,479.5 Q351,519 279,519 Q201,519 147,465 Q93,411 93,312 L93,0 L71,0 L71,526 L93,526 L93,406 L114,458 Q172,540 279,540 Q358,540 405,498 Q452,456 460,378"/> 
            <glyph glyph-name="Ŋ" unicode="&#x14A;" horiz-adv-x="566" d=" M566,690 L566,-67 Q566,-94 565,-108 Q561,-168 528,-194.5 Q495,-221 428,-223 L428,-202 Q488,-202 516,-176 Q544,-150 544,-83 L544,-19 L116,670 Q118,577 118,375 L118,0 L96,0 L96,690 L129,690 L546,20 Q544,113 544,315 L544,690"/> 
            <glyph glyph-name="ŋ" unicode="&#x14B;" horiz-adv-x="464" d=" M460,378 Q464,342 464,292 L464,-54 Q464,-81 463,-95 Q459,-155 425,-182.5 Q391,-210 326,-210 L326,-189 Q380,-189 408.5,-168.5 Q437,-148 441,-99 Q442,-84 442,-57 L442,283 Q442,334 438,370 Q430,440 390.5,479.5 Q351,519 279,519 Q201,519 147,465 Q93,411 93,312 L93,0 L71,0 L71,526 L93,526 L93,406 L114,458 Q172,540 279,540 Q358,540 405,498 Q452,456 460,378"/> 
            <glyph glyph-name="Ō" unicode="&#x14C;" horiz-adv-x="675" d=" M433,772 L293,772 L293,793 L433,793 M223,704 Q503,704 589,603 Q675,502 675,345 Q675,189 588.5,87.5 Q502,-14 363,-14 Q224,-14 137.5,87.5 Q51,189 51,345 Q51,502 223,704 M242,7 Q484,7 567.5,98 Q651,189 651,345 Q651,502 567.5,592.5 Q484,683 363,683 Q242,683 158.5,592.5 Q75,502 75,345 Q75,189 242,7"/> 
            <glyph glyph-name="ō" unicode="&#x14D;" horiz-adv-x="524" d=" M347,620 L207,620 L207,641 L347,641 M166,540 Q388,540 456,463.5 Q524,387 524,262 Q524,138 456,62 Q388,-14 277,-14 Q166,-14 98,62 Q30,138 30,262 Q30,387 166,540 M184,7 Q370,7 435,72.5 Q500,138 500,262 Q500,387 435,453 Q370,519 277,519 Q184,519 119,453 Q54,387 54,262 Q54,138 184,7"/> 
            <glyph glyph-name="Ő" unicode="&#x150;" horiz-adv-x="675" d=" M328,736 L309,736 L362,830 L390,830 M415,736 L396,736 L449,830 L477,830 M223,704 Q503,704 589,603 Q675,502 675,345 Q675,189 588.5,87.5 Q502,-14 363,-14 Q224,-14 137.5,87.5 Q51,189 51,345 Q51,502 223,704 M242,7 Q484,7 567.5,98 Q651,189 651,345 Q651,502 567.5,592.5 Q484,683 363,683 Q242,683 158.5,592.5 Q75,502 75,345 Q75,189 242,7"/> 
            <glyph glyph-name="ő" unicode="&#x151;" horiz-adv-x="524" d=" M232,580 L213,580 L273,690 L301,690 M332,580 L313,580 L373,690 L401,690 M166,540 Q388,540 456,463.5 Q524,387 524,262 Q524,138 456,62 Q388,-14 277,-14 Q166,-14 98,62 Q30,138 30,262 Q30,387 166,540 M184,7 Q370,7 435,72.5 Q500,138 500,262 Q500,387 435,453 Q370,519 277,519 Q184,519 119,453 Q54,387 54,262 Q54,138 184,7"/> 
            <glyph glyph-name="Œ" unicode="&#x152;" horiz-adv-x="1080" d=" M1080,20 L1080,0 L651,0 L651,206 L620,128 Q571,53 509,19.5 Q447,-14 363,-14 Q224,-14 137.5,87.5 Q51,189 51,345 Q51,502 137,603 Q223,704 363,704 Q449,704 506.5,673 Q564,642 620,566 L651,484 L651,690 L1070,690 L1070,670 L673,670 L673,355 L1050,355 L1050,335 L673,335 L673,20 M363,7 Q490,7 570.5,97 Q651,187 651,345 Q651,503 570.5,593 Q490,683 363,683 Q242,683 158.5,592.5 Q75,502 75,345 Q75,189 158.5,98 Q242,7 363,7"/> 
            <glyph glyph-name="œ" unicode="&#x153;" horiz-adv-x="955" d=" M955,277 Q955,269 954,258 L524,258 Q527,131 586.5,69 Q646,7 728,7 Q795,7 849,46 Q903,85 925,161 L947,161 Q924,77 864,31.5 Q804,-14 726,-14 Q649,-14 589.5,34 Q530,82 510,173 Q488,85 426,35.5 Q364,-14 277,-14 Q166,-14 98,62 Q30,138 30,262 Q30,387 98,463.5 Q166,540 277,540 Q365,540 428,490.5 Q491,441 513,352 Q532,440 594,490 Q656,540 735,540 Q841,540 898,462.5 Q955,385 955,277 M184,7 Q370,7 435,72.5 Q500,138 500,262 Q500,387 435,453 Q370,519 277,519 Q184,519 119,453 Q54,387 54,262 Q54,138 184,7 M524,279 L932,279 Q929,404 870.5,461.5 Q812,519 733,519 Q653,519 590,456.5 Q527,394 524,279"/> 
            <glyph glyph-name="Ŕ" unicode="&#x154;" horiz-adv-x="539" d=" M310,736 L291,736 L344,830 L372,830 M493,189 Q506,74 539,0 L513,0 Q481,95 470,184 Q462,249 431.5,291.5 Q401,334 342,337 Q320,338 279,338 L118,338 L118,0 L96,0 L96,690 L263,690 Q322,690 362,685 Q443,675 486,632.5 Q529,590 529,516 Q529,450 490.5,405 Q452,360 385,348 Q478,322 493,189 M118,359 L279,359 Q322,359 354,361 Q424,366 464.5,408 Q505,450 505,515 Q505,645 358,664 Q318,669 263,669 L118,669"/> 
            <glyph glyph-name="ŕ" unicode="&#x155;" horiz-adv-x="256" d=" M135,580 L116,580 L176,690 L204,690 M233,540 Q249,540 256,539 L256,519 Q180,525 136.5,469 Q93,413 93,288 L93,0 L71,0 L71,526 L93,526 L93,413 L114,473 Q159,540 233,540"/> 
            <glyph glyph-name="Ŗ" unicode="&#x156;" horiz-adv-x="539" d=" M493,189 Q506,74 539,0 L513,0 Q481,95 470,184 Q462,249 431.5,291.5 Q401,334 342,337 Q320,338 279,338 L118,338 L118,0 L96,0 L96,690 L263,690 Q322,690 362,685 Q443,675 486,632.5 Q529,590 529,516 Q529,450 490.5,405 Q452,360 385,348 Q478,322 493,189 M118,359 L279,359 Q322,359 354,361 Q424,366 464.5,408 Q505,450 505,515 Q505,645 358,664 Q318,669 263,669 L118,669 M281,-51 L306,-51 L306,-56 L257,-173 L238,-173"/> 
            <glyph glyph-name="ŗ" unicode="&#x157;" horiz-adv-x="256" d=" M233,540 Q249,540 256,539 L256,519 Q180,525 136.5,469 Q93,413 93,288 L93,0 L71,0 L71,526 L93,526 L93,413 L114,473 Q159,540 233,540 M70,-51 L95,-51 L95,-56 L46,-173 L27,-173"/> 
            <glyph glyph-name="Ř" unicode="&#x158;" horiz-adv-x="539" d=" M292,736 L227,830 L251,830 L304,750 L357,830 L380,830 L315,736 M493,189 Q506,74 539,0 L513,0 Q481,95 470,184 Q462,249 431.5,291.5 Q401,334 342,337 Q320,338 279,338 L118,338 L118,0 L96,0 L96,690 L263,690 Q322,690 362,685 Q443,675 486,632.5 Q529,590 529,516 Q529,450 490.5,405 Q452,360 385,348 Q478,322 493,189 M118,359 L279,359 Q322,359 354,361 Q424,366 464.5,408 Q505,450 505,515 Q505,645 358,664 Q318,669 263,669 L118,669"/> 
            <glyph glyph-name="ř" unicode="&#x159;" horiz-adv-x="256" d=" M117,580 L52,690 L76,690 L129,596 L182,690 L205,690 L140,580 M233,540 Q249,540 256,539 L256,519 Q180,525 136.5,469 Q93,413 93,288 L93,0 L71,0 L71,526 L93,526 L93,413 L114,473 Q159,540 233,540"/> 
            <glyph glyph-name="Ś" unicode="&#x15A;" horiz-adv-x="507" d=" M287,736 L268,736 L321,830 L349,830 M284,704 Q376,704 430.5,650.5 Q485,597 495,514 L473,514 Q460,593 408.5,638 Q357,683 283,683 Q210,683 152.5,643 Q95,603 95,533 Q95,463 138.5,429 Q182,395 294,363 Q407,331 457,288 Q507,245 507,167 Q507,90 443,38 Q379,-14 283,-14 Q186,-14 117.5,35.5 Q49,85 39,180 L61,180 Q70,98 133,52.5 Q196,7 284,7 Q369,7 426,51.5 Q483,96 483,165 Q483,236 438.5,272.5 Q394,309 284,341 Q167,374 119,414.5 Q71,455 71,531 Q71,605 134,654.5 Q197,704 284,704"/> 
            <glyph glyph-name="ś" unicode="&#x15B;" horiz-adv-x="398" d=" M220,580 L201,580 L261,690 L289,690 M215,540 Q293,540 337.5,496.5 Q382,453 393,383 L371,383 Q354,452 316,485.5 Q278,519 214,519 Q156,519 115,486.5 Q74,454 74,399 Q74,347 110.5,320 Q147,293 217,277 Q312,256 355,222 Q398,188 398,124 Q398,62 348.5,24 Q299,-14 221,-14 Q142,-14 88.5,28 Q35,70 26,156 L48,156 Q71,7 223,7 Q288,7 331.5,37.5 Q375,68 375,123 Q375,177 338.5,205.5 Q302,234 207,256 Q135,273 93,305 Q51,337 51,398 Q51,459 97,499.5 Q143,540 215,540"/> 
            <glyph glyph-name="Ş" unicode="&#x15E;" horiz-adv-x="507" d=" M507,167 Q507,90 443.5,38 Q380,-14 284,-14 L264,-51 Q352,-59 352,-128 Q352,-168 322,-189 Q292,-210 251,-210 Q218,-210 198,-200 L198,-178 Q219,-189 251,-189 Q286,-189 307.5,-173.5 Q329,-158 329,-128 Q329,-65 231,-69 L260,-13 Q171,-7 109.5,42 Q48,91 39,180 L61,180 Q70,98 133,52.5 Q196,7 284,7 Q369,7 426,51.5 Q483,96 483,165 Q483,236 438.5,272.5 Q394,309 284,341 Q167,374 119,414.5 Q71,455 71,531 Q71,605 134,654.5 Q197,704 284,704 Q376,704 430.5,650.5 Q485,597 495,514 L473,514 Q460,593 408.5,638 Q357,683 283,683 Q210,683 152.5,643 Q95,603 95,533 Q95,463 138.5,429 Q182,395 294,363 Q407,331 457,288 Q507,245 507,167"/> 
            <glyph glyph-name="ş" unicode="&#x15F;" horiz-adv-x="398" d=" M398,124 Q398,63 350.5,25.5 Q303,-12 227,-14 L207,-51 Q295,-59 295,-128 Q295,-168 265,-189 Q235,-210 194,-210 Q161,-210 141,-200 L141,-178 Q162,-189 194,-189 Q229,-189 250.5,-173.5 Q272,-158 272,-128 Q272,-65 174,-69 L203,-13 Q131,-8 83,34 Q35,76 26,156 L48,156 Q71,7 223,7 Q288,7 331.5,37.5 Q375,68 375,123 Q375,177 338.5,205.5 Q302,234 207,256 Q135,273 93,305 Q51,337 51,398 Q51,459 97,499.5 Q143,540 215,540 Q293,540 337.5,496.5 Q382,453 393,383 L371,383 Q354,452 316,485.5 Q278,519 214,519 Q156,519 115,486.5 Q74,454 74,399 Q74,347 110.5,320 Q147,293 217,277 Q312,256 355,222 Q398,188 398,124"/> 
            <glyph glyph-name="Š" unicode="&#x160;" horiz-adv-x="507" d=" M269,736 L204,830 L228,830 L281,750 L334,830 L357,830 L292,736 M294,363 Q407,331 457,288 Q507,245 507,167 Q507,90 443,38 Q379,-14 283,-14 Q186,-14 117.5,35.5 Q49,85 39,180 L61,180 Q70,98 133,52.5 Q196,7 284,7 Q369,7 426,51.5 Q483,96 483,165 Q483,236 438.5,272.5 Q394,309 284,341 Q167,374 119,414.5 Q71,455 71,531 Q71,605 134,654.5 Q197,704 284,704 Q376,704 430.5,650.5 Q485,597 495,514 L473,514 Q460,593 408.5,638 Q357,683 283,683 Q210,683 152.5,643 Q95,603 95,533 Q95,463 138.5,429 Q182,395 294,363"/> 
            <glyph glyph-name="š" unicode="&#x161;" horiz-adv-x="398" d=" M202,580 L137,690 L161,690 L214,596 L267,690 L290,690 L225,580 M217,277 Q312,256 355,222 Q398,188 398,124 Q398,62 348.5,24 Q299,-14 221,-14 Q142,-14 88.5,28 Q35,70 26,156 L48,156 Q71,7 223,7 Q288,7 331.5,37.5 Q375,68 375,123 Q375,177 338.5,205.5 Q302,234 207,256 Q135,273 93,305 Q51,337 51,398 Q51,459 97,499.5 Q143,540 215,540 Q293,540 337.5,496.5 Q382,453 393,383 L371,383 Q354,452 316,485.5 Q278,519 214,519 Q156,519 115,486.5 Q74,454 74,399 Q74,347 110.5,320 Q147,293 217,277"/> 
            <glyph glyph-name="Ţ" unicode="&#x162;" horiz-adv-x="582" d=" M318,670 L318,7 L322,7 L291,-51 Q379,-59 379,-128 Q379,-168 349,-189 Q319,-210 278,-210 Q245,-210 225,-200 L225,-178 Q246,-189 278,-189 Q313,-189 334.5,-173.5 Q356,-158 356,-128 Q356,-65 258,-69 L296,5 L296,670 L32,670 L32,690 L582,690 L582,670"/> 
            <glyph glyph-name="ţ" unicode="&#x163;" horiz-adv-x="229" d=" M165,-7 L141,-51 Q229,-59 229,-128 Q229,-168 199,-189 Q169,-210 128,-210 Q95,-210 75,-200 L75,-178 Q96,-189 128,-189 Q163,-189 184.5,-173.5 Q206,-158 206,-128 Q206,-65 108,-69 L141,-4 Q97,8 93,61 Q91,85 91,132 L91,504 L28,504 L28,522 L91,522 L91,630 L113,630 L113,522 L216,522 L216,504 L113,504 L113,128 Q113,85 114,71 Q117,31 139.5,18.5 Q162,6 219,14 L219,-4 Q200,-7 169,-7"/> 
            <glyph glyph-name="Ť" unicode="&#x164;" horiz-adv-x="582" d=" M296,736 L231,830 L255,830 L308,750 L361,830 L384,830 L319,736 M582,670 L318,670 L318,0 L296,0 L296,670 L32,670 L32,690 L582,690"/> 
            <glyph glyph-name="ť" unicode="&#x165;" horiz-adv-x="234" d=" M234,734 L234,729 L185,612 L166,612 L209,734 M114,71 Q117,31 139.5,18.5 Q162,6 219,14 L219,-4 Q200,-7 169,-7 Q99,-7 93,61 Q91,85 91,132 L91,504 L28,504 L28,522 L91,522 L91,630 L113,630 L113,522 L216,522 L216,504 L113,504 L113,128 Q113,85 114,71"/> 
            <glyph glyph-name="Ŧ" unicode="&#x166;" horiz-adv-x="582" d=" M318,670 L318,344 L462,344 L462,323 L318,323 L318,0 L296,0 L296,323 L152,323 L152,344 L296,344 L296,670 L32,670 L32,690 L582,690 L582,670"/> 
            <glyph glyph-name="ŧ" unicode="&#x167;" horiz-adv-x="219" d=" M114,71 Q117,31 139.5,18.5 Q162,6 219,14 L219,-4 Q200,-7 169,-7 Q99,-7 93,61 Q91,85 91,132 L91,330 L36,330 L36,351 L91,351 L91,504 L28,504 L28,522 L91,522 L91,630 L113,630 L113,522 L216,522 L216,504 L113,504 L113,351 L176,351 L176,330 L113,330 L113,128 Q113,85 114,71"/> 
            <glyph glyph-name="Ū" unicode="&#x16A;" horiz-adv-x="534" d=" M382,772 L242,772 L242,793 L382,793 M534,690 L534,233 Q534,212 531,166 Q526,84 469.5,35 Q413,-14 312,-14 Q211,-14 154.5,35 Q98,84 93,166 Q90,212 90,233 L90,690 L112,690 L112,229 Q112,199 115,167 Q122,96 170.5,51.5 Q219,7 312,7 Q405,7 453.5,51.5 Q502,96 509,167 Q512,199 512,229 L512,690"/> 
            <glyph glyph-name="ū" unicode="&#x16B;" horiz-adv-x="455" d=" M328,620 L188,620 L188,641 L328,641 M455,526 L455,0 L433,0 L433,120 L412,68 Q354,-14 247,-14 Q168,-14 121,28 Q74,70 66,148 Q62,184 62,234 L62,526 L84,526 L84,243 Q84,192 88,156 Q96,86 135.5,46.5 Q175,7 247,7 Q325,7 379,61 Q433,115 433,214 L433,526"/> 
            <glyph glyph-name="Ů" unicode="&#x16E;" horiz-adv-x="534" d=" M286,844 Q338,844 356.5,827.5 Q375,811 375,783 Q375,755 356.5,738.5 Q338,722 312,722 Q286,722 267.5,738.5 Q249,755 249,783 Q249,811 286,844 M330,823 Q294,823 283.5,811.5 Q273,800 273,783 Q273,766 283.5,754.5 Q294,743 312,743 Q330,743 340.5,754.5 Q351,766 351,783 Q351,800 330,823 M534,690 L534,233 Q534,212 531,166 Q526,84 469.5,35 Q413,-14 312,-14 Q211,-14 154.5,35 Q98,84 93,166 Q90,212 90,233 L90,690 L112,690 L112,229 Q112,199 115,167 Q122,96 170.5,51.5 Q219,7 312,7 Q405,7 453.5,51.5 Q502,96 509,167 Q512,199 512,229 L512,690"/> 
            <glyph glyph-name="ů" unicode="&#x16F;" horiz-adv-x="455" d=" M284,572 Q232,572 214,589 Q196,606 196,634 Q196,662 214,679 Q232,696 258,696 Q284,696 302,679 Q320,662 320,634 Q320,606 284,572 M276,675 Q240,675 229.5,663 Q219,651 219,634 Q219,617 229.5,605 Q240,593 258,593 Q276,593 286.5,605 Q297,617 297,634 Q297,651 276,675 M455,526 L455,0 L433,0 L433,120 L412,68 Q354,-14 247,-14 Q168,-14 121,28 Q74,70 66,148 Q62,184 62,234 L62,526 L84,526 L84,243 Q84,192 88,156 Q96,86 135.5,46.5 Q175,7 247,7 Q325,7 379,61 Q433,115 433,214 L433,526"/> 
            <glyph glyph-name="Ű" unicode="&#x170;" horiz-adv-x="534" d=" M277,736 L258,736 L311,830 L339,830 M364,736 L345,736 L398,830 L426,830 M534,690 L534,233 Q534,212 531,166 Q526,84 469.5,35 Q413,-14 312,-14 Q211,-14 154.5,35 Q98,84 93,166 Q90,212 90,233 L90,690 L112,690 L112,229 Q112,199 115,167 Q122,96 170.5,51.5 Q219,7 312,7 Q405,7 453.5,51.5 Q502,96 509,167 Q512,199 512,229 L512,690"/> 
            <glyph glyph-name="ű" unicode="&#x171;" horiz-adv-x="455" d=" M213,580 L194,580 L254,690 L282,690 M313,580 L294,580 L354,690 L382,690 M455,526 L455,0 L433,0 L433,120 L412,68 Q354,-14 247,-14 Q168,-14 121,28 Q74,70 66,148 Q62,184 62,234 L62,526 L84,526 L84,243 Q84,192 88,156 Q96,86 135.5,46.5 Q175,7 247,7 Q325,7 379,61 Q433,115 433,214 L433,526"/> 
            <glyph glyph-name="Ų" unicode="&#x172;" horiz-adv-x="534" d=" M534,690 L534,233 Q534,212 531,166 Q527,106 495.5,62.5 Q464,19 406,0 Q352,-24 319,-63.5 Q286,-103 286,-151 Q286,-203 332,-203 Q366,-203 397,-172 L397,-195 Q369,-223 328,-223 Q264,-223 264,-154 Q264,-68 346,-12 Q324,-14 312,-14 Q211,-14 154.5,35 Q98,84 93,166 Q90,212 90,233 L90,690 L112,690 L112,229 Q112,199 115,167 Q122,96 170.5,51.5 Q219,7 312,7 Q405,7 453.5,51.5 Q502,96 509,167 Q512,199 512,229 L512,690"/> 
            <glyph glyph-name="ų" unicode="&#x173;" horiz-adv-x="455" d=" M455,526 L455,0 L446,0 Q393,-14 358.5,-57 Q324,-100 324,-151 Q324,-203 370,-203 Q404,-203 435,-172 L435,-195 Q407,-223 366,-223 Q302,-223 302,-154 Q302,-99 338,-52 Q374,-5 433,13 L433,120 L412,68 Q354,-14 247,-14 Q168,-14 121,28 Q74,70 66,148 Q62,184 62,234 L62,526 L84,526 L84,243 Q84,192 88,156 Q96,86 135.5,46.5 Q175,7 247,7 Q325,7 379,61 Q433,115 433,214 L433,526"/> 
            <glyph glyph-name="Ŵ" unicode="&#x174;" horiz-adv-x="826" d=" M363,736 L340,736 L405,830 L428,830 L493,736 L469,736 L416,816 M826,690 L640,0 L612,0 L427,656 L228,0 L199,0 L26,690 L49,690 L215,22 L412,680 L442,680 L626,24 L804,690"/> 
            <glyph glyph-name="ŵ" unicode="&#x175;" horiz-adv-x="708" d=" M310,580 L287,580 L352,690 L375,690 L440,580 L416,580 L363,674 M708,526 L542,0 L514,0 L364,499 L214,0 L180,0 L13,526 L38,526 L197,22 L348,524 L379,524 L530,25 L684,526"/> 
            <glyph glyph-name="Ŷ" unicode="&#x176;" horiz-adv-x="536" d=" M226,736 L203,736 L268,830 L291,830 L356,736 L332,736 L279,816 M290,282 L290,0 L268,0 L268,282 L23,690 L49,690 L280,305 L509,690 L536,690"/> 
            <glyph glyph-name="ŷ" unicode="&#x177;" horiz-adv-x="449" d=" M177,580 L154,580 L219,690 L242,690 L307,580 L283,580 L230,674 M449,526 L246,0 Q212,-89 182.5,-136.5 Q153,-184 130,-197 Q107,-210 75,-210 Q55,-210 40,-206 L40,-186 Q57,-190 79,-190 Q112,-190 141,-160 Q170,-130 202,-52 L219,-10 L13,526 L38,526 L231,18 L424,526"/> 
            <glyph glyph-name="Ÿ" unicode="&#x178;" horiz-adv-x="536" d=" M252,763 Q236,763 230,769 Q224,775 224,783 Q224,791 230,797 Q236,803 244,803 Q252,803 258,797 Q264,791 264,783 Q264,775 252,763 M322,763 Q306,763 300,769 Q294,775 294,783 Q294,791 300,797 Q306,803 314,803 Q322,803 328,797 Q334,791 334,783 Q334,775 322,763 M290,282 L290,0 L268,0 L268,282 L23,690 L49,690 L280,305 L509,690 L536,690"/> 
            <glyph glyph-name="Ź" unicode="&#x179;" horiz-adv-x="512" d=" M281,736 L262,736 L315,830 L343,830 M512,21 L512,0 L36,0 L36,17 L480,669 L64,669 L64,690 L506,690 L506,670 L64,21"/> 
            <glyph glyph-name="ź" unicode="&#x17A;" horiz-adv-x="422" d=" M229,580 L210,580 L270,690 L298,690 M422,19 L422,0 L13,0 L13,18 L390,497 L40,497 L40,518 L419,518 L419,498 L41,19"/> 
            </font>
</defs>
</svg>
