<?xml version="1.0" standalone="no"?>
<!DOCTYPE svg PUBLIC "-//W3C//DTD SVG 1.1//EN" "http://www.w3.org/Graphics/SVG/1.1/DTD/svg11.dtd" >
<svg xmlns="http://www.w3.org/2000/svg">
    <defs>
        <font id="Aileron-Heavy">
            <font-face font-family="Aileron-Heavy"
                       units-per-em="1000"
                       ascent="970"
                       descent="-230"
                       bbox="-113 -223 1094 918"
                    />
            <missing-glyph horiz-adv-x="0" />
            
            <glyph glyph-name="!" unicode="&#x21;" horiz-adv-x="219" d=" M197,203 L74,203 L62,690 L209,690 M98,152 Q172,152 195.5,129 Q219,106 219,69 Q219,32 195.5,9 Q172,-14 135,-14 Q98,-14 75,9 Q52,32 52,69 Q52,106 98,152"/> 
            <glyph glyph-name="&quot;" unicode="&#x22;" horiz-adv-x="356" d=" M164,451 L58,451 L43,735 L178,735 M341,451 L235,451 L221,735 L356,735"/> 
            <glyph glyph-name="#" unicode="&#x23;" horiz-adv-x="571" d=" M467,399 L444,292 L541,292 L541,206 L426,206 L382,0 L291,0 L335,206 L247,206 L203,0 L112,0 L156,206 L71,206 L71,292 L174,292 L197,399 L101,399 L101,485 L215,485 L259,690 L350,690 L306,485 L394,485 L438,690 L529,690 L485,485 L571,485 L571,399 M376,399 L288,399 L265,292 L353,292"/> 
            <glyph glyph-name="$" unicode="&#x24;" horiz-adv-x="596" d=" M596,186 Q596,102 534,50 Q472,-2 371,-12 L371,-90 L281,-90 L281,-12 Q177,-3 115.5,49 Q54,101 45,197 L195,197 Q208,120 281,101 L281,284 Q175,320 124,368 Q73,416 73,496 Q73,586 132,638 Q191,690 281,701 L281,780 L371,780 L371,702 Q472,691 527,636 Q582,581 593,493 L442,493 Q432,570 371,589 L371,414 Q492,375 544,323.5 Q596,272 596,186 M218,513 Q218,481 233.5,462.5 Q249,444 281,431 L281,591 Q218,575 218,513 M371,263 L371,98 Q444,112 444,177 Q444,236 371,263"/> 
            <glyph glyph-name="%" unicode="&#x25;" horiz-adv-x="738" d=" M191,703 Q264,703 306,659 Q348,615 348,537 Q348,459 306,414.5 Q264,370 191,370 Q117,370 75.5,414 Q34,458 34,537 Q34,615 75.5,659 Q117,703 191,703 M223,0 L109,0 L556,690 L670,690 M246,625 Q136,625 136,537 Q136,448 191,448 Q246,448 246,537 M581,319 Q655,319 696.5,275 Q738,231 738,153 Q738,74 696.5,30 Q655,-14 581,-14 Q508,-14 466,30.5 Q424,75 424,153 Q424,231 466,275 Q508,319 581,319 M636,241 Q526,241 526,153 Q526,64 581,64 Q636,64 636,153"/> 
            <glyph glyph-name="&amp;" unicode="&#x26;" horiz-adv-x="675" d=" M675,411 L675,289 L582,289 L582,12 Q465,-14 330,-14 Q49,-14 49,177 Q49,248 93.5,294 Q138,340 214,353 Q158,369 123,411 Q88,453 88,508 Q88,601 157.5,652.5 Q227,704 351,704 Q413,704 456,694 L456,580 Q409,588 354,588 Q253,588 253,501 Q253,458 276.5,436 Q300,414 340,412 Q358,411 397,411 L425,411 L425,497 L582,497 L582,411 M214,197 Q214,145 244,123.5 Q274,102 334,102 Q383,102 425,110 L425,289 L385,289 Q352,289 332,288 Q214,280 214,197"/> 
            <glyph glyph-name="'" unicode="&#x27;" horiz-adv-x="168" d=" M153,451 L47,451 L33,735 L168,735"/> 
            <glyph glyph-name="(" unicode="&#x28;" horiz-adv-x="343" d=" M262,780 L343,780 Q211,585 211,350 Q211,115 343,-80 L262,-80 Q114,88 114,350 Q114,612 262,780"/> 
            <glyph glyph-name=")" unicode="&#x29;" horiz-adv-x="263" d=" M35,780 L116,780 Q263,611 263,350 Q263,89 116,-80 L35,-80 Q167,115 167,350 Q167,585 35,780"/> 
            <glyph glyph-name="*" unicode="&#x2A;" horiz-adv-x="507" d=" M345,322 L476,379 L507,281 L367,249 L470,130 L387,70 L306,202 L226,70 L143,130 L246,249 L106,281 L137,379 L268,322 L255,475 L358,475"/> 
            <glyph glyph-name="+" unicode="&#x2B;" horiz-adv-x="542" d=" M542,277 L366,277 L366,78 L276,78 L276,277 L100,277 L100,357 L276,357 L276,556 L366,556 L366,357 L542,357"/> 
            <glyph glyph-name="," unicode="&#x2C;" horiz-adv-x="201" d=" M201,144 L97,-123 L-27,-123 L52,154 L201,154"/> 
            <glyph glyph-name="-" unicode="&#x2D;" horiz-adv-x="272" d=" M272,240 L32,240 L32,326 L272,326"/> 
            <glyph glyph-name="." unicode="&#x2E;" horiz-adv-x="221" d=" M90,168 Q170,168 195.5,143 Q221,118 221,77 Q221,37 195.5,11.5 Q170,-14 130,-14 Q90,-14 64.5,11.5 Q39,37 39,77 Q39,117 90,168"/> 
            <glyph glyph-name="/" unicode="&#x2F;" horiz-adv-x="340" d=" M89,-30 L-5,-30 L246,720 L340,720"/> 
            <glyph glyph-name="0" unicode="&#x30;" horiz-adv-x="597" d=" M45,704 Q597,704 597,345 Q597,-14 321,-14 Q45,-14 45,704 M264,102 Q378,102 405,159.5 Q432,217 432,345 Q432,474 405,531 Q378,588 321,588 Q264,588 237,531 Q210,474 210,345 Q210,217 264,102"/> 
            <glyph glyph-name="1" unicode="&#x31;" horiz-adv-x="483" d=" M483,690 L483,0 L326,0 L326,526 L121,416 L121,559 L286,655 Q347,690 410,690"/> 
            <glyph glyph-name="2" unicode="&#x32;" horiz-adv-x="582" d=" M301,123 L576,123 L576,0 L59,0 L59,71 L284,288 Q359,360 388,404 Q417,448 417,496 Q417,539 393.5,564.5 Q370,590 328,590 Q240,590 229,473 L228,463 L71,463 L72,473 Q83,586 152,646 Q221,706 342,706 Q457,706 519.5,651.5 Q582,597 582,504 Q582,441 546.5,383.5 Q511,326 413,232"/> 
            <glyph glyph-name="3" unicode="&#x33;" horiz-adv-x="589" d=" M444,365 Q589,333 589,202 Q589,104 513.5,45 Q438,-14 315,-14 Q192,-14 120,43 Q48,100 37,205 L36,215 L193,215 L194,205 Q202,159 233,130.5 Q264,102 312,102 Q362,102 393,128.5 Q424,155 424,197 Q424,293 297,298 L272,298 L272,403 L297,404 Q349,407 378.5,434 Q408,461 408,504 Q408,543 384.5,565.5 Q361,588 320,588 Q278,588 253.5,560.5 Q229,533 225,488 L224,478 L68,478 L69,488 Q79,583 147,643.5 Q215,704 336,704 Q450,704 511.5,652.5 Q573,601 573,522 Q573,396 444,365"/> 
            <glyph glyph-name="4" unicode="&#x34;" horiz-adv-x="607" d=" M607,159 L522,159 L522,0 L365,0 L365,159 L37,159 L37,244 L353,690 L522,690 L522,282 L607,282 M365,282 L365,519 Q341,477 323,451 L203,282"/> 
            <glyph glyph-name="5" unicode="&#x35;" horiz-adv-x="590" d=" M361,466 Q468,466 529,403 Q590,340 590,231 Q590,117 511,51.5 Q432,-14 322,-14 Q80,-14 58,191 L57,201 L214,201 L215,191 Q228,102 313,102 Q366,102 395.5,136 Q425,170 425,226 Q425,282 396,316 Q367,350 316,350 Q242,350 214,279 L69,279 L119,690 L562,690 L562,568 L248,568 L223,394 L254,440 Q298,466 361,466"/> 
            <glyph glyph-name="6" unicode="&#x36;" horiz-adv-x="593" d=" M367,463 Q477,463 535,400.5 Q593,338 593,240 Q593,122 515,54 Q437,-14 324,-14 Q187,-14 119,69 Q51,152 51,327 Q51,508 131,606 Q211,704 342,704 Q449,704 511.5,652 Q574,600 585,508 L586,498 L428,498 L426,508 Q404,588 333,588 Q218,588 211,363 L244,425 Q291,463 367,463 M322,102 Q371,102 399.5,136 Q428,170 428,221 Q428,279 400,313 Q372,347 321,347 Q277,347 247,314.5 Q217,282 217,225 Q217,170 245.5,136 Q274,102 322,102"/> 
            <glyph glyph-name="7" unicode="&#x37;" horiz-adv-x="598" d=" M598,690 L598,605 L272,0 L101,0 L412,568 L55,568 L55,690"/> 
            <glyph glyph-name="8" unicode="&#x38;" horiz-adv-x="592" d=" M461,366 Q518,347 555,303 Q592,259 592,195 Q592,88 516.5,36.5 Q441,-15 319,-15 Q192,-15 120.5,36 Q49,87 49,195 Q49,259 87,302.5 Q125,346 183,366 Q82,401 82,511 Q82,598 148,651 Q214,704 330,704 Q446,704 511,651 Q576,598 576,511 Q576,404 461,366 M328,588 Q290,588 266.5,565.5 Q243,543 243,505 Q243,464 265,441 Q287,418 327,418 Q367,418 391,441 Q415,464 415,505 Q415,543 391.5,565.5 Q368,588 328,588 M321,101 Q429,101 429,200 Q429,247 401,275.5 Q373,304 320,304 Q271,304 242,276 Q213,248 213,202 Q213,154 241.5,127.5 Q270,101 321,101"/> 
            <glyph glyph-name="9" unicode="&#x39;" horiz-adv-x="590" d=" M318,704 Q454,704 522,621 Q590,538 590,363 Q590,181 511.5,83.5 Q433,-14 299,-14 Q190,-14 128,38 Q66,90 57,183 L56,193 L214,193 L216,183 Q233,102 309,102 Q424,102 431,328 L397,265 Q349,227 275,227 Q165,227 107,289.5 Q49,352 49,450 Q49,568 127,636 Q205,704 318,704 M321,343 Q365,343 394.5,375.5 Q424,408 424,465 Q424,520 395.5,554 Q367,588 319,588 Q270,588 242,554 Q214,520 214,469 Q214,412 241.5,377.5 Q269,343 321,343"/> 
            <glyph glyph-name=":" unicode="&#x3A;" horiz-adv-x="221" d=" M90,547 Q170,547 195.5,521.5 Q221,496 221,456 Q221,416 195.5,390.5 Q170,365 130,365 Q90,365 64.5,390.5 Q39,416 39,456 Q39,496 90,547 M90,168 Q170,168 195.5,143 Q221,118 221,77 Q221,37 195.5,11.5 Q170,-14 130,-14 Q90,-14 64.5,11.5 Q39,37 39,77 Q39,117 90,168"/> 
            <glyph glyph-name=";" unicode="&#x3B;" horiz-adv-x="221" d=" M90,547 Q170,547 195.5,521.5 Q221,496 221,456 Q221,416 195.5,390.5 Q170,365 130,365 Q90,365 64.5,390.5 Q39,416 39,456 Q39,496 90,547 M201,139 L97,-123 L-27,-123 L52,157 L201,157"/> 
            <glyph glyph-name="&lt;" unicode="&#x3C;" horiz-adv-x="560" d=" M560,402 L205,266 L560,129 L560,23 L106,206 L106,325 L560,508"/> 
            <glyph glyph-name="=" unicode="&#x3D;" horiz-adv-x="557" d=" M557,377 L85,377 L85,457 L557,457 M557,177 L85,177 L85,257 L557,257"/> 
            <glyph glyph-name="&gt;" unicode="&#x3E;" horiz-adv-x="523" d=" M523,325 L523,206 L70,23 L70,128 L424,265 L70,401 L70,508"/> 
            <glyph glyph-name="?" unicode="&#x3F;" horiz-adv-x="523" d=" M287,704 Q398,704 460.5,653.5 Q523,603 523,514 Q523,458 498.5,416 Q474,374 417,325 Q376,289 360.5,265 Q345,241 341,203 L210,203 Q212,257 227.5,291 Q243,325 279,365 Q324,413 341,442.5 Q358,472 358,502 Q358,588 277,588 Q195,588 189,479 L31,479 Q34,584 103,644 Q172,704 287,704 M240,152 Q314,152 337.5,129 Q361,106 361,69 Q361,32 337.5,9 Q314,-14 277,-14 Q240,-14 217,9 Q194,32 194,69 Q194,106 240,152"/> 
            <glyph glyph-name="@" unicode="&#x40;" horiz-adv-x="866" d=" M685,470 L645,305 Q630,238 630,214 Q630,156 670,156 Q712,156 740.5,204 Q769,252 769,339 Q769,465 694,535.5 Q619,606 492,606 Q403,606 324.5,565.5 Q246,525 194.5,443 Q143,361 143,255 Q143,117 221.5,38.5 Q300,-40 440,-40 Q576,-40 670,29 L703,-47 Q579,-127 428,-127 Q358,-127 293,-105.5 Q228,-84 171.5,-41 Q115,2 81,77 Q47,152 47,249 Q47,442 177,567.5 Q307,693 495,693 Q667,693 766.5,592.5 Q866,492 866,347 Q866,205 801,137.5 Q736,70 636,70 Q524,70 497,163 L469,105 Q428,72 378,72 Q319,72 280,111 Q241,150 241,239 Q241,345 296.5,416.5 Q352,488 438,488 Q494,488 517,460 L532,406 L552,470 M430,180 Q475,180 492,249 L506,312 Q513,345 503.5,362.5 Q494,380 471,380 Q435,380 411.5,342.5 Q388,305 388,250 Q388,180 430,180"/> 
            <glyph glyph-name="A" unicode="&#x41;" horiz-adv-x="699" d=" M466,195 L241,195 L177,0 L10,0 L259,690 L453,690 L699,0 L529,0 M354,554 L280,318 L427,318"/> 
            <glyph glyph-name="B" unicode="&#x42;" horiz-adv-x="638" d=" M508,373 Q638,339 638,207 Q638,118 581,66 Q524,14 445,4 Q411,0 347,0 L85,0 L85,690 L348,690 Q402,690 437,686 Q520,676 566.5,629 Q613,582 613,512 Q613,410 508,373 M242,568 L242,412 L336,412 Q361,412 382,415 Q449,426 449,491 Q449,555 381,565 Q360,568 333,568 M397,124 Q430,126 452,149 Q474,172 474,209 Q474,249 452,270.5 Q430,292 394,295 Q378,297 346,297 L242,297 L242,123 L352,123 Q384,123 397,124"/> 
            <glyph glyph-name="C" unicode="&#x43;" horiz-adv-x="695" d=" M390,704 Q528,704 605.5,638 Q683,572 694,465 L695,455 L538,455 L536,465 Q511,588 388,588 Q311,588 264,525 Q217,462 217,350 Q217,226 264.5,164 Q312,102 387,102 Q507,102 533,233 L535,243 L692,243 L691,233 Q679,117 596,51.5 Q513,-14 381,-14 Q236,-14 144,80.5 Q52,175 52,341 Q52,510 147.5,607 Q243,704 390,704"/> 
            <glyph glyph-name="D" unicode="&#x44;" horiz-adv-x="709" d=" M421,686 Q550,672 629.5,589 Q709,506 709,354 Q709,201 628,110 Q547,19 420,4 Q385,0 332,0 L85,0 L85,690 L333,690 Q386,690 421,686 M382,125 Q456,133 500,193.5 Q544,254 544,352 Q544,447 501,502 Q458,557 383,565 Q349,568 313,568 L242,568 L242,123 L312,123 Q359,123 382,125"/> 
            <glyph glyph-name="E" unicode="&#x45;" horiz-adv-x="597" d=" M597,123 L597,0 L85,0 L85,690 L587,690 L587,568 L242,568 L242,407 L564,407 L564,285 L242,285 L242,123"/> 
            <glyph glyph-name="F" unicode="&#x46;" horiz-adv-x="587" d=" M242,568 L242,407 L554,407 L554,285 L242,285 L242,0 L85,0 L85,690 L587,690 L587,568"/> 
            <glyph glyph-name="G" unicode="&#x47;" horiz-adv-x="702" d=" M407,359 L696,359 L696,0 L572,0 L560,109 L529,37 Q474,-14 365,-14 Q222,-14 137,80 Q52,174 52,341 Q52,510 150,607 Q248,704 397,704 Q535,704 612.5,638 Q690,572 701,465 L702,455 L546,455 L544,465 Q519,588 395,588 Q317,588 267,525 Q217,462 217,350 Q217,226 266,164 Q315,102 393,102 Q453,102 493.5,136.5 Q534,171 547,237 L407,237"/> 
            <glyph glyph-name="H" unicode="&#x48;" horiz-adv-x="700" d=" M700,690 L700,0 L544,0 L544,277 L242,277 L242,0 L85,0 L85,690 L242,690 L242,400 L544,400 L544,690"/> 
            <glyph glyph-name="I" unicode="&#x49;" horiz-adv-x="242" d=" M242,0 L85,0 L85,690 L242,690"/> 
            <glyph glyph-name="J" unicode="&#x4A;" horiz-adv-x="562" d=" M562,690 L562,290 Q562,238 559,191 Q553,96 490,41 Q427,-14 304,-14 Q179,-14 116.5,48.5 Q54,111 51,224 L50,257 L206,257 L208,224 Q212,159 238,130.5 Q264,102 311,102 Q395,102 403,200 Q405,223 405,270 L405,690"/> 
            <glyph glyph-name="K" unicode="&#x4B;" horiz-adv-x="711" d=" M409,362 L699,0 L500,0 L295,274 L242,215 L242,0 L85,0 L85,690 L242,690 L242,370 L524,690 L711,690"/> 
            <glyph glyph-name="L" unicode="&#x4C;" horiz-adv-x="597" d=" M597,132 L597,0 L85,0 L85,690 L242,690 L242,132"/> 
            <glyph glyph-name="M" unicode="&#x4D;" horiz-adv-x="849" d=" M849,690 L849,0 L692,0 L692,306 Q692,464 694,535 Q671,421 637,307 L550,0 L384,0 L295,307 Q258,435 240,534 Q242,463 242,306 L242,0 L85,0 L85,690 L331,690 L470,149 L609,690"/> 
            <glyph glyph-name="N" unicode="&#x4E;" horiz-adv-x="715" d=" M715,0 L506,0 L236,494 Q242,406 242,300 L242,0 L85,0 L85,690 L286,690 L564,182 Q559,272 559,383 L559,690 L715,690"/> 
            <glyph glyph-name="O" unicode="&#x4F;" horiz-adv-x="745" d=" M399,704 Q558,704 651.5,607 Q745,510 745,345 Q745,181 651.5,83.5 Q558,-14 399,-14 Q239,-14 145.5,83.5 Q52,181 52,345 Q52,510 145.5,607 Q239,704 399,704 M399,102 Q485,102 534,166 Q583,230 583,345 Q583,460 534,524 Q485,588 399,588 Q312,588 263,524.5 Q214,461 214,345 Q214,230 263,166 Q312,102 399,102"/> 
            <glyph glyph-name="P" unicode="&#x50;" horiz-adv-x="625" d=" M437,685 Q519,675 572,620 Q625,565 625,471 Q625,378 571,322.5 Q517,267 437,257 Q393,252 334,252 L242,252 L242,0 L85,0 L85,690 L334,690 Q393,690 437,685 M383,377 Q461,387 461,471 Q461,555 383,565 Q369,567 328,567 L242,567 L242,375 L328,375 Q369,375 383,377"/> 
            <glyph glyph-name="Q" unicode="&#x51;" horiz-adv-x="760" d=" M646,114 Q702,100 760,51 L683,-49 Q635,-19 606,-8.5 Q577,2 543,2 Q512,2 470,-7 Q439,-14 399,-14 Q239,-14 145.5,83.5 Q52,181 52,345 Q52,510 145.5,607.5 Q239,705 399,705 Q558,705 651.5,607.5 Q745,510 745,345 Q745,198 646,114 M214,345 Q214,230 263,166 Q312,102 399,102 Q485,102 534,166 Q583,230 583,345 Q583,461 534,525 Q485,589 399,589 Q312,589 263,525 Q214,461 214,345"/> 
            <glyph glyph-name="R" unicode="&#x52;" horiz-adv-x="653" d=" M602,171 Q615,54 653,0 L482,0 Q457,71 449,147 Q435,264 359,270 Q340,271 304,271 L242,271 L242,0 L85,0 L85,690 L347,690 Q406,690 451,685 Q534,675 584,631 Q634,587 634,502 Q634,371 497,332 Q547,313 571.5,273.5 Q596,234 602,171 M242,386 L323,386 Q362,386 376,387 Q470,396 470,477 Q470,521 447,541 Q424,561 382,566 Q354,568 329,568 L242,568"/> 
            <glyph glyph-name="S" unicode="&#x53;" horiz-adv-x="595" d=" M320,704 Q442,704 506.5,644 Q571,584 583,483 L425,483 Q419,532 391,560 Q363,588 315,588 Q277,588 254,569.5 Q231,551 231,515 Q231,475 263,451.5 Q295,428 377,409 Q489,382 542,328.5 Q595,275 595,192 Q595,96 518.5,41 Q442,-14 332,-14 Q202,-14 125,42 Q48,98 39,207 L197,207 Q207,156 243,129 Q279,102 329,102 Q373,102 402,123 Q431,144 431,179 Q431,216 402,241 Q373,266 305,282 Q183,312 125,359.5 Q67,407 67,500 Q67,593 141,648.5 Q215,704 320,704"/> 
            <glyph glyph-name="T" unicode="&#x54;" horiz-adv-x="635" d=" M635,568 L405,568 L405,0 L249,0 L249,568 L19,568 L19,690 L635,690"/> 
            <glyph glyph-name="U" unicode="&#x55;" horiz-adv-x="663" d=" M663,690 L663,291 Q663,239 660,203 Q653,108 582,47 Q511,-14 369,-14 Q227,-14 155.5,46.5 Q84,107 77,203 Q75,239 75,291 L75,690 L231,690 L231,268 Q231,236 232,222 Q242,102 369,102 Q432,102 466.5,133.5 Q501,165 505,222 Q507,236 507,268 L507,690"/> 
            <glyph glyph-name="V" unicode="&#x56;" horiz-adv-x="721" d=" M472,0 L278,0 L32,690 L202,690 L377,121 L555,690 L721,690"/> 
            <glyph glyph-name="W" unicode="&#x57;" horiz-adv-x="1008" d=" M1008,690 L828,0 L620,0 L516,559 L405,0 L196,0 L26,690 L194,690 L300,122 L407,680 L630,680 L734,117 L847,690"/> 
            <glyph glyph-name="X" unicode="&#x58;" horiz-adv-x="696" d=" M513,0 L353,249 L204,0 L17,0 L264,348 L34,690 L216,690 L359,446 L512,690 L692,690 L451,351 L696,0"/> 
            <glyph glyph-name="Y" unicode="&#x59;" horiz-adv-x="658" d=" M415,266 L415,0 L259,0 L259,264 L15,690 L192,690 L342,402 L486,690 L658,690"/> 
            <glyph glyph-name="Z" unicode="&#x5A;" horiz-adv-x="606" d=" M606,123 L606,0 L51,0 L51,119 L413,568 L79,568 L79,690 L601,690 L601,569 L243,123"/> 
            <glyph glyph-name="[" unicode="&#x5B;" horiz-adv-x="352" d=" M352,780 L352,694 L196,694 L196,6 L352,6 L352,-80 L106,-80 L106,780"/> 
            <glyph glyph-name="\" unicode="&#x5C;" horiz-adv-x="340" d=" M340,-30 L246,-30 L-5,720 L89,720"/> 
            <glyph glyph-name="]" unicode="&#x5D;" horiz-adv-x="275" d=" M275,-80 L30,-80 L30,6 L186,6 L186,694 L30,694 L30,780 L275,780"/> 
            <glyph glyph-name="^" unicode="&#x5E;" horiz-adv-x="543" d=" M442,215 L320,529 L197,215 L98,215 L269,616 L372,616 L543,215"/> 
            <glyph glyph-name="_" unicode="&#x5F;" horiz-adv-x="450" d=" M450,-88 L50,-88 L50,-2 L450,-2"/> 
            <glyph glyph-name="`" unicode="&#x60;" horiz-adv-x="210" d=" M210,573 L124,573 L-14,695 L126,695"/> 
            <glyph glyph-name="a" unicode="&#x61;" horiz-adv-x="523" d=" M370,0 L359,78 L335,21 Q280,-14 203,-14 Q132,-14 82,27.5 Q32,69 32,142 Q32,230 107.5,278 Q183,326 323,326 L357,326 L357,335 Q357,363 355,381 Q353,406 334,422.5 Q315,439 281,439 Q207,439 201,356 L51,356 Q53,445 119.5,496 Q186,547 287,547 Q496,547 510,383 Q513,345 513,297 L513,135 Q513,74 523,0 M265,94 Q303,94 330,120.5 Q357,147 357,194 L357,233 Q282,239 237.5,219.5 Q193,200 193,155 Q193,126 212.5,110 Q232,94 265,94"/> 
            <glyph glyph-name="b" unicode="&#x62;" horiz-adv-x="629" d=" M393,547 Q502,547 565.5,472.5 Q629,398 629,278 Q629,140 556,63 Q483,-14 375,-14 Q295,-14 251,14 L216,70 L216,0 L59,0 L59,735 L216,735 L216,453 L256,512 Q302,547 393,547 M338,94 Q397,94 432.5,139 Q468,184 468,268 Q468,346 433.5,392.5 Q399,439 343,439 Q285,439 250.5,399.5 Q216,360 216,273 L216,249 Q216,169 251.5,131.5 Q287,94 338,94"/> 
            <glyph glyph-name="c" unicode="&#x63;" horiz-adv-x="548" d=" M299,547 Q408,547 475,487.5 Q542,428 548,336 L395,336 Q379,439 295,439 Q244,439 215.5,397 Q187,355 187,272 Q187,182 215.5,138 Q244,94 295,94 Q332,94 358,118.5 Q384,143 393,189 L548,189 Q533,91 463,38.5 Q393,-14 286,-14 Q171,-14 98.5,58 Q26,130 26,262 Q26,395 103.5,471 Q181,547 299,547"/> 
            <glyph glyph-name="d" unicode="&#x64;" horiz-adv-x="596" d=" M596,735 L596,0 L439,0 L439,80 L399,21 Q353,-14 262,-14 Q153,-14 89.5,61 Q26,136 26,256 Q26,393 99,470 Q172,547 280,547 Q360,547 404,519 L439,463 L439,735 M312,94 Q370,94 404.5,134 Q439,174 439,260 L439,285 Q439,364 403,401.5 Q367,439 317,439 Q258,439 222.5,394 Q187,349 187,265 Q187,187 221.5,140.5 Q256,94 312,94"/> 
            <glyph glyph-name="e" unicode="&#x65;" horiz-adv-x="560" d=" M560,276 Q560,254 557,226 L183,226 Q189,154 218,124 Q247,94 295,94 Q336,94 362.5,115 Q389,136 396,174 L551,174 Q530,83 460.5,34.5 Q391,-14 292,-14 Q175,-14 100.5,58 Q26,130 26,265 Q26,387 101.5,467 Q177,547 302,547 Q424,547 492,468 Q560,389 560,276 M295,439 Q206,439 187,325 L397,325 Q383,439 295,439"/> 
            <glyph glyph-name="f" unicode="&#x66;" horiz-adv-x="351" d=" M235,589 Q233,575 233,545 L233,529 L342,529 L342,429 L233,429 L233,0 L77,0 L77,429 L20,429 L20,529 L77,529 L77,543 Q77,585 78,603 Q91,754 291,754 Q320,754 351,747 L351,641 Q301,650 270,636.5 Q239,623 235,589"/> 
            <glyph glyph-name="g" unicode="&#x67;" horiz-adv-x="596" d=" M596,533 L596,135 Q596,61 595,32 Q591,-93 513.5,-155.5 Q436,-218 301,-218 Q183,-218 116,-170.5 Q49,-123 40,-34 L39,-24 L191,-24 L192,-33 Q196,-65 226,-83.5 Q256,-102 305,-102 Q364,-102 399,-73 Q434,-44 437,14 Q439,52 439,81 L439,95 L399,36 Q351,1 270,1 Q159,1 92.5,72 Q26,143 26,262 Q26,399 98.5,473 Q171,547 280,547 Q360,547 404,519 L439,463 L439,533 M312,109 Q370,109 404.5,149 Q439,189 439,275 L439,285 Q439,364 403,401.5 Q367,439 317,439 Q257,439 222,398.5 Q187,358 187,274 Q187,197 221,153 Q255,109 312,109"/> 
            <glyph glyph-name="h" unicode="&#x68;" horiz-adv-x="578" d=" M573,400 Q578,366 578,301 L578,0 L421,0 L421,277 Q421,324 419,351 Q412,439 324,439 Q275,438 245.5,391 Q216,344 216,247 L216,0 L59,0 L59,740 L216,740 L216,449 L260,513 Q311,547 384,547 Q467,547 515.5,508.5 Q564,470 573,400"/> 
            <glyph glyph-name="i" unicode="&#x69;" horiz-adv-x="221" d=" M99,739 Q175,739 198,717.5 Q221,696 221,660 Q221,623 198,601.5 Q175,580 137,580 Q99,580 76.5,601.5 Q54,623 54,660 Q54,696 99,739 M216,0 L59,0 L59,533 L216,533"/> 
            <glyph glyph-name="j" unicode="&#x6A;" horiz-adv-x="218" d=" M135,739 Q218,739 218,660 Q218,580 135,580 Q51,580 51,660 Q51,739 135,739 M213,533 L213,1 Q213,-28 211,-64 Q205,-136 159,-173 Q113,-210 15,-210 Q-15,-210 -41,-207 L-41,-98 Q7,-103 29,-91.5 Q51,-80 54,-48 Q56,-34 56,-1 L56,533"/> 
            <glyph glyph-name="k" unicode="&#x6B;" horiz-adv-x="607" d=" M257,204 L216,159 L216,0 L59,0 L59,735 L216,735 L216,299 L418,533 L604,533 L373,287 L607,0 L412,0"/> 
            <glyph glyph-name="l" unicode="&#x6C;" horiz-adv-x="274" d=" M212,735 L212,182 Q212,147 213,133 Q215,114 227.5,108 Q240,102 274,103 L274,-4 Q224,-9 180,-9 Q63,-9 57,90 Q55,116 55,179 L55,735"/> 
            <glyph glyph-name="m" unicode="&#x6D;" horiz-adv-x="885" d=" M880,414 Q885,380 885,315 L885,0 L728,0 L728,275 Q728,320 724,356 Q715,439 640,439 Q550,439 550,277 L550,0 L394,0 L394,275 Q394,320 390,356 Q379,439 305,439 Q216,439 216,277 L216,0 L59,0 L59,533 L216,533 L216,450 L256,516 Q303,547 371,547 Q435,547 477.5,519 Q520,491 537,444 L591,516 Q637,547 705,547 Q780,547 825,509.5 Q870,472 880,414"/> 
            <glyph glyph-name="n" unicode="&#x6E;" horiz-adv-x="578" d=" M573,400 Q578,366 578,301 L578,0 L421,0 L421,277 Q421,324 419,351 Q412,439 324,439 Q275,439 245.5,391.5 Q216,344 216,247 L216,0 L59,0 L59,533 L216,533 L216,449 L260,513 Q311,547 384,547 Q467,547 515.5,508.5 Q564,470 573,400"/> 
            <glyph glyph-name="o" unicode="&#x6F;" horiz-adv-x="588" d=" M307,547 Q437,547 512.5,470 Q588,393 588,267 Q588,141 512.5,63.5 Q437,-14 307,-14 Q176,-14 101,63 Q26,140 26,267 Q26,393 101,470 Q176,547 307,547 M307,94 Q363,94 394.5,139 Q426,184 426,267 Q426,350 394.5,394.5 Q363,439 307,439 Q250,439 218.5,394.5 Q187,350 187,267 Q187,184 218.5,139 Q250,94 307,94"/> 
            <glyph glyph-name="p" unicode="&#x70;" horiz-adv-x="629" d=" M393,547 Q502,547 565.5,472.5 Q629,398 629,278 Q629,140 556,63 Q483,-14 375,-14 Q295,-14 251,14 L216,70 L216,-196 L59,-196 L59,533 L216,533 L216,453 L256,512 Q302,547 393,547 M338,94 Q397,94 432.5,139 Q468,184 468,268 Q468,346 433.5,392.5 Q399,439 343,439 Q285,439 250.5,399.5 Q216,360 216,273 L216,249 Q216,169 251.5,131.5 Q287,94 338,94"/> 
            <glyph glyph-name="q" unicode="&#x71;" horiz-adv-x="596" d=" M596,533 L596,-196 L439,-196 L439,80 L399,21 Q353,-14 262,-14 Q153,-14 89.5,61 Q26,136 26,256 Q26,393 99,470 Q172,547 280,547 Q360,547 404,519 L439,463 L439,533 M312,94 Q370,94 404.5,134 Q439,174 439,260 L439,285 Q439,364 403,401.5 Q367,439 317,439 Q258,439 222.5,394 Q187,349 187,265 Q187,187 221.5,140.5 Q256,94 312,94"/> 
            <glyph glyph-name="r" unicode="&#x72;" horiz-adv-x="393" d=" M353,547 Q369,547 393,543 L393,416 Q299,422 257.5,378.5 Q216,335 216,223 L216,0 L59,0 L59,533 L216,533 L216,431 L256,505 Q296,547 353,547"/> 
            <glyph glyph-name="s" unicode="&#x73;" horiz-adv-x="491" d=" M263,547 Q357,547 413,500.5 Q469,454 479,378 L324,378 Q310,447 253,447 Q228,447 213,433 Q198,419 198,398 Q198,371 224.5,353.5 Q251,336 322,318 Q406,297 448.5,258.5 Q491,220 491,149 Q491,69 427.5,27.5 Q364,-14 265,-14 Q160,-14 95,31 Q30,76 20,164 L175,164 Q183,127 207.5,107 Q232,87 266,87 Q296,87 315,100 Q334,113 334,137 Q334,165 305.5,183 Q277,201 206,218 Q126,238 83.5,276 Q41,314 41,379 Q41,457 101.5,502 Q162,547 263,547"/> 
            <glyph glyph-name="t" unicode="&#x74;" horiz-adv-x="360" d=" M247,429 L247,205 Q247,169 248,155 Q251,115 270.5,103 Q290,91 350,95 L350,-5 Q299,-13 253,-13 Q168,-13 132.5,14.5 Q97,42 92,103 Q90,130 90,184 L90,429 L9,429 L9,529 L90,529 L90,663 L247,663 L247,529 L360,529 L360,429"/> 
            <glyph glyph-name="u" unicode="&#x75;" horiz-adv-x="568" d=" M568,533 L568,0 L412,0 L412,91 L367,20 Q316,-14 243,-14 Q164,-14 114.5,24.5 Q65,63 55,121 Q50,155 50,220 L50,533 L206,533 L206,254 Q206,217 210,181 Q221,95 306,95 Q355,95 383.5,135.5 Q412,176 412,248 L412,533"/> 
            <glyph glyph-name="v" unicode="&#x76;" horiz-adv-x="589" d=" M589,533 L381,0 L209,0 L0,533 L174,533 L297,121 L419,533"/> 
            <glyph glyph-name="w" unicode="&#x77;" horiz-adv-x="852" d=" M852,533 L683,0 L507,0 L427,387 L346,0 L169,0 L0,533 L174,533 L257,131 L334,530 L521,530 L602,130 L683,533"/> 
            <glyph glyph-name="x" unicode="&#x78;" horiz-adv-x="561" d=" M376,269 L561,0 L378,0 L280,174 L178,0 L-2,0 L185,270 L5,533 L188,533 L284,366 L379,533 L559,533"/> 
            <glyph glyph-name="y" unicode="&#x79;" horiz-adv-x="589" d=" M589,533 L376,-11 Q331,-126 280,-168 Q229,-210 141,-210 Q102,-210 73,-206 L73,-101 Q87,-103 117,-103 Q185,-103 212,-41 L219,-24 L0,533 L175,533 L297,121 L418,533"/> 
            <glyph glyph-name="z" unicode="&#x7A;" horiz-adv-x="481" d=" M481,101 L481,0 L31,0 L31,95 L311,428 L47,428 L47,529 L478,529 L478,429 L200,101"/> 
            <glyph glyph-name="{" unicode="&#x7B;" horiz-adv-x="338" d=" M338,694 L318,694 Q279,694 265,685.5 Q251,677 251,652 Q251,631 261,560 Q273,484 273,452 Q273,370 188,352 Q273,334 273,248 Q273,216 261,140 Q251,70 251,48 Q251,23 265,14.5 Q279,6 318,6 L338,6 L338,-80 L297,-80 Q225,-80 193,-53 Q161,-26 161,34 Q161,64 173,150 Q183,213 183,245 Q183,302 101,307 L101,393 Q183,399 183,455 Q183,487 173,550 Q161,635 161,667 Q161,727 193,753.5 Q225,780 297,780 L338,780"/> 
            <glyph glyph-name="|" unicode="&#x7C;" horiz-adv-x="199" d=" M199,-200 L98,-200 L98,800 L199,800"/> 
            <glyph glyph-name="}" unicode="&#x7D;" horiz-adv-x="298" d=" M298,393 L298,307 Q216,302 216,245 Q216,216 225,150 Q237,74 237,34 Q237,-26 205.5,-53 Q174,-80 102,-80 L61,-80 L61,6 L80,6 Q120,6 134,14.5 Q148,23 148,48 Q148,72 137,140 Q126,220 126,248 Q126,332 210,348 Q126,366 126,452 Q126,480 137,560 Q148,630 148,652 Q148,677 134,685.5 Q120,694 80,694 L61,694 L61,780 L102,780 Q174,780 205.5,753.5 Q237,727 237,667 Q237,626 225,550 Q216,484 216,455 Q216,399 298,393"/> 
            <glyph glyph-name="~" unicode="&#x7E;" horiz-adv-x="558" d=" M472,394 L558,394 Q558,223 431,223 Q402,223 377.5,232 Q353,241 308,264 Q242,299 217,299 Q171,299 171,223 L85,223 Q85,394 211,394 Q232,394 253.5,388 Q275,382 289.5,375.5 Q304,369 335,353 Q400,318 426,318 Q450,318 461,335.5 Q472,353 472,394"/> 
            <glyph glyph-name="¡" unicode="&#xA1;" horiz-adv-x="219" d=" M172,378 Q98,378 75,401 Q52,424 52,461 Q52,498 75,521 Q98,544 135,544 Q172,544 195.5,521 Q219,498 219,461 Q219,424 172,378 M74,328 L197,328 L209,-160 L62,-160"/> 
            <glyph glyph-name="¢" unicode="&#xA2;" horiz-adv-x="582" d=" M371,429 L371,102 Q429,127 442,189 L582,189 Q569,103 513.5,52 Q458,1 371,-11 L371,-90 L281,-90 L281,-12 Q182,1 121,73 Q60,145 60,260 Q60,377 121.5,450.5 Q183,524 281,540 L281,620 L371,620 L371,542 Q464,532 520.5,474.5 Q577,417 582,333 L444,333 Q433,406 371,429 M206,270 Q206,142 281,105 L281,426 Q206,389 206,270"/> 
            <glyph glyph-name="£" unicode="&#xA3;" horiz-adv-x="580" d=" M580,123 L580,0 L64,0 L64,109 Q166,128 166,223 Q166,256 153,296 L73,296 L73,376 L118,376 Q94,435 94,491 Q94,589 160.5,646.5 Q227,704 335,704 Q448,704 507.5,645.5 Q567,587 574,497 L416,497 Q408,588 334,588 Q299,588 279,563.5 Q259,539 259,504 Q259,451 290,376 L489,376 L489,296 L318,296 Q325,269 325,242 Q325,161 242,123"/> 
            <glyph glyph-name="¤" unicode="&#xA4;" horiz-adv-x="526" d=" M501,301 Q501,247 473,203 L526,150 L473,97 L420,150 Q375,121 321,121 Q267,121 222,150 L169,97 L116,150 L169,203 Q141,247 141,301 Q141,356 170,399 L116,453 L169,506 L222,452 Q269,481 321,481 Q373,481 420,452 L473,506 L526,453 L472,399 Q501,356 501,301 M283,206 Q359,206 383,232 Q407,258 407,301 Q407,344 383,370 Q359,396 321,396 Q283,396 258.5,370 Q234,344 234,301 Q234,258 283,206"/> 
            <glyph glyph-name="¥" unicode="&#xA5;" horiz-adv-x="618" d=" M443,374 L552,374 L552,288 L399,288 L399,230 L552,230 L552,144 L399,144 L399,0 L243,0 L243,144 L90,144 L90,230 L243,230 L243,288 L90,288 L90,374 L199,374 L24,690 L190,690 L325,382 L457,690 L618,690"/> 
            <glyph glyph-name="¦" unicode="&#xA6;" horiz-adv-x="187" d=" M187,350 L98,350 L98,690 L187,690 M187,-160 L98,-160 L98,180 L187,180"/> 
            <glyph glyph-name="§" unicode="&#xA7;" horiz-adv-x="588" d=" M588,237 Q588,141 501,91 Q527,54 527,3 Q527,-80 462,-127 Q397,-174 298,-174 Q196,-174 130.5,-128.5 Q65,-83 55,5 L210,5 Q219,-33 243.5,-53.5 Q268,-74 301,-74 Q331,-74 350,-58 Q369,-42 369,-12 Q369,25 336.5,51 Q304,77 216,103 Q120,131 72.5,174.5 Q25,218 25,296 Q25,392 107,442 Q87,474 87,515 Q87,599 148,651.5 Q209,704 308,704 Q402,704 458,656.5 Q514,609 524,529 L369,529 Q355,604 300,604 Q276,604 260.5,587 Q245,570 245,541 Q245,501 271,479 Q297,457 371,438 Q485,408 536.5,361 Q588,314 588,237 M293,206 Q353,188 398,167 Q430,186 430,223 Q430,259 402,283 Q374,307 308,326 Q254,341 210,361 Q183,344 183,301 Q183,268 210,245.5 Q237,223 293,206"/> 
            <glyph glyph-name="¨" unicode="&#xA8;" horiz-adv-x="311" d=" M27,705 Q87,705 106,687 Q125,669 125,639 Q125,609 106,591 Q87,573 57,573 Q27,573 8,591 Q-11,609 -11,639 Q-11,669 27,705 M213,705 Q273,705 292,687 Q311,669 311,639 Q311,609 292,591 Q273,573 243,573 Q213,573 194.5,591 Q176,609 176,639 Q176,669 213,705"/> 
            <glyph glyph-name="©" unicode="&#xA9;" horiz-adv-x="834" d=" M250,755 Q604,755 719,642.5 Q834,530 834,355 Q834,180 719,67.5 Q604,-45 427,-45 Q250,-45 135.5,68 Q21,181 21,355 Q21,529 250,755 M427,669 Q293,669 205.5,580 Q118,491 118,355 Q118,219 205.5,131 Q293,43 427,43 Q562,43 649.5,131 Q737,219 737,355 Q737,492 649.5,580.5 Q562,669 427,669 M436,583 Q527,583 581,534 Q635,485 643,402 L510,402 Q502,490 431,490 Q349,490 349,356 Q349,219 434,219 Q465,219 485.5,241.5 Q506,264 509,307 L642,307 Q629,222 575,174 Q521,126 428,126 Q330,126 269.5,187.5 Q209,249 209,355 Q209,458 271,520.5 Q333,583 436,583"/> 
            <glyph glyph-name="«" unicode="&#xAB;" horiz-adv-x="615" d=" M393,414 L256,248 L393,82 L278,82 L141,248 L278,414 M615,414 L478,248 L615,82 L500,82 L363,248 L500,414"/> 
            <glyph glyph-name="¬" unicode="&#xAC;" horiz-adv-x="516" d=" M516,182 L427,182 L427,309 L115,309 L115,395 L516,395"/> 
            <glyph glyph-name="®" unicode="&#xAE;" horiz-adv-x="456" d=" M153,764 Q339,764 397.5,705 Q456,646 456,554 Q456,462 397.5,403 Q339,344 246,344 Q153,344 94.5,403 Q36,462 36,554 Q36,646 153,764 M179,398 Q313,398 356,442 Q399,486 399,554 Q399,623 356,667 Q313,711 246,711 Q179,711 136,667 Q93,623 93,554 Q93,486 179,398 M298,554 Q324,546 327,508 Q331,474 340,454 L275,454 Q272,468 268,496 Q265,523 239,523 L224,523 L224,454 L166,454 L166,665 L242,665 Q260,665 269,664 Q338,656 338,605 Q338,565 298,554 M255,569 Q275,572 275,594 Q275,617 255,620 Q249,621 236,621 L224,621 L224,568 L236,568 Q249,568 255,569"/> 
            <glyph glyph-name="¯" unicode="&#xAF;" horiz-adv-x="293" d=" M293,591 L8,591 L8,676 L293,676"/> 
            <glyph glyph-name="°" unicode="&#xB0;" horiz-adv-x="293" d=" M157,704 Q217,704 255,667.5 Q293,631 293,573 Q293,515 255,478.5 Q217,442 157,442 Q98,442 60,478.5 Q22,515 22,573 Q22,631 60,667.5 Q98,704 157,704 M157,624 Q137,624 122.5,609.5 Q108,595 108,573 Q108,551 122.5,536.5 Q137,522 157,522 Q178,522 192.5,536.5 Q207,551 207,573 Q207,595 192.5,609.5 Q178,624 157,624"/> 
            <glyph glyph-name="±" unicode="&#xB1;" horiz-adv-x="523" d=" M366,361 L523,361 L523,275 L366,275 L366,122 L276,122 L276,275 L118,275 L118,361 L276,361 L276,512 L366,512 M523,0 L118,0 L118,80 L523,80"/> 
            <glyph glyph-name="´" unicode="&#xB4;" horiz-adv-x="325" d=" M187,573 L101,573 L185,695 L325,695"/> 
            <glyph glyph-name="¶" unicode="&#xB6;" horiz-adv-x="545" d=" M545,690 L545,-110 L456,-110 L456,604 L348,604 L348,-110 L258,-110 L258,320 L253,320 Q214,320 197,321 Q123,325 81.5,377.5 Q40,430 40,505 Q40,580 81.5,632.5 Q123,685 197,689 Q214,690 253,690"/> 
            <glyph glyph-name="·" unicode="&#xB7;" horiz-adv-x="223" d=" M130,397 Q171,397 197,371 Q223,345 223,305 Q223,265 197,239 Q171,213 130,213 Q90,213 64,238.5 Q38,264 38,305 Q38,346 64,371.5 Q90,397 130,397"/> 
            <glyph glyph-name="¸" unicode="&#xB8;" horiz-adv-x="258" d=" M192,9 L166,-41 Q258,-53 258,-120 Q258,-210 100,-210 Q66,-210 45,-203 L45,-140 Q76,-148 102,-148 Q162,-148 162,-117 Q162,-79 66,-86 L113,9"/> 
            <glyph glyph-name="»" unicode="&#xBB;" horiz-adv-x="522" d=" M299,248 L162,82 L47,82 L184,248 L47,414 L162,414 M522,248 L385,82 L270,82 L407,248 L270,414 L385,414"/> 
            <glyph glyph-name="¿" unicode="&#xBF;" horiz-adv-x="544" d=" M335,381 Q261,381 238,404 Q215,427 215,464 Q215,501 238,524 Q261,547 298,547 Q335,547 358.5,524 Q382,501 382,464 Q382,427 335,381 M288,-171 Q177,-171 115,-120.5 Q53,-70 53,20 Q53,76 77.5,118 Q102,160 158,208 Q199,244 214.5,268.5 Q230,293 234,331 L365,331 Q363,276 348,242 Q333,208 297,168 Q252,120 235,90.5 Q218,61 218,31 Q218,-55 299,-55 Q381,-55 387,54 L544,54 Q541,-51 472.5,-111 Q404,-171 288,-171"/> 
            <glyph glyph-name="À" unicode="&#xC0;" horiz-adv-x="699" d=" M324,735 L188,853 L328,853 L410,735 M466,195 L241,195 L177,0 L10,0 L259,690 L453,690 L699,0 L529,0 M354,554 L280,318 L427,318"/> 
            <glyph glyph-name="Á" unicode="&#xC1;" horiz-adv-x="699" d=" M393,735 L307,735 L389,853 L529,853 M466,195 L241,195 L177,0 L10,0 L259,690 L453,690 L699,0 L529,0 M354,554 L280,318 L427,318"/> 
            <glyph glyph-name="Â" unicode="&#xC2;" horiz-adv-x="699" d=" M324,735 L230,735 L293,853 L420,853 L483,735 L388,735 L355,806 M466,195 L241,195 L177,0 L10,0 L259,690 L453,690 L699,0 L529,0 M354,554 L280,318 L427,318"/> 
            <glyph glyph-name="Ã" unicode="&#xC3;" horiz-adv-x="699" d=" M303,772 Q288,772 288,744 L207,744 Q207,806 226.5,834 Q246,862 287,862 Q323,862 364,845 Q398,831 409,831 Q424,831 424,859 L506,859 Q506,797 486.5,769 Q467,741 425,741 Q390,741 348,758 Q314,772 303,772 M466,195 L241,195 L177,0 L10,0 L259,690 L453,690 L699,0 L529,0 M354,554 L280,318 L427,318"/> 
            <glyph glyph-name="Ä" unicode="&#xC4;" horiz-adv-x="699" d=" M294,726 Q234,726 215,744 Q196,762 196,792 Q196,822 215,840 Q234,858 264,858 Q294,858 312.5,840 Q331,822 331,792 Q331,762 294,726 M479,726 Q419,726 400,744 Q381,762 381,792 Q381,822 400,840 Q419,858 449,858 Q479,858 497.5,840 Q516,822 516,792 Q516,762 479,726 M466,195 L241,195 L177,0 L10,0 L259,690 L453,690 L699,0 L529,0 M354,554 L280,318 L427,318"/> 
            <glyph glyph-name="Å" unicode="&#xC5;" horiz-adv-x="699" d=" M406,721 Q306,721 275,748.5 Q244,776 244,819 Q244,863 275.5,890.5 Q307,918 356,918 Q405,918 436.5,890.5 Q468,863 468,819 Q468,776 406,721 M373,859 Q339,859 329,848 Q319,837 319,819 Q319,802 329.5,790.5 Q340,779 356,779 Q372,779 382.5,790.5 Q393,802 393,819 Q393,837 373,859 M466,195 L241,195 L177,0 L10,0 L259,690 L453,690 L699,0 L529,0 M354,554 L280,318 L427,318"/> 
            <glyph glyph-name="Æ" unicode="&#xC6;" horiz-adv-x="945" d=" M945,123 L945,0 L464,0 L442,218 L235,218 L126,0 L-40,0 L329,690 L935,690 L935,568 L562,568 L579,407 L912,407 L912,285 L591,285 L608,123 M430,340 L407,563 L296,340"/> 
            <glyph glyph-name="Ç" unicode="&#xC7;" horiz-adv-x="695" d=" M535,243 L692,243 L691,233 Q680,121 602.5,56 Q525,-9 400,-14 L386,-41 Q478,-53 478,-120 Q478,-210 320,-210 Q286,-210 265,-203 L265,-140 Q296,-148 322,-148 Q382,-148 382,-117 Q382,-79 286,-86 L324,-10 Q201,8 126.5,100.5 Q52,193 52,341 Q52,510 147.5,607 Q243,704 390,704 Q528,704 605.5,638 Q683,572 694,465 L695,455 L538,455 L536,465 Q511,588 388,588 Q311,588 264,525 Q217,462 217,350 Q217,226 264.5,164 Q312,102 387,102 Q507,102 533,233"/> 
            <glyph glyph-name="È" unicode="&#xC8;" horiz-adv-x="597" d=" M307,735 L171,853 L311,853 L393,735 M597,123 L597,0 L85,0 L85,690 L587,690 L587,568 L242,568 L242,407 L564,407 L564,285 L242,285 L242,123"/> 
            <glyph glyph-name="É" unicode="&#xC9;" horiz-adv-x="597" d=" M376,735 L290,735 L372,853 L512,853 M597,123 L597,0 L85,0 L85,690 L587,690 L587,568 L242,568 L242,407 L564,407 L564,285 L242,285 L242,123"/> 
            <glyph glyph-name="Ê" unicode="&#xCA;" horiz-adv-x="597" d=" M307,735 L213,735 L276,853 L403,853 L466,735 L371,735 L338,806 M597,123 L597,0 L85,0 L85,690 L587,690 L587,568 L242,568 L242,407 L564,407 L564,285 L242,285 L242,123"/> 
            <glyph glyph-name="Ë" unicode="&#xCB;" horiz-adv-x="597" d=" M277,726 Q217,726 198,744 Q179,762 179,792 Q179,822 198,840 Q217,858 247,858 Q277,858 295.5,840 Q314,822 314,792 Q314,762 277,726 M462,726 Q402,726 383,744 Q364,762 364,792 Q364,822 383,840 Q402,858 432,858 Q462,858 480.5,840 Q499,822 499,792 Q499,762 462,726 M597,123 L597,0 L85,0 L85,690 L587,690 L587,568 L242,568 L242,407 L564,407 L564,285 L242,285 L242,123"/> 
            <glyph glyph-name="Ì" unicode="&#xCC;" horiz-adv-x="242" d=" M217,735 L131,735 L-5,853 L135,853 M242,0 L85,0 L85,690 L242,690"/> 
            <glyph glyph-name="Í" unicode="&#xCD;" horiz-adv-x="336" d=" M200,735 L114,735 L196,853 L336,853 M242,0 L85,0 L85,690 L242,690"/> 
            <glyph glyph-name="Î" unicode="&#xCE;" horiz-adv-x="290" d=" M131,735 L37,735 L100,853 L227,853 L290,735 L195,735 L162,806 M85,690 L242,690 L242,0 L85,0"/> 
            <glyph glyph-name="Ï" unicode="&#xCF;" horiz-adv-x="323" d=" M41,858 Q101,858 119.5,840 Q138,822 138,792 Q138,762 119.5,744 Q101,726 71,726 Q41,726 22,744 Q3,762 3,792 Q3,822 41,858 M226,858 Q286,858 304.5,840 Q323,822 323,792 Q323,762 304.5,744 Q286,726 256,726 Q226,726 207,744 Q188,762 188,792 Q188,822 226,858 M242,0 L85,0 L85,690 L242,690"/> 
            <glyph glyph-name="Ð" unicode="&#xD0;" horiz-adv-x="714" d=" M427,686 Q556,672 635,589 Q714,506 714,354 Q714,201 633,110 Q552,19 426,4 Q391,0 338,0 L91,0 L91,296 L32,296 L32,382 L91,382 L91,690 L339,690 Q392,690 427,686 M387,125 Q461,133 505.5,193.5 Q550,254 550,352 Q550,447 506.5,502 Q463,557 389,565 Q355,568 319,568 L247,568 L247,382 L358,382 L358,296 L247,296 L247,123 L318,123 Q365,123 387,125"/> 
            <glyph glyph-name="Ñ" unicode="&#xD1;" horiz-adv-x="715" d=" M327,862 Q363,862 404,845 Q438,831 449,831 Q464,831 464,859 L546,859 Q546,797 526.5,769 Q507,741 465,741 Q430,741 388,758 Q354,772 343,772 Q328,772 328,744 L247,744 Q247,806 266.5,834 Q286,862 327,862 M715,0 L506,0 L236,494 Q242,406 242,300 L242,0 L85,0 L85,690 L286,690 L564,182 Q559,272 559,383 L559,690 L715,690"/> 
            <glyph glyph-name="Ò" unicode="&#xD2;" horiz-adv-x="745" d=" M367,735 L231,853 L371,853 L453,735 M399,704 Q558,704 651.5,607 Q745,510 745,345 Q745,181 651.5,83.5 Q558,-14 399,-14 Q239,-14 145.5,83.5 Q52,181 52,345 Q52,510 145.5,607 Q239,704 399,704 M399,102 Q485,102 534,166 Q583,230 583,345 Q583,460 534,524 Q485,588 399,588 Q312,588 263,524.5 Q214,461 214,345 Q214,230 263,166 Q312,102 399,102"/> 
            <glyph glyph-name="Ó" unicode="&#xD3;" horiz-adv-x="745" d=" M436,735 L350,735 L432,853 L572,853 M399,704 Q558,704 651.5,607 Q745,510 745,345 Q745,181 651.5,83.5 Q558,-14 399,-14 Q239,-14 145.5,83.5 Q52,181 52,345 Q52,510 145.5,607 Q239,704 399,704 M399,102 Q485,102 534,166 Q583,230 583,345 Q583,460 534,524 Q485,588 399,588 Q312,588 263,524.5 Q214,461 214,345 Q214,230 263,166 Q312,102 399,102"/> 
            <glyph glyph-name="Ô" unicode="&#xD4;" horiz-adv-x="745" d=" M367,735 L273,735 L336,853 L463,853 L526,735 L431,735 L398,806 M399,704 Q558,704 651.5,607 Q745,510 745,345 Q745,181 651.5,83.5 Q558,-14 399,-14 Q239,-14 145.5,83.5 Q52,181 52,345 Q52,510 145.5,607 Q239,704 399,704 M399,102 Q485,102 534,166 Q583,230 583,345 Q583,460 534,524 Q485,588 399,588 Q312,588 263,524.5 Q214,461 214,345 Q214,230 263,166 Q312,102 399,102"/> 
            <glyph glyph-name="Õ" unicode="&#xD5;" horiz-adv-x="745" d=" M346,772 Q331,772 331,744 L250,744 Q250,806 269.5,834 Q289,862 330,862 Q366,862 407,845 Q441,831 452,831 Q467,831 467,859 L549,859 Q549,797 529.5,769 Q510,741 468,741 Q434,741 391,758 Q357,772 346,772 M399,704 Q558,704 651.5,607 Q745,510 745,345 Q745,181 651.5,83.5 Q558,-14 399,-14 Q239,-14 145.5,83.5 Q52,181 52,345 Q52,510 145.5,607 Q239,704 399,704 M399,102 Q485,102 534,166 Q583,230 583,345 Q583,460 534,524 Q485,588 399,588 Q312,588 263,524.5 Q214,461 214,345 Q214,230 263,166 Q312,102 399,102"/> 
            <glyph glyph-name="Ö" unicode="&#xD6;" horiz-adv-x="745" d=" M337,726 Q277,726 258,744 Q239,762 239,792 Q239,822 258,840 Q277,858 307,858 Q337,858 355.5,840 Q374,822 374,792 Q374,762 337,726 M522,726 Q462,726 443,744 Q424,762 424,792 Q424,822 443,840 Q462,858 492,858 Q522,858 540.5,840 Q559,822 559,792 Q559,762 522,726 M399,704 Q558,704 651.5,607 Q745,510 745,345 Q745,181 651.5,83.5 Q558,-14 399,-14 Q239,-14 145.5,83.5 Q52,181 52,345 Q52,510 145.5,607 Q239,704 399,704 M399,102 Q485,102 534,166 Q583,230 583,345 Q583,460 534,524 Q485,588 399,588 Q312,588 263,524.5 Q214,461 214,345 Q214,230 263,166 Q312,102 399,102"/> 
            <glyph glyph-name="×" unicode="&#xD7;" horiz-adv-x="534" d=" M384,325 L534,175 L471,113 L321,263 L171,113 L108,175 L258,325 L108,475 L171,538 L321,388 L471,538 L534,475"/> 
            <glyph glyph-name="Ø" unicode="&#xD8;" horiz-adv-x="752" d=" M752,634 L685,567 Q747,477 747,345 Q747,181 653.5,83.5 Q560,-14 400,-14 Q265,-14 176,58 L111,-7 L48,56 L115,123 Q54,215 54,345 Q54,510 147.5,607 Q241,704 400,704 Q538,704 625,632 L690,697 M216,345 Q216,286 230,238 L527,535 Q480,588 400,588 Q314,588 265,524 Q216,460 216,345 M585,345 Q585,410 571,453 L274,156 Q322,102 400,102 Q487,102 536,166 Q585,230 585,345"/> 
            <glyph glyph-name="Ù" unicode="&#xD9;" horiz-adv-x="663" d=" M423,735 L337,735 L201,853 L341,853 M663,690 L663,291 Q663,239 660,203 Q653,108 582,47 Q511,-14 369,-14 Q227,-14 155.5,46.5 Q84,107 77,203 Q75,239 75,291 L75,690 L231,690 L231,268 Q231,236 232,222 Q242,102 369,102 Q432,102 466.5,133.5 Q501,165 505,222 Q507,236 507,268 L507,690"/> 
            <glyph glyph-name="Ú" unicode="&#xDA;" horiz-adv-x="663" d=" M406,735 L320,735 L402,853 L542,853 M663,690 L663,291 Q663,239 660,203 Q653,108 582,47 Q511,-14 369,-14 Q227,-14 155.5,46.5 Q84,107 77,203 Q75,239 75,291 L75,690 L231,690 L231,268 Q231,236 232,222 Q242,102 369,102 Q432,102 466.5,133.5 Q501,165 505,222 Q507,236 507,268 L507,690"/> 
            <glyph glyph-name="Û" unicode="&#xDB;" horiz-adv-x="663" d=" M337,735 L243,735 L306,853 L433,853 L496,735 L401,735 L368,806 M663,690 L663,291 Q663,239 660,203 Q653,108 582,47 Q511,-14 369,-14 Q227,-14 155.5,46.5 Q84,107 77,203 Q75,239 75,291 L75,690 L231,690 L231,268 Q231,236 232,222 Q242,102 369,102 Q432,102 466.5,133.5 Q501,165 505,222 Q507,236 507,268 L507,690"/> 
            <glyph glyph-name="Ü" unicode="&#xDC;" horiz-adv-x="663" d=" M247,858 Q307,858 325.5,840 Q344,822 344,792 Q344,762 325.5,744 Q307,726 277,726 Q247,726 228,744 Q209,762 209,792 Q209,822 247,858 M432,858 Q492,858 510.5,840 Q529,822 529,792 Q529,762 510.5,744 Q492,726 462,726 Q432,726 413,744 Q394,762 394,792 Q394,822 432,858 M663,690 L663,291 Q663,239 660,203 Q653,108 582,47 Q511,-14 369,-14 Q227,-14 155.5,46.5 Q84,107 77,203 Q75,239 75,291 L75,690 L231,690 L231,268 Q231,236 232,222 Q242,102 369,102 Q432,102 466.5,133.5 Q501,165 505,222 Q507,236 507,268 L507,690"/> 
            <glyph glyph-name="Ý" unicode="&#xDD;" horiz-adv-x="658" d=" M374,735 L288,735 L370,853 L510,853 M415,266 L415,0 L259,0 L259,264 L15,690 L192,690 L342,402 L486,690 L658,690"/> 
            <glyph glyph-name="Þ" unicode="&#xDE;" horiz-adv-x="625" d=" M445,597 Q525,587 575,535.5 Q625,484 625,393 Q625,302 575,250 Q525,198 445,188 Q401,183 342,183 L242,183 L242,0 L85,0 L85,690 L242,690 L242,602 L342,602 Q401,602 445,597 M383,308 Q461,318 461,393 Q461,467 383,477 Q368,479 327,479 L242,479 L242,306 L327,306 Q353,306 383,308"/> 
            <glyph glyph-name="ß" unicode="&#xDF;" horiz-adv-x="622" d=" M328,754 Q447,754 514.5,702 Q582,650 582,565 Q582,516 555,476 Q495,443 495,398 Q495,361 547,310 Q590,267 606,235 Q622,203 622,150 Q622,77 565,36.5 Q508,-4 425,-4 Q346,-4 297,6 L297,125 Q349,112 391,112 Q457,112 457,169 Q457,209 408,257 Q364,301 347,329.5 Q330,358 330,398 Q330,471 403,514 Q417,534 417,563 Q417,638 322,638 Q275,638 248,611.5 Q221,585 218,535 Q216,507 216,451 L216,0 L59,0 L59,443 Q59,501 61,537 Q68,640 139,697 Q210,754 328,754"/> 
            <glyph glyph-name="à" unicode="&#xE0;" horiz-adv-x="523" d=" M260,573 L122,695 L262,695 L346,573 M370,0 L359,78 L335,21 Q280,-14 203,-14 Q132,-14 82,27.5 Q32,69 32,142 Q32,230 107.5,278 Q183,326 323,326 L357,326 L357,335 Q357,363 355,381 Q353,406 334,422.5 Q315,439 281,439 Q207,439 201,356 L51,356 Q53,445 119.5,496 Q186,547 287,547 Q496,547 510,383 Q513,345 513,297 L513,135 Q513,74 523,0 M265,94 Q303,94 330,120.5 Q357,147 357,194 L357,233 Q282,239 237.5,219.5 Q193,200 193,155 Q193,126 212.5,110 Q232,94 265,94"/> 
            <glyph glyph-name="á" unicode="&#xE1;" horiz-adv-x="523" d=" M323,573 L237,573 L321,695 L461,695 M370,0 L359,78 L335,21 Q280,-14 203,-14 Q132,-14 82,27.5 Q32,69 32,142 Q32,230 107.5,278 Q183,326 323,326 L357,326 L357,335 Q357,363 355,381 Q353,406 334,422.5 Q315,439 281,439 Q207,439 201,356 L51,356 Q53,445 119.5,496 Q186,547 287,547 Q496,547 510,383 Q513,345 513,297 L513,135 Q513,74 523,0 M265,94 Q303,94 330,120.5 Q357,147 357,194 L357,233 Q282,239 237.5,219.5 Q193,200 193,155 Q193,126 212.5,110 Q232,94 265,94"/> 
            <glyph glyph-name="â" unicode="&#xE2;" horiz-adv-x="523" d=" M253,573 L160,573 L223,695 L350,695 L413,573 L319,573 L286,645 M370,0 L359,78 L335,21 Q280,-14 203,-14 Q132,-14 82,27.5 Q32,69 32,142 Q32,230 107.5,278 Q183,326 323,326 L357,326 L357,335 Q357,363 355,381 Q353,406 334,422.5 Q315,439 281,439 Q207,439 201,356 L51,356 Q53,445 119.5,496 Q186,547 287,547 Q496,547 510,383 Q513,345 513,297 L513,135 Q513,74 523,0 M265,94 Q303,94 330,120.5 Q357,147 357,194 L357,233 Q282,239 237.5,219.5 Q193,200 193,155 Q193,126 212.5,110 Q232,94 265,94"/> 
            <glyph glyph-name="ã" unicode="&#xE3;" horiz-adv-x="523" d=" M233,609 Q218,609 218,581 L137,581 Q137,643 156.5,671 Q176,699 217,699 Q253,699 294,681 Q328,667 339,667 Q354,667 354,696 L436,696 Q436,634 416.5,605.5 Q397,577 355,577 Q323,577 278,595 Q241,609 233,609 M370,0 L359,78 L335,21 Q280,-14 203,-14 Q132,-14 82,27.5 Q32,69 32,142 Q32,230 107.5,278 Q183,326 323,326 L357,326 L357,335 Q357,363 355,381 Q353,406 334,422.5 Q315,439 281,439 Q207,439 201,356 L51,356 Q53,445 119.5,496 Q186,547 287,547 Q496,547 510,383 Q513,345 513,297 L513,135 Q513,74 523,0 M265,94 Q303,94 330,120.5 Q357,147 357,194 L357,233 Q282,239 237.5,219.5 Q193,200 193,155 Q193,126 212.5,110 Q232,94 265,94"/> 
            <glyph glyph-name="ä" unicode="&#xE4;" horiz-adv-x="523" d=" M223,573 Q163,573 144,591 Q125,609 125,639 Q125,669 144,687 Q163,705 193,705 Q223,705 242,687 Q261,669 261,639 Q261,609 223,573 M409,573 Q349,573 330.5,591 Q312,609 312,639 Q312,669 330.5,687 Q349,705 379,705 Q409,705 428,687 Q447,669 447,639 Q447,609 409,573 M370,0 L359,78 L335,21 Q280,-14 203,-14 Q132,-14 82,27.5 Q32,69 32,142 Q32,230 107.5,278 Q183,326 323,326 L357,326 L357,335 Q357,363 355,381 Q353,406 334,422.5 Q315,439 281,439 Q207,439 201,356 L51,356 Q53,445 119.5,496 Q186,547 287,547 Q496,547 510,383 Q513,345 513,297 L513,135 Q513,74 523,0 M265,94 Q303,94 330,120.5 Q357,147 357,194 L357,233 Q282,239 237.5,219.5 Q193,200 193,155 Q193,126 212.5,110 Q232,94 265,94"/> 
            <glyph glyph-name="å" unicode="&#xE5;" horiz-adv-x="523" d=" M336,567 Q236,567 205,595 Q174,623 174,668 Q174,713 205,741 Q236,769 286,769 Q336,769 367,741 Q398,713 398,668 Q398,623 336,567 M303,711 Q269,711 259,699.5 Q249,688 249,668 Q249,648 259,636.5 Q269,625 286,625 Q303,625 313,636.5 Q323,648 323,668 Q323,688 303,711 M370,0 L359,78 L335,21 Q280,-14 203,-14 Q132,-14 82,27.5 Q32,69 32,142 Q32,230 107.5,278 Q183,326 323,326 L357,326 L357,335 Q357,363 355,381 Q353,406 334,422.5 Q315,439 281,439 Q207,439 201,356 L51,356 Q53,445 119.5,496 Q186,547 287,547 Q496,547 510,383 Q513,345 513,297 L513,135 Q513,74 523,0 M265,94 Q303,94 330,120.5 Q357,147 357,194 L357,233 Q282,239 237.5,219.5 Q193,200 193,155 Q193,126 212.5,110 Q232,94 265,94"/> 
            <glyph glyph-name="æ" unicode="&#xE6;" horiz-adv-x="925" d=" M925,276 Q925,254 922,226 L547,226 Q559,94 659,94 Q701,94 727.5,115 Q754,136 760,174 L915,174 Q894,83 825.5,34.5 Q757,-14 657,-14 Q506,-14 440,101 L383,28 Q324,-14 234,-14 Q142,-14 87,27.5 Q32,69 32,146 Q32,235 109,280 Q186,325 325,325 L377,325 L377,337 Q377,439 289,439 Q250,439 226.5,417 Q203,395 201,356 L51,356 Q52,445 118.5,496 Q185,547 287,547 Q428,547 475,454 Q540,547 674,547 Q791,547 858,468 Q925,389 925,276 M552,325 L762,325 Q748,439 660,439 Q570,439 552,325 M378,213 L378,226 Q282,231 237.5,215.5 Q193,200 193,158 Q193,94 274,94 Q321,94 349.5,126 Q378,158 378,213"/> 
            <glyph glyph-name="ç" unicode="&#xE7;" horiz-adv-x="548" d=" M295,94 Q332,94 358,118.5 Q384,143 393,189 L548,189 Q534,98 472,46 Q410,-6 316,-13 L301,-41 Q393,-53 393,-120 Q393,-210 235,-210 Q201,-210 180,-203 L180,-140 Q211,-148 237,-148 Q297,-148 297,-117 Q297,-79 201,-86 L238,-11 Q142,4 84,74.5 Q26,145 26,262 Q26,395 103.5,471 Q181,547 299,547 Q408,547 475,487.5 Q542,428 548,336 L395,336 Q379,439 295,439 Q244,439 215.5,397 Q187,355 187,272 Q187,182 215.5,138 Q244,94 295,94"/> 
            <glyph glyph-name="è" unicode="&#xE8;" horiz-adv-x="560" d=" M270,573 L132,695 L272,695 L356,573 M560,276 Q560,254 557,226 L183,226 Q189,154 218,124 Q247,94 295,94 Q336,94 362.5,115 Q389,136 396,174 L551,174 Q530,83 460.5,34.5 Q391,-14 292,-14 Q175,-14 100.5,58 Q26,130 26,265 Q26,387 101.5,467 Q177,547 302,547 Q424,547 492,468 Q560,389 560,276 M295,439 Q206,439 187,325 L397,325 Q383,439 295,439"/> 
            <glyph glyph-name="é" unicode="&#xE9;" horiz-adv-x="560" d=" M333,573 L247,573 L331,695 L471,695 M560,276 Q560,254 557,226 L183,226 Q189,154 218,124 Q247,94 295,94 Q336,94 362.5,115 Q389,136 396,174 L551,174 Q530,83 460.5,34.5 Q391,-14 292,-14 Q175,-14 100.5,58 Q26,130 26,265 Q26,387 101.5,467 Q177,547 302,547 Q424,547 492,468 Q560,389 560,276 M295,439 Q206,439 187,325 L397,325 Q383,439 295,439"/> 
            <glyph glyph-name="ê" unicode="&#xEA;" horiz-adv-x="560" d=" M263,573 L170,573 L233,695 L360,695 L423,573 L329,573 L296,645 M560,276 Q560,254 557,226 L183,226 Q189,154 218,124 Q247,94 295,94 Q336,94 362.5,115 Q389,136 396,174 L551,174 Q530,83 460.5,34.5 Q391,-14 292,-14 Q175,-14 100.5,58 Q26,130 26,265 Q26,387 101.5,467 Q177,547 302,547 Q424,547 492,468 Q560,389 560,276 M295,439 Q206,439 187,325 L397,325 Q383,439 295,439"/> 
            <glyph glyph-name="ë" unicode="&#xEB;" horiz-adv-x="560" d=" M233,573 Q173,573 154,591 Q135,609 135,639 Q135,669 154,687 Q173,705 203,705 Q233,705 252,687 Q271,669 271,639 Q271,609 233,573 M419,573 Q359,573 340.5,591 Q322,609 322,639 Q322,669 340.5,687 Q359,705 389,705 Q419,705 438,687 Q457,669 457,639 Q457,609 419,573 M560,276 Q560,254 557,226 L183,226 Q189,154 218,124 Q247,94 295,94 Q336,94 362.5,115 Q389,136 396,174 L551,174 Q530,83 460.5,34.5 Q391,-14 292,-14 Q175,-14 100.5,58 Q26,130 26,265 Q26,387 101.5,467 Q177,547 302,547 Q424,547 492,468 Q560,389 560,276 M295,439 Q206,439 187,325 L397,325 Q383,439 295,439"/> 
            <glyph glyph-name="ì" unicode="&#xEC;" horiz-adv-x="216" d=" M197,573 L111,573 L-27,695 L113,695 M216,0 L59,0 L59,533 L216,533"/> 
            <glyph glyph-name="í" unicode="&#xED;" horiz-adv-x="312" d=" M174,573 L88,573 L172,695 L312,695 M216,0 L59,0 L59,533 L216,533"/> 
            <glyph glyph-name="î" unicode="&#xEE;" horiz-adv-x="264" d=" M104,573 L11,573 L74,695 L201,695 L264,573 L170,573 L137,645 M59,533 L216,533 L216,0 L59,0"/> 
            <glyph glyph-name="ï" unicode="&#xEF;" horiz-adv-x="298" d=" M14,705 Q74,705 93,687 Q112,669 112,639 Q112,609 93,591 Q74,573 44,573 Q14,573 -5,591 Q-24,609 -24,639 Q-24,669 14,705 M200,705 Q260,705 279,687 Q298,669 298,639 Q298,609 279,591 Q260,573 230,573 Q200,573 181.5,591 Q163,609 163,639 Q163,669 200,705 M216,0 L59,0 L59,533 L216,533"/> 
            <glyph glyph-name="ð" unicode="&#xF0;" horiz-adv-x="599" d=" M566,633 L524,623 Q599,516 599,307 Q599,221 574.5,157 Q550,93 508,57 Q466,21 417.5,3.5 Q369,-14 315,-14 Q173,-14 99.5,62 Q26,138 26,265 Q26,397 99.5,472 Q173,547 284,547 Q333,547 382,518 L426,462 Q417,536 373,589 L244,559 L230,626 L309,645 Q275,667 237,682 L367,745 Q430,717 470,682 L552,701 M437,260 L437,289 Q437,356 403.5,394 Q370,432 317,432 Q256,432 223,387.5 Q190,343 190,267 Q190,102 316,102 Q374,102 405.5,144 Q437,186 437,260"/> 
            <glyph glyph-name="ñ" unicode="&#xF1;" horiz-adv-x="578" d=" M264,609 Q249,609 249,581 L168,581 Q168,643 187.5,671 Q207,699 248,699 Q284,699 325,681 Q359,667 370,667 Q385,667 385,696 L467,696 Q467,634 447.5,605.5 Q428,577 386,577 Q354,577 309,595 Q272,609 264,609 M573,400 Q578,366 578,301 L578,0 L421,0 L421,277 Q421,324 419,351 Q412,439 324,439 Q275,439 245.5,391.5 Q216,344 216,247 L216,0 L59,0 L59,533 L216,533 L216,449 L260,513 Q311,547 384,547 Q467,547 515.5,508.5 Q564,470 573,400"/> 
            <glyph glyph-name="ò" unicode="&#xF2;" horiz-adv-x="588" d=" M281,573 L143,695 L283,695 L367,573 M307,547 Q437,547 512.5,470 Q588,393 588,267 Q588,141 512.5,63.5 Q437,-14 307,-14 Q176,-14 101,63 Q26,140 26,267 Q26,393 101,470 Q176,547 307,547 M307,94 Q363,94 394.5,139 Q426,184 426,267 Q426,350 394.5,394.5 Q363,439 307,439 Q250,439 218.5,394.5 Q187,350 187,267 Q187,184 218.5,139 Q250,94 307,94"/> 
            <glyph glyph-name="ó" unicode="&#xF3;" horiz-adv-x="588" d=" M344,573 L258,573 L342,695 L482,695 M307,547 Q437,547 512.5,470 Q588,393 588,267 Q588,141 512.5,63.5 Q437,-14 307,-14 Q176,-14 101,63 Q26,140 26,267 Q26,393 101,470 Q176,547 307,547 M307,94 Q363,94 394.5,139 Q426,184 426,267 Q426,350 394.5,394.5 Q363,439 307,439 Q250,439 218.5,394.5 Q187,350 187,267 Q187,184 218.5,139 Q250,94 307,94"/> 
            <glyph glyph-name="ô" unicode="&#xF4;" horiz-adv-x="588" d=" M274,573 L181,573 L244,695 L371,695 L434,573 L340,573 L307,645 M307,547 Q437,547 512.5,470 Q588,393 588,267 Q588,141 512.5,63.5 Q437,-14 307,-14 Q176,-14 101,63 Q26,140 26,267 Q26,393 101,470 Q176,547 307,547 M307,94 Q363,94 394.5,139 Q426,184 426,267 Q426,350 394.5,394.5 Q363,439 307,439 Q250,439 218.5,394.5 Q187,350 187,267 Q187,184 218.5,139 Q250,94 307,94"/> 
            <glyph glyph-name="õ" unicode="&#xF5;" horiz-adv-x="588" d=" M254,609 Q239,609 239,581 L158,581 Q158,643 177.5,671 Q197,699 238,699 Q274,699 315,681 Q349,667 360,667 Q375,667 375,696 L457,696 Q457,634 437.5,605.5 Q418,577 376,577 Q344,577 299,595 Q262,609 254,609 M307,547 Q437,547 512.5,470 Q588,393 588,267 Q588,141 512.5,63.5 Q437,-14 307,-14 Q176,-14 101,63 Q26,140 26,267 Q26,393 101,470 Q176,547 307,547 M307,94 Q363,94 394.5,139 Q426,184 426,267 Q426,350 394.5,394.5 Q363,439 307,439 Q250,439 218.5,394.5 Q187,350 187,267 Q187,184 218.5,139 Q250,94 307,94"/> 
            <glyph glyph-name="ö" unicode="&#xF6;" horiz-adv-x="588" d=" M244,573 Q184,573 165,591 Q146,609 146,639 Q146,669 165,687 Q184,705 214,705 Q244,705 263,687 Q282,669 282,639 Q282,609 244,573 M430,573 Q370,573 351.5,591 Q333,609 333,639 Q333,669 351.5,687 Q370,705 400,705 Q430,705 449,687 Q468,669 468,639 Q468,609 430,573 M307,547 Q437,547 512.5,470 Q588,393 588,267 Q588,141 512.5,63.5 Q437,-14 307,-14 Q176,-14 101,63 Q26,140 26,267 Q26,393 101,470 Q176,547 307,547 M307,94 Q363,94 394.5,139 Q426,184 426,267 Q426,350 394.5,394.5 Q363,439 307,439 Q250,439 218.5,394.5 Q187,350 187,267 Q187,184 218.5,139 Q250,94 307,94"/> 
            <glyph glyph-name="÷" unicode="&#xF7;" horiz-adv-x="557" d=" M290,572 Q352,572 373.5,551 Q395,530 395,498 Q395,466 373.5,445 Q352,424 321,424 Q290,424 268.5,445.5 Q247,467 247,498 Q247,529 290,572 M557,275 L85,275 L85,361 L557,361 M290,210 Q352,210 373.5,189 Q395,168 395,136 Q395,104 373.5,83 Q352,62 321,62 Q290,62 268.5,83.5 Q247,105 247,136 Q247,167 290,210"/> 
            <glyph glyph-name="ø" unicode="&#xF8;" horiz-adv-x="612" d=" M612,498 L547,433 Q593,364 593,267 Q593,141 517.5,63.5 Q442,-14 312,-14 Q215,-14 145,31 L85,-29 L22,35 L81,94 Q31,164 31,267 Q31,393 106.5,470 Q182,547 312,547 Q414,547 485,498 L549,562 M192,267 Q192,238 197,210 L392,405 Q361,439 312,439 Q255,439 223.5,394.5 Q192,350 192,267 M431,267 Q431,293 428,314 L237,123 Q266,94 312,94 Q368,94 399.5,139 Q431,184 431,267"/> 
            <glyph glyph-name="ù" unicode="&#xF9;" horiz-adv-x="568" d=" M283,573 L145,695 L285,695 L369,573 M568,533 L568,0 L412,0 L412,91 L367,20 Q316,-14 243,-14 Q164,-14 114.5,24.5 Q65,63 55,121 Q50,155 50,220 L50,533 L206,533 L206,254 Q206,217 210,181 Q221,95 306,95 Q355,95 383.5,135.5 Q412,176 412,248 L412,533"/> 
            <glyph glyph-name="ú" unicode="&#xFA;" horiz-adv-x="568" d=" M346,573 L260,573 L344,695 L484,695 M568,533 L568,0 L412,0 L412,91 L367,20 Q316,-14 243,-14 Q164,-14 114.5,24.5 Q65,63 55,121 Q50,155 50,220 L50,533 L206,533 L206,254 Q206,217 210,181 Q221,95 306,95 Q355,95 383.5,135.5 Q412,176 412,248 L412,533"/> 
            <glyph glyph-name="û" unicode="&#xFB;" horiz-adv-x="568" d=" M276,573 L183,573 L246,695 L373,695 L436,573 L342,573 L309,645 M568,533 L568,0 L412,0 L412,91 L367,20 Q316,-14 243,-14 Q164,-14 114.5,24.5 Q65,63 55,121 Q50,155 50,220 L50,533 L206,533 L206,254 Q206,217 210,181 Q221,95 306,95 Q355,95 383.5,135.5 Q412,176 412,248 L412,533"/> 
            <glyph glyph-name="ü" unicode="&#xFC;" horiz-adv-x="568" d=" M246,573 Q186,573 167,591 Q148,609 148,639 Q148,669 167,687 Q186,705 216,705 Q246,705 265,687 Q284,669 284,639 Q284,609 246,573 M432,573 Q372,573 353.5,591 Q335,609 335,639 Q335,669 353.5,687 Q372,705 402,705 Q432,705 451,687 Q470,669 470,639 Q470,609 432,573 M568,533 L568,0 L412,0 L412,91 L367,20 Q316,-14 243,-14 Q164,-14 114.5,24.5 Q65,63 55,121 Q50,155 50,220 L50,533 L206,533 L206,254 Q206,217 210,181 Q221,95 306,95 Q355,95 383.5,135.5 Q412,176 412,248 L412,533"/> 
            <glyph glyph-name="ý" unicode="&#xFD;" horiz-adv-x="589" d=" M326,573 L240,573 L324,695 L464,695 M589,533 L376,-11 Q331,-126 280,-168 Q229,-210 141,-210 Q102,-210 73,-206 L73,-101 Q87,-103 117,-103 Q185,-103 212,-41 L219,-24 L0,533 L175,533 L297,121 L418,533"/> 
            <glyph glyph-name="þ" unicode="&#xFE;" horiz-adv-x="629" d=" M393,547 Q502,547 565.5,472.5 Q629,398 629,278 Q629,140 556,63 Q483,-14 375,-14 Q295,-14 251,14 L216,70 L216,-196 L59,-196 L59,735 L216,735 L216,453 L256,512 Q302,547 393,547 M338,94 Q397,94 432.5,139 Q468,184 468,268 Q468,346 433.5,392.5 Q399,439 343,439 Q285,439 250.5,399.5 Q216,360 216,273 L216,249 Q216,169 251.5,131.5 Q287,94 338,94"/> 
            <glyph glyph-name="ÿ" unicode="&#xFF;" horiz-adv-x="589" d=" M226,573 Q166,573 147,591 Q128,609 128,639 Q128,669 147,687 Q166,705 196,705 Q226,705 245,687 Q264,669 264,639 Q264,609 226,573 M412,573 Q352,573 333.5,591 Q315,609 315,639 Q315,669 333.5,687 Q352,705 382,705 Q412,705 431,687 Q450,669 450,639 Q450,609 412,573 M589,533 L376,-11 Q331,-126 280,-168 Q229,-210 141,-210 Q102,-210 73,-206 L73,-101 Q87,-103 117,-103 Q185,-103 212,-41 L219,-24 L0,533 L175,533 L297,121 L418,533"/> 
            <glyph glyph-name="Ā" unicode="&#x100;" horiz-adv-x="699" d=" M499,759 L214,759 L214,844 L499,844 M466,195 L241,195 L177,0 L10,0 L259,690 L453,690 L699,0 L529,0 M354,554 L280,318 L427,318"/> 
            <glyph glyph-name="ā" unicode="&#x101;" horiz-adv-x="523" d=" M429,591 L144,591 L144,676 L429,676 M370,0 L359,78 L335,21 Q280,-14 203,-14 Q132,-14 82,27.5 Q32,69 32,142 Q32,230 107.5,278 Q183,326 323,326 L357,326 L357,335 Q357,363 355,381 Q353,406 334,422.5 Q315,439 281,439 Q207,439 201,356 L51,356 Q53,445 119.5,496 Q186,547 287,547 Q496,547 510,383 Q513,345 513,297 L513,135 Q513,74 523,0 M265,94 Q303,94 330,120.5 Q357,147 357,194 L357,233 Q282,239 237.5,219.5 Q193,200 193,155 Q193,126 212.5,110 Q232,94 265,94"/> 
            <glyph glyph-name="Ă" unicode="&#x102;" horiz-adv-x="699" d=" M414,727 Q298,727 263.5,757.5 Q229,788 229,853 L310,853 Q313,804 356,804 Q399,804 402,853 L483,853 Q483,788 414,727 M466,195 L241,195 L177,0 L10,0 L259,690 L453,690 L699,0 L529,0 M354,554 L280,318 L427,318"/> 
            <glyph glyph-name="ă" unicode="&#x103;" horiz-adv-x="523" d=" M413,568 Q159,568 159,695 L240,695 Q243,645 286,645 Q329,645 332,695 L413,695 M370,0 L359,78 L335,21 Q280,-14 203,-14 Q132,-14 82,27.5 Q32,69 32,142 Q32,230 107.5,278 Q183,326 323,326 L357,326 L357,335 Q357,363 355,381 Q353,406 334,422.5 Q315,439 281,439 Q207,439 201,356 L51,356 Q53,445 119.5,496 Q186,547 287,547 Q496,547 510,383 Q513,345 513,297 L513,135 Q513,74 523,0 M265,94 Q303,94 330,120.5 Q357,147 357,194 L357,233 Q282,239 237.5,219.5 Q193,200 193,155 Q193,126 212.5,110 Q232,94 265,94"/> 
            <glyph glyph-name="Ą" unicode="&#x104;" horiz-adv-x="699" d=" M579,-82 Q579,-133 621,-133 Q644,-133 668,-112 L668,-179 Q621,-223 544,-223 Q435,-223 435,-137 Q435,-91 461.5,-52.5 Q488,-14 527,6 L466,195 L241,195 L177,0 L10,0 L259,690 L453,690 L699,0 L636,0 Q613,-2 596,-25.5 Q579,-49 579,-82 M354,554 L280,318 L427,318"/> 
            <glyph glyph-name="ą" unicode="&#x105;" horiz-adv-x="523" d=" M421,-82 Q421,-133 463,-133 Q486,-133 510,-112 L510,-179 Q463,-223 386,-223 Q277,-223 277,-137 Q277,-92 303.5,-53 Q330,-14 369,7 L359,78 L335,21 Q280,-14 203,-14 Q132,-14 82,27.5 Q32,69 32,142 Q32,230 107.5,278 Q183,326 323,326 L357,326 L357,335 Q357,363 355,381 Q353,406 334,422.5 Q315,439 281,439 Q207,439 201,356 L51,356 Q53,445 119.5,496 Q186,547 287,547 Q496,547 510,383 Q513,345 513,297 L513,135 Q513,74 523,0 L478,0 Q455,-2 438,-25.5 Q421,-49 421,-82 M265,94 Q303,94 330,120.5 Q357,147 357,194 L357,233 Q282,239 237.5,219.5 Q193,200 193,155 Q193,126 212.5,110 Q232,94 265,94"/> 
            <glyph glyph-name="Ć" unicode="&#x106;" horiz-adv-x="695" d=" M417,735 L331,735 L413,853 L553,853 M390,704 Q528,704 605.5,638 Q683,572 694,465 L695,455 L538,455 L536,465 Q511,588 388,588 Q311,588 264,525 Q217,462 217,350 Q217,226 264.5,164 Q312,102 387,102 Q507,102 533,233 L535,243 L692,243 L691,233 Q679,117 596,51.5 Q513,-14 381,-14 Q236,-14 144,80.5 Q52,175 52,341 Q52,510 147.5,607 Q243,704 390,704"/> 
            <glyph glyph-name="ć" unicode="&#x107;" horiz-adv-x="548" d=" M324,573 L238,573 L322,695 L462,695 M299,547 Q408,547 475,487.5 Q542,428 548,336 L395,336 Q379,439 295,439 Q244,439 215.5,397 Q187,355 187,272 Q187,182 215.5,138 Q244,94 295,94 Q332,94 358,118.5 Q384,143 393,189 L548,189 Q533,91 463,38.5 Q393,-14 286,-14 Q171,-14 98.5,58 Q26,130 26,262 Q26,395 103.5,471 Q181,547 299,547"/> 
            <glyph glyph-name="Ċ" unicode="&#x10A;" horiz-adv-x="695" d=" M344,883 Q416,883 438.5,861.5 Q461,840 461,806 Q461,771 438.5,749.5 Q416,728 380,728 Q344,728 321.5,749.5 Q299,771 299,806 Q299,840 344,883 M390,704 Q528,704 605.5,638 Q683,572 694,465 L695,455 L538,455 L536,465 Q511,588 388,588 Q311,588 264,525 Q217,462 217,350 Q217,226 264.5,164 Q312,102 387,102 Q507,102 533,233 L535,243 L692,243 L691,233 Q679,117 596,51.5 Q513,-14 381,-14 Q236,-14 144,80.5 Q52,175 52,341 Q52,510 147.5,607 Q243,704 390,704"/> 
            <glyph glyph-name="ċ" unicode="&#x10B;" horiz-adv-x="548" d=" M249,739 Q325,739 348,717.5 Q371,696 371,660 Q371,623 348,601.5 Q325,580 287,580 Q249,580 226.5,601.5 Q204,623 204,660 Q204,696 249,739 M299,547 Q408,547 475,487.5 Q542,428 548,336 L395,336 Q379,439 295,439 Q244,439 215.5,397 Q187,355 187,272 Q187,182 215.5,138 Q244,94 295,94 Q332,94 358,118.5 Q384,143 393,189 L548,189 Q533,91 463,38.5 Q393,-14 286,-14 Q171,-14 98.5,58 Q26,130 26,262 Q26,395 103.5,471 Q181,547 299,547"/> 
            <glyph glyph-name="Č" unicode="&#x10C;" horiz-adv-x="695" d=" M317,735 L254,853 L349,853 L382,782 L413,853 L507,853 L444,735 M535,243 L692,243 L691,233 Q679,117 596,51.5 Q513,-14 381,-14 Q236,-14 144,80.5 Q52,175 52,341 Q52,510 147.5,607 Q243,704 390,704 Q528,704 605.5,638 Q683,572 694,465 L695,455 L538,455 L536,465 Q511,588 388,588 Q311,588 264,525 Q217,462 217,350 Q217,226 264.5,164 Q312,102 387,102 Q507,102 533,233"/> 
            <glyph glyph-name="č" unicode="&#x10D;" horiz-adv-x="548" d=" M224,573 L161,695 L255,695 L289,623 L321,695 L414,695 L351,573 M295,94 Q332,94 358,118.5 Q384,143 393,189 L548,189 Q533,91 463,38.5 Q393,-14 286,-14 Q171,-14 98.5,58 Q26,130 26,262 Q26,395 103.5,471 Q181,547 299,547 Q408,547 475,487.5 Q542,428 548,336 L395,336 Q379,439 295,439 Q244,439 215.5,397 Q187,355 187,272 Q187,182 215.5,138 Q244,94 295,94"/> 
            <glyph glyph-name="Ď" unicode="&#x10E;" horiz-adv-x="709" d=" M318,735 L255,853 L350,853 L383,782 L414,853 L508,853 L445,735 M421,686 Q550,672 629.5,589 Q709,506 709,354 Q709,201 628,110 Q547,19 420,4 Q385,0 332,0 L85,0 L85,690 L333,690 Q386,690 421,686 M382,125 Q456,133 500,193.5 Q544,254 544,352 Q544,447 501,502 Q458,557 383,565 Q349,568 313,568 L242,568 L242,123 L312,123 Q359,123 382,125"/> 
            <glyph glyph-name="ď" unicode="&#x10F;" horiz-adv-x="799" d=" M799,736 L799,725 L708,565 L620,565 L696,736 M439,735 L596,735 L596,0 L439,0 L439,80 L399,21 Q353,-14 262,-14 Q153,-14 89.5,61 Q26,136 26,256 Q26,393 99,470 Q172,547 280,547 Q360,547 404,519 L439,463 M312,94 Q370,94 404.5,134 Q439,174 439,260 L439,285 Q439,364 403,401.5 Q367,439 317,439 Q258,439 222.5,394 Q187,349 187,265 Q187,187 221.5,140.5 Q256,94 312,94"/> 
            <glyph glyph-name="Đ" unicode="&#x110;" horiz-adv-x="714" d=" M427,686 Q556,672 635,589 Q714,506 714,354 Q714,201 633,110 Q552,19 426,4 Q391,0 338,0 L91,0 L91,296 L32,296 L32,382 L91,382 L91,690 L339,690 Q392,690 427,686 M387,125 Q461,133 505.5,193.5 Q550,254 550,352 Q550,447 506.5,502 Q463,557 389,565 Q355,568 319,568 L247,568 L247,382 L358,382 L358,296 L247,296 L247,123 L318,123 Q365,123 387,125"/> 
            <glyph glyph-name="đ" unicode="&#x111;" horiz-adv-x="637" d=" M637,580 L596,580 L596,0 L439,0 L439,80 L399,21 Q353,-14 262,-14 Q153,-14 89.5,61 Q26,136 26,256 Q26,393 99,470 Q172,547 280,547 Q360,547 404,519 L439,463 L439,580 L320,580 L320,666 L439,666 L439,735 L596,735 L596,666 L637,666 M312,94 Q370,94 404.5,134 Q439,174 439,260 L439,285 Q439,364 403,401.5 Q367,439 317,439 Q258,439 222.5,394 Q187,349 187,265 Q187,187 221.5,140.5 Q256,94 312,94"/> 
            <glyph glyph-name="Ē" unicode="&#x112;" horiz-adv-x="597" d=" M482,759 L197,759 L197,844 L482,844 M597,123 L597,0 L85,0 L85,690 L587,690 L587,568 L242,568 L242,407 L564,407 L564,285 L242,285 L242,123"/> 
            <glyph glyph-name="ē" unicode="&#x113;" horiz-adv-x="560" d=" M439,591 L154,591 L154,676 L439,676 M560,276 Q560,254 557,226 L183,226 Q189,154 218,124 Q247,94 295,94 Q336,94 362.5,115 Q389,136 396,174 L551,174 Q530,83 460.5,34.5 Q391,-14 292,-14 Q175,-14 100.5,58 Q26,130 26,265 Q26,387 101.5,467 Q177,547 302,547 Q424,547 492,468 Q560,389 560,276 M295,439 Q206,439 187,325 L397,325 Q383,439 295,439"/> 
            <glyph glyph-name="Ė" unicode="&#x116;" horiz-adv-x="597" d=" M375,728 Q303,728 280.5,749.5 Q258,771 258,806 Q258,840 280.5,861.5 Q303,883 339,883 Q375,883 397.5,861.5 Q420,840 420,806 Q420,771 375,728 M597,123 L597,0 L85,0 L85,690 L587,690 L587,568 L242,568 L242,407 L564,407 L564,285 L242,285 L242,123"/> 
            <glyph glyph-name="ė" unicode="&#x117;" horiz-adv-x="560" d=" M334,580 Q258,580 235.5,601.5 Q213,623 213,660 Q213,696 235.5,717.5 Q258,739 296,739 Q334,739 357,717.5 Q380,696 380,660 Q380,623 334,580 M560,276 Q560,254 557,226 L183,226 Q189,154 218,124 Q247,94 295,94 Q336,94 362.5,115 Q389,136 396,174 L551,174 Q530,83 460.5,34.5 Q391,-14 292,-14 Q175,-14 100.5,58 Q26,130 26,265 Q26,387 101.5,467 Q177,547 302,547 Q424,547 492,468 Q560,389 560,276 M295,439 Q206,439 187,325 L397,325 Q383,439 295,439"/> 
            <glyph glyph-name="Ę" unicode="&#x118;" horiz-adv-x="597" d=" M597,0 L559,0 Q536,-2 519,-25.5 Q502,-49 502,-82 Q502,-133 544,-133 Q567,-133 591,-112 L591,-179 Q544,-223 467,-223 Q358,-223 358,-137 Q358,-95 381,-58.5 Q404,-22 439,0 L85,0 L85,690 L587,690 L587,568 L242,568 L242,407 L564,407 L564,285 L242,285 L242,123 L597,123"/> 
            <glyph glyph-name="ę" unicode="&#x119;" horiz-adv-x="560" d=" M560,276 Q560,254 557,226 L183,226 Q189,154 218,124 Q247,94 295,94 Q336,94 362.5,115 Q389,136 396,174 L551,174 Q520,40 390,0 Q387,-1 381.5,-2.5 Q376,-4 373,-5 Q355,-13 344,-34 Q333,-55 333,-82 Q333,-133 375,-133 Q398,-133 422,-112 L422,-179 Q375,-223 298,-223 Q189,-223 189,-137 Q189,-65 253,-12 Q151,0 88.5,71 Q26,142 26,265 Q26,387 101.5,467 Q177,547 302,547 Q424,547 492,468 Q560,389 560,276 M295,439 Q206,439 187,325 L397,325 Q383,439 295,439"/> 
            <glyph glyph-name="Ě" unicode="&#x11A;" horiz-adv-x="597" d=" M276,735 L213,853 L308,853 L341,782 L372,853 L466,853 L403,735 M597,123 L597,0 L85,0 L85,690 L587,690 L587,568 L242,568 L242,407 L564,407 L564,285 L242,285 L242,123"/> 
            <glyph glyph-name="ě" unicode="&#x11B;" horiz-adv-x="560" d=" M233,573 L170,695 L264,695 L298,623 L330,695 L423,695 L360,573 M560,276 Q560,254 557,226 L183,226 Q189,154 218,124 Q247,94 295,94 Q336,94 362.5,115 Q389,136 396,174 L551,174 Q530,83 460.5,34.5 Q391,-14 292,-14 Q175,-14 100.5,58 Q26,130 26,265 Q26,387 101.5,467 Q177,547 302,547 Q424,547 492,468 Q560,389 560,276 M295,439 Q206,439 187,325 L397,325 Q383,439 295,439"/> 
            <glyph glyph-name="Ğ" unicode="&#x11E;" horiz-adv-x="702" d=" M440,727 Q324,727 289.5,757.5 Q255,788 255,853 L336,853 Q339,804 382,804 Q425,804 428,853 L509,853 Q509,788 440,727 M407,359 L696,359 L696,0 L572,0 L560,109 L529,37 Q474,-14 365,-14 Q222,-14 137,80 Q52,174 52,341 Q52,510 150,607 Q248,704 397,704 Q535,704 612.5,638 Q690,572 701,465 L702,455 L546,455 L544,465 Q519,588 395,588 Q317,588 267,525 Q217,462 217,350 Q217,226 266,164 Q315,102 393,102 Q453,102 493.5,136.5 Q534,171 547,237 L407,237"/> 
            <glyph glyph-name="ğ" unicode="&#x11F;" horiz-adv-x="596" d=" M450,568 Q196,568 196,695 L277,695 Q280,645 323,645 Q366,645 369,695 L450,695 M596,533 L596,135 Q596,61 595,32 Q591,-93 513.5,-155.5 Q436,-218 301,-218 Q183,-218 116,-170.5 Q49,-123 40,-34 L39,-24 L191,-24 L192,-33 Q196,-65 226,-83.5 Q256,-102 305,-102 Q364,-102 399,-73 Q434,-44 437,14 Q439,52 439,81 L439,95 L399,36 Q351,1 270,1 Q159,1 92.5,72 Q26,143 26,262 Q26,399 98.5,473 Q171,547 280,547 Q360,547 404,519 L439,463 L439,533 M312,109 Q370,109 404.5,149 Q439,189 439,275 L439,285 Q439,364 403,401.5 Q367,439 317,439 Q257,439 222,398.5 Q187,358 187,274 Q187,197 221,153 Q255,109 312,109"/> 
            <glyph glyph-name="Ġ" unicode="&#x120;" horiz-adv-x="702" d=" M418,728 Q346,728 323.5,749.5 Q301,771 301,806 Q301,840 323.5,861.5 Q346,883 382,883 Q418,883 440.5,861.5 Q463,840 463,806 Q463,771 418,728 M407,359 L696,359 L696,0 L572,0 L560,109 L529,37 Q474,-14 365,-14 Q222,-14 137,80 Q52,174 52,341 Q52,510 150,607 Q248,704 397,704 Q535,704 612.5,638 Q690,572 701,465 L702,455 L546,455 L544,465 Q519,588 395,588 Q317,588 267,525 Q217,462 217,350 Q217,226 266,164 Q315,102 393,102 Q453,102 493.5,136.5 Q534,171 547,237 L407,237"/> 
            <glyph glyph-name="ġ" unicode="&#x121;" horiz-adv-x="596" d=" M361,580 Q285,580 262.5,601.5 Q240,623 240,660 Q240,696 262.5,717.5 Q285,739 323,739 Q361,739 384,717.5 Q407,696 407,660 Q407,623 361,580 M596,533 L596,135 Q596,61 595,32 Q591,-93 513.5,-155.5 Q436,-218 301,-218 Q183,-218 116,-170.5 Q49,-123 40,-34 L39,-24 L191,-24 L192,-33 Q196,-65 226,-83.5 Q256,-102 305,-102 Q364,-102 399,-73 Q434,-44 437,14 Q439,52 439,81 L439,95 L399,36 Q351,1 270,1 Q159,1 92.5,72 Q26,143 26,262 Q26,399 98.5,473 Q171,547 280,547 Q360,547 404,519 L439,463 L439,533 M312,109 Q370,109 404.5,149 Q439,189 439,275 L439,285 Q439,364 403,401.5 Q367,439 317,439 Q257,439 222,398.5 Q187,358 187,274 Q187,197 221,153 Q255,109 312,109"/> 
            <glyph glyph-name="Ģ" unicode="&#x122;" horiz-adv-x="702" d=" M407,359 L696,359 L696,0 L572,0 L560,109 L529,37 Q474,-14 365,-14 Q222,-14 137,80 Q52,174 52,341 Q52,510 150,607 Q248,704 397,704 Q535,704 612.5,638 Q690,572 701,465 L702,455 L546,455 L544,465 Q519,588 395,588 Q317,588 267,525 Q217,462 217,350 Q217,226 266,164 Q315,102 393,102 Q453,102 493.5,136.5 Q534,171 547,237 L407,237 M353,-41 L456,-41 L456,-51 L365,-211 L277,-211"/> 
            <glyph glyph-name="ģ" unicode="&#x123;" horiz-adv-x="596" d=" M361,571 L259,571 L259,581 L349,741 L437,741 M596,533 L596,135 Q596,61 595,32 Q591,-93 513.5,-155.5 Q436,-218 301,-218 Q183,-218 116,-170.5 Q49,-123 40,-34 L39,-24 L191,-24 L192,-33 Q196,-65 226,-83.5 Q256,-102 305,-102 Q364,-102 399,-73 Q434,-44 437,14 Q439,52 439,81 L439,95 L399,36 Q351,1 270,1 Q159,1 92.5,72 Q26,143 26,262 Q26,399 98.5,473 Q171,547 280,547 Q360,547 404,519 L439,463 L439,533 M312,109 Q370,109 404.5,149 Q439,189 439,275 L439,285 Q439,364 403,401.5 Q367,439 317,439 Q257,439 222,398.5 Q187,358 187,274 Q187,197 221,153 Q255,109 312,109"/> 
            <glyph glyph-name="Ħ" unicode="&#x126;" horiz-adv-x="740" d=" M740,487 L700,487 L700,0 L544,0 L544,277 L242,277 L242,0 L85,0 L85,487 L45,487 L45,573 L85,573 L85,690 L242,690 L242,573 L544,573 L544,690 L700,690 L700,573 L740,573 M544,487 L242,487 L242,400 L544,400"/> 
            <glyph glyph-name="ħ" unicode="&#x127;" horiz-adv-x="591" d=" M586,400 Q591,366 591,301 L591,0 L434,0 L434,277 Q434,324 432,351 Q425,439 337,439 Q288,438 258.5,391 Q229,344 229,247 L229,0 L72,0 L72,580 L19,580 L19,666 L72,666 L72,740 L229,740 L229,666 L336,666 L336,580 L229,580 L229,449 L273,513 Q324,547 397,547 Q480,547 528.5,508.5 Q577,470 586,400"/> 
            <glyph glyph-name="Ī" unicode="&#x12A;" horiz-adv-x="306" d=" M306,759 L21,759 L21,844 L306,844 M242,0 L85,0 L85,690 L242,690"/> 
            <glyph glyph-name="ī" unicode="&#x12B;" horiz-adv-x="280" d=" M280,591 L-6,591 L-6,676 L280,676 M216,0 L59,0 L59,533 L216,533"/> 
            <glyph glyph-name="Į" unicode="&#x12E;" horiz-adv-x="242" d=" M242,0 L193,0 Q170,-2 153,-25.5 Q136,-49 136,-82 Q136,-133 178,-133 Q201,-133 225,-112 L225,-179 Q178,-223 101,-223 Q-8,-223 -8,-137 Q-8,-91 19,-52 Q46,-13 85,7 L85,690 L242,690"/> 
            <glyph glyph-name="į" unicode="&#x12F;" horiz-adv-x="221" d=" M175,580 Q99,580 76.5,601.5 Q54,623 54,660 Q54,696 76.5,717.5 Q99,739 137,739 Q175,739 198,717.5 Q221,696 221,660 Q221,623 175,580 M59,533 L216,533 L216,0 L167,0 Q144,-2 127,-25.5 Q110,-49 110,-82 Q110,-133 152,-133 Q175,-133 199,-112 L199,-179 Q152,-223 75,-223 Q-34,-223 -34,-137 Q-34,-91 -7,-52 Q20,-13 59,7"/> 
            <glyph glyph-name="İ" unicode="&#x130;" horiz-adv-x="244" d=" M127,883 Q199,883 221.5,861.5 Q244,840 244,806 Q244,771 221.5,749.5 Q199,728 163,728 Q127,728 104.5,749.5 Q82,771 82,806 Q82,840 127,883 M242,0 L85,0 L85,690 L242,690"/> 
            <glyph glyph-name="ı" unicode="&#x131;" horiz-adv-x="216" d=" M216,0 L59,0 L59,533 L216,533"/> 
            <glyph glyph-name="Ĳ" unicode="&#x132;" horiz-adv-x="864" d=" M242,0 L85,0 L85,690 L242,690 M864,690 L864,290 Q864,238 861,191 Q855,96 792,41 Q729,-14 606,-14 Q481,-14 418.5,48.5 Q356,111 353,224 L352,257 L508,257 L510,224 Q514,159 540,130.5 Q566,102 613,102 Q697,102 705,200 Q707,223 707,270 L707,690"/> 
            <glyph glyph-name="ĳ" unicode="&#x133;" horiz-adv-x="494" d=" M99,739 Q175,739 198,717.5 Q221,696 221,660 Q221,623 198,601.5 Q175,580 137,580 Q99,580 76.5,601.5 Q54,623 54,660 Q54,696 99,739 M411,739 Q494,739 494,660 Q494,580 411,580 Q327,580 327,660 Q327,739 411,739 M216,0 L59,0 L59,533 L216,533 M489,533 L489,1 Q489,-28 487,-64 Q481,-136 435,-173 Q389,-210 291,-210 Q260,-210 235,-207 L235,-98 Q283,-103 305,-91.5 Q327,-80 330,-48 Q332,-34 332,-1 L332,533"/> 
            <glyph glyph-name="Ķ" unicode="&#x136;" horiz-adv-x="711" d=" M409,362 L699,0 L500,0 L295,274 L242,215 L242,0 L85,0 L85,690 L242,690 L242,370 L524,690 L711,690 M321,-41 L424,-41 L424,-51 L333,-211 L245,-211"/> 
            <glyph glyph-name="ķ" unicode="&#x137;" horiz-adv-x="607" d=" M607,0 L412,0 L257,204 L216,159 L216,0 L59,0 L59,735 L216,735 L216,299 L418,533 L604,533 L373,287 M272,-41 L375,-41 L375,-51 L284,-211 L196,-211"/> 
            <glyph glyph-name="Ĺ" unicode="&#x139;" horiz-adv-x="597" d=" M200,735 L114,735 L196,853 L336,853 M597,132 L597,0 L85,0 L85,690 L242,690 L242,132"/> 
            <glyph glyph-name="ĺ" unicode="&#x13A;" horiz-adv-x="303" d=" M165,780 L79,780 L163,902 L303,902 M212,735 L212,182 Q212,147 213,133 Q215,114 227.5,108 Q240,102 274,103 L274,-4 Q224,-9 180,-9 Q63,-9 57,90 Q55,116 55,179 L55,735"/> 
            <glyph glyph-name="Ļ" unicode="&#x13B;" horiz-adv-x="597" d=" M597,132 L597,0 L85,0 L85,690 L242,690 L242,132 M301,-41 L404,-41 L404,-51 L313,-211 L225,-211"/> 
            <glyph glyph-name="ļ" unicode="&#x13C;" horiz-adv-x="274" d=" M212,735 L212,182 Q212,147 213,133 Q215,114 227.5,108 Q240,102 274,103 L274,-4 Q224,-9 180,-9 Q63,-9 57,90 Q55,116 55,179 L55,735 M218,-51 L127,-211 L39,-211 L115,-41 L218,-41"/> 
            <glyph glyph-name="Ľ" unicode="&#x13D;" horiz-adv-x="597" d=" M597,132 L597,0 L85,0 L85,690 L242,690 L242,132"/> 
            <glyph glyph-name="ľ" unicode="&#x13E;" horiz-adv-x="274" d=" M212,735 L212,182 Q212,147 213,133 Q215,114 227.5,108 Q240,102 274,103 L274,-4 Q224,-9 180,-9 Q63,-9 57,90 Q55,116 55,179 L55,735"/> 
            <glyph glyph-name="Ŀ" unicode="&#x13F;" horiz-adv-x="597" d=" M597,132 L597,0 L85,0 L85,690 L242,690 L242,132 M436,311 Q398,311 372.5,336.5 Q347,362 347,400 Q347,438 372.5,463.5 Q398,489 436,489 Q474,489 499,463.5 Q524,438 524,400 Q524,362 498.5,336.5 Q473,311 436,311"/> 
            <glyph glyph-name="ŀ" unicode="&#x140;" horiz-adv-x="439" d=" M212,735 L212,182 Q212,147 213,133 Q215,114 227.5,108 Q240,102 274,103 L274,-4 Q224,-9 180,-9 Q63,-9 57,90 Q55,116 55,179 L55,735 M355,480 Q392,480 415.5,457.5 Q439,435 439,400 Q439,365 415.5,342.5 Q392,320 355,320 Q319,320 295.5,342.5 Q272,365 272,400 Q272,435 295.5,457.5 Q319,480 355,480"/> 
            <glyph glyph-name="Ł" unicode="&#x141;" horiz-adv-x="632" d=" M632,132 L632,0 L121,0 L121,285 L23,232 L23,334 L121,387 L121,690 L277,690 L277,472 L373,524 L373,422 L277,370 L277,132"/> 
            <glyph glyph-name="ł" unicode="&#x142;" horiz-adv-x="297" d=" M237,133 Q239,114 251,108 Q263,102 297,103 L297,-4 Q249,-9 203,-9 Q86,-9 80,90 Q78,116 78,179 L78,220 L17,182 L17,288 L78,326 L78,735 L235,735 L235,425 L296,463 L296,357 L235,319 L235,182 Q235,147 237,133"/> 
            <glyph glyph-name="Ń" unicode="&#x143;" horiz-adv-x="715" d=" M433,735 L347,735 L429,853 L569,853 M715,0 L506,0 L236,494 Q242,406 242,300 L242,0 L85,0 L85,690 L286,690 L564,182 Q559,272 559,383 L559,690 L715,690"/> 
            <glyph glyph-name="ń" unicode="&#x144;" horiz-adv-x="578" d=" M492,695 L354,573 L268,573 L352,695 M573,400 Q578,366 578,301 L578,0 L421,0 L421,277 Q421,324 419,351 Q412,439 324,439 Q275,439 245.5,391.5 Q216,344 216,247 L216,0 L59,0 L59,533 L216,533 L216,449 L260,513 Q311,547 384,547 Q467,547 515.5,508.5 Q564,470 573,400"/> 
            <glyph glyph-name="Ņ" unicode="&#x145;" horiz-adv-x="715" d=" M715,0 L506,0 L236,494 Q242,406 242,300 L242,0 L85,0 L85,690 L286,690 L564,182 Q559,272 559,383 L559,690 L715,690 M463,-51 L372,-211 L284,-211 L360,-41 L463,-41"/> 
            <glyph glyph-name="ņ" unicode="&#x146;" horiz-adv-x="578" d=" M573,400 Q578,366 578,301 L578,0 L421,0 L421,277 Q421,324 419,351 Q412,439 324,439 Q275,439 245.5,391.5 Q216,344 216,247 L216,0 L59,0 L59,533 L216,533 L216,449 L260,513 Q311,547 384,547 Q467,547 515.5,508.5 Q564,470 573,400 M201,-211 L277,-41 L380,-41 L380,-51 L289,-211"/> 
            <glyph glyph-name="Ň" unicode="&#x147;" horiz-adv-x="715" d=" M333,735 L270,853 L365,853 L398,782 L429,853 L523,853 L460,735 M715,690 L715,0 L506,0 L236,494 Q242,406 242,300 L242,0 L85,0 L85,690 L286,690 L564,182 Q559,272 559,383 L559,690"/> 
            <glyph glyph-name="ň" unicode="&#x148;" horiz-adv-x="578" d=" M381,573 L254,573 L191,695 L285,695 L319,623 L351,695 L444,695 M573,400 Q578,366 578,301 L578,0 L421,0 L421,277 Q421,324 419,351 Q412,439 324,439 Q275,439 245.5,391.5 Q216,344 216,247 L216,0 L59,0 L59,533 L216,533 L216,449 L260,513 Q311,547 384,547 Q467,547 515.5,508.5 Q564,470 573,400"/> 
            <glyph glyph-name="Ŋ" unicode="&#x14A;" horiz-adv-x="715" d=" M715,690 L715,-60 Q715,-87 714,-101 Q707,-167 653.5,-195 Q600,-223 484,-223 L484,-107 Q526,-103 542,-89 Q558,-75 558,-46 L558,-23 L236,492 Q242,404 242,300 L242,0 L85,0 L85,690 L286,690 L564,222 Q559,312 559,418 L559,690"/> 
            <glyph glyph-name="ŋ" unicode="&#x14B;" horiz-adv-x="578" d=" M573,400 Q578,366 578,301 L578,-39 Q578,-66 577,-80 Q570,-150 520,-180 Q470,-210 345,-210 L345,-94 Q382,-94 399.5,-84 Q417,-74 420,-48 Q421,-39 421,-17 L421,277 Q421,324 419,351 Q412,439 324,439 Q275,439 245.5,391.5 Q216,344 216,247 L216,0 L59,0 L59,533 L216,533 L216,449 L260,513 Q311,547 384,547 Q467,547 515.5,508.5 Q564,470 573,400"/> 
            <glyph glyph-name="Ō" unicode="&#x14C;" horiz-adv-x="745" d=" M542,759 L257,759 L257,844 L542,844 M399,704 Q558,704 651.5,607 Q745,510 745,345 Q745,181 651.5,83.5 Q558,-14 399,-14 Q239,-14 145.5,83.5 Q52,181 52,345 Q52,510 145.5,607 Q239,704 399,704 M399,102 Q485,102 534,166 Q583,230 583,345 Q583,460 534,524 Q485,588 399,588 Q312,588 263,524.5 Q214,461 214,345 Q214,230 263,166 Q312,102 399,102"/> 
            <glyph glyph-name="ō" unicode="&#x14D;" horiz-adv-x="588" d=" M450,591 L165,591 L165,676 L450,676 M307,547 Q437,547 512.5,470 Q588,393 588,267 Q588,141 512.5,63.5 Q437,-14 307,-14 Q176,-14 101,63 Q26,140 26,267 Q26,393 101,470 Q176,547 307,547 M307,94 Q363,94 394.5,139 Q426,184 426,267 Q426,350 394.5,394.5 Q363,439 307,439 Q250,439 218.5,394.5 Q187,350 187,267 Q187,184 218.5,139 Q250,94 307,94"/> 
            <glyph glyph-name="Ő" unicode="&#x150;" horiz-adv-x="745" d=" M326,736 L240,736 L322,853 L462,853 M418,736 L500,853 L640,853 L504,736 M399,704 Q558,704 651.5,607 Q745,510 745,345 Q745,181 651.5,83.5 Q558,-14 399,-14 Q239,-14 145.5,83.5 Q52,181 52,345 Q52,510 145.5,607 Q239,704 399,704 M399,102 Q485,102 534,166 Q583,230 583,345 Q583,460 534,524 Q485,588 399,588 Q312,588 263,524.5 Q214,461 214,345 Q214,230 263,166 Q312,102 399,102"/> 
            <glyph glyph-name="ő" unicode="&#x151;" horiz-adv-x="588" d=" M242,573 L156,573 L239,695 L379,695 M329,573 L413,695 L553,695 L415,573 M307,547 Q437,547 512.5,470 Q588,393 588,267 Q588,141 512.5,63.5 Q437,-14 307,-14 Q176,-14 101,63 Q26,140 26,267 Q26,393 101,470 Q176,547 307,547 M307,94 Q363,94 394.5,139 Q426,184 426,267 Q426,350 394.5,394.5 Q363,439 307,439 Q250,439 218.5,394.5 Q187,350 187,267 Q187,184 218.5,139 Q250,94 307,94"/> 
            <glyph glyph-name="Œ" unicode="&#x152;" horiz-adv-x="1094" d=" M1094,123 L1094,0 L583,0 L583,112 L552,44 Q514,11 474,-1.5 Q434,-14 366,-14 Q229,-14 140.5,85.5 Q52,185 52,345 Q52,506 140.5,605 Q229,704 366,704 Q435,704 474.5,692 Q514,680 552,647 L583,578 L583,690 L1084,690 L1084,568 L739,568 L739,407 L1062,407 L1062,285 L739,285 L739,123 M313,102 Q485,102 534,166.5 Q583,231 583,345 Q583,460 534,524 Q485,588 399,588 Q312,588 263,524 Q214,460 214,345 Q214,231 313,102"/> 
            <glyph glyph-name="œ" unicode="&#x153;" horiz-adv-x="961" d=" M961,276 Q961,254 958,226 L583,226 Q595,94 695,94 Q737,94 763.5,115 Q790,136 796,174 L951,174 Q930,84 861.5,35 Q793,-14 696,-14 Q567,-14 504,87 Q441,-14 307,-14 Q176,-14 101,63 Q26,140 26,267 Q26,393 101,470 Q176,547 307,547 Q443,547 509,440 Q574,547 710,547 Q827,547 894,468 Q961,389 961,276 M307,94 Q363,94 394.5,139 Q426,184 426,267 Q426,350 394.5,394.5 Q363,439 307,439 Q250,439 218.5,394.5 Q187,350 187,267 Q187,184 218.5,139 Q250,94 307,94 M588,325 L798,325 Q784,439 696,439 Q606,439 588,325"/> 
            <glyph glyph-name="Ŕ" unicode="&#x154;" horiz-adv-x="653" d=" M388,735 L302,735 L384,853 L524,853 M602,171 Q615,54 653,0 L482,0 Q457,71 449,147 Q435,264 359,270 Q340,271 304,271 L242,271 L242,0 L85,0 L85,690 L347,690 Q406,690 451,685 Q534,675 584,631 Q634,587 634,502 Q634,371 497,332 Q547,313 571.5,273.5 Q596,234 602,171 M242,386 L323,386 Q362,386 376,387 Q470,396 470,477 Q470,521 447,541 Q424,561 382,566 Q354,568 329,568 L242,568"/> 
            <glyph glyph-name="ŕ" unicode="&#x155;" horiz-adv-x="393" d=" M243,573 L157,573 L241,695 L381,695 M353,547 Q369,547 393,543 L393,416 Q299,422 257.5,378.5 Q216,335 216,223 L216,0 L59,0 L59,533 L216,533 L216,431 L256,505 Q296,547 353,547"/> 
            <glyph glyph-name="Ŗ" unicode="&#x156;" horiz-adv-x="653" d=" M602,171 Q615,54 653,0 L482,0 Q457,71 449,147 Q435,264 359,270 Q340,271 304,271 L242,271 L242,0 L85,0 L85,690 L347,690 Q406,690 451,685 Q534,675 584,631 Q634,587 634,502 Q634,371 497,332 Q547,313 571.5,273.5 Q596,234 602,171 M242,386 L323,386 Q362,386 376,387 Q470,396 470,477 Q470,521 447,541 Q424,561 382,566 Q354,568 329,568 L242,568 M308,-41 L411,-41 L411,-51 L320,-211 L232,-211"/> 
            <glyph glyph-name="ŗ" unicode="&#x157;" horiz-adv-x="393" d=" M353,547 Q369,547 393,543 L393,416 Q299,422 257.5,378.5 Q216,335 216,223 L216,0 L59,0 L59,533 L216,533 L216,431 L256,505 Q296,547 353,547 M100,-41 L203,-41 L203,-51 L112,-211 L24,-211"/> 
            <glyph glyph-name="Ř" unicode="&#x158;" horiz-adv-x="653" d=" M288,735 L225,853 L320,853 L353,782 L384,853 L478,853 L415,735 M602,171 Q615,54 653,0 L482,0 Q457,71 449,147 Q435,264 359,270 Q340,271 304,271 L242,271 L242,0 L85,0 L85,690 L347,690 Q406,690 451,685 Q534,675 584,631 Q634,587 634,502 Q634,371 497,332 Q547,313 571.5,273.5 Q596,234 602,171 M242,386 L323,386 Q362,386 376,387 Q470,396 470,477 Q470,521 447,541 Q424,561 382,566 Q354,568 329,568 L242,568"/> 
            <glyph glyph-name="ř" unicode="&#x159;" horiz-adv-x="393" d=" M143,573 L80,695 L174,695 L208,623 L240,695 L333,695 L270,573 M353,547 Q369,547 393,543 L393,416 Q299,422 257.5,378.5 Q216,335 216,223 L216,0 L59,0 L59,533 L216,533 L216,431 L256,505 Q296,547 353,547"/> 
            <glyph glyph-name="Ś" unicode="&#x15A;" horiz-adv-x="595" d=" M358,735 L272,735 L354,853 L494,853 M320,704 Q442,704 506.5,644 Q571,584 583,483 L425,483 Q419,532 391,560 Q363,588 315,588 Q277,588 254,569.5 Q231,551 231,515 Q231,475 263,451.5 Q295,428 377,409 Q489,382 542,328.5 Q595,275 595,192 Q595,96 518.5,41 Q442,-14 332,-14 Q202,-14 125,42 Q48,98 39,207 L197,207 Q207,156 243,129 Q279,102 329,102 Q373,102 402,123 Q431,144 431,179 Q431,216 402,241 Q373,266 305,282 Q183,312 125,359.5 Q67,407 67,500 Q67,593 141,648.5 Q215,704 320,704"/> 
            <glyph glyph-name="ś" unicode="&#x15B;" horiz-adv-x="491" d=" M435,695 L297,573 L211,573 L295,695 M263,547 Q357,547 413,500.5 Q469,454 479,378 L324,378 Q310,447 253,447 Q228,447 213,433 Q198,419 198,398 Q198,371 224.5,353.5 Q251,336 322,318 Q406,297 448.5,258.5 Q491,220 491,149 Q491,69 427.5,27.5 Q364,-14 265,-14 Q160,-14 95,31 Q30,76 20,164 L175,164 Q183,127 207.5,107 Q232,87 266,87 Q296,87 315,100 Q334,113 334,137 Q334,165 305.5,183 Q277,201 206,218 Q126,238 83.5,276 Q41,314 41,379 Q41,457 101.5,502 Q162,547 263,547"/> 
            <glyph glyph-name="Ş" unicode="&#x15E;" horiz-adv-x="595" d=" M595,192 Q595,98 521,43 Q447,-12 340,-14 L326,-41 Q418,-53 418,-120 Q418,-210 260,-210 Q226,-210 205,-203 L205,-140 Q236,-148 262,-148 Q322,-148 322,-117 Q322,-79 226,-86 L264,-10 Q163,4 104.5,58.5 Q46,113 39,207 L197,207 Q207,156 243,129 Q279,102 329,102 Q373,102 402,123 Q431,144 431,179 Q431,216 402,241 Q373,266 305,282 Q183,312 125,359.5 Q67,407 67,500 Q67,593 141,648.5 Q215,704 320,704 Q442,704 506.5,644 Q571,584 583,483 L425,483 Q419,532 391,560 Q363,588 315,588 Q277,588 254,569.5 Q231,551 231,515 Q231,475 263,451.5 Q295,428 377,409 Q489,382 542,328.5 Q595,275 595,192"/> 
            <glyph glyph-name="ş" unicode="&#x15F;" horiz-adv-x="491" d=" M491,149 Q491,75 436.5,34 Q382,-7 293,-13 L278,-41 Q370,-53 370,-120 Q370,-210 212,-210 Q178,-210 157,-203 L157,-140 Q188,-148 214,-148 Q274,-148 274,-117 Q274,-79 178,-86 L215,-11 Q131,-1 80,43 Q29,87 20,164 L175,164 Q183,127 207.5,107 Q232,87 266,87 Q296,87 315,100 Q334,113 334,137 Q334,165 305.5,183 Q277,201 206,218 Q126,238 83.5,276 Q41,314 41,379 Q41,457 101.5,502 Q162,547 263,547 Q357,547 413,500.5 Q469,454 479,378 L324,378 Q310,447 253,447 Q228,447 213,433 Q198,419 198,398 Q198,371 224.5,353.5 Q251,336 322,318 Q406,297 448.5,258.5 Q491,220 491,149"/> 
            <glyph glyph-name="Š" unicode="&#x160;" horiz-adv-x="595" d=" M258,735 L195,853 L290,853 L323,782 L354,853 L448,853 L385,735 M377,409 Q489,382 542,328.5 Q595,275 595,192 Q595,96 518.5,41 Q442,-14 332,-14 Q202,-14 125,42 Q48,98 39,207 L197,207 Q207,156 243,129 Q279,102 329,102 Q373,102 402,123 Q431,144 431,179 Q431,216 402,241 Q373,266 305,282 Q183,312 125,359.5 Q67,407 67,500 Q67,593 141,648.5 Q215,704 320,704 Q442,704 506.5,644 Q571,584 583,483 L425,483 Q419,532 391,560 Q363,588 315,588 Q277,588 254,569.5 Q231,551 231,515 Q231,475 263,451.5 Q295,428 377,409"/> 
            <glyph glyph-name="š" unicode="&#x161;" horiz-adv-x="491" d=" M324,573 L197,573 L134,695 L228,695 L262,623 L294,695 L387,695 M322,318 Q406,297 448.5,258.5 Q491,220 491,149 Q491,69 427.5,27.5 Q364,-14 265,-14 Q160,-14 95,31 Q30,76 20,164 L175,164 Q183,127 207.5,107 Q232,87 266,87 Q296,87 315,100 Q334,113 334,137 Q334,165 305.5,183 Q277,201 206,218 Q126,238 83.5,276 Q41,314 41,379 Q41,457 101.5,502 Q162,547 263,547 Q357,547 413,500.5 Q469,454 479,378 L324,378 Q310,447 253,447 Q228,447 213,433 Q198,419 198,398 Q198,371 224.5,353.5 Q251,336 322,318"/> 
            <glyph glyph-name="Ţ" unicode="&#x162;" horiz-adv-x="635" d=" M364,0 L343,-41 Q435,-53 435,-120 Q435,-210 277,-210 Q243,-210 222,-203 L222,-140 Q253,-148 279,-148 Q339,-148 339,-117 Q339,-79 243,-86 L286,0 L249,0 L249,568 L19,568 L19,690 L635,690 L635,568 L405,568 L405,0"/> 
            <glyph glyph-name="ţ" unicode="&#x163;" horiz-adv-x="360" d=" M247,429 L247,205 Q247,169 248,155 Q251,115 270.5,103 Q290,91 350,95 L350,-5 Q299,-13 253,-13 L244,-13 L229,-41 Q321,-53 321,-120 Q321,-210 163,-210 Q129,-210 108,-203 L108,-140 Q139,-148 165,-148 Q225,-148 225,-117 Q225,-79 129,-86 L170,-3 Q98,17 92,103 Q90,130 90,184 L90,429 L9,429 L9,529 L90,529 L90,663 L247,663 L247,529 L360,529 L360,429"/> 
            <glyph glyph-name="Ť" unicode="&#x164;" horiz-adv-x="635" d=" M264,735 L201,853 L296,853 L329,782 L360,853 L454,853 L391,735 M635,568 L405,568 L405,0 L249,0 L249,568 L19,568 L19,690 L635,690"/> 
            <glyph glyph-name="ť" unicode="&#x165;" horiz-adv-x="453" d=" M453,735 L453,725 L362,565 L274,565 L350,735 M247,529 L360,529 L360,429 L247,429 L247,205 Q247,169 248,155 Q251,115 270.5,103 Q290,91 350,95 L350,-5 Q299,-13 253,-13 Q168,-13 132.5,14.5 Q97,42 92,103 Q90,130 90,184 L90,429 L9,429 L9,529 L90,529 L90,663 L247,663"/> 
            <glyph glyph-name="Ŧ" unicode="&#x166;" horiz-adv-x="635" d=" M405,568 L405,382 L501,382 L501,296 L405,296 L405,0 L249,0 L249,296 L153,296 L153,382 L249,382 L249,568 L19,568 L19,690 L635,690 L635,568"/> 
            <glyph glyph-name="ŧ" unicode="&#x167;" horiz-adv-x="360" d=" M247,429 L247,345 L318,345 L318,260 L247,260 L247,205 Q247,169 248,155 Q251,115 270.5,103 Q290,91 350,95 L350,-5 Q299,-13 253,-13 Q168,-13 132.5,14.5 Q97,42 92,103 Q90,130 90,184 L90,260 L33,260 L33,345 L90,345 L90,429 L9,429 L9,529 L90,529 L90,663 L247,663 L247,529 L360,529 L360,429"/> 
            <glyph glyph-name="Ū" unicode="&#x16A;" horiz-adv-x="663" d=" M512,759 L227,759 L227,844 L512,844 M663,690 L663,291 Q663,239 660,203 Q653,108 582,47 Q511,-14 369,-14 Q227,-14 155.5,46.5 Q84,107 77,203 Q75,239 75,291 L75,690 L231,690 L231,268 Q231,236 232,222 Q242,102 369,102 Q432,102 466.5,133.5 Q501,165 505,222 Q507,236 507,268 L507,690"/> 
            <glyph glyph-name="ū" unicode="&#x16B;" horiz-adv-x="568" d=" M452,591 L167,591 L167,676 L452,676 M568,533 L568,0 L412,0 L412,91 L367,20 Q316,-14 243,-14 Q164,-14 114.5,24.5 Q65,63 55,121 Q50,155 50,220 L50,533 L206,533 L206,254 Q206,217 210,181 Q221,95 306,95 Q355,95 383.5,135.5 Q412,176 412,248 L412,533"/> 
            <glyph glyph-name="Ů" unicode="&#x16E;" horiz-adv-x="663" d=" M320,918 Q418,918 449.5,890.5 Q481,863 481,819 Q481,776 450,748.5 Q419,721 369,721 Q319,721 288,748.5 Q257,776 257,819 Q257,863 320,918 M386,859 Q352,859 342,848 Q332,837 332,819 Q332,802 342.5,790.5 Q353,779 369,779 Q385,779 395.5,790.5 Q406,802 406,819 Q406,837 386,859 M663,690 L663,291 Q663,239 660,203 Q653,108 582,47 Q511,-14 369,-14 Q227,-14 155.5,46.5 Q84,107 77,203 Q75,239 75,291 L75,690 L231,690 L231,268 Q231,236 232,222 Q242,102 369,102 Q432,102 466.5,133.5 Q501,165 505,222 Q507,236 507,268 L507,690"/> 
            <glyph glyph-name="ů" unicode="&#x16F;" horiz-adv-x="568" d=" M359,567 Q259,567 228,595 Q197,623 197,668 Q197,713 228,741 Q259,769 309,769 Q359,769 390,741 Q421,713 421,668 Q421,623 359,567 M326,711 Q292,711 282,699.5 Q272,688 272,668 Q272,648 282,636.5 Q292,625 309,625 Q326,625 336,636.5 Q346,648 346,668 Q346,688 326,711 M568,533 L568,0 L412,0 L412,91 L367,20 Q316,-14 243,-14 Q164,-14 114.5,24.5 Q65,63 55,121 Q50,155 50,220 L50,533 L206,533 L206,254 Q206,217 210,181 Q221,95 306,95 Q355,95 383.5,135.5 Q412,176 412,248 L412,533"/> 
            <glyph glyph-name="Ű" unicode="&#x170;" horiz-adv-x="663" d=" M296,736 L210,736 L292,853 L432,853 M474,736 L388,736 L470,853 L610,853 M663,690 L663,291 Q663,239 660,203 Q653,108 582,47 Q511,-14 369,-14 Q227,-14 155.5,46.5 Q84,107 77,203 Q75,239 75,291 L75,690 L231,690 L231,268 Q231,236 232,222 Q242,102 369,102 Q432,102 466.5,133.5 Q501,165 505,222 Q507,236 507,268 L507,690"/> 
            <glyph glyph-name="ű" unicode="&#x171;" horiz-adv-x="568" d=" M244,573 L158,573 L241,695 L381,695 M331,573 L415,695 L555,695 L417,573 M568,533 L568,0 L412,0 L412,91 L367,20 Q316,-14 243,-14 Q164,-14 114.5,24.5 Q65,63 55,121 Q50,155 50,220 L50,533 L206,533 L206,254 Q206,217 210,181 Q221,95 306,95 Q355,95 383.5,135.5 Q412,176 412,248 L412,533"/> 
            <glyph glyph-name="Ų" unicode="&#x172;" horiz-adv-x="663" d=" M663,690 L663,291 Q663,239 660,203 Q655,128 608.5,72.5 Q562,17 471,-4 Q453,-12 441,-33.5 Q429,-55 429,-82 Q429,-133 471,-133 Q494,-133 518,-112 L518,-179 Q471,-223 394,-223 Q285,-223 285,-137 Q285,-65 347,-14 Q216,-9 150,51 Q84,111 77,203 Q75,239 75,291 L75,690 L231,690 L231,268 Q231,236 232,222 Q242,102 369,102 Q432,102 466.5,133.5 Q501,165 505,222 Q507,236 507,268 L507,690"/> 
            <glyph glyph-name="ų" unicode="&#x173;" horiz-adv-x="568" d=" M568,0 L520,0 Q497,-2 480,-25.5 Q463,-49 463,-82 Q463,-133 505,-133 Q528,-133 552,-112 L552,-179 Q505,-223 428,-223 Q319,-223 319,-137 Q319,-91 346,-52 Q373,-13 412,7 L412,91 L367,20 Q316,-14 243,-14 Q164,-14 114.5,24.5 Q65,63 55,121 Q50,155 50,220 L50,533 L206,533 L206,254 Q206,217 210,181 Q221,95 306,95 Q355,95 383.5,135.5 Q412,176 412,248 L412,533 L568,533"/> 
            <glyph glyph-name="Ŵ" unicode="&#x174;" horiz-adv-x="1008" d=" M486,735 L392,735 L455,853 L582,853 L645,735 L550,735 L517,806 M1008,690 L828,0 L620,0 L516,559 L405,0 L196,0 L26,690 L194,690 L300,122 L407,680 L630,680 L734,117 L847,690"/> 
            <glyph glyph-name="ŵ" unicode="&#x175;" horiz-adv-x="852" d=" M394,573 L301,573 L364,695 L491,695 L554,573 L460,573 L427,645 M852,533 L683,0 L507,0 L427,387 L346,0 L169,0 L0,533 L174,533 L257,131 L334,530 L521,530 L602,130 L683,533"/> 
            <glyph glyph-name="Ŷ" unicode="&#x176;" horiz-adv-x="658" d=" M305,735 L211,735 L274,853 L401,853 L464,735 L369,735 L336,806 M415,266 L415,0 L259,0 L259,264 L15,690 L192,690 L342,402 L486,690 L658,690"/> 
            <glyph glyph-name="ŷ" unicode="&#x177;" horiz-adv-x="589" d=" M256,573 L163,573 L226,695 L353,695 L416,573 L322,573 L289,645 M589,533 L376,-11 Q331,-126 280,-168 Q229,-210 141,-210 Q102,-210 73,-206 L73,-101 Q87,-103 117,-103 Q185,-103 212,-41 L219,-24 L0,533 L175,533 L297,121 L418,533"/> 
            <glyph glyph-name="Ÿ" unicode="&#x178;" horiz-adv-x="658" d=" M275,726 Q215,726 196,744 Q177,762 177,792 Q177,822 196,840 Q215,858 245,858 Q275,858 293.5,840 Q312,822 312,792 Q312,762 275,726 M460,726 Q400,726 381,744 Q362,762 362,792 Q362,822 381,840 Q400,858 430,858 Q460,858 478.5,840 Q497,822 497,792 Q497,762 460,726 M415,266 L415,0 L259,0 L259,264 L15,690 L192,690 L342,402 L486,690 L658,690"/> 
            <glyph glyph-name="Ź" unicode="&#x179;" horiz-adv-x="606" d=" M369,735 L283,735 L365,853 L505,853 M606,123 L606,0 L51,0 L51,119 L413,568 L79,568 L79,690 L601,690 L601,569 L243,123"/> 
            <glyph glyph-name="ź" unicode="&#x17A;" horiz-adv-x="481" d=" M302,573 L216,573 L300,695 L440,695 M481,101 L481,0 L31,0 L31,95 L311,428 L47,428 L47,529 L478,529 L478,429 L200,101"/> 
            <glyph glyph-name="Ż" unicode="&#x17B;" horiz-adv-x="606" d=" M368,728 Q296,728 273.5,749.5 Q251,771 251,806 Q251,840 273.5,861.5 Q296,883 332,883 Q368,883 390.5,861.5 Q413,840 413,806 Q413,771 368,728 M606,123 L606,0 L51,0 L51,119 L413,568 L79,568 L79,690 L601,690 L601,569 L243,123"/> 
            <glyph glyph-name="ż" unicode="&#x17C;" horiz-adv-x="481" d=" M303,580 Q227,580 204.5,601.5 Q182,623 182,660 Q182,696 204.5,717.5 Q227,739 265,739 Q303,739 326,717.5 Q349,696 349,660 Q349,623 303,580 M481,101 L481,0 L31,0 L31,95 L311,428 L47,428 L47,529 L478,529 L478,429 L200,101"/> 
            <glyph glyph-name="Ž" unicode="&#x17D;" horiz-adv-x="606" d=" M269,735 L206,853 L301,853 L334,782 L365,853 L459,853 L396,735 M606,123 L606,0 L51,0 L51,119 L413,568 L79,568 L79,690 L601,690 L601,569 L243,123"/> 
            <glyph glyph-name="ž" unicode="&#x17E;" horiz-adv-x="481" d=" M202,573 L139,695 L233,695 L267,623 L299,695 L392,695 L329,573 M481,101 L481,0 L31,0 L31,95 L311,428 L47,428 L47,529 L478,529 L478,429 L200,101"/> 
            <glyph glyph-name="Ș" unicode="&#x218;" horiz-adv-x="595" d=" M320,704 Q442,704 506.5,644 Q571,584 583,483 L425,483 Q419,532 391,560 Q363,588 315,588 Q277,588 254,569.5 Q231,551 231,515 Q231,475 263,451.5 Q295,428 377,409 Q489,382 542,328.5 Q595,275 595,192 Q595,96 518.5,41 Q442,-14 332,-14 Q202,-14 125,42 Q48,98 39,207 L197,207 Q207,156 243,129 Q279,102 329,102 Q373,102 402,123 Q431,144 431,179 Q431,216 402,241 Q373,266 305,282 Q183,312 125,359.5 Q67,407 67,500 Q67,593 141,648.5 Q215,704 320,704 M377,-51 L286,-211 L198,-211 L274,-41 L377,-41"/> 
            <glyph glyph-name="ș" unicode="&#x219;" horiz-adv-x="491" d=" M263,547 Q357,547 413,500.5 Q469,454 479,378 L324,378 Q310,447 253,447 Q228,447 213,433 Q198,419 198,398 Q198,371 224.5,353.5 Q251,336 322,318 Q406,297 448.5,258.5 Q491,220 491,149 Q491,69 427.5,27.5 Q364,-14 265,-14 Q160,-14 95,31 Q30,76 20,164 L175,164 Q183,127 207.5,107 Q232,87 266,87 Q296,87 315,100 Q334,113 334,137 Q334,165 305.5,183 Q277,201 206,218 Q126,238 83.5,276 Q41,314 41,379 Q41,457 101.5,502 Q162,547 263,547 M327,-41 L327,-51 L236,-211 L148,-211 L224,-41"/> 
            <glyph glyph-name="Ț" unicode="&#x21A;" horiz-adv-x="635" d=" M635,568 L405,568 L405,0 L249,0 L249,568 L19,568 L19,690 L635,690 M291,-41 L394,-41 L394,-51 L303,-211 L215,-211"/> 
            <glyph glyph-name="ț" unicode="&#x21B;" horiz-adv-x="360" d=" M247,429 L247,205 Q247,169 248,155 Q251,115 270.5,103 Q290,91 350,95 L350,-5 Q299,-13 253,-13 Q168,-13 132.5,14.5 Q97,42 92,103 Q90,130 90,184 L90,429 L9,429 L9,529 L90,529 L90,663 L247,663 L247,529 L360,529 L360,429 M176,-41 L279,-41 L279,-51 L188,-211 L100,-211"/> 
            <glyph glyph-name="ˆ" unicode="&#x2C6;" horiz-adv-x="277" d=" M183,573 L150,645 L117,573 L24,573 L87,695 L214,695 L277,573"/> 
            </font>
</defs>
</svg>
