<?xml version="1.0" standalone="no"?>
<!DOCTYPE svg PUBLIC "-//W3C//DTD SVG 1.1//EN" "http://www.w3.org/Graphics/SVG/1.1/DTD/svg11.dtd" >
<svg xmlns="http://www.w3.org/2000/svg">
    <defs>
        <font id="Aileron-UltraLightItalic">
            <font-face font-family="Aileron-UltraLightItalic"
                       units-per-em="1000"
                       ascent="970"
                       descent="-230"
                       bbox="-126 -223 1155 895"
                    />
            <missing-glyph horiz-adv-x="0" />
            
            <glyph glyph-name="!" unicode="&#x21;" horiz-adv-x="166" d=" M60,110 L41,110 L143,690 L166,690 M36,26 Q52,26 52,10 Q52,0 44.5,-7 Q37,-14 28,-14 Q12,-14 12,2 Q12,12 19.5,19 Q27,26 36,26"/> 
            <glyph glyph-name="&quot;" unicode="&#x22;" horiz-adv-x="197" d=" M68,491 L52,491 L93,735 L115,735 M150,491 L134,491 L175,735 L197,735"/> 
            <glyph glyph-name="#" unicode="&#x23;" horiz-adv-x="507" d=" M386,424 L325,266 L445,266 L441,245 L317,245 L221,0 L200,0 L296,245 L185,245 L89,0 L68,0 L164,245 L51,245 L55,266 L172,266 L233,424 L113,424 L117,445 L241,445 L337,690 L358,690 L262,445 L373,445 L469,690 L490,690 L394,445 L507,445 L503,424 M366,424 L255,424 L193,266 L304,266"/> 
            <glyph glyph-name="$" unicode="&#x24;" horiz-adv-x="520" d=" M520,514 L498,514 Q497,673 357,683 L298,354 Q462,303 462,174 Q462,100 404.5,44.5 Q347,-11 233,-14 L220,-90 L198,-90 L211,-14 Q162,-12 125.5,6.5 Q89,25 69.5,54 Q50,83 41.5,114.5 Q33,146 34,180 L56,180 Q66,13 215,7 L273,336 Q208,358 164.5,402.5 Q121,447 121,510 Q121,586 176,644 Q231,702 338,704 L352,780 L374,780 L360,704 Q441,699 479.5,647 Q518,595 520,514 M144,512 Q144,457 180.5,417.5 Q217,378 277,358 L335,683 Q242,681 193,630 Q144,579 144,512 M439,173 Q439,237 403,273 Q367,309 294,331 L237,7 Q337,10 388,59 Q439,108 439,173"/> 
            <glyph glyph-name="%" unicode="&#x25;" horiz-adv-x="659" d=" M225,386 Q175,386 145.5,422 Q116,458 116,515 Q116,584 157.5,644 Q199,704 270,704 Q320,704 349.5,668 Q379,632 379,575 Q379,506 337.5,446 Q296,386 225,386 M659,690 L92,0 L64,0 L631,690 M267,683 Q206,683 172.5,629.5 Q139,576 139,515 Q139,465 162.5,436 Q186,407 228,407 Q289,407 322.5,460.5 Q356,514 356,575 Q356,625 332.5,654 Q309,683 267,683 M502,304 Q552,304 581.5,268 Q611,232 611,175 Q611,106 569.5,46 Q528,-14 457,-14 Q407,-14 377.5,22 Q348,58 348,115 Q348,184 389.5,244 Q431,304 502,304 M460,7 Q521,7 554.5,60.5 Q588,114 588,175 Q588,225 564.5,254 Q541,283 499,283 Q438,283 404.5,229.5 Q371,176 371,115 Q371,65 394.5,36 Q418,7 460,7"/> 
            <glyph glyph-name="&amp;" unicode="&#x26;" horiz-adv-x="635" d=" M635,355 L631,334 L521,334 L463,1 Q374,-14 285,-14 Q169,-14 109,17 Q49,48 49,126 Q49,220 113.5,276.5 Q178,333 280,344 Q150,362 150,483 Q150,578 225,641 Q300,704 411,704 Q476,704 529,694 L525,672 Q471,683 404,683 Q308,683 241,629.5 Q174,576 174,487 Q174,365 332,356 Q352,355 393,355 L503,355 L530,507 L552,507 L525,355 M499,334 L389,334 Q348,334 328,332 Q73,310 73,131 Q73,62 129,34.5 Q185,7 291,7 Q381,7 444,19"/> 
            <glyph glyph-name="'" unicode="&#x27;" horiz-adv-x="115" d=" M68,491 L52,491 L93,735 L115,735"/> 
            <glyph glyph-name="(" unicode="&#x28;" horiz-adv-x="315" d=" M163,-80 L141,-80 Q88,32 88,196 Q88,338 141.5,500.5 Q195,663 293,780 L315,780 Q212,649 161.5,495 Q111,341 111,196 Q111,41 163,-80"/> 
            <glyph glyph-name=")" unicode="&#x29;" horiz-adv-x="185" d=" M110,780 L132,780 Q185,668 185,504 Q185,362 131.5,199.5 Q78,37 -20,-80 L-42,-80 Q61,51 111.5,205 Q162,359 162,504 Q162,659 110,780"/> 
            <glyph glyph-name="*" unicode="&#x2A;" horiz-adv-x="445" d=" M273,280 L442,337 L445,315 L276,263 L362,114 L340,100 L260,254 L124,100 L106,114 L245,263 L95,315 L106,337 L255,280 L286,474 L310,474"/> 
            <glyph glyph-name="+" unicode="&#x2B;" horiz-adv-x="476" d=" M472,307 L283,307 L244,87 L222,87 L261,307 L72,307 L76,328 L265,328 L304,548 L326,548 L287,328 L476,328"/> 
            <glyph glyph-name="," unicode="&#x2C;" horiz-adv-x="1" d=" M1,19 L-74,-116 L-95,-116 L-24,24 L1,24"/> 
            <glyph glyph-name="-" unicode="&#x2D;" horiz-adv-x="244" d=" M240,271 L30,271 L34,292 L244,292"/> 
            <glyph glyph-name="." unicode="&#x2E;" horiz-adv-x="17" d=" M-1,26 Q17,26 17,9 Q17,-1 10.5,-7.5 Q4,-14 -5,-14 Q-23,-14 -23,3 Q-23,13 -16.5,19.5 Q-10,26 -1,26"/> 
            <glyph glyph-name="/" unicode="&#x2F;" horiz-adv-x="348" d=" M-35,-30 L-57,-30 L326,720 L348,720"/> 
            <glyph glyph-name="0" unicode="&#x30;" horiz-adv-x="521" d=" M342,704 Q430,704 475.5,642 Q521,580 521,468 Q521,397 504.5,319 Q488,241 454.5,163.5 Q421,86 359,36 Q297,-14 216,-14 Q128,-14 82.5,48 Q37,110 37,222 Q37,293 53.5,371 Q70,449 103.5,526.5 Q137,604 199,654 Q261,704 342,704 M219,7 Q279,7 329,41 Q379,75 409.5,126.5 Q440,178 460.5,242 Q481,306 489.5,362.5 Q498,419 498,467 Q498,569 458,626 Q418,683 339,683 Q279,683 229,649 Q179,615 148.5,563.5 Q118,512 97.5,448 Q77,384 68.5,327.5 Q60,271 60,223 Q60,121 100,64 Q140,7 219,7"/> 
            <glyph glyph-name="1" unicode="&#x31;" horiz-adv-x="412" d=" M412,690 L290,0 L268,0 L385,667 L174,549 L179,573 L356,673 Q385,690 401,690"/> 
            <glyph glyph-name="2" unicode="&#x32;" horiz-adv-x="518" d=" M32,21 L437,21 L433,0 L-8,0 L-5,16 L272,248 Q404,358 448.5,419.5 Q493,481 493,554 Q493,612 457,647.5 Q421,683 356,683 Q276,683 211.5,631.5 Q147,580 132,498 L130,488 L108,488 L110,498 Q128,591 198.5,647.5 Q269,704 359,704 Q435,704 476.5,660.5 Q518,617 518,555 Q518,500 491.5,450 Q465,400 421,355 Q377,310 290,237"/> 
            <glyph glyph-name="3" unicode="&#x33;" horiz-adv-x="528" d=" M346,357 Q478,334 478,215 Q478,112 402.5,49 Q327,-14 216,-14 Q127,-14 77.5,40.5 Q28,95 35,194 L35,204 L57,204 L57,194 Q51,110 92.5,58.5 Q134,7 220,7 Q319,7 386.5,62 Q454,117 454,208 Q454,343 271,343 L254,343 L258,364 L275,364 Q357,364 430.5,416 Q504,468 504,547 Q504,614 466.5,648.5 Q429,683 361,683 Q281,683 219.5,636.5 Q158,590 142,509 L140,499 L118,499 L120,509 Q138,600 207,652 Q276,704 366,704 Q444,704 486,661 Q528,618 528,550 Q528,482 474.5,427 Q421,372 346,357"/> 
            <glyph glyph-name="4" unicode="&#x34;" horiz-adv-x="499" d=" M495,200 L396,200 L361,0 L339,0 L374,200 L12,200 L15,216 L471,690 L488,690 L400,221 L499,221 M378,221 L459,652 Q424,611 348,532 L48,221"/> 
            <glyph glyph-name="5" unicode="&#x35;" horiz-adv-x="549" d=" M214,665 L100,338 L145,385 Q211,432 301,432 Q382,432 427,381.5 Q472,331 472,251 Q472,132 392.5,59 Q313,-14 204,-14 Q126,-14 75.5,34 Q25,82 32,178 L33,188 L55,188 L54,178 Q48,100 87,53.5 Q126,7 209,7 Q251,7 292,22 Q333,37 368.5,65.5 Q404,94 426,141.5 Q448,189 448,248 Q448,327 407,369 Q366,411 295,411 Q163,411 87,295 L65,295 L199,686 L549,686 L546,665"/> 
            <glyph glyph-name="6" unicode="&#x36;" horiz-adv-x="524" d=" M358,704 Q520,704 524,528 L524,518 L502,518 L502,528 Q502,683 354,683 Q309,683 265.5,664 Q222,645 179,604.5 Q136,564 104,486 Q72,408 60,303 L94,360 Q180,458 305,458 Q392,458 439.5,399.5 Q487,341 487,262 Q487,146 412,66 Q337,-14 219,-14 Q134,-14 83,44.5 Q32,103 32,208 Q32,343 69,454 Q106,565 181.5,634.5 Q257,704 358,704 M299,437 Q202,437 128.5,367 Q55,297 55,191 Q55,111 100,59 Q145,7 224,7 Q328,7 395.5,80.5 Q463,154 463,258 Q463,338 419,387.5 Q375,437 299,437"/> 
            <glyph glyph-name="7" unicode="&#x37;" horiz-adv-x="570" d=" M570,690 L568,679 L84,0 L58,0 L535,669 L114,669 L118,690"/> 
            <glyph glyph-name="8" unicode="&#x38;" horiz-adv-x="521" d=" M359,359 Q418,344 449,304 Q480,264 480,209 Q480,106 401,45.5 Q322,-15 215,-15 Q131,-15 75,27.5 Q19,70 19,145 Q19,226 71.5,283 Q124,340 214,360 Q170,372 142,408 Q114,444 114,494 Q114,581 180.5,642.5 Q247,704 349,704 Q427,704 474,661 Q521,618 521,554 Q521,487 475.5,431 Q430,375 359,359 M139,500 Q139,436 178,402.5 Q217,369 290,369 Q371,369 434,416 Q497,463 497,551 Q497,612 457,647.5 Q417,683 346,683 Q258,683 198.5,631.5 Q139,580 139,500 M220,6 Q260,6 299.5,17.5 Q339,29 375,52 Q411,75 433,114.5 Q455,154 455,204 Q455,270 411,309 Q367,348 283,348 Q174,348 108.5,292 Q43,236 43,149 Q43,79 95,42.5 Q147,6 220,6"/> 
            <glyph glyph-name="9" unicode="&#x39;" horiz-adv-x="527" d=" M340,704 Q425,704 476,645.5 Q527,587 527,482 Q527,347 490,236 Q453,125 377.5,55.5 Q302,-14 201,-14 Q39,-14 35,162 L35,172 L57,172 L57,162 Q57,7 205,7 Q250,7 293.5,26 Q337,45 380,85.5 Q423,126 455,204 Q487,282 499,387 L465,330 Q379,232 254,232 Q167,232 119.5,290.5 Q72,349 72,428 Q72,544 147,624 Q222,704 340,704 M260,253 Q357,253 430.5,323 Q504,393 504,499 Q504,579 459,631 Q414,683 335,683 Q231,683 163.5,609.5 Q96,536 96,432 Q96,352 140,302.5 Q184,253 260,253"/> 
            <glyph glyph-name=":" unicode="&#x3A;" horiz-adv-x="109" d=" M91,540 Q109,540 109,523 Q109,513 102.5,506.5 Q96,500 87,500 Q69,500 69,517 Q69,527 75.5,533.5 Q82,540 91,540 M-1,26 Q17,26 17,9 Q17,-1 10.5,-7.5 Q4,-14 -5,-14 Q-23,-14 -23,3 Q-23,13 -16.5,19.5 Q-10,26 -1,26"/> 
            <glyph glyph-name=";" unicode="&#x3B;" horiz-adv-x="109" d=" M91,540 Q109,540 109,523 Q109,513 102.5,506.5 Q96,500 87,500 Q69,500 69,517 Q69,527 75.5,533.5 Q82,540 91,540 M1,19 L-74,-116 L-95,-116 L-24,24 L1,24"/> 
            <glyph glyph-name="&lt;" unicode="&#x3C;" horiz-adv-x="507" d=" M503,445 L99,265 L439,85 L435,60 L68,255 L72,275 L507,470"/> 
            <glyph glyph-name="=" unicode="&#x3D;" horiz-adv-x="502" d=" M498,397 L78,397 L82,418 L502,418 M466,217 L46,217 L50,238 L470,238"/> 
            <glyph glyph-name="&gt;" unicode="&#x3E;" horiz-adv-x="467" d=" M467,275 L463,255 L28,60 L32,85 L436,265 L96,445 L100,470"/> 
            <glyph glyph-name="?" unicode="&#x3F;" horiz-adv-x="506" d=" M345,704 Q421,704 463.5,661 Q506,618 506,563 Q506,508 477.5,461 Q449,414 377,343 Q302,269 276,228 Q250,187 238,110 L218,110 Q228,185 257,232.5 Q286,280 362,356 Q433,427 458,470 Q483,513 483,563 Q483,613 444,648 Q405,683 342,683 Q256,683 200.5,632.5 Q145,582 123,494 L101,494 Q121,589 186.5,646.5 Q252,704 345,704 M219,26 Q235,26 235,10 Q235,0 227.5,-7 Q220,-14 211,-14 Q195,-14 195,2 Q195,12 202.5,19 Q210,26 219,26"/> 
            <glyph glyph-name="@" unicode="&#x40;" horiz-adv-x="790" d=" M592,465 L542,256 Q529,198 529,168 Q529,134 550.5,115 Q572,96 608,96 Q675,96 720.5,161.5 Q766,227 766,333 Q766,477 681,560 Q596,643 457,643 Q368,643 282.5,597 Q197,551 137.5,458 Q78,365 78,247 Q78,92 169,4.5 Q260,-83 388,-83 Q468,-83 529.5,-64 Q591,-45 662,4 L674,-15 Q595,-68 532,-86 Q469,-104 388,-104 Q325,-104 266,-82 Q207,-60 159,-18.5 Q111,23 82.5,91 Q54,159 54,244 Q54,339 90.5,420 Q127,501 185.5,553 Q244,605 316.5,634.5 Q389,664 463,664 Q609,664 699.5,573 Q790,482 790,338 Q790,215 736,145 Q682,75 606,75 Q563,75 534,98 Q505,121 505,173 L487,135 Q436,67 366,67 Q316,67 279.5,102 Q243,137 243,218 Q243,326 304.5,404.5 Q366,483 455,483 Q505,483 530,449 L551,397 L567,465 M525,279 L534,319 Q548,378 524.5,420 Q501,462 451,462 Q378,462 322.5,391.5 Q267,321 267,222 Q267,155 294.5,121.5 Q322,88 370,88 Q420,88 461,134 Q502,180 525,279"/> 
            <glyph glyph-name="A" unicode="&#x41;" horiz-adv-x="556" d=" M476,269 L167,269 L16,0 L-11,0 L378,690 L411,690 L556,0 L532,0 M472,290 L393,671 L179,290"/> 
            <glyph glyph-name="B" unicode="&#x42;" horiz-adv-x="550" d=" M385,364 Q450,353 483,313.5 Q516,274 516,215 Q516,122 449,65 Q382,8 289,2 Q264,0 220,0 L28,0 L150,690 L324,690 Q367,690 402,688 Q471,683 510.5,647 Q550,611 550,551 Q550,478 504.5,426.5 Q459,375 385,364 M116,372 L279,372 Q311,372 334,373 Q368,375 399,384.5 Q430,394 459.5,412.5 Q489,431 507,465.5 Q525,500 525,546 Q525,663 385,668 Q362,669 320,669 L169,669 M282,22 Q335,26 380,44.5 Q425,63 458.5,106.5 Q492,150 492,212 Q492,269 457,308 Q422,347 344,350 Q321,351 292,351 L112,351 L54,21 L237,21 Q269,21 282,22"/> 
            <glyph glyph-name="C" unicode="&#x43;" horiz-adv-x="677" d=" M447,704 Q557,704 617,642.5 Q677,581 677,484 L677,474 L655,474 L655,484 Q655,578 598.5,630.5 Q542,683 439,683 Q376,683 315,655.5 Q254,628 203.5,577.5 Q153,527 122,447 Q91,367 91,270 Q91,142 154,74.5 Q217,7 317,7 Q422,7 495,65 Q568,123 606,217 L610,227 L632,227 L628,217 Q586,113 507,49.5 Q428,-14 312,-14 Q200,-14 133.5,61.5 Q67,137 67,269 Q67,464 178.5,584 Q290,704 447,704"/> 
            <glyph glyph-name="D" unicode="&#x44;" horiz-adv-x="642" d=" M411,688 Q511,680 576.5,610 Q642,540 642,406 Q642,250 543.5,132.5 Q445,15 292,3 Q256,0 203,0 L28,0 L150,690 L339,690 Q387,690 411,688 M297,25 Q443,39 531,150 Q619,261 619,404 Q619,526 561,592 Q503,658 407,667 Q385,669 335,669 L169,669 L54,21 L211,21 Q252,21 297,25"/> 
            <glyph glyph-name="E" unicode="&#x45;" horiz-adv-x="569" d=" M168,670 L113,355 L490,355 L486,335 L109,335 L54,20 L461,20 L457,0 L28,0 L150,690 L569,690 L565,670"/> 
            <glyph glyph-name="F" unicode="&#x46;" horiz-adv-x="569" d=" M168,670 L113,355 L480,355 L476,335 L109,335 L50,0 L28,0 L150,690 L569,690 L565,670"/> 
            <glyph glyph-name="G" unicode="&#x47;" horiz-adv-x="683" d=" M461,704 Q570,704 626.5,643 Q683,582 683,484 L683,474 L661,474 L661,484 Q661,578 607.5,630.5 Q554,683 453,683 Q387,683 323.5,655.5 Q260,628 207.5,577.5 Q155,527 122.5,446.5 Q90,366 90,270 Q90,142 154,74.5 Q218,7 319,7 Q362,7 406.5,21.5 Q451,36 496.5,66.5 Q542,97 577,154.5 Q612,212 626,287 L393,287 L396,307 L651,307 L597,0 L575,0 L608,184 L576,119 Q473,-14 314,-14 Q200,-14 133,61.5 Q66,137 66,269 Q66,456 183,580 Q300,704 461,704"/> 
            <glyph glyph-name="H" unicode="&#x48;" horiz-adv-x="638" d=" M638,690 L516,0 L494,0 L552,328 L108,328 L50,0 L28,0 L150,690 L172,690 L112,349 L556,349 L616,690"/> 
            <glyph glyph-name="I" unicode="&#x49;" horiz-adv-x="172" d=" M50,0 L28,0 L150,690 L172,690"/> 
            <glyph glyph-name="J" unicode="&#x4A;" horiz-adv-x="482" d=" M482,690 L406,260 Q397,206 388,169 Q369,90 318,38 Q267,-14 178,-14 Q93,-14 46.5,39.5 Q0,93 14,194 L18,224 L40,224 L36,194 Q22,97 64.5,52 Q107,7 184,7 Q324,7 367,172 Q369,179 383,252 L460,690"/> 
            <glyph glyph-name="K" unicode="&#x4B;" horiz-adv-x="595" d=" M172,345 L467,0 L436,0 L153,333 L102,292 L50,0 L28,0 L150,690 L172,690 L106,319 L563,690 L595,690"/> 
            <glyph glyph-name="L" unicode="&#x4C;" horiz-adv-x="461" d=" M461,20 L457,0 L28,0 L150,690 L172,690 L54,20"/> 
            <glyph glyph-name="M" unicode="&#x4D;" horiz-adv-x="778" d=" M778,690 L656,0 L634,0 L755,672 L357,0 L329,0 L167,673 L50,0 L28,0 L150,690 L185,690 L347,21 L743,690"/> 
            <glyph glyph-name="N" unicode="&#x4E;" horiz-adv-x="620" d=" M620,690 L498,0 L464,0 L168,672 L50,0 L28,0 L150,690 L183,690 L479,20 L598,690"/> 
            <glyph glyph-name="O" unicode="&#x4F;" horiz-adv-x="714" d=" M444,704 Q563,704 638.5,622 Q714,540 714,403 Q714,328 688.5,254.5 Q663,181 616.5,121 Q570,61 497.5,23.5 Q425,-14 338,-14 Q219,-14 143.5,68 Q68,150 68,287 Q68,362 93.5,435.5 Q119,509 165.5,569 Q212,629 284.5,666.5 Q357,704 444,704 M341,7 Q446,7 528,66.5 Q610,126 650.5,215.5 Q691,305 691,403 Q691,531 619.5,607 Q548,683 441,683 Q336,683 254,623.5 Q172,564 131.5,474.5 Q91,385 91,287 Q91,159 162.5,83 Q234,7 341,7"/> 
            <glyph glyph-name="P" unicode="&#x50;" horiz-adv-x="540" d=" M401,685 Q464,677 502,640.5 Q540,604 540,538 Q540,439 482.5,381.5 Q425,324 336,313 Q295,308 236,308 L105,308 L51,0 L29,0 L150,690 L303,690 Q362,690 401,685 M336,334 Q416,344 466,394.5 Q516,445 516,535 Q516,649 394,664 Q355,669 300,669 L169,669 L109,329 L240,329 Q295,329 336,334"/> 
            <glyph glyph-name="Q" unicode="&#x51;" horiz-adv-x="703" d=" M703,413 Q703,294 645,184 Q587,74 485,22 Q530,21 560,7.5 Q590,-6 619,-35 L604,-52 Q573,-21 543.5,-9 Q514,3 473,3 Q450,3 402,-7 Q367,-14 332,-14 Q214,-14 140.5,66 Q67,146 67,277 Q67,352 92,427 Q117,502 162,564 Q207,626 279.5,665 Q352,704 438,704 Q556,704 629.5,624 Q703,544 703,413 M90,277 Q90,155 159.5,81 Q229,7 335,7 Q440,7 521,69.5 Q602,132 641,223 Q680,314 680,413 Q680,535 610.5,609 Q541,683 435,683 Q330,683 249,620.5 Q168,558 129,467 Q90,376 90,277"/> 
            <glyph glyph-name="R" unicode="&#x52;" horiz-adv-x="556" d=" M556,546 Q556,469 507.5,414.5 Q459,360 379,347 Q451,324 454,196 Q456,59 471,0 L447,0 Q435,68 432,199 Q428,332 334,337 Q312,338 271,338 L110,338 L50,0 L28,0 L150,690 L317,690 Q376,690 416,685 Q484,677 520,640.5 Q556,604 556,546 M350,361 Q431,367 481,417.5 Q531,468 531,542 Q531,648 408,664 Q368,669 313,669 L168,669 L113,359 L275,359 Q317,359 350,361"/> 
            <glyph glyph-name="S" unicode="&#x53;" horiz-adv-x="537" d=" M346,704 Q439,704 488,649.5 Q537,595 533,514 L511,514 Q511,592 463.5,637.5 Q416,683 341,683 Q257,683 195,637 Q133,591 133,506 Q133,451 172.5,420.5 Q212,390 305,362 Q399,334 443,291.5 Q487,249 487,179 Q487,94 416.5,40 Q346,-14 235,-14 Q137,-14 74,36 Q11,86 18,180 L40,180 Q35,97 90.5,52 Q146,7 242,7 Q336,7 399,54 Q462,101 462,176 Q462,240 422,277 Q382,314 291,341 Q194,370 151,405.5 Q108,441 108,501 Q108,592 174,648 Q240,704 346,704"/> 
            <glyph glyph-name="T" unicode="&#x54;" horiz-adv-x="657" d=" M653,670 L389,670 L271,0 L249,0 L367,670 L103,670 L107,690 L657,690"/> 
            <glyph glyph-name="U" unicode="&#x55;" horiz-adv-x="609" d=" M609,690 L529,239 Q523,204 515,172 Q494,87 433,36.5 Q372,-14 267,-14 Q176,-14 126,30.5 Q76,75 76,147 Q76,187 85,239 L165,690 L187,690 L107,235 Q98,183 98,148 Q98,86 141,46.5 Q184,7 271,7 Q365,7 420.5,53.5 Q476,100 495,178 Q501,201 508,240 L587,690"/> 
            <glyph glyph-name="V" unicode="&#x56;" horiz-adv-x="667" d=" M278,0 L246,0 L101,690 L124,690 L264,19 L641,690 L667,690"/> 
            <glyph glyph-name="W" unicode="&#x57;" horiz-adv-x="901" d=" M901,690 L592,0 L566,0 L496,658 L180,0 L153,0 L101,690 L123,690 L171,28 L482,680 L515,680 L584,30 L878,690"/> 
            <glyph glyph-name="X" unicode="&#x58;" horiz-adv-x="625" d=" M317,347 L506,0 L478,0 L301,332 L8,0 L-19,0 L290,349 L120,690 L144,690 L307,365 L598,690 L625,689"/> 
            <glyph glyph-name="Y" unicode="&#x59;" horiz-adv-x="612" d=" M291,270 L243,0 L221,0 L269,271 L98,690 L122,690 L284,295 L583,690 L612,690"/> 
            <glyph glyph-name="Z" unicode="&#x5A;" horiz-adv-x="581" d=" M577,670 L24,21 L469,21 L465,0 L-11,0 L-8,17 L548,669 L135,669 L139,690 L581,690"/> 
            <glyph glyph-name="[" unicode="&#x5B;" horiz-adv-x="316" d=" M163,780 L316,780 L312,759 L181,759 L37,-59 L168,-59 L164,-80 L11,-80"/> 
            <glyph glyph-name="\" unicode="&#x5C;" horiz-adv-x="216" d=" M216,-30 L194,-30 L75,720 L97,720"/> 
            <glyph glyph-name="]" unicode="&#x5D;" horiz-adv-x="262" d=" M110,-80 L-43,-80 L-39,-59 L92,-59 L236,759 L105,759 L109,780 L262,780"/> 
            <glyph glyph-name="^" unicode="&#x5E;" horiz-adv-x="442" d=" M417,215 L325,595 L97,215 L71,215 L313,616 L342,616 L442,215"/> 
            <glyph glyph-name="_" unicode="&#x5F;" horiz-adv-x="452" d=" M448,-80 L48,-80 L52,-59 L452,-59"/> 
            <glyph glyph-name="`" unicode="&#x60;" horiz-adv-x="152" d=" M152,580 L134,580 L84,690 L110,690"/> 
            <glyph glyph-name="a" unicode="&#x61;" horiz-adv-x="454" d=" M312,540 Q382,540 418,505.5 Q454,471 454,413 Q454,385 445,336 L415,170 Q402,92 394,0 L371,0 L387,128 L356,77 Q282,-14 169,-14 Q108,-14 69,18 Q30,50 30,111 Q30,187 87,234 Q144,281 228,295.5 Q312,310 417,303 L422,334 Q431,384 431,406 Q431,519 308,519 Q245,519 192.5,485 Q140,451 119,382 L97,382 Q114,450 173,495 Q232,540 312,540 M176,7 Q258,7 322,67.5 Q386,128 400,209 L413,282 Q247,297 150,250 Q53,203 53,112 Q53,62 86,34.5 Q119,7 176,7"/> 
            <glyph glyph-name="b" unicode="&#x62;" horiz-adv-x="522" d=" M336,540 Q422,540 472,481 Q522,422 522,327 Q522,241 489.5,164.5 Q457,88 391,37 Q325,-14 238,-14 Q180,-14 146,3.5 Q112,21 86,63 L69,122 L47,0 L25,0 L155,735 L177,735 L119,407 L157,466 Q200,508 238.5,524 Q277,540 336,540 M241,7 Q319,7 379,54 Q439,101 469,173 Q499,245 499,326 Q499,412 455,465.5 Q411,519 331,519 Q245,519 182.5,464 Q120,409 98,288 L88,229 Q70,130 107.5,68.5 Q145,7 241,7"/> 
            <glyph glyph-name="c" unicode="&#x63;" horiz-adv-x="497" d=" M318,540 Q402,540 449.5,491.5 Q497,443 495,363 L473,363 Q473,436 432,478 Q391,520 313,520 Q196,520 122,427.5 Q48,335 48,211 Q48,110 96,58 Q144,6 219,6 Q291,6 348.5,45.5 Q406,85 438,157 L460,157 Q427,74 362,30 Q297,-14 214,-14 Q129,-14 77.5,45.5 Q26,105 26,210 Q26,293 58.5,367 Q91,441 159,490.5 Q227,540 318,540"/> 
            <glyph glyph-name="d" unicode="&#x64;" horiz-adv-x="559" d=" M559,735 L429,0 L407,0 L428,119 L390,60 Q347,18 308.5,2 Q270,-14 211,-14 Q125,-14 75,45 Q25,104 25,199 Q25,285 57.5,361.5 Q90,438 156,489 Q222,540 309,540 Q367,540 401,522.5 Q435,505 461,463 L478,404 L537,735 M449,238 L459,297 Q477,396 439.5,457.5 Q402,519 306,519 Q228,519 168,472 Q108,425 78,353 Q48,281 48,200 Q48,114 92,60.5 Q136,7 216,7 Q302,7 364.5,62 Q427,117 449,238"/> 
            <glyph glyph-name="e" unicode="&#x65;" horiz-adv-x="489" d=" M479,258 L52,258 Q47,226 47,205 Q47,104 95,55.5 Q143,7 214,7 Q280,7 338.5,45.5 Q397,84 433,161 L455,161 Q375,-14 208,-14 Q126,-14 75,42 Q24,98 24,204 Q24,259 43,316.5 Q62,374 96.5,424.5 Q131,475 187.5,507.5 Q244,540 311,540 Q403,540 446,484 Q489,428 489,340 Q489,294 479,258 M308,519 Q239,519 184,481 Q129,443 99.5,391 Q70,339 56,279 L461,279 Q466,307 466,340 Q466,435 422.5,477 Q379,519 308,519"/> 
            <glyph glyph-name="f" unicode="&#x66;" horiz-adv-x="301" d=" M254,754 Q278,754 301,749 L297,728 Q280,733 258,733 Q189,733 169,663 Q167,656 158,609 L143,526 L250,526 L247,505 L140,505 L51,0 L29,0 L117,505 L71,505 L74,526 L121,526 L134,601 Q142,644 147,663 Q160,709 190,731.5 Q220,754 254,754"/> 
            <glyph glyph-name="g" unicode="&#x67;" horiz-adv-x="522" d=" M522,530 L453,140 Q432,18 425,-18 Q405,-111 341,-165.5 Q277,-220 173,-220 Q96,-220 48,-180.5 Q0,-141 0,-62 L0,-47 L22,-47 L22,-62 Q22,-199 179,-199 Q271,-199 328.5,-150.5 Q386,-102 404,-11 Q414,40 424,100 L427,117 L390,60 Q347,18 308.5,2 Q270,-14 211,-14 Q125,-14 75,45 Q25,104 25,199 Q25,285 57.5,361.5 Q90,438 156,489 Q222,540 309,540 Q367,540 401,522.5 Q435,505 461,463 L478,405 L500,530 M444,215 L461,309 Q475,404 437,461.5 Q399,519 306,519 Q228,519 168,472 Q108,425 78,353 Q48,281 48,200 Q48,114 92,60.5 Q136,7 216,7 Q297,7 358,56.5 Q419,106 444,215"/> 
            <glyph glyph-name="h" unicode="&#x68;" horiz-adv-x="481" d=" M328,540 Q402,540 441.5,502 Q481,464 481,396 Q481,357 470,292 L418,0 L396,0 L446,283 Q458,349 458,393 Q458,451 425,485 Q392,519 324,519 Q244,519 181.5,465 Q119,411 101,312 L47,0 L25,0 L155,740 L177,740 L118,406 L150,462 Q219,540 328,540"/> 
            <glyph glyph-name="i" unicode="&#x69;" horiz-adv-x="167" d=" M150,653 Q157,653 162,648 Q167,643 167,636 Q167,626 160,619.5 Q153,613 144,613 Q137,613 132,618 Q127,623 127,630 Q127,640 134,646.5 Q141,653 150,653 M46,0 L24,0 L117,526 L139,526"/> 
            <glyph glyph-name="j" unicode="&#x6A;" horiz-adv-x="172" d=" M155,653 Q162,653 167,648 Q172,643 172,636 Q172,626 165,619.5 Q158,613 149,613 Q142,613 137,618 Q132,623 132,630 Q132,640 139,646.5 Q146,653 155,653 M148,526 L43,-73 Q37,-104 31,-125 Q9,-210 -64,-210 Q-82,-210 -99,-206 L-95,-187 Q-51,-195 -26,-180.5 Q-1,-166 10,-123 Q15,-106 19,-84 L126,526"/> 
            <glyph glyph-name="k" unicode="&#x6B;" horiz-adv-x="474" d=" M158,276 L398,0 L369,0 L140,263 L86,220 L47,0 L25,0 L155,735 L177,735 L91,248 L439,526 L474,526"/> 
            <glyph glyph-name="l" unicode="&#x6C;" horiz-adv-x="173" d=" M173,735 L65,120 Q53,55 53,40 Q53,23 64,17.5 Q75,12 104,16 L100,-3 Q90,-5 71,-5 Q30,-5 30,34 Q30,47 43,120 L151,735"/> 
            <glyph glyph-name="m" unicode="&#x6D;" horiz-adv-x="760" d=" M630,540 Q694,540 727,503.5 Q760,467 760,401 Q760,364 748,292 L697,0 L675,0 L725,283 Q737,352 737,391 Q737,520 625,520 Q554,520 499,464.5 Q444,409 425,302 L372,0 L350,0 L400,283 Q412,354 412,391 Q412,457 386,488.5 Q360,520 300,520 Q230,520 174.5,464.5 Q119,409 100,302 L47,0 L25,0 L117,526 L139,526 L119,413 L154,471 Q219,540 305,540 Q369,540 401.5,504.5 Q434,469 435,403 L479,471 Q544,540 630,540"/> 
            <glyph glyph-name="n" unicode="&#x6E;" horiz-adv-x="481" d=" M328,540 Q402,540 441.5,502 Q481,464 481,396 Q481,357 470,292 L418,0 L396,0 L446,283 Q458,349 458,393 Q458,451 425,485 Q392,519 324,519 Q244,519 181.5,465 Q119,411 101,312 L47,0 L25,0 L117,526 L139,526 L118,406 L150,462 Q219,540 328,540"/> 
            <glyph glyph-name="o" unicode="&#x6F;" horiz-adv-x="524" d=" M314,540 Q414,540 469,476.5 Q524,413 524,312 Q524,270 513.5,226.5 Q503,183 480,139.5 Q457,96 424.5,62 Q392,28 343,7 Q294,-14 236,-14 Q136,-14 81,49.5 Q26,113 26,214 Q26,256 36.5,299.5 Q47,343 70,386.5 Q93,430 125.5,464 Q158,498 207,519 Q256,540 314,540 M240,7 Q290,7 334,26 Q378,45 408,76.5 Q438,108 459.5,148.5 Q481,189 491,230.5 Q501,272 501,312 Q501,409 447.5,464 Q394,519 310,519 Q260,519 216,500 Q172,481 142,449.5 Q112,418 90.5,377.5 Q69,337 59,295.5 Q49,254 49,214 Q49,117 102.5,62 Q156,7 240,7"/> 
            <glyph glyph-name="p" unicode="&#x70;" horiz-adv-x="522" d=" M336,540 Q422,540 472,481 Q522,422 522,327 Q522,241 489.5,164.5 Q457,88 391,37 Q325,-14 238,-14 Q180,-14 146,3.5 Q112,21 86,63 L69,122 L12,-196 L-10,-196 L119,526 L141,526 L120,408 L157,466 Q200,508 238.5,524 Q277,540 336,540 M241,7 Q319,7 379,54 Q439,101 469,173 Q499,245 499,326 Q499,412 455,465.5 Q411,519 331,519 Q245,519 182.5,464 Q120,409 98,288 L88,229 Q70,130 107.5,68.5 Q145,7 241,7"/> 
            <glyph glyph-name="q" unicode="&#x71;" horiz-adv-x="522" d=" M522,526 L393,-196 L371,-196 L427,118 L390,60 Q347,18 308.5,2 Q270,-14 211,-14 Q125,-14 75,45 Q25,104 25,199 Q25,285 57.5,361.5 Q90,438 156,489 Q222,540 309,540 Q367,540 401,522.5 Q435,505 461,463 L478,404 L500,526 M449,238 L459,297 Q477,396 439.5,457.5 Q402,519 306,519 Q228,519 168,472 Q108,425 78,353 Q48,281 48,200 Q48,114 92,60.5 Q136,7 216,7 Q302,7 364.5,62 Q427,117 449,238"/> 
            <glyph glyph-name="r" unicode="&#x72;" horiz-adv-x="304" d=" M281,540 Q297,540 304,539 L300,519 Q271,521 244.5,514 Q218,507 188.5,485.5 Q159,464 135,415.5 Q111,367 98,295 L97,288 L47,0 L25,0 L118,530 L140,530 L120,416 L150,473 Q207,540 281,540"/> 
            <glyph glyph-name="s" unicode="&#x73;" horiz-adv-x="425" d=" M260,540 Q334,540 377.5,499.5 Q421,459 425,383 L403,383 Q391,519 255,519 Q187,519 146,480.5 Q105,442 105,392 Q105,346 136.5,319 Q168,292 227,276 Q309,254 347.5,222 Q386,190 386,133 Q386,62 333,24 Q280,-14 201,-14 Q118,-14 67.5,25.5 Q17,65 16,150 L38,150 Q41,75 84,41 Q127,7 207,7 Q277,7 320,41.5 Q363,76 363,130 Q363,180 329.5,207.5 Q296,235 214,257 Q82,292 82,391 Q82,453 131.5,496.5 Q181,540 260,540"/> 
            <glyph glyph-name="t" unicode="&#x74;" horiz-adv-x="251" d=" M145,504 L79,128 Q70,80 70,57 Q70,26 92,16.5 Q114,7 164,14 L161,-4 Q140,-7 116,-7 Q48,-7 48,53 Q48,83 57,132 L123,504 L59,504 L62,522 L126,522 L145,630 L167,630 L148,522 L251,522 L248,504"/> 
            <glyph glyph-name="u" unicode="&#x75;" horiz-adv-x="502" d=" M502,526 L410,0 L388,0 L409,120 L377,64 Q308,-14 199,-14 Q125,-14 85.5,24 Q46,62 46,130 Q46,169 57,234 L109,526 L131,526 L81,243 Q69,177 69,133 Q69,75 102,41 Q135,7 203,7 Q283,7 345.5,61 Q408,115 426,214 L480,526"/> 
            <glyph glyph-name="v" unicode="&#x76;" horiz-adv-x="502" d=" M502,526 L200,0 L170,0 L56,526 L80,526 L188,20 L476,526"/> 
            <glyph glyph-name="w" unicode="&#x77;" horiz-adv-x="747" d=" M747,526 L487,0 L458,0 L396,504 L157,0 L126,0 L56,526 L78,526 L144,21 L382,524 L414,524 L477,24 L722,526"/> 
            <glyph glyph-name="x" unicode="&#x78;" horiz-adv-x="465" d=" M226,264 L366,0 L340,0 L211,248 L-11,0 L-40,0 L201,268 L70,526 L94,526 L217,284 L436,526 L465,526"/> 
            <glyph glyph-name="y" unicode="&#x79;" horiz-adv-x="502" d=" M502,526 L200,0 Q127,-128 82,-169 Q37,-210 -13,-210 Q-31,-210 -44,-206 L-41,-187 Q-28,-190 -11,-190 Q28,-190 65,-155.5 Q102,-121 156,-30 L171,-5 L56,526 L80,526 L188,20 L476,526"/> 
            <glyph glyph-name="z" unicode="&#x7A;" horiz-adv-x="470" d=" M467,502 L8,19 L387,19 L384,0 L-25,0 L-22,18 L436,501 L88,501 L91,522 L470,522"/> 
            <glyph glyph-name="{" unicode="&#x7B;" horiz-adv-x="360" d=" M360,780 L356,759 L338,759 Q305,759 282,750 Q259,741 245.5,727 Q232,713 224.5,687 Q217,661 214,637 Q211,613 210,575 Q208,538 207,522.5 Q206,507 202.5,476 Q199,445 192.5,430 Q186,415 175,396 Q164,377 147,366 Q130,355 107,350 Q165,335 165,269 Q165,224 132,129 Q102,44 102,8 Q102,-59 194,-59 L212,-59 L208,-80 L191,-80 Q139,-80 109,-58 Q79,-36 79,8 Q79,42 113,139 Q142,220 142,268 Q142,332 76,339 L80,361 Q104,363 122,372 Q140,381 151.5,397.5 Q163,414 170,429.5 Q177,445 180.5,471.5 Q184,498 185,515.5 Q186,533 187,565 Q188,609 191.5,638 Q195,667 204.5,696.5 Q214,726 230.5,742.5 Q247,759 275,769.5 Q303,780 343,780"/> 
            <glyph glyph-name="|" unicode="&#x7C;" horiz-adv-x="231" d=" M55,-200 L33,-200 L209,800 L231,800"/> 
            <glyph glyph-name="}" unicode="&#x7D;" horiz-adv-x="241" d=" M175,432 Q175,368 241,361 L237,339 Q213,337 195,328 Q177,319 165.5,302.5 Q154,286 147,270.5 Q140,255 136.5,228.5 Q133,202 132,184.5 Q131,167 130,135 Q129,91 125.5,62 Q122,33 112.5,3.5 Q103,-26 86.5,-42.5 Q70,-59 42,-69.5 Q14,-80 -26,-80 L-43,-80 L-39,-59 L-21,-59 Q12,-59 35,-50 Q58,-41 71.5,-27 Q85,-13 92.5,13 Q100,39 103,63 Q106,87 107,125 Q109,162 110,177.5 Q111,193 114.5,224 Q118,255 124.5,270 Q131,285 142,304 Q153,323 170,334 Q187,345 210,350 Q152,365 152,431 Q152,476 185,571 Q215,656 215,692 Q215,759 123,759 L105,759 L109,780 L126,780 Q178,780 208,758 Q238,736 238,692 Q238,658 204,561 Q175,480 175,432"/> 
            <glyph glyph-name="~" unicode="&#x7E;" horiz-adv-x="525" d=" M504,350 L525,350 Q504,233 417,233 Q389,233 366.5,241.5 Q344,250 296,280 Q252,307 230.5,316 Q209,325 186,325 Q122,325 105,229 L84,229 Q105,346 191,346 Q219,346 242,337 Q265,328 313,299 Q357,272 378.5,263 Q400,254 422,254 Q487,254 504,350"/> 
            <glyph glyph-name="¡" unicode="&#xA1;" horiz-adv-x="143" d=" M119,500 Q103,500 103,516 Q103,526 110.5,533 Q118,540 127,540 Q143,540 143,524 Q143,514 135.5,507 Q128,500 119,500 M95,416 L114,416 L12,-164 L-11,-164"/> 
            <glyph glyph-name="¢" unicode="&#xA2;" horiz-adv-x="507" d=" M345,620 L331,540 Q414,539 460.5,490.5 Q507,442 505,363 L483,363 Q483,435 443,477 Q403,519 327,520 L236,6 Q306,8 361.5,47 Q417,86 448,157 L470,157 Q438,77 375,32.5 Q312,-12 233,-14 L219,-90 L197,-90 L211,-14 Q131,-9 83.5,50 Q36,109 36,210 Q36,253 47,297 Q58,341 81,383 Q104,425 136,458.5 Q168,492 212.5,514 Q257,536 309,539 L323,620 M58,211 Q58,116 101.5,64 Q145,12 214,7 L305,519 Q197,511 127.5,417 Q58,323 58,211"/> 
            <glyph glyph-name="£" unicode="&#xA3;" horiz-adv-x="504" d=" M330,704 Q422,704 460.5,651.5 Q499,599 504,508 L482,508 Q478,592 443,637.5 Q408,683 326,683 Q247,683 199,627 Q151,571 151,504 Q151,437 178,373 L415,373 L411,352 L187,352 Q214,289 214,240 Q214,101 49,21 L435,21 L431,0 L-4,0 L-1,19 Q191,97 191,239 Q191,289 163,352 L67,352 L71,373 L153,373 Q128,434 128,503 Q128,577 182,640.5 Q236,704 330,704"/> 
            <glyph glyph-name="¤" unicode="&#xA4;" horiz-adv-x="488" d=" M446,315 Q446,231 385,173 L427,123 L408,107 L366,158 Q316,121 246,121 Q179,121 137,169 L69,112 L56,128 L124,186 Q96,230 96,287 Q96,367 158,427 L113,481 L132,497 L177,443 Q228,481 296,481 Q364,481 405,434 L475,493 L488,477 L418,417 Q446,375 446,315 M119,289 Q119,225 155,183.5 Q191,142 250,142 Q331,142 377,196.5 Q423,251 423,313 Q423,380 387.5,420 Q352,460 292,460 Q211,460 165,405.5 Q119,351 119,289"/> 
            <glyph glyph-name="¥" unicode="&#xA5;" horiz-adv-x="583" d=" M302,342 L473,342 L470,321 L286,321 L272,242 L456,242 L452,221 L268,221 L229,0 L207,0 L246,221 L62,221 L66,242 L250,242 L264,321 L80,321 L83,342 L257,342 L97,690 L120,690 L278,344 L555,690 L583,690"/> 
            <glyph glyph-name="¦" unicode="&#xA6;" horiz-adv-x="212" d=" M152,350 L130,350 L190,690 L212,690 M62,-160 L40,-160 L100,180 L122,180"/> 
            <glyph glyph-name="§" unicode="&#xA7;" horiz-adv-x="499" d=" M499,256 Q499,194 448.5,152.5 Q398,111 308,103 Q398,59 398,-29 Q398,-92 346,-133 Q294,-174 217,-174 Q137,-174 87,-133 Q37,-92 26,-9 L48,-9 Q73,-153 217,-153 Q285,-153 330,-119 Q375,-85 375,-29 Q375,25 337,59 Q299,93 206,113 Q141,128 95,167 Q49,206 49,272 Q49,337 98.5,380.5 Q148,424 232,432 Q149,471 149,556 Q149,615 194.5,659.5 Q240,704 317,704 Q468,704 492,549 L470,549 Q444,683 317,683 Q247,683 209.5,645.5 Q172,608 172,555 Q172,499 212,470 Q252,441 320,424 Q407,402 453,362.5 Q499,323 499,256 M273,117 Q364,121 420,156.5 Q476,192 476,256 Q476,313 436,346.5 Q396,380 305,406 Q279,414 268,418 Q182,414 127,377 Q72,340 72,275 Q72,167 218,133 Q251,125 273,117"/> 
            <glyph glyph-name="¨" unicode="&#xA8;" horiz-adv-x="210" d=" M114,653 Q130,653 130,637 Q130,627 122.5,620 Q115,613 106,613 Q90,613 90,629 Q90,639 97.5,646 Q105,653 114,653 M194,653 Q210,653 210,637 Q210,627 202.5,620 Q195,613 186,613 Q170,613 170,629 Q170,639 177.5,646 Q185,653 194,653"/> 
            <glyph glyph-name="©" unicode="&#xA9;" horiz-adv-x="782" d=" M267,726 Q571,726 676.5,618 Q782,510 782,355 Q782,200 676.5,92 Q571,-16 419,-16 Q267,-16 161.5,92 Q56,200 56,355 Q56,510 267,726 M561,704 Q277,704 177.5,602.5 Q78,501 78,355 Q78,210 177,108.5 Q276,7 419,7 Q562,7 661,108.5 Q760,210 760,355 Q760,501 561,704 M422,564 Q487,564 531.5,528.5 Q576,493 585,426 L563,426 Q552,481 516.5,512 Q481,543 422,543 Q351,543 308,488 Q265,433 265,356 Q265,276 308,223 Q351,170 418,170 Q537,170 562,286 L584,286 Q571,218 526.5,183.5 Q482,149 415,149 Q343,149 293,205.5 Q243,262 243,355 Q243,450 294.5,507 Q346,564 422,564"/> 
            <glyph glyph-name="«" unicode="&#xAB;" horiz-adv-x="414" d=" M126,246 L232,82 L205,82 L97,248 L263,414 L294,414 M246,246 L352,82 L325,82 L217,248 L383,414 L414,414"/> 
            <glyph glyph-name="¬" unicode="&#xAC;" horiz-adv-x="443" d=" M415,210 L393,210 L417,344 L88,344 L92,365 L443,365"/> 
            <glyph glyph-name="®" unicode="&#xAE;" horiz-adv-x="475" d=" M288,764 Q374,764 424.5,712.5 Q475,661 475,581 Q475,492 410.5,418 Q346,344 234,344 Q148,344 97.5,395.5 Q47,447 47,527 Q47,616 111.5,690 Q176,764 288,764 M238,365 Q337,365 394.5,432.5 Q452,500 452,581 Q452,650 407,696.5 Q362,743 284,743 Q185,743 127.5,675.5 Q70,608 70,527 Q70,458 115,411.5 Q160,365 238,365 M291,659 Q315,656 329,641 Q343,626 343,604 Q343,558 290,547 Q312,539 312,513 Q312,482 321,456 L298,456 Q291,473 291,498 Q291,521 285,529 Q279,537 261,537 L220,537 L206,456 L186,456 L222,660 L268,660 Q282,660 291,659 M273,557 Q320,562 320,603 Q320,634 286,640 Q280,641 264,641 L238,641 L223,556 L251,556 Q264,556 273,557"/> 
            <glyph glyph-name="¯" unicode="&#xAF;" horiz-adv-x="222" d=" M218,620 L78,620 L82,641 L222,641"/> 
            <glyph glyph-name="°" unicode="&#xB0;" horiz-adv-x="310" d=" M224,749 Q262,749 286,725.5 Q310,702 310,665 Q310,613 274,580 Q238,547 188,547 Q150,547 126,570.5 Q102,594 102,631 Q102,683 138,716 Q174,749 224,749 M220,728 Q180,728 153,700.5 Q126,673 126,631 Q126,602 143.5,585 Q161,568 192,568 Q232,568 259,595.5 Q286,623 286,665 Q286,694 268.5,711 Q251,728 220,728"/> 
            <glyph glyph-name="±" unicode="&#xB1;" horiz-adv-x="476" d=" M476,328 L473,307 L284,307 L247,97 L225,97 L262,307 L73,307 L76,328 L265,328 L302,538 L324,538 L287,328 M22,21 L422,21 L419,0 L19,0"/> 
            <glyph glyph-name="´" unicode="&#xB4;" horiz-adv-x="236" d=" M147,580 L128,580 L208,690 L236,690"/> 
            <glyph glyph-name="¶" unicode="&#xB6;" horiz-adv-x="523" d=" M523,690 L381,-110 L359,-110 L497,669 L369,669 L231,-110 L209,-110 L285,320 L262,320 Q223,320 206,321 Q145,325 111.5,370.5 Q78,416 78,478 Q78,552 128,618 Q178,684 271,689 Q289,690 328,690"/> 
            <glyph glyph-name="·" unicode="&#xB7;" horiz-adv-x="95" d=" M77,327 Q95,327 95,309 Q95,298 87.5,290.5 Q80,283 69,283 Q51,283 51,301 Q51,312 58.5,319.5 Q66,327 77,327"/> 
            <glyph glyph-name="¸" unicode="&#xB8;" horiz-adv-x="218" d=" M180,1 L143,-51 Q218,-58 218,-121 Q218,-164 186,-187 Q154,-210 102,-210 Q73,-210 51,-203 L55,-182 Q76,-189 106,-189 Q148,-189 171.5,-171 Q195,-153 195,-122 Q195,-65 107,-69 L162,7"/> 
            <glyph glyph-name="»" unicode="&#xBB;" horiz-adv-x="353" d=" M233,248 L67,82 L36,82 L204,250 L98,414 L125,414 M353,248 L187,82 L156,82 L324,250 L218,414 L245,414"/> 
            <glyph glyph-name="¿" unicode="&#xBF;" horiz-adv-x="415" d=" M297,499 Q281,499 281,515 Q281,525 288.5,532 Q296,539 305,539 Q321,539 321,523 Q321,513 313.5,506 Q306,499 297,499 M171,-179 Q95,-179 52.5,-136 Q10,-93 10,-38 Q10,17 38.5,64 Q67,111 139,182 Q214,256 240,297 Q266,338 278,415 L298,415 Q288,340 259,292.5 Q230,245 154,169 Q83,98 58,55 Q33,12 33,-38 Q33,-88 72,-123 Q111,-158 174,-158 Q260,-158 315.5,-107.5 Q371,-57 393,31 L415,31 Q395,-64 329.5,-121.5 Q264,-179 171,-179"/> 
            <glyph glyph-name="À" unicode="&#xC0;" horiz-adv-x="556" d=" M395,736 L348,830 L374,830 L413,736 M476,269 L167,269 L16,0 L-11,0 L378,690 L411,690 L556,0 L532,0 M472,290 L393,671 L179,290"/> 
            <glyph glyph-name="Á" unicode="&#xC1;" horiz-adv-x="556" d=" M411,736 L392,736 L461,830 L489,830 M476,269 L167,269 L16,0 L-11,0 L378,690 L411,690 L556,0 L532,0 M472,290 L393,671 L179,290"/> 
            <glyph glyph-name="Â" unicode="&#xC2;" horiz-adv-x="556" d=" M355,736 L329,736 L410,830 L435,830 L484,736 L460,736 L421,815 M476,269 L167,269 L16,0 L-11,0 L378,690 L411,690 L556,0 L532,0 M472,290 L393,671 L179,290"/> 
            <glyph glyph-name="Ã" unicode="&#xC3;" horiz-adv-x="556" d=" M360,785 Q344,785 341,765 L321,765 Q323,806 360,806 Q381,806 419,793 Q449,782 464,782 Q480,782 483,802 L503,802 Q501,761 464,761 Q443,761 405,774 Q375,785 360,785 M476,269 L167,269 L16,0 L-11,0 L378,690 L411,690 L556,0 L532,0 M472,290 L393,671 L179,290"/> 
            <glyph glyph-name="Ä" unicode="&#xC4;" horiz-adv-x="556" d=" M373,763 Q357,763 357,779 Q357,789 364.5,796 Q372,803 381,803 Q397,803 397,787 Q397,777 389.5,770 Q382,763 373,763 M443,763 Q427,763 427,779 Q427,789 434.5,796 Q442,803 451,803 Q467,803 467,787 Q467,777 459.5,770 Q452,763 443,763 M476,269 L167,269 L16,0 L-11,0 L378,690 L411,690 L556,0 L532,0 M472,290 L393,671 L179,290"/> 
            <glyph glyph-name="Å" unicode="&#xC5;" horiz-adv-x="556" d=" M401,722 Q378,722 363,735 Q348,748 348,771 Q348,803 371,823.5 Q394,844 423,844 Q446,844 461,831 Q476,818 476,795 Q476,763 453,742.5 Q430,722 401,722 M419,823 Q399,823 385.5,808.5 Q372,794 372,774 Q372,761 380.5,752 Q389,743 405,743 Q425,743 438.5,757.5 Q452,772 452,792 Q452,805 443.5,814 Q435,823 419,823 M476,269 L167,269 L16,0 L-11,0 L378,690 L411,690 L556,0 L532,0 M472,290 L393,671 L179,290"/> 
            <glyph glyph-name="Æ" unicode="&#xC6;" horiz-adv-x="969" d=" M566,670 L524,355 L890,355 L886,335 L522,335 L480,20 L861,20 L857,0 L456,0 L492,269 L218,269 L-2,0 L-30,0 L537,690 L969,690 L965,670 M545,670 L235,290 L495,290"/> 
            <glyph glyph-name="Ç" unicode="&#xC7;" horiz-adv-x="677" d=" M447,704 Q557,704 617,642.5 Q677,581 677,484 L677,474 L655,474 L655,484 Q655,578 598.5,630.5 Q542,683 439,683 Q376,683 315,655.5 Q254,628 203.5,577.5 Q153,527 122,447 Q91,367 91,270 Q91,142 154,74.5 Q217,7 317,7 Q422,7 495,65 Q568,123 606,217 L610,227 L632,227 L628,217 Q586,113 507,49.5 Q428,-14 312,-14 Q301,-14 281,-12 L254,-51 Q329,-58 329,-121 Q329,-164 297,-187 Q265,-210 213,-210 Q184,-210 162,-203 L166,-182 Q187,-189 217,-189 Q259,-189 282.5,-171 Q306,-153 306,-122 Q306,-65 218,-69 L261,-9 Q171,7 119,80 Q67,153 67,269 Q67,464 178.5,584 Q290,704 447,704"/> 
            <glyph glyph-name="È" unicode="&#xC8;" horiz-adv-x="569" d=" M343,736 L296,830 L322,830 L361,736 M168,670 L113,355 L490,355 L486,335 L109,335 L54,20 L461,20 L457,0 L28,0 L150,690 L569,690 L565,670"/> 
            <glyph glyph-name="É" unicode="&#xC9;" horiz-adv-x="569" d=" M359,736 L340,736 L409,830 L437,830 M168,670 L113,355 L490,355 L486,335 L109,335 L54,20 L461,20 L457,0 L28,0 L150,690 L569,690 L565,670"/> 
            <glyph glyph-name="Ê" unicode="&#xCA;" horiz-adv-x="569" d=" M303,736 L277,736 L358,830 L383,830 L432,736 L408,736 L369,815 M168,670 L113,355 L490,355 L486,335 L109,335 L54,20 L461,20 L457,0 L28,0 L150,690 L569,690 L565,670"/> 
            <glyph glyph-name="Ë" unicode="&#xCB;" horiz-adv-x="569" d=" M321,763 Q305,763 305,779 Q305,789 312.5,796 Q320,803 329,803 Q345,803 345,787 Q345,777 337.5,770 Q330,763 321,763 M391,763 Q375,763 375,779 Q375,789 382.5,796 Q390,803 399,803 Q415,803 415,787 Q415,777 407.5,770 Q400,763 391,763 M168,670 L113,355 L490,355 L486,335 L109,335 L54,20 L461,20 L457,0 L28,0 L150,690 L569,690 L565,670"/> 
            <glyph glyph-name="Ì" unicode="&#xCC;" horiz-adv-x="178" d=" M178,736 L160,736 L113,830 L139,830 M50,0 L28,0 L150,690 L172,690"/> 
            <glyph glyph-name="Í" unicode="&#xCD;" horiz-adv-x="254" d=" M176,736 L157,736 L226,830 L254,830 M50,0 L28,0 L150,690 L172,690"/> 
            <glyph glyph-name="Î" unicode="&#xCE;" horiz-adv-x="249" d=" M225,736 L186,815 L120,736 L94,736 L175,830 L200,830 L249,736 M150,690 L172,690 L50,0 L28,0"/> 
            <glyph glyph-name="Ï" unicode="&#xCF;" horiz-adv-x="232" d=" M146,803 Q162,803 162,787 Q162,777 154.5,770 Q147,763 138,763 Q122,763 122,779 Q122,789 129.5,796 Q137,803 146,803 M216,803 Q232,803 232,787 Q232,777 224.5,770 Q217,763 208,763 Q192,763 192,779 Q192,789 199.5,796 Q207,803 216,803 M50,0 L28,0 L150,690 L172,690"/> 
            <glyph glyph-name="Ð" unicode="&#xD0;" horiz-adv-x="642" d=" M411,688 Q511,680 576.5,610 Q642,540 642,406 Q642,250 543.5,132.5 Q445,15 292,3 Q256,0 203,0 L28,0 L85,323 L26,323 L30,344 L89,344 L150,690 L339,690 Q387,690 411,688 M297,25 Q443,39 531,150 Q619,261 619,404 Q619,526 561,592 Q503,658 407,667 Q385,669 335,669 L169,669 L111,344 L302,344 L298,323 L107,323 L54,21 L211,21 Q252,21 297,25"/> 
            <glyph glyph-name="Ñ" unicode="&#xD1;" horiz-adv-x="620" d=" M349,785 Q333,785 330,765 L310,765 Q312,806 349,806 Q370,806 408,793 Q438,782 453,782 Q469,782 472,802 L492,802 Q490,761 453,761 Q432,761 394,774 Q364,785 349,785 M620,690 L498,0 L464,0 L168,672 L50,0 L28,0 L150,690 L183,690 L479,20 L598,690"/> 
            <glyph glyph-name="Ò" unicode="&#xD2;" horiz-adv-x="714" d=" M446,736 L399,830 L425,830 L464,736 M444,704 Q563,704 638.5,622 Q714,540 714,403 Q714,328 688.5,254.5 Q663,181 616.5,121 Q570,61 497.5,23.5 Q425,-14 338,-14 Q219,-14 143.5,68 Q68,150 68,287 Q68,362 93.5,435.5 Q119,509 165.5,569 Q212,629 284.5,666.5 Q357,704 444,704 M341,7 Q446,7 528,66.5 Q610,126 650.5,215.5 Q691,305 691,403 Q691,531 619.5,607 Q548,683 441,683 Q336,683 254,623.5 Q172,564 131.5,474.5 Q91,385 91,287 Q91,159 162.5,83 Q234,7 341,7"/> 
            <glyph glyph-name="Ó" unicode="&#xD3;" horiz-adv-x="714" d=" M462,736 L443,736 L512,830 L540,830 M444,704 Q563,704 638.5,622 Q714,540 714,403 Q714,328 688.5,254.5 Q663,181 616.5,121 Q570,61 497.5,23.5 Q425,-14 338,-14 Q219,-14 143.5,68 Q68,150 68,287 Q68,362 93.5,435.5 Q119,509 165.5,569 Q212,629 284.5,666.5 Q357,704 444,704 M341,7 Q446,7 528,66.5 Q610,126 650.5,215.5 Q691,305 691,403 Q691,531 619.5,607 Q548,683 441,683 Q336,683 254,623.5 Q172,564 131.5,474.5 Q91,385 91,287 Q91,159 162.5,83 Q234,7 341,7"/> 
            <glyph glyph-name="Ô" unicode="&#xD4;" horiz-adv-x="714" d=" M406,736 L380,736 L461,830 L486,830 L535,736 L511,736 L472,815 M444,704 Q563,704 638.5,622 Q714,540 714,403 Q714,328 688.5,254.5 Q663,181 616.5,121 Q570,61 497.5,23.5 Q425,-14 338,-14 Q219,-14 143.5,68 Q68,150 68,287 Q68,362 93.5,435.5 Q119,509 165.5,569 Q212,629 284.5,666.5 Q357,704 444,704 M341,7 Q446,7 528,66.5 Q610,126 650.5,215.5 Q691,305 691,403 Q691,531 619.5,607 Q548,683 441,683 Q336,683 254,623.5 Q172,564 131.5,474.5 Q91,385 91,287 Q91,159 162.5,83 Q234,7 341,7"/> 
            <glyph glyph-name="Õ" unicode="&#xD5;" horiz-adv-x="714" d=" M411,785 Q395,785 392,765 L372,765 Q374,806 411,806 Q432,806 470,793 Q500,782 515,782 Q531,782 534,802 L554,802 Q552,761 515,761 Q494,761 456,774 Q426,785 411,785 M444,704 Q563,704 638.5,622 Q714,540 714,403 Q714,328 688.5,254.5 Q663,181 616.5,121 Q570,61 497.5,23.5 Q425,-14 338,-14 Q219,-14 143.5,68 Q68,150 68,287 Q68,362 93.5,435.5 Q119,509 165.5,569 Q212,629 284.5,666.5 Q357,704 444,704 M341,7 Q446,7 528,66.5 Q610,126 650.5,215.5 Q691,305 691,403 Q691,531 619.5,607 Q548,683 441,683 Q336,683 254,623.5 Q172,564 131.5,474.5 Q91,385 91,287 Q91,159 162.5,83 Q234,7 341,7"/> 
            <glyph glyph-name="Ö" unicode="&#xD6;" horiz-adv-x="714" d=" M424,763 Q408,763 408,779 Q408,789 415.5,796 Q423,803 432,803 Q448,803 448,787 Q448,777 440.5,770 Q433,763 424,763 M494,763 Q478,763 478,779 Q478,789 485.5,796 Q493,803 502,803 Q518,803 518,787 Q518,777 510.5,770 Q503,763 494,763 M444,704 Q563,704 638.5,622 Q714,540 714,403 Q714,328 688.5,254.5 Q663,181 616.5,121 Q570,61 497.5,23.5 Q425,-14 338,-14 Q219,-14 143.5,68 Q68,150 68,287 Q68,362 93.5,435.5 Q119,509 165.5,569 Q212,629 284.5,666.5 Q357,704 444,704 M341,7 Q446,7 528,66.5 Q610,126 650.5,215.5 Q691,305 691,403 Q691,531 619.5,607 Q548,683 441,683 Q336,683 254,623.5 Q172,564 131.5,474.5 Q91,385 91,287 Q91,159 162.5,83 Q234,7 341,7"/> 
            <glyph glyph-name="×" unicode="&#xD7;" horiz-adv-x="467" d=" M289,313 L413,162 L396,147 L272,298 L94,147 L80,163 L258,314 L135,464 L152,479 L275,329 L453,480 L467,464"/> 
            <glyph glyph-name="Ø" unicode="&#xD8;" horiz-adv-x="757" d=" M757,645 L671,572 Q710,499 710,403 Q710,328 684.5,254.5 Q659,181 612.5,121 Q566,61 493.5,23.5 Q421,-14 334,-14 Q190,-14 115,99 L31,28 L17,45 L103,118 Q64,191 64,287 Q64,362 89.5,435.5 Q115,509 161.5,569 Q208,629 280.5,666.5 Q353,704 440,704 Q584,704 659,591 L743,662 M87,287 Q87,201 122,134 L641,575 Q570,683 437,683 Q332,683 250,623.5 Q168,564 127.5,474.5 Q87,385 87,287 M687,403 Q687,490 651,556 L133,115 Q166,63 219.5,35 Q273,7 337,7 Q442,7 524,66.5 Q606,126 646.5,215.5 Q687,305 687,403"/> 
            <glyph glyph-name="Ù" unicode="&#xD9;" horiz-adv-x="609" d=" M404,736 L386,736 L339,830 L365,830 M609,690 L529,239 Q523,204 515,172 Q494,87 433,36.5 Q372,-14 267,-14 Q176,-14 126,30.5 Q76,75 76,147 Q76,187 85,239 L165,690 L187,690 L107,235 Q98,183 98,148 Q98,86 141,46.5 Q184,7 271,7 Q365,7 420.5,53.5 Q476,100 495,178 Q501,201 508,240 L587,690"/> 
            <glyph glyph-name="Ú" unicode="&#xDA;" horiz-adv-x="609" d=" M402,736 L383,736 L452,830 L480,830 M609,690 L529,239 Q523,204 515,172 Q494,87 433,36.5 Q372,-14 267,-14 Q176,-14 126,30.5 Q76,75 76,147 Q76,187 85,239 L165,690 L187,690 L107,235 Q98,183 98,148 Q98,86 141,46.5 Q184,7 271,7 Q365,7 420.5,53.5 Q476,100 495,178 Q501,201 508,240 L587,690"/> 
            <glyph glyph-name="Û" unicode="&#xDB;" horiz-adv-x="609" d=" M346,736 L320,736 L401,830 L426,830 L475,736 L451,736 L412,815 M609,690 L529,239 Q523,204 515,172 Q494,87 433,36.5 Q372,-14 267,-14 Q176,-14 126,30.5 Q76,75 76,147 Q76,187 85,239 L165,690 L187,690 L107,235 Q98,183 98,148 Q98,86 141,46.5 Q184,7 271,7 Q365,7 420.5,53.5 Q476,100 495,178 Q501,201 508,240 L587,690"/> 
            <glyph glyph-name="Ü" unicode="&#xDC;" horiz-adv-x="609" d=" M372,803 Q388,803 388,787 Q388,777 380.5,770 Q373,763 364,763 Q348,763 348,779 Q348,789 355.5,796 Q363,803 372,803 M442,803 Q458,803 458,787 Q458,777 450.5,770 Q443,763 434,763 Q418,763 418,779 Q418,789 425.5,796 Q433,803 442,803 M609,690 L529,239 Q523,204 515,172 Q494,87 433,36.5 Q372,-14 267,-14 Q176,-14 126,30.5 Q76,75 76,147 Q76,187 85,239 L165,690 L187,690 L107,235 Q98,183 98,148 Q98,86 141,46.5 Q184,7 271,7 Q365,7 420.5,53.5 Q476,100 495,178 Q501,201 508,240 L587,690"/> 
            <glyph glyph-name="Ý" unicode="&#xDD;" horiz-adv-x="612" d=" M369,736 L350,736 L419,830 L447,830 M291,270 L243,0 L221,0 L269,271 L98,690 L122,690 L284,295 L583,690 L612,690"/> 
            <glyph glyph-name="Þ" unicode="&#xDE;" horiz-adv-x="521" d=" M380,567 Q521,548 521,434 Q521,424 517,396 Q503,314 449,269.5 Q395,225 318,215 Q277,210 218,210 L87,210 L50,0 L28,0 L150,690 L172,690 L151,572 L282,572 Q341,572 380,567 M493,396 Q496,414 496,430 Q496,531 372,546 Q333,551 278,551 L148,551 L91,231 L222,231 Q277,231 318,236 Q468,253 493,396"/> 
            <glyph glyph-name="ß" unicode="&#xDF;" horiz-adv-x="509" d=" M360,754 Q425,754 467,717 Q509,680 509,618 Q509,544 458,486 Q402,461 376,435.5 Q350,410 350,372 Q350,335 394,287 Q467,208 467,152 Q467,92 416,44 Q365,-4 265,-4 Q210,-4 159,8 L163,29 Q214,17 269,17 Q353,17 398.5,58 Q444,99 444,150 Q444,198 380,269 Q327,327 327,370 Q327,416 355,445.5 Q383,475 448,506 Q486,554 486,617 Q486,671 451.5,702 Q417,733 358,733 Q177,733 134,492 L47,0 L25,0 L111,490 Q120,541 136.5,584 Q153,627 181,667.5 Q209,708 255,731 Q301,754 360,754"/> 
            <glyph glyph-name="à" unicode="&#xE0;" horiz-adv-x="454" d=" M321,580 L271,690 L297,690 L339,580 M312,540 Q382,540 418,505.5 Q454,471 454,413 Q454,385 445,336 L415,170 Q402,92 394,0 L371,0 L387,128 L356,77 Q282,-14 169,-14 Q108,-14 69,18 Q30,50 30,111 Q30,187 87,234 Q144,281 228,295.5 Q312,310 417,303 L422,334 Q431,384 431,406 Q431,519 308,519 Q245,519 192.5,485 Q140,451 119,382 L97,382 Q114,450 173,495 Q232,540 312,540 M176,7 Q258,7 322,67.5 Q386,128 400,209 L413,282 Q247,297 150,250 Q53,203 53,112 Q53,62 86,34.5 Q119,7 176,7"/> 
            <glyph glyph-name="á" unicode="&#xE1;" horiz-adv-x="454" d=" M334,580 L315,580 L395,690 L423,690 M312,540 Q382,540 418,505.5 Q454,471 454,413 Q454,385 445,336 L415,170 Q402,92 394,0 L371,0 L387,128 L356,77 Q282,-14 169,-14 Q108,-14 69,18 Q30,50 30,111 Q30,187 87,234 Q144,281 228,295.5 Q312,310 417,303 L422,334 Q431,384 431,406 Q431,519 308,519 Q245,519 192.5,485 Q140,451 119,382 L97,382 Q114,450 173,495 Q232,540 312,540 M176,7 Q258,7 322,67.5 Q386,128 400,209 L413,282 Q247,297 150,250 Q53,203 53,112 Q53,62 86,34.5 Q119,7 176,7"/> 
            <glyph glyph-name="â" unicode="&#xE2;" horiz-adv-x="454" d=" M275,580 L251,580 L336,690 L360,690 L405,580 L382,580 L346,674 M312,540 Q382,540 418,505.5 Q454,471 454,413 Q454,385 445,336 L415,170 Q402,92 394,0 L371,0 L387,128 L356,77 Q282,-14 169,-14 Q108,-14 69,18 Q30,50 30,111 Q30,187 87,234 Q144,281 228,295.5 Q312,310 417,303 L422,334 Q431,384 431,406 Q431,519 308,519 Q245,519 192.5,485 Q140,451 119,382 L97,382 Q114,450 173,495 Q232,540 312,540 M176,7 Q258,7 322,67.5 Q386,128 400,209 L413,282 Q247,297 150,250 Q53,203 53,112 Q53,62 86,34.5 Q119,7 176,7"/> 
            <glyph glyph-name="ã" unicode="&#xE3;" horiz-adv-x="454" d=" M287,650 Q271,650 268,630 L248,630 Q250,671 287,671 Q308,671 346,658 Q376,647 391,647 Q407,647 410,667 L430,667 Q428,626 391,626 Q370,626 332,639 Q302,650 287,650 M312,540 Q382,540 418,505.5 Q454,471 454,413 Q454,385 445,336 L415,170 Q402,92 394,0 L371,0 L387,128 L356,77 Q282,-14 169,-14 Q108,-14 69,18 Q30,50 30,111 Q30,187 87,234 Q144,281 228,295.5 Q312,310 417,303 L422,334 Q431,384 431,406 Q431,519 308,519 Q245,519 192.5,485 Q140,451 119,382 L97,382 Q114,450 173,495 Q232,540 312,540 M176,7 Q258,7 322,67.5 Q386,128 400,209 L413,282 Q247,297 150,250 Q53,203 53,112 Q53,62 86,34.5 Q119,7 176,7"/> 
            <glyph glyph-name="ä" unicode="&#xE4;" horiz-adv-x="454" d=" M292,613 Q276,613 276,629 Q276,639 283.5,646 Q291,653 300,653 Q316,653 316,637 Q316,627 308.5,620 Q301,613 292,613 M372,613 Q356,613 356,629 Q356,639 363.5,646 Q371,653 380,653 Q396,653 396,637 Q396,627 388.5,620 Q381,613 372,613 M312,540 Q382,540 418,505.5 Q454,471 454,413 Q454,385 445,336 L415,170 Q402,92 394,0 L371,0 L387,128 L356,77 Q282,-14 169,-14 Q108,-14 69,18 Q30,50 30,111 Q30,187 87,234 Q144,281 228,295.5 Q312,310 417,303 L422,334 Q431,384 431,406 Q431,519 308,519 Q245,519 192.5,485 Q140,451 119,382 L97,382 Q114,450 173,495 Q232,540 312,540 M176,7 Q258,7 322,67.5 Q386,128 400,209 L413,282 Q247,297 150,250 Q53,203 53,112 Q53,62 86,34.5 Q119,7 176,7"/> 
            <glyph glyph-name="å" unicode="&#xE5;" horiz-adv-x="454" d=" M325,572 Q302,572 287.5,585.5 Q273,599 273,621 Q273,654 295,675 Q317,696 347,696 Q370,696 384.5,682.5 Q399,669 399,647 Q399,614 377,593 Q355,572 325,572 M343,675 Q323,675 309.5,660 Q296,645 296,625 Q296,593 329,593 Q349,593 362.5,608 Q376,623 376,643 Q376,675 343,675 M312,540 Q382,540 418,505.5 Q454,471 454,413 Q454,385 445,336 L415,170 Q402,92 394,0 L371,0 L387,128 L356,77 Q282,-14 169,-14 Q108,-14 69,18 Q30,50 30,111 Q30,187 87,234 Q144,281 228,295.5 Q312,310 417,303 L422,334 Q431,384 431,406 Q431,519 308,519 Q245,519 192.5,485 Q140,451 119,382 L97,382 Q114,450 173,495 Q232,540 312,540 M176,7 Q258,7 322,67.5 Q386,128 400,209 L413,282 Q247,297 150,250 Q53,203 53,112 Q53,62 86,34.5 Q119,7 176,7"/> 
            <glyph glyph-name="æ" unicode="&#xE6;" horiz-adv-x="901" d=" M891,258 L460,258 Q454,222 454,191 Q454,97 500,52 Q546,7 621,7 Q688,7 748.5,46 Q809,85 845,161 L867,161 Q828,77 760.5,31.5 Q693,-14 615,-14 Q524,-14 480.5,37.5 Q437,89 434,163 L400,96 Q307,-14 177,-14 Q111,-14 69,14 Q27,42 27,98 Q27,280 407,280 L441,280 Q452,342 452,378 Q452,523 311,523 Q248,523 191.5,488.5 Q135,454 114,386 L92,386 Q109,453 172.5,498.5 Q236,544 315,544 Q364,544 398.5,529 Q433,514 449.5,489 Q466,464 472,438 Q478,412 476,383 Q509,458 576.5,501 Q644,544 718,544 Q811,544 856,486.5 Q901,429 901,341 Q901,294 891,258 M712,523 Q626,523 556.5,460 Q487,397 463,279 L871,279 Q889,381 850,452 Q811,523 712,523 M184,7 Q275,7 344.5,68.5 Q414,130 432,229 L437,258 Q420,259 386,259 Q230,259 141,220 Q52,181 52,106 Q52,61 87.5,34 Q123,7 184,7"/> 
            <glyph glyph-name="ç" unicode="&#xE7;" horiz-adv-x="497" d=" M318,540 Q402,540 449.5,491.5 Q497,443 495,363 L473,363 Q473,436 432,478 Q391,520 313,520 Q196,520 122,427.5 Q48,335 48,211 Q48,110 96,58 Q144,6 218,6 L219,7 L222,6 Q293,7 349.5,46 Q406,85 438,157 L460,157 Q428,78 366.5,34 Q305,-10 227,-14 L200,-51 Q275,-58 275,-121 Q275,-164 243,-187 Q211,-210 159,-210 Q130,-210 108,-203 L112,-182 Q133,-189 163,-189 Q205,-189 228.5,-171 Q252,-153 252,-122 Q252,-65 164,-69 L204,-14 Q123,-10 74.5,49 Q26,108 26,210 Q26,293 58.5,367 Q91,441 159,490.5 Q227,540 318,540"/> 
            <glyph glyph-name="è" unicode="&#xE8;" horiz-adv-x="489" d=" M307,580 L257,690 L283,690 L325,580 M479,258 L52,258 Q47,226 47,205 Q47,104 95,55.5 Q143,7 214,7 Q280,7 338.5,45.5 Q397,84 433,161 L455,161 Q375,-14 208,-14 Q126,-14 75,42 Q24,98 24,204 Q24,259 43,316.5 Q62,374 96.5,424.5 Q131,475 187.5,507.5 Q244,540 311,540 Q403,540 446,484 Q489,428 489,340 Q489,294 479,258 M308,519 Q239,519 184,481 Q129,443 99.5,391 Q70,339 56,279 L461,279 Q466,307 466,340 Q466,435 422.5,477 Q379,519 308,519"/> 
            <glyph glyph-name="é" unicode="&#xE9;" horiz-adv-x="489" d=" M320,580 L301,580 L381,690 L409,690 M479,258 L52,258 Q47,226 47,205 Q47,104 95,55.5 Q143,7 214,7 Q280,7 338.5,45.5 Q397,84 433,161 L455,161 Q375,-14 208,-14 Q126,-14 75,42 Q24,98 24,204 Q24,259 43,316.5 Q62,374 96.5,424.5 Q131,475 187.5,507.5 Q244,540 311,540 Q403,540 446,484 Q489,428 489,340 Q489,294 479,258 M308,519 Q239,519 184,481 Q129,443 99.5,391 Q70,339 56,279 L461,279 Q466,307 466,340 Q466,435 422.5,477 Q379,519 308,519"/> 
            <glyph glyph-name="ê" unicode="&#xEA;" horiz-adv-x="489" d=" M261,580 L237,580 L322,690 L346,690 L391,580 L368,580 L332,674 M479,258 L52,258 Q47,226 47,205 Q47,104 95,55.5 Q143,7 214,7 Q280,7 338.5,45.5 Q397,84 433,161 L455,161 Q375,-14 208,-14 Q126,-14 75,42 Q24,98 24,204 Q24,259 43,316.5 Q62,374 96.5,424.5 Q131,475 187.5,507.5 Q244,540 311,540 Q403,540 446,484 Q489,428 489,340 Q489,294 479,258 M308,519 Q239,519 184,481 Q129,443 99.5,391 Q70,339 56,279 L461,279 Q466,307 466,340 Q466,435 422.5,477 Q379,519 308,519"/> 
            <glyph glyph-name="ë" unicode="&#xEB;" horiz-adv-x="489" d=" M278,613 Q262,613 262,629 Q262,639 269.5,646 Q277,653 286,653 Q302,653 302,637 Q302,627 294.5,620 Q287,613 278,613 M358,613 Q342,613 342,629 Q342,639 349.5,646 Q357,653 366,653 Q382,653 382,637 Q382,627 374.5,620 Q367,613 358,613 M479,258 L52,258 Q47,226 47,205 Q47,104 95,55.5 Q143,7 214,7 Q280,7 338.5,45.5 Q397,84 433,161 L455,161 Q375,-14 208,-14 Q126,-14 75,42 Q24,98 24,204 Q24,259 43,316.5 Q62,374 96.5,424.5 Q131,475 187.5,507.5 Q244,540 311,540 Q403,540 446,484 Q489,428 489,340 Q489,294 479,258 M308,519 Q239,519 184,481 Q129,443 99.5,391 Q70,339 56,279 L461,279 Q466,307 466,340 Q466,435 422.5,477 Q379,519 308,519"/> 
            <glyph glyph-name="ì" unicode="&#xEC;" horiz-adv-x="150" d=" M150,580 L132,580 L82,690 L108,690 M46,0 L24,0 L117,526 L139,526"/> 
            <glyph glyph-name="í" unicode="&#xED;" horiz-adv-x="234" d=" M145,580 L126,580 L206,690 L234,690 M46,0 L24,0 L117,526 L139,526"/> 
            <glyph glyph-name="î" unicode="&#xEE;" horiz-adv-x="216" d=" M193,580 L157,674 L86,580 L62,580 L147,690 L171,690 L216,580 M117,526 L139,526 L46,0 L24,0"/> 
            <glyph glyph-name="ï" unicode="&#xEF;" horiz-adv-x="207" d=" M111,653 Q127,653 127,637 Q127,627 119.5,620 Q112,613 103,613 Q87,613 87,629 Q87,639 94.5,646 Q102,653 111,653 M191,653 Q207,653 207,637 Q207,627 199.5,620 Q192,613 183,613 Q167,613 167,629 Q167,639 174.5,646 Q182,653 191,653 M46,0 L24,0 L117,526 L139,526"/> 
            <glyph glyph-name="ð" unicode="&#xF0;" horiz-adv-x="528" d=" M528,695 L446,664 Q494,586 494,400 Q494,284 462,192 Q430,100 363,43 Q296,-14 202,-14 Q122,-14 73,48 Q24,110 24,201 Q24,242 34,287 Q44,332 66.5,378.5 Q89,425 121.5,461.5 Q154,498 204,521 Q254,544 313,544 Q390,544 439,499 L471,442 Q463,593 425,655 L254,590 L247,609 L413,673 Q379,716 316,731 L334,745 Q400,726 435,681 L520,714 M207,7 Q262,7 307.5,30.5 Q353,54 382,91 Q411,128 431,176 Q451,224 459.5,270 Q468,316 468,359 Q468,434 425,478.5 Q382,523 310,523 Q246,523 193.5,492 Q141,461 110.5,412 Q80,363 63.5,308.5 Q47,254 47,201 Q47,112 92,59.5 Q137,7 207,7"/> 
            <glyph glyph-name="ñ" unicode="&#xF1;" horiz-adv-x="481" d=" M278,650 Q262,650 259,630 L239,630 Q241,671 278,671 Q299,671 337,658 Q367,647 382,647 Q398,647 401,667 L421,667 Q419,626 382,626 Q361,626 323,639 Q293,650 278,650 M328,540 Q402,540 441.5,502 Q481,464 481,396 Q481,357 470,292 L418,0 L396,0 L446,283 Q458,349 458,393 Q458,451 425,485 Q392,519 324,519 Q244,519 181.5,465 Q119,411 101,312 L47,0 L25,0 L117,526 L139,526 L118,406 L150,462 Q219,540 328,540"/> 
            <glyph glyph-name="ò" unicode="&#xF2;" horiz-adv-x="524" d=" M325,580 L275,690 L301,690 L343,580 M314,540 Q414,540 469,476.5 Q524,413 524,312 Q524,270 513.5,226.5 Q503,183 480,139.5 Q457,96 424.5,62 Q392,28 343,7 Q294,-14 236,-14 Q136,-14 81,49.5 Q26,113 26,214 Q26,256 36.5,299.5 Q47,343 70,386.5 Q93,430 125.5,464 Q158,498 207,519 Q256,540 314,540 M240,7 Q290,7 334,26 Q378,45 408,76.5 Q438,108 459.5,148.5 Q481,189 491,230.5 Q501,272 501,312 Q501,409 447.5,464 Q394,519 310,519 Q260,519 216,500 Q172,481 142,449.5 Q112,418 90.5,377.5 Q69,337 59,295.5 Q49,254 49,214 Q49,117 102.5,62 Q156,7 240,7"/> 
            <glyph glyph-name="ó" unicode="&#xF3;" horiz-adv-x="524" d=" M338,580 L319,580 L399,690 L427,690 M314,540 Q414,540 469,476.5 Q524,413 524,312 Q524,270 513.5,226.5 Q503,183 480,139.5 Q457,96 424.5,62 Q392,28 343,7 Q294,-14 236,-14 Q136,-14 81,49.5 Q26,113 26,214 Q26,256 36.5,299.5 Q47,343 70,386.5 Q93,430 125.5,464 Q158,498 207,519 Q256,540 314,540 M240,7 Q290,7 334,26 Q378,45 408,76.5 Q438,108 459.5,148.5 Q481,189 491,230.5 Q501,272 501,312 Q501,409 447.5,464 Q394,519 310,519 Q260,519 216,500 Q172,481 142,449.5 Q112,418 90.5,377.5 Q69,337 59,295.5 Q49,254 49,214 Q49,117 102.5,62 Q156,7 240,7"/> 
            <glyph glyph-name="ô" unicode="&#xF4;" horiz-adv-x="524" d=" M279,580 L255,580 L340,690 L364,690 L409,580 L386,580 L350,674 M314,540 Q414,540 469,476.5 Q524,413 524,312 Q524,270 513.5,226.5 Q503,183 480,139.5 Q457,96 424.5,62 Q392,28 343,7 Q294,-14 236,-14 Q136,-14 81,49.5 Q26,113 26,214 Q26,256 36.5,299.5 Q47,343 70,386.5 Q93,430 125.5,464 Q158,498 207,519 Q256,540 314,540 M240,7 Q290,7 334,26 Q378,45 408,76.5 Q438,108 459.5,148.5 Q481,189 491,230.5 Q501,272 501,312 Q501,409 447.5,464 Q394,519 310,519 Q260,519 216,500 Q172,481 142,449.5 Q112,418 90.5,377.5 Q69,337 59,295.5 Q49,254 49,214 Q49,117 102.5,62 Q156,7 240,7"/> 
            <glyph glyph-name="õ" unicode="&#xF5;" horiz-adv-x="524" d=" M291,650 Q275,650 272,630 L252,630 Q254,671 291,671 Q312,671 350,658 Q380,647 395,647 Q411,647 414,667 L434,667 Q432,626 395,626 Q374,626 336,639 Q306,650 291,650 M314,540 Q414,540 469,476.5 Q524,413 524,312 Q524,270 513.5,226.5 Q503,183 480,139.5 Q457,96 424.5,62 Q392,28 343,7 Q294,-14 236,-14 Q136,-14 81,49.5 Q26,113 26,214 Q26,256 36.5,299.5 Q47,343 70,386.5 Q93,430 125.5,464 Q158,498 207,519 Q256,540 314,540 M240,7 Q290,7 334,26 Q378,45 408,76.5 Q438,108 459.5,148.5 Q481,189 491,230.5 Q501,272 501,312 Q501,409 447.5,464 Q394,519 310,519 Q260,519 216,500 Q172,481 142,449.5 Q112,418 90.5,377.5 Q69,337 59,295.5 Q49,254 49,214 Q49,117 102.5,62 Q156,7 240,7"/> 
            <glyph glyph-name="ö" unicode="&#xF6;" horiz-adv-x="524" d=" M296,613 Q280,613 280,629 Q280,639 287.5,646 Q295,653 304,653 Q320,653 320,637 Q320,627 312.5,620 Q305,613 296,613 M376,613 Q360,613 360,629 Q360,639 367.5,646 Q375,653 384,653 Q400,653 400,637 Q400,627 392.5,620 Q385,613 376,613 M314,540 Q414,540 469,476.5 Q524,413 524,312 Q524,270 513.5,226.5 Q503,183 480,139.5 Q457,96 424.5,62 Q392,28 343,7 Q294,-14 236,-14 Q136,-14 81,49.5 Q26,113 26,214 Q26,256 36.5,299.5 Q47,343 70,386.5 Q93,430 125.5,464 Q158,498 207,519 Q256,540 314,540 M240,7 Q290,7 334,26 Q378,45 408,76.5 Q438,108 459.5,148.5 Q481,189 491,230.5 Q501,272 501,312 Q501,409 447.5,464 Q394,519 310,519 Q260,519 216,500 Q172,481 142,449.5 Q112,418 90.5,377.5 Q69,337 59,295.5 Q49,254 49,214 Q49,117 102.5,62 Q156,7 240,7"/> 
            <glyph glyph-name="÷" unicode="&#xF7;" horiz-adv-x="477" d=" M307,498 Q329,498 329,478 Q329,465 320,455.5 Q311,446 298,446 Q276,446 276,468 Q276,480 285.5,489 Q295,498 307,498 M473,307 L73,307 L77,328 L477,328 M252,188 Q274,188 274,166 Q274,154 264.5,145 Q255,136 243,136 Q221,136 221,156 Q221,169 230,178.5 Q239,188 252,188"/> 
            <glyph glyph-name="ø" unicode="&#xF8;" horiz-adv-x="613" d=" M613,521 L513,436 Q540,384 540,312 Q540,270 529.5,226.5 Q519,183 496,139.5 Q473,96 440.5,62 Q408,28 359,7 Q310,-14 252,-14 Q137,-14 82,69 L-7,-6 L-19,9 L71,86 Q42,141 42,214 Q42,256 52.5,299.5 Q63,343 86,386.5 Q109,430 141.5,464 Q174,498 223,519 Q272,540 330,540 Q448,540 503,453 L601,536 M65,214 Q65,149 90,102 L485,437 Q432,519 326,519 Q276,519 232,500 Q188,481 158,449.5 Q128,418 106.5,377.5 Q85,337 75,295.5 Q65,254 65,214 M517,312 Q517,374 494,420 L100,85 Q152,7 256,7 Q306,7 350,26 Q394,45 424,76.5 Q454,108 475.5,148.5 Q497,189 507,230.5 Q517,272 517,312"/> 
            <glyph glyph-name="ù" unicode="&#xF9;" horiz-adv-x="502" d=" M299,580 L249,690 L275,690 L317,580 M502,526 L410,0 L388,0 L409,120 L377,64 Q308,-14 199,-14 Q125,-14 85.5,24 Q46,62 46,130 Q46,169 57,234 L109,526 L131,526 L81,243 Q69,177 69,133 Q69,75 102,41 Q135,7 203,7 Q283,7 345.5,61 Q408,115 426,214 L480,526"/> 
            <glyph glyph-name="ú" unicode="&#xFA;" horiz-adv-x="502" d=" M312,580 L293,580 L373,690 L401,690 M502,526 L410,0 L388,0 L409,120 L377,64 Q308,-14 199,-14 Q125,-14 85.5,24 Q46,62 46,130 Q46,169 57,234 L109,526 L131,526 L81,243 Q69,177 69,133 Q69,75 102,41 Q135,7 203,7 Q283,7 345.5,61 Q408,115 426,214 L480,526"/> 
            <glyph glyph-name="û" unicode="&#xFB;" horiz-adv-x="502" d=" M253,580 L229,580 L314,690 L338,690 L383,580 L360,580 L324,674 M502,526 L410,0 L388,0 L409,120 L377,64 Q308,-14 199,-14 Q125,-14 85.5,24 Q46,62 46,130 Q46,169 57,234 L109,526 L131,526 L81,243 Q69,177 69,133 Q69,75 102,41 Q135,7 203,7 Q283,7 345.5,61 Q408,115 426,214 L480,526"/> 
            <glyph glyph-name="ü" unicode="&#xFC;" horiz-adv-x="502" d=" M270,613 Q254,613 254,629 Q254,639 261.5,646 Q269,653 278,653 Q294,653 294,637 Q294,627 286.5,620 Q279,613 270,613 M350,613 Q334,613 334,629 Q334,639 341.5,646 Q349,653 358,653 Q374,653 374,637 Q374,627 366.5,620 Q359,613 350,613 M502,526 L410,0 L388,0 L409,120 L377,64 Q308,-14 199,-14 Q125,-14 85.5,24 Q46,62 46,130 Q46,169 57,234 L109,526 L131,526 L81,243 Q69,177 69,133 Q69,75 102,41 Q135,7 203,7 Q283,7 345.5,61 Q408,115 426,214 L480,526"/> 
            <glyph glyph-name="ý" unicode="&#xFD;" horiz-adv-x="502" d=" M288,580 L269,580 L349,690 L377,690 M502,526 L200,0 Q127,-128 82,-169 Q37,-210 -13,-210 Q-31,-210 -44,-206 L-41,-187 Q-28,-190 -11,-190 Q28,-190 65,-155.5 Q102,-121 156,-30 L171,-5 L56,526 L80,526 L188,20 L476,526"/> 
            <glyph glyph-name="þ" unicode="&#xFE;" horiz-adv-x="522" d=" M336,540 Q422,540 472,481 Q522,422 522,327 Q522,264 504,205 Q486,146 452,96 Q418,46 359.5,16 Q301,-14 228,-14 Q177,-14 144.5,2 Q112,18 86,54 L69,120 L12,-196 L-10,-196 L156,735 L178,735 L119,408 L157,466 Q199,507 240,523.5 Q281,540 336,540 M231,7 Q318,7 381,56 Q444,105 471.5,175.5 Q499,246 499,326 Q499,412 455,465.5 Q411,519 331,519 Q245,519 182.5,464 Q120,409 98,288 L88,229 Q71,130 106.5,68.5 Q142,7 231,7"/> 
            <glyph glyph-name="ÿ" unicode="&#xFF;" horiz-adv-x="502" d=" M246,613 Q230,613 230,629 Q230,639 237.5,646 Q245,653 254,653 Q270,653 270,637 Q270,627 262.5,620 Q255,613 246,613 M326,613 Q310,613 310,629 Q310,639 317.5,646 Q325,653 334,653 Q350,653 350,637 Q350,627 342.5,620 Q335,613 326,613 M502,526 L200,0 Q127,-128 82,-169 Q37,-210 -13,-210 Q-31,-210 -44,-206 L-41,-187 Q-28,-190 -11,-190 Q28,-190 65,-155.5 Q102,-121 156,-30 L171,-5 L56,526 L80,526 L188,20 L476,526"/> 
            <glyph glyph-name="Ā" unicode="&#x100;" horiz-adv-x="556" d=" M480,772 L340,772 L344,793 L484,793 M476,269 L167,269 L16,0 L-11,0 L378,690 L411,690 L556,0 L532,0 M472,290 L393,671 L179,290"/> 
            <glyph glyph-name="ā" unicode="&#x101;" horiz-adv-x="454" d=" M404,620 L264,620 L268,641 L408,641 M312,540 Q382,540 418,505.5 Q454,471 454,413 Q454,385 445,336 L415,170 Q402,92 394,0 L371,0 L387,128 L356,77 Q282,-14 169,-14 Q108,-14 69,18 Q30,50 30,111 Q30,187 87,234 Q144,281 228,295.5 Q312,310 417,303 L422,334 Q431,384 431,406 Q431,519 308,519 Q245,519 192.5,485 Q140,451 119,382 L97,382 Q114,450 173,495 Q232,540 312,540 M176,7 Q258,7 322,67.5 Q386,128 400,209 L413,282 Q247,297 150,250 Q53,203 53,112 Q53,62 86,34.5 Q119,7 176,7"/> 
            <glyph glyph-name="Ă" unicode="&#x102;" horiz-adv-x="556" d=" M400,722 Q362,722 342.5,749 Q323,776 331,830 L349,830 Q344,780 359,761.5 Q374,743 404,743 Q473,743 494,830 L512,830 Q488,722 400,722 M476,269 L167,269 L16,0 L-11,0 L378,690 L411,690 L556,0 L532,0 M472,290 L393,671 L179,290"/> 
            <glyph glyph-name="ă" unicode="&#x103;" horiz-adv-x="454" d=" M325,570 Q239,570 256,690 L274,690 Q267,637 281,614 Q295,591 329,591 Q397,591 419,690 L437,690 Q425,634 396.5,602 Q368,570 325,570 M312,540 Q382,540 418,505.5 Q454,471 454,413 Q454,385 445,336 L415,170 Q402,92 394,0 L371,0 L387,128 L356,77 Q282,-14 169,-14 Q108,-14 69,18 Q30,50 30,111 Q30,187 87,234 Q144,281 228,295.5 Q312,310 417,303 L422,334 Q431,384 431,406 Q431,519 308,519 Q245,519 192.5,485 Q140,451 119,382 L97,382 Q114,450 173,495 Q232,540 312,540 M176,7 Q258,7 322,67.5 Q386,128 400,209 L413,282 Q247,297 150,250 Q53,203 53,112 Q53,62 86,34.5 Q119,7 176,7"/> 
            <glyph glyph-name="Ą" unicode="&#x104;" horiz-adv-x="556" d=" M556,0 L552,0 Q403,-74 403,-162 Q403,-203 442,-203 Q475,-203 512,-172 L508,-195 Q476,-223 434,-223 Q411,-223 395.5,-209 Q380,-195 380,-165 Q380,-64 530,7 L476,269 L167,269 L16,0 L-11,0 L378,690 L411,690 M472,290 L393,671 L179,290"/> 
            <glyph glyph-name="ą" unicode="&#x105;" horiz-adv-x="454" d=" M312,540 Q382,540 418,505.5 Q454,471 454,413 Q454,385 445,336 L415,170 Q402,92 394,0 L393,0 Q244,-74 244,-162 Q244,-203 283,-203 Q316,-203 353,-172 L349,-195 Q317,-223 275,-223 Q252,-223 236.5,-209 Q221,-195 221,-165 Q221,-117 259,-72.5 Q297,-28 372,7 L387,128 L356,77 Q282,-14 169,-14 Q108,-14 69,18 Q30,50 30,111 Q30,187 87,234 Q144,281 228,295.5 Q312,310 417,303 L422,334 Q431,384 431,406 Q431,519 308,519 Q245,519 192.5,485 Q140,451 119,382 L97,382 Q114,450 173,495 Q232,540 312,540 M176,7 Q258,7 322,67.5 Q386,128 400,209 L413,282 Q247,297 150,250 Q53,203 53,112 Q53,62 86,34.5 Q119,7 176,7"/> 
            <glyph glyph-name="Ć" unicode="&#x106;" horiz-adv-x="677" d=" M454,736 L435,736 L504,830 L532,830 M447,704 Q557,704 617,642.5 Q677,581 677,484 L677,474 L655,474 L655,484 Q655,578 598.5,630.5 Q542,683 439,683 Q376,683 315,655.5 Q254,628 203.5,577.5 Q153,527 122,447 Q91,367 91,270 Q91,142 154,74.5 Q217,7 317,7 Q422,7 495,65 Q568,123 606,217 L610,227 L632,227 L628,217 Q586,113 507,49.5 Q428,-14 312,-14 Q200,-14 133.5,61.5 Q67,137 67,269 Q67,464 178.5,584 Q290,704 447,704"/> 
            <glyph glyph-name="ć" unicode="&#x107;" horiz-adv-x="497" d=" M328,580 L309,580 L389,690 L417,690 M318,540 Q402,540 449.5,491.5 Q497,443 495,363 L473,363 Q473,436 432,478 Q391,520 313,520 Q196,520 122,427.5 Q48,335 48,211 Q48,110 96,58 Q144,6 219,6 Q291,6 348.5,45.5 Q406,85 438,157 L460,157 Q427,74 362,30 Q297,-14 214,-14 Q129,-14 77.5,45.5 Q26,105 26,210 Q26,293 58.5,367 Q91,441 159,490.5 Q227,540 318,540"/> 
            <glyph glyph-name="Ċ" unicode="&#x10A;" horiz-adv-x="677" d=" M459,803 Q475,803 475,787 Q475,777 467.5,770 Q460,763 451,763 Q435,763 435,779 Q435,789 442.5,796 Q450,803 459,803 M447,704 Q557,704 617,642.5 Q677,581 677,484 L677,474 L655,474 L655,484 Q655,578 598.5,630.5 Q542,683 439,683 Q376,683 315,655.5 Q254,628 203.5,577.5 Q153,527 122,447 Q91,367 91,270 Q91,142 154,74.5 Q217,7 317,7 Q422,7 495,65 Q568,123 606,217 L610,227 L632,227 L628,217 Q586,113 507,49.5 Q428,-14 312,-14 Q200,-14 133.5,61.5 Q67,137 67,269 Q67,464 178.5,584 Q290,704 447,704"/> 
            <glyph glyph-name="ċ" unicode="&#x10B;" horiz-adv-x="497" d=" M333,653 Q340,653 345,648 Q350,643 350,636 Q350,626 343,619.5 Q336,613 327,613 Q320,613 315,618 Q310,623 310,630 Q310,640 317,646.5 Q324,653 333,653 M318,540 Q402,540 449.5,491.5 Q497,443 495,363 L473,363 Q473,436 432,478 Q391,520 313,520 Q196,520 122,427.5 Q48,335 48,211 Q48,110 96,58 Q144,6 219,6 Q291,6 348.5,45.5 Q406,85 438,157 L460,157 Q427,74 362,30 Q297,-14 214,-14 Q129,-14 77.5,45.5 Q26,105 26,210 Q26,293 58.5,367 Q91,441 159,490.5 Q227,540 318,540"/> 
            <glyph glyph-name="Č" unicode="&#x10C;" horiz-adv-x="677" d=" M436,736 L387,830 L411,830 L450,751 L516,830 L542,830 L461,736 M447,704 Q557,704 617,642.5 Q677,581 677,484 L677,474 L655,474 L655,484 Q655,578 598.5,630.5 Q542,683 439,683 Q376,683 315,655.5 Q254,628 203.5,577.5 Q153,527 122,447 Q91,367 91,270 Q91,142 154,74.5 Q217,7 317,7 Q422,7 495,65 Q568,123 606,217 L610,227 L632,227 L628,217 Q586,113 507,49.5 Q428,-14 312,-14 Q200,-14 133.5,61.5 Q67,137 67,269 Q67,464 178.5,584 Q290,704 447,704"/> 
            <glyph glyph-name="č" unicode="&#x10D;" horiz-adv-x="497" d=" M310,580 L265,690 L288,690 L324,596 L395,690 L419,690 L334,580 M318,540 Q402,540 449.5,491.5 Q497,443 495,363 L473,363 Q473,436 432,478 Q391,520 313,520 Q196,520 122,427.5 Q48,335 48,211 Q48,110 96,58 Q144,6 219,6 Q291,6 348.5,45.5 Q406,85 438,157 L460,157 Q427,74 362,30 Q297,-14 214,-14 Q129,-14 77.5,45.5 Q26,105 26,210 Q26,293 58.5,367 Q91,441 159,490.5 Q227,540 318,540"/> 
            <glyph glyph-name="Ď" unicode="&#x10E;" horiz-adv-x="642" d=" M393,736 L344,830 L368,830 L407,751 L473,830 L499,830 L418,736 M411,688 Q511,680 576.5,610 Q642,540 642,406 Q642,250 543.5,132.5 Q445,15 292,3 Q256,0 203,0 L28,0 L150,690 L339,690 Q387,690 411,688 M297,25 Q443,39 531,150 Q619,261 619,404 Q619,526 561,592 Q503,658 407,667 Q385,669 335,669 L169,669 L54,21 L211,21 Q252,21 297,25"/> 
            <glyph glyph-name="ď" unicode="&#x10F;" horiz-adv-x="652" d=" M537,735 L559,735 L429,0 L407,0 L428,119 L390,60 Q347,18 308.5,2 Q270,-14 211,-14 Q125,-14 75,45 Q25,104 25,199 Q25,285 57.5,361.5 Q90,438 156,489 Q222,540 309,540 Q367,540 401,522.5 Q435,505 461,463 L478,404 M652,734 L652,731 L594,626 L576,626 L625,734 M449,238 L459,297 Q477,396 439.5,457.5 Q402,519 306,519 Q228,519 168,472 Q108,425 78,353 Q48,281 48,200 Q48,114 92,60.5 Q136,7 216,7 Q302,7 364.5,62 Q427,117 449,238"/> 
            <glyph glyph-name="Đ" unicode="&#x110;" horiz-adv-x="642" d=" M411,688 Q511,680 576.5,610 Q642,540 642,406 Q642,250 543.5,132.5 Q445,15 292,3 Q256,0 203,0 L28,0 L85,323 L26,323 L30,344 L89,344 L150,690 L339,690 Q387,690 411,688 M297,25 Q443,39 531,150 Q619,261 619,404 Q619,526 561,592 Q503,658 407,667 Q385,669 335,669 L169,669 L111,344 L302,344 L298,323 L107,323 L54,21 L211,21 Q252,21 297,25"/> 
            <glyph glyph-name="đ" unicode="&#x111;" horiz-adv-x="587" d=" M584,613 L537,613 L429,0 L407,0 L428,119 L390,60 Q347,18 308.5,2 Q270,-14 211,-14 Q125,-14 75,45 Q25,104 25,199 Q25,285 57.5,361.5 Q90,438 156,489 Q222,540 309,540 Q367,540 401,522.5 Q435,505 461,463 L478,404 L515,613 L403,613 L406,634 L519,634 L537,735 L559,735 L541,634 L587,634 M449,238 L459,297 Q477,396 439.5,457.5 Q402,519 306,519 Q228,519 168,472 Q108,425 78,353 Q48,281 48,200 Q48,114 92,60.5 Q136,7 216,7 Q302,7 364.5,62 Q427,117 449,238"/> 
            <glyph glyph-name="Ē" unicode="&#x112;" horiz-adv-x="569" d=" M428,772 L288,772 L292,793 L432,793 M168,670 L113,355 L490,355 L486,335 L109,335 L54,20 L461,20 L457,0 L28,0 L150,690 L569,690 L565,670"/> 
            <glyph glyph-name="ē" unicode="&#x113;" horiz-adv-x="489" d=" M390,620 L250,620 L254,641 L394,641 M479,258 L52,258 Q47,226 47,205 Q47,104 95,55.5 Q143,7 214,7 Q280,7 338.5,45.5 Q397,84 433,161 L455,161 Q375,-14 208,-14 Q126,-14 75,42 Q24,98 24,204 Q24,259 43,316.5 Q62,374 96.5,424.5 Q131,475 187.5,507.5 Q244,540 311,540 Q403,540 446,484 Q489,428 489,340 Q489,294 479,258 M308,519 Q239,519 184,481 Q129,443 99.5,391 Q70,339 56,279 L461,279 Q466,307 466,340 Q466,435 422.5,477 Q379,519 308,519"/> 
            <glyph glyph-name="Ė" unicode="&#x116;" horiz-adv-x="569" d=" M356,763 Q340,763 340,779 Q340,789 347.5,796 Q355,803 364,803 Q380,803 380,787 Q380,777 372.5,770 Q365,763 356,763 M168,670 L113,355 L490,355 L486,335 L109,335 L54,20 L461,20 L457,0 L28,0 L150,690 L569,690 L565,670"/> 
            <glyph glyph-name="ė" unicode="&#x117;" horiz-adv-x="489" d=" M319,613 Q312,613 307,618 Q302,623 302,630 Q302,640 309,646.5 Q316,653 325,653 Q332,653 337,648 Q342,643 342,636 Q342,626 335,619.5 Q328,613 319,613 M479,258 L52,258 Q47,226 47,205 Q47,104 95,55.5 Q143,7 214,7 Q280,7 338.5,45.5 Q397,84 433,161 L455,161 Q375,-14 208,-14 Q126,-14 75,42 Q24,98 24,204 Q24,259 43,316.5 Q62,374 96.5,424.5 Q131,475 187.5,507.5 Q244,540 311,540 Q403,540 446,484 Q489,428 489,340 Q489,294 479,258 M308,519 Q239,519 184,481 Q129,443 99.5,391 Q70,339 56,279 L461,279 Q466,307 466,340 Q466,435 422.5,477 Q379,519 308,519"/> 
            <glyph glyph-name="Ę" unicode="&#x118;" horiz-adv-x="569" d=" M168,670 L113,355 L490,355 L486,335 L109,335 L54,20 L461,20 L457,0 Q308,-74 308,-162 Q308,-203 347,-203 Q380,-203 417,-172 L413,-195 Q381,-223 339,-223 Q316,-223 300.5,-209 Q285,-195 285,-165 Q285,-69 421,0 L28,0 L150,690 L569,690 L565,670"/> 
            <glyph glyph-name="ę" unicode="&#x119;" horiz-adv-x="489" d=" M479,258 L52,258 Q47,226 47,205 Q47,104 95,55.5 Q143,7 214,7 Q280,7 338.5,45.5 Q397,84 433,161 L455,161 Q397,36 292,-1 Q144,-74 144,-162 Q144,-203 183,-203 Q216,-203 253,-172 L249,-195 Q217,-223 175,-223 Q152,-223 136.5,-209 Q121,-195 121,-165 Q121,-79 233,-13 Q225,-14 208,-14 Q126,-14 75,42 Q24,98 24,204 Q24,259 43,316.5 Q62,374 96.5,424.5 Q131,475 187.5,507.5 Q244,540 311,540 Q403,540 446,484 Q489,428 489,340 Q489,294 479,258 M308,519 Q239,519 184,481 Q129,443 99.5,391 Q70,339 56,279 L461,279 Q466,307 466,340 Q466,435 422.5,477 Q379,519 308,519"/> 
            <glyph glyph-name="Ě" unicode="&#x11A;" horiz-adv-x="569" d=" M341,736 L292,830 L316,830 L355,751 L421,830 L447,830 L366,736 M168,670 L113,355 L490,355 L486,335 L109,335 L54,20 L461,20 L457,0 L28,0 L150,690 L569,690 L565,670"/> 
            <glyph glyph-name="ě" unicode="&#x11B;" horiz-adv-x="489" d=" M302,580 L257,690 L280,690 L316,596 L387,690 L411,690 L326,580 M479,258 L52,258 Q47,226 47,205 Q47,104 95,55.5 Q143,7 214,7 Q280,7 338.5,45.5 Q397,84 433,161 L455,161 Q375,-14 208,-14 Q126,-14 75,42 Q24,98 24,204 Q24,259 43,316.5 Q62,374 96.5,424.5 Q131,475 187.5,507.5 Q244,540 311,540 Q403,540 446,484 Q489,428 489,340 Q489,294 479,258 M308,519 Q239,519 184,481 Q129,443 99.5,391 Q70,339 56,279 L461,279 Q466,307 466,340 Q466,435 422.5,477 Q379,519 308,519"/> 
            <glyph glyph-name="Ğ" unicode="&#x11E;" horiz-adv-x="683" d=" M456,722 Q418,722 398.5,749 Q379,776 387,830 L405,830 Q400,780 415,761.5 Q430,743 460,743 Q529,743 550,830 L568,830 Q544,722 456,722 M461,704 Q570,704 626.5,643 Q683,582 683,484 L683,474 L661,474 L661,484 Q661,578 607.5,630.5 Q554,683 453,683 Q387,683 323.5,655.5 Q260,628 207.5,577.5 Q155,527 122.5,446.5 Q90,366 90,270 Q90,142 154,74.5 Q218,7 319,7 Q362,7 406.5,21.5 Q451,36 496.5,66.5 Q542,97 577,154.5 Q612,212 626,287 L393,287 L396,307 L651,307 L597,0 L575,0 L608,184 L576,119 Q473,-14 314,-14 Q200,-14 133,61.5 Q66,137 66,269 Q66,456 183,580 Q300,704 461,704"/> 
            <glyph glyph-name="ğ" unicode="&#x11F;" horiz-adv-x="522" d=" M331,570 Q245,570 262,690 L280,690 Q273,637 287,614 Q301,591 335,591 Q403,591 425,690 L443,690 Q431,634 402.5,602 Q374,570 331,570 M522,530 L453,140 Q432,18 425,-18 Q405,-111 341,-165.5 Q277,-220 173,-220 Q96,-220 48,-180.5 Q0,-141 0,-62 L0,-47 L22,-47 L22,-62 Q22,-199 179,-199 Q271,-199 328.5,-150.5 Q386,-102 404,-11 Q414,40 424,100 L427,117 L390,60 Q347,18 308.5,2 Q270,-14 211,-14 Q125,-14 75,45 Q25,104 25,199 Q25,285 57.5,361.5 Q90,438 156,489 Q222,540 309,540 Q367,540 401,522.5 Q435,505 461,463 L478,405 L500,530 M444,215 L461,309 Q475,404 437,461.5 Q399,519 306,519 Q228,519 168,472 Q108,425 78,353 Q48,281 48,200 Q48,114 92,60.5 Q136,7 216,7 Q297,7 358,56.5 Q419,106 444,215"/> 
            <glyph glyph-name="Ġ" unicode="&#x120;" horiz-adv-x="683" d=" M464,763 Q448,763 448,779 Q448,789 455.5,796 Q463,803 472,803 Q488,803 488,787 Q488,777 480.5,770 Q473,763 464,763 M461,704 Q570,704 626.5,643 Q683,582 683,484 L683,474 L661,474 L661,484 Q661,578 607.5,630.5 Q554,683 453,683 Q387,683 323.5,655.5 Q260,628 207.5,577.5 Q155,527 122.5,446.5 Q90,366 90,270 Q90,142 154,74.5 Q218,7 319,7 Q362,7 406.5,21.5 Q451,36 496.5,66.5 Q542,97 577,154.5 Q612,212 626,287 L393,287 L396,307 L651,307 L597,0 L575,0 L608,184 L576,119 Q473,-14 314,-14 Q200,-14 133,61.5 Q66,137 66,269 Q66,456 183,580 Q300,704 461,704"/> 
            <glyph glyph-name="ġ" unicode="&#x121;" horiz-adv-x="522" d=" M339,613 Q332,613 327,618 Q322,623 322,630 Q322,640 329,646.5 Q336,653 345,653 Q352,653 357,648 Q362,643 362,636 Q362,626 355,619.5 Q348,613 339,613 M522,530 L453,140 Q432,18 425,-18 Q405,-111 341,-165.5 Q277,-220 173,-220 Q96,-220 48,-180.5 Q0,-141 0,-62 L0,-47 L22,-47 L22,-62 Q22,-199 179,-199 Q271,-199 328.5,-150.5 Q386,-102 404,-11 Q414,40 424,100 L427,117 L390,60 Q347,18 308.5,2 Q270,-14 211,-14 Q125,-14 75,45 Q25,104 25,199 Q25,285 57.5,361.5 Q90,438 156,489 Q222,540 309,540 Q367,540 401,522.5 Q435,505 461,463 L478,405 L500,530 M444,215 L461,309 Q475,404 437,461.5 Q399,519 306,519 Q228,519 168,472 Q108,425 78,353 Q48,281 48,200 Q48,114 92,60.5 Q136,7 216,7 Q297,7 358,56.5 Q419,106 444,215"/> 
            <glyph glyph-name="Ģ" unicode="&#x122;" horiz-adv-x="683" d=" M461,704 Q570,704 626.5,643 Q683,582 683,484 L683,474 L661,474 L661,484 Q661,578 607.5,630.5 Q554,683 453,683 Q387,683 323.5,655.5 Q260,628 207.5,577.5 Q155,527 122.5,446.5 Q90,366 90,270 Q90,142 154,74.5 Q218,7 319,7 Q362,7 406.5,21.5 Q451,36 496.5,66.5 Q542,97 577,154.5 Q612,212 626,287 L393,287 L396,307 L651,307 L597,0 L575,0 L608,184 L576,119 Q473,-14 314,-14 Q200,-14 133,61.5 Q66,137 66,269 Q66,456 183,580 Q300,704 461,704 M256,-51 L283,-51 L283,-54 L225,-159 L207,-159"/> 
            <glyph glyph-name="ģ" unicode="&#x123;" horiz-adv-x="522" d=" M346,581 L319,581 L319,584 L377,689 L395,689 M522,530 L453,140 Q432,18 425,-18 Q405,-111 341,-165.5 Q277,-220 173,-220 Q96,-220 48,-180.5 Q0,-141 0,-62 L0,-47 L22,-47 L22,-62 Q22,-199 179,-199 Q271,-199 328.5,-150.5 Q386,-102 404,-11 Q414,40 424,100 L427,117 L390,60 Q347,18 308.5,2 Q270,-14 211,-14 Q125,-14 75,45 Q25,104 25,199 Q25,285 57.5,361.5 Q90,438 156,489 Q222,540 309,540 Q367,540 401,522.5 Q435,505 461,463 L478,405 L500,530 M444,215 L461,309 Q475,404 437,461.5 Q399,519 306,519 Q228,519 168,472 Q108,425 78,353 Q48,281 48,200 Q48,114 92,60.5 Q136,7 216,7 Q297,7 358,56.5 Q419,106 444,215"/> 
            <glyph glyph-name="Ħ" unicode="&#x126;" horiz-adv-x="651" d=" M647,520 L608,520 L516,0 L494,0 L552,328 L108,328 L50,0 L28,0 L120,520 L80,520 L84,541 L124,541 L150,690 L172,690 L146,541 L590,541 L616,690 L638,690 L612,541 L651,541 M586,520 L142,520 L112,349 L556,349"/> 
            <glyph glyph-name="ħ" unicode="&#x127;" horiz-adv-x="496" d=" M343,540 Q417,540 456.5,502 Q496,464 496,396 Q496,357 485,292 L433,0 L411,0 L461,283 Q473,349 473,393 Q473,451 440,485 Q407,519 339,519 Q259,519 196.5,465 Q134,411 116,312 L62,0 L40,0 L148,613 L93,613 L97,634 L151,634 L170,740 L192,740 L173,634 L278,634 L274,613 L169,613 L133,406 L165,462 Q234,540 343,540"/> 
            <glyph glyph-name="Ī" unicode="&#x12A;" horiz-adv-x="249" d=" M245,772 L105,772 L109,793 L249,793 M50,0 L28,0 L150,690 L172,690"/> 
            <glyph glyph-name="ī" unicode="&#x12B;" horiz-adv-x="219" d=" M215,620 L75,620 L79,641 L219,641 M46,0 L24,0 L117,526 L139,526"/> 
            <glyph glyph-name="Į" unicode="&#x12E;" horiz-adv-x="172" d=" M172,690 L50,0 Q-99,-74 -99,-162 Q-99,-203 -60,-203 Q-27,-203 10,-172 L6,-195 Q-26,-223 -68,-223 Q-91,-223 -106.5,-209 Q-122,-195 -122,-165 Q-122,-64 29,8 L150,690"/> 
            <glyph glyph-name="į" unicode="&#x12F;" horiz-adv-x="167" d=" M150,653 Q157,653 162,648 Q167,643 167,636 Q167,626 160,619.5 Q153,613 144,613 Q137,613 132,618 Q127,623 127,630 Q127,640 134,646.5 Q141,653 150,653 M117,526 L139,526 L46,0 Q-103,-74 -103,-162 Q-103,-203 -64,-203 Q-31,-203 6,-172 L2,-195 Q-30,-223 -72,-223 Q-95,-223 -110.5,-209 Q-126,-195 -126,-165 Q-126,-64 25,8"/> 
            <glyph glyph-name="İ" unicode="&#x130;" horiz-adv-x="197" d=" M181,803 Q197,803 197,787 Q197,777 189.5,770 Q182,763 173,763 Q157,763 157,779 Q157,789 164.5,796 Q172,803 181,803 M50,0 L28,0 L150,690 L172,690"/> 
            <glyph glyph-name="ı" unicode="&#x131;" horiz-adv-x="139" d=" M46,0 L24,0 L117,526 L139,526"/> 
            <glyph glyph-name="Ĳ" unicode="&#x132;" horiz-adv-x="634" d=" M50,0 L28,0 L150,690 L172,690 M634,690 L558,260 Q549,206 540,169 Q521,90 470,38 Q419,-14 330,-14 Q245,-14 198.5,39.5 Q152,93 166,194 L170,224 L192,224 L188,194 Q174,97 216.5,52 Q259,7 336,7 Q476,7 519,172 Q521,179 535,252 L612,690"/> 
            <glyph glyph-name="ĳ" unicode="&#x133;" horiz-adv-x="335" d=" M150,653 Q157,653 162,648 Q167,643 167,636 Q167,626 160,619.5 Q153,613 144,613 Q137,613 132,618 Q127,623 127,630 Q127,640 134,646.5 Q141,653 150,653 M318,653 Q325,653 330,648 Q335,643 335,636 Q335,626 328,619.5 Q321,613 312,613 Q305,613 300,618 Q295,623 295,630 Q295,640 302,646.5 Q309,653 318,653 M46,0 L24,0 L117,526 L139,526 M311,526 L206,-73 Q200,-104 194,-125 Q172,-210 99,-210 Q81,-210 64,-206 L68,-187 Q112,-195 137,-180.5 Q162,-166 173,-123 Q178,-106 182,-84 L289,526"/> 
            <glyph glyph-name="Ķ" unicode="&#x136;" horiz-adv-x="595" d=" M172,345 L467,0 L436,0 L153,333 L102,292 L50,0 L28,0 L150,690 L172,690 L106,319 L563,690 L595,690 M207,-51 L234,-51 L234,-54 L176,-159 L158,-159"/> 
            <glyph glyph-name="ķ" unicode="&#x137;" horiz-adv-x="474" d=" M158,276 L398,0 L369,0 L140,263 L86,220 L47,0 L25,0 L155,735 L177,735 L91,248 L439,526 L474,526 M161,-51 L188,-51 L188,-54 L130,-159 L112,-159"/> 
            <glyph glyph-name="Ĺ" unicode="&#x139;" horiz-adv-x="461" d=" M178,736 L159,736 L228,830 L256,830 M461,20 L457,0 L28,0 L150,690 L172,690 L54,20"/> 
            <glyph glyph-name="ĺ" unicode="&#x13A;" horiz-adv-x="267" d=" M178,785 L159,785 L239,895 L267,895 M173,735 L65,120 Q53,55 53,40 Q53,23 64,17.5 Q75,12 104,16 L100,-3 Q90,-5 71,-5 Q30,-5 30,34 Q30,47 43,120 L151,735"/> 
            <glyph glyph-name="Ļ" unicode="&#x13B;" horiz-adv-x="461" d=" M461,20 L457,0 L28,0 L150,690 L172,690 L54,20 M200,-51 L227,-51 L227,-54 L169,-159 L151,-159"/> 
            <glyph glyph-name="ļ" unicode="&#x13C;" horiz-adv-x="173" d=" M173,735 L65,120 Q53,55 53,40 Q53,23 64,17.5 Q75,12 104,16 L100,-3 Q90,-5 71,-5 Q30,-5 30,34 Q30,47 43,120 L151,735 M71,-54 L13,-159 L-5,-159 L44,-51 L71,-51"/> 
            <glyph glyph-name="Ľ" unicode="&#x13D;" horiz-adv-x="461" d=" M461,20 L457,0 L28,0 L150,690 L172,690 L54,20"/> 
            <glyph glyph-name="ľ" unicode="&#x13E;" horiz-adv-x="173" d=" M173,735 L65,120 Q53,55 53,40 Q53,23 64,17.5 Q75,12 104,16 L100,-3 Q90,-5 71,-5 Q30,-5 30,34 Q30,47 43,120 L151,735"/> 
            <glyph glyph-name="Ŀ" unicode="&#x13F;" horiz-adv-x="461" d=" M461,20 L457,0 L28,0 L150,690 L172,690 L54,20 M303,380 Q296,380 291,385 Q286,390 286,397 Q286,407 293,413.5 Q300,420 309,420 Q316,420 321,415 Q326,410 326,403 Q326,393 319,386.5 Q312,380 303,380"/> 
            <glyph glyph-name="ŀ" unicode="&#x140;" horiz-adv-x="200" d=" M173,735 L65,120 Q53,55 53,40 Q53,23 64,17.5 Q75,12 104,16 L100,-3 Q90,-5 71,-5 Q30,-5 30,34 Q30,47 43,120 L151,735 M183,420 Q190,420 195,415 Q200,410 200,403 Q200,393 193,386.5 Q186,380 177,380 Q170,380 165,385 Q160,390 160,397 Q160,407 167,413.5 Q174,420 183,420"/> 
            <glyph glyph-name="Ł" unicode="&#x141;" horiz-adv-x="540" d=" M540,20 L536,0 L107,0 L165,328 L10,245 L15,269 L169,352 L229,690 L251,690 L194,365 L368,459 L364,435 L189,341 L133,20"/> 
            <glyph glyph-name="ł" unicode="&#x142;" horiz-adv-x="195" d=" M127,345 L187,384 L183,358 L122,319 L87,120 Q75,55 75,40 Q75,23 86,17.5 Q97,12 126,16 L122,-3 Q112,-5 93,-5 Q52,-5 52,34 Q52,47 65,120 L97,303 L29,260 L34,286 L102,329 L173,735 L195,735"/> 
            <glyph glyph-name="Ń" unicode="&#x143;" horiz-adv-x="620" d=" M400,736 L381,736 L450,830 L478,830 M620,690 L498,0 L464,0 L168,672 L50,0 L28,0 L150,690 L183,690 L479,20 L598,690"/> 
            <glyph glyph-name="ń" unicode="&#x144;" horiz-adv-x="481" d=" M325,580 L306,580 L386,690 L414,690 M328,540 Q402,540 441.5,502 Q481,464 481,396 Q481,357 470,292 L418,0 L396,0 L446,283 Q458,349 458,393 Q458,451 425,485 Q392,519 324,519 Q244,519 181.5,465 Q119,411 101,312 L47,0 L25,0 L117,526 L139,526 L118,406 L150,462 Q219,540 328,540"/> 
            <glyph glyph-name="Ņ" unicode="&#x145;" horiz-adv-x="620" d=" M620,690 L498,0 L464,0 L168,672 L50,0 L28,0 L150,690 L183,690 L479,20 L598,690 M241,-51 L268,-51 L268,-54 L210,-159 L192,-159"/> 
            <glyph glyph-name="ņ" unicode="&#x146;" horiz-adv-x="481" d=" M328,540 Q402,540 441.5,502 Q481,464 481,396 Q481,357 470,292 L418,0 L396,0 L446,283 Q458,349 458,393 Q458,451 425,485 Q392,519 324,519 Q244,519 181.5,465 Q119,411 101,312 L47,0 L25,0 L117,526 L139,526 L118,406 L150,462 Q219,540 328,540 M194,-51 L221,-51 L221,-54 L163,-159 L145,-159"/> 
            <glyph glyph-name="Ň" unicode="&#x147;" horiz-adv-x="620" d=" M382,736 L333,830 L357,830 L396,751 L462,830 L488,830 L407,736 M620,690 L498,0 L464,0 L168,672 L50,0 L28,0 L150,690 L183,690 L479,20 L598,690"/> 
            <glyph glyph-name="ň" unicode="&#x148;" horiz-adv-x="481" d=" M307,580 L262,690 L285,690 L321,596 L392,690 L416,690 L331,580 M328,540 Q402,540 441.5,502 Q481,464 481,396 Q481,357 470,292 L418,0 L396,0 L446,283 Q458,349 458,393 Q458,451 425,485 Q392,519 324,519 Q244,519 181.5,465 Q119,411 101,312 L47,0 L25,0 L117,526 L139,526 L118,406 L150,462 Q219,540 328,540"/> 
            <glyph glyph-name="Ŋ" unicode="&#x14A;" horiz-adv-x="620" d=" M620,690 L487,-67 Q472,-151 439.5,-185.5 Q407,-220 322,-223 L325,-202 Q385,-202 417.5,-176 Q450,-150 462,-83 L473,-19 L169,670 L51,0 L29,0 L150,690 L183,690 L480,20 L598,690"/> 
            <glyph glyph-name="ŋ" unicode="&#x14B;" horiz-adv-x="481" d=" M328,540 Q402,540 441.5,502 Q481,464 481,396 Q481,357 470,292 L415,-18 Q412,-34 407,-59 Q392,-118 354.5,-145 Q317,-172 250,-174 L253,-153 Q313,-153 345.5,-127 Q378,-101 390,-34 L446,283 Q458,349 458,393 Q458,451 425,485 Q392,519 324,519 Q244,519 181.5,465 Q119,411 101,312 L47,0 L25,0 L117,526 L139,526 L118,406 L150,462 Q219,540 328,540"/> 
            <glyph glyph-name="Ō" unicode="&#x14C;" horiz-adv-x="714" d=" M531,772 L391,772 L395,793 L535,793 M444,704 Q563,704 638.5,622 Q714,540 714,403 Q714,328 688.5,254.5 Q663,181 616.5,121 Q570,61 497.5,23.5 Q425,-14 338,-14 Q219,-14 143.5,68 Q68,150 68,287 Q68,362 93.5,435.5 Q119,509 165.5,569 Q212,629 284.5,666.5 Q357,704 444,704 M341,7 Q446,7 528,66.5 Q610,126 650.5,215.5 Q691,305 691,403 Q691,531 619.5,607 Q548,683 441,683 Q336,683 254,623.5 Q172,564 131.5,474.5 Q91,385 91,287 Q91,159 162.5,83 Q234,7 341,7"/> 
            <glyph glyph-name="ō" unicode="&#x14D;" horiz-adv-x="524" d=" M408,620 L268,620 L272,641 L412,641 M314,540 Q414,540 469,476.5 Q524,413 524,312 Q524,270 513.5,226.5 Q503,183 480,139.5 Q457,96 424.5,62 Q392,28 343,7 Q294,-14 236,-14 Q136,-14 81,49.5 Q26,113 26,214 Q26,256 36.5,299.5 Q47,343 70,386.5 Q93,430 125.5,464 Q158,498 207,519 Q256,540 314,540 M240,7 Q290,7 334,26 Q378,45 408,76.5 Q438,108 459.5,148.5 Q481,189 491,230.5 Q501,272 501,312 Q501,409 447.5,464 Q394,519 310,519 Q260,519 216,500 Q172,481 142,449.5 Q112,418 90.5,377.5 Q69,337 59,295.5 Q49,254 49,214 Q49,117 102.5,62 Q156,7 240,7"/> 
            <glyph glyph-name="Ő" unicode="&#x150;" horiz-adv-x="714" d=" M420,736 L401,736 L470,830 L498,830 M488,736 L557,830 L585,830 L507,736 M444,704 Q563,704 638.5,622 Q714,540 714,403 Q714,328 688.5,254.5 Q663,181 616.5,121 Q570,61 497.5,23.5 Q425,-14 338,-14 Q219,-14 143.5,68 Q68,150 68,287 Q68,362 93.5,435.5 Q119,509 165.5,569 Q212,629 284.5,666.5 Q357,704 444,704 M341,7 Q446,7 528,66.5 Q610,126 650.5,215.5 Q691,305 691,403 Q691,531 619.5,607 Q548,683 441,683 Q336,683 254,623.5 Q172,564 131.5,474.5 Q91,385 91,287 Q91,159 162.5,83 Q234,7 341,7"/> 
            <glyph glyph-name="ő" unicode="&#x151;" horiz-adv-x="524" d=" M286,580 L267,580 L347,690 L375,690 M367,580 L447,690 L475,690 L386,580 M314,540 Q414,540 469,476.5 Q524,413 524,312 Q524,270 513.5,226.5 Q503,183 480,139.5 Q457,96 424.5,62 Q392,28 343,7 Q294,-14 236,-14 Q136,-14 81,49.5 Q26,113 26,214 Q26,256 36.5,299.5 Q47,343 70,386.5 Q93,430 125.5,464 Q158,498 207,519 Q256,540 314,540 M240,7 Q290,7 334,26 Q378,45 408,76.5 Q438,108 459.5,148.5 Q481,189 491,230.5 Q501,272 501,312 Q501,409 447.5,464 Q394,519 310,519 Q260,519 216,500 Q172,481 142,449.5 Q112,418 90.5,377.5 Q69,337 59,295.5 Q49,254 49,214 Q49,117 102.5,62 Q156,7 240,7"/> 
            <glyph glyph-name="Œ" unicode="&#x152;" horiz-adv-x="1155" d=" M754,670 L699,355 L1076,355 L1072,335 L695,335 L640,20 L1047,20 L1043,0 L614,0 L649,198 L605,121 Q499,-14 324,-14 Q204,-14 136,67 Q68,148 68,283 Q68,340 82,398 Q96,456 126.5,511 Q157,566 200.5,609 Q244,652 308.5,678 Q373,704 450,704 Q538,704 592.5,672.5 Q647,641 682,566 L699,483 L736,690 L1155,690 L1151,670 M327,7 Q456,7 550.5,92 Q645,177 675,345 Q682,395 683,443 Q684,491 669,534.5 Q654,578 628.5,611 Q603,644 556,663.5 Q509,683 447,683 Q361,683 291,646 Q221,609 178.5,550 Q136,491 113.5,422 Q91,353 91,284 Q91,154 157,80.5 Q223,7 327,7"/> 
            <glyph glyph-name="œ" unicode="&#x153;" horiz-adv-x="966" d=" M956,258 L526,258 Q521,229 521,195 Q521,100 568.5,53.5 Q616,7 686,7 Q753,7 813.5,46 Q874,85 910,161 L932,161 Q891,72 825,29 Q759,-14 680,-14 Q608,-14 555.5,35 Q503,84 497,173 Q460,84 390.5,35 Q321,-14 231,-14 Q136,-14 81.5,49.5 Q27,113 27,219 Q27,272 45,327 Q63,382 98,431.5 Q133,481 193,512.5 Q253,544 329,544 Q417,544 472,494 Q527,444 532,356 Q568,444 636.5,494 Q705,544 786,544 Q876,544 921,486 Q966,428 966,340 Q966,305 956,258 M503,264 Q515,331 502.5,388 Q490,445 444.5,484 Q399,523 325,523 Q258,523 203.5,494.5 Q149,466 116.5,420.5 Q84,375 67,323 Q50,271 50,220 Q50,121 103.5,64 Q157,7 235,7 Q331,7 406,73 Q481,139 503,264 M780,523 Q698,523 625.5,459.5 Q553,396 530,279 L937,279 Q943,312 943,339 Q943,434 896.5,478.5 Q850,523 780,523"/> 
            <glyph glyph-name="Ŕ" unicode="&#x154;" horiz-adv-x="556" d=" M347,736 L328,736 L397,830 L425,830 M556,546 Q556,469 507.5,414.5 Q459,360 379,347 Q451,324 454,196 Q456,59 471,0 L447,0 Q435,68 432,199 Q428,332 334,337 Q312,338 271,338 L110,338 L50,0 L28,0 L150,690 L317,690 Q376,690 416,685 Q484,677 520,640.5 Q556,604 556,546 M350,361 Q431,367 481,417.5 Q531,468 531,542 Q531,648 408,664 Q368,669 313,669 L168,669 L113,359 L275,359 Q317,359 350,361"/> 
            <glyph glyph-name="ŕ" unicode="&#x155;" horiz-adv-x="304" d=" M191,580 L172,580 L252,690 L280,690 M281,540 Q297,540 304,539 L300,519 Q271,521 244.5,514 Q218,507 188.5,485.5 Q159,464 135,415.5 Q111,367 98,295 L97,288 L47,0 L25,0 L118,530 L140,530 L120,416 L150,473 Q207,540 281,540"/> 
            <glyph glyph-name="Ŗ" unicode="&#x156;" horiz-adv-x="556" d=" M556,546 Q556,469 507.5,414.5 Q459,360 379,347 Q451,324 454,196 Q456,59 471,0 L447,0 Q435,68 432,199 Q428,332 334,337 Q312,338 271,338 L110,338 L50,0 L28,0 L150,690 L317,690 Q376,690 416,685 Q484,677 520,640.5 Q556,604 556,546 M350,361 Q431,367 481,417.5 Q531,468 531,542 Q531,648 408,664 Q368,669 313,669 L168,669 L113,359 L275,359 Q317,359 350,361 M178,-51 L205,-51 L205,-54 L147,-159 L129,-159"/> 
            <glyph glyph-name="ŗ" unicode="&#x157;" horiz-adv-x="304" d=" M281,540 Q297,540 304,539 L300,519 Q271,521 244.5,514 Q218,507 188.5,485.5 Q159,464 135,415.5 Q111,367 98,295 L97,288 L47,0 L25,0 L118,530 L140,530 L120,416 L150,473 Q207,540 281,540 M14,-51 L41,-51 L41,-54 L-17,-159 L-35,-159"/> 
            <glyph glyph-name="Ř" unicode="&#x158;" horiz-adv-x="556" d=" M329,736 L280,830 L304,830 L343,751 L409,830 L435,830 L354,736 M556,546 Q556,469 507.5,414.5 Q459,360 379,347 Q451,324 454,196 Q456,59 471,0 L447,0 Q435,68 432,199 Q428,332 334,337 Q312,338 271,338 L110,338 L50,0 L28,0 L150,690 L317,690 Q376,690 416,685 Q484,677 520,640.5 Q556,604 556,546 M350,361 Q431,367 481,417.5 Q531,468 531,542 Q531,648 408,664 Q368,669 313,669 L168,669 L113,359 L275,359 Q317,359 350,361"/> 
            <glyph glyph-name="ř" unicode="&#x159;" horiz-adv-x="304" d=" M173,580 L128,690 L151,690 L187,596 L258,690 L282,690 L197,580 M281,540 Q297,540 304,539 L300,519 Q271,521 244.5,514 Q218,507 188.5,485.5 Q159,464 135,415.5 Q111,367 98,295 L97,288 L47,0 L25,0 L118,530 L140,530 L120,416 L150,473 Q207,540 281,540"/> 
            <glyph glyph-name="Ś" unicode="&#x15A;" horiz-adv-x="537" d=" M357,736 L338,736 L407,830 L435,830 M346,704 Q439,704 488,649.5 Q537,595 533,514 L511,514 Q511,592 463.5,637.5 Q416,683 341,683 Q257,683 195,637 Q133,591 133,506 Q133,451 172.5,420.5 Q212,390 305,362 Q399,334 443,291.5 Q487,249 487,179 Q487,94 416.5,40 Q346,-14 235,-14 Q137,-14 74,36 Q11,86 18,180 L40,180 Q35,97 90.5,52 Q146,7 242,7 Q336,7 399,54 Q462,101 462,176 Q462,240 422,277 Q382,314 291,341 Q194,370 151,405.5 Q108,441 108,501 Q108,592 174,648 Q240,704 346,704"/> 
            <glyph glyph-name="ś" unicode="&#x15B;" horiz-adv-x="425" d=" M286,580 L267,580 L347,690 L375,690 M260,540 Q334,540 377.5,499.5 Q421,459 425,383 L403,383 Q391,519 255,519 Q187,519 146,480.5 Q105,442 105,392 Q105,346 136.5,319 Q168,292 227,276 Q309,254 347.5,222 Q386,190 386,133 Q386,62 333,24 Q280,-14 201,-14 Q118,-14 67.5,25.5 Q17,65 16,150 L38,150 Q41,75 84,41 Q127,7 207,7 Q277,7 320,41.5 Q363,76 363,130 Q363,180 329.5,207.5 Q296,235 214,257 Q82,292 82,391 Q82,453 131.5,496.5 Q181,540 260,540"/> 
            <glyph glyph-name="Ş" unicode="&#x15E;" horiz-adv-x="537" d=" M346,704 Q439,704 488,649.5 Q537,595 533,514 L511,514 Q511,592 463.5,637.5 Q416,683 341,683 Q257,683 195,637 Q133,591 133,506 Q133,451 172.5,420.5 Q212,390 305,362 Q399,334 443,291.5 Q487,249 487,179 Q487,97 420.5,43.5 Q354,-10 247,-14 L221,-51 Q296,-58 296,-121 Q296,-164 264,-187 Q232,-210 180,-210 Q151,-210 129,-203 L133,-182 Q154,-189 184,-189 Q226,-189 249.5,-171 Q273,-153 273,-122 Q273,-65 185,-69 L225,-14 Q131,-12 71,38 Q11,88 18,180 L40,180 Q35,97 90.5,52 Q146,7 242,7 Q336,7 399,54 Q462,101 462,176 Q462,240 422,277 Q382,314 291,341 Q194,370 151,405.5 Q108,441 108,501 Q108,592 174,648 Q240,704 346,704"/> 
            <glyph glyph-name="ş" unicode="&#x15F;" horiz-adv-x="425" d=" M255,519 Q187,519 146,480.5 Q105,442 105,392 Q105,346 136.5,319 Q168,292 227,276 Q309,254 347.5,222 Q386,190 386,133 Q386,62 333,24 Q280,-14 201,-14 L192,-14 L166,-51 Q241,-58 241,-121 Q241,-164 209,-187 Q177,-210 125,-210 Q96,-210 74,-203 L78,-182 Q99,-189 129,-189 Q171,-189 194.5,-171 Q218,-153 218,-122 Q218,-65 130,-69 L171,-13 Q17,3 16,150 L38,150 Q41,75 84,41 Q127,7 207,7 Q277,7 320,41.5 Q363,76 363,130 Q363,180 329.5,207.5 Q296,235 214,257 Q82,292 82,391 Q82,453 131.5,496.5 Q181,540 260,540 Q334,540 377.5,499.5 Q421,459 425,383 L403,383 Q391,519 255,519"/> 
            <glyph glyph-name="Š" unicode="&#x160;" horiz-adv-x="537" d=" M339,736 L290,830 L314,830 L353,751 L419,830 L445,830 L364,736 M346,704 Q439,704 488,649.5 Q537,595 533,514 L511,514 Q511,592 463.5,637.5 Q416,683 341,683 Q257,683 195,637 Q133,591 133,506 Q133,451 172.5,420.5 Q212,390 305,362 Q399,334 443,291.5 Q487,249 487,179 Q487,94 416.5,40 Q346,-14 235,-14 Q137,-14 74,36 Q11,86 18,180 L40,180 Q35,97 90.5,52 Q146,7 242,7 Q336,7 399,54 Q462,101 462,176 Q462,240 422,277 Q382,314 291,341 Q194,370 151,405.5 Q108,441 108,501 Q108,592 174,648 Q240,704 346,704"/> 
            <glyph glyph-name="š" unicode="&#x161;" horiz-adv-x="425" d=" M268,580 L223,690 L246,690 L282,596 L353,690 L377,690 L292,580 M255,519 Q187,519 146,480.5 Q105,442 105,392 Q105,346 136.5,319 Q168,292 227,276 Q309,254 347.5,222 Q386,190 386,133 Q386,62 333,24 Q280,-14 201,-14 Q118,-14 67.5,25.5 Q17,65 16,150 L38,150 Q41,75 84,41 Q127,7 207,7 Q277,7 320,41.5 Q363,76 363,130 Q363,180 329.5,207.5 Q296,235 214,257 Q82,292 82,391 Q82,453 131.5,496.5 Q181,540 260,540 Q334,540 377.5,499.5 Q421,459 425,383 L403,383 Q391,519 255,519"/> 
            <glyph glyph-name="Ţ" unicode="&#x162;" horiz-adv-x="657" d=" M270,0 L234,-51 Q309,-58 309,-121 Q309,-164 277,-187 Q245,-210 193,-210 Q164,-210 142,-203 L146,-182 Q167,-189 197,-189 Q239,-189 262.5,-171 Q286,-153 286,-122 Q286,-65 198,-69 L249,2 L367,670 L103,670 L107,690 L657,690 L653,670 L389,670"/> 
            <glyph glyph-name="ţ" unicode="&#x163;" horiz-adv-x="251" d=" M145,504 L79,128 Q70,80 70,57 Q70,26 92,16.5 Q114,7 164,14 L161,-4 Q140,-7 116,-7 L110,-7 L79,-51 Q154,-58 154,-121 Q154,-164 122,-187 Q90,-210 38,-210 Q9,-210 -13,-203 L-9,-182 Q12,-189 42,-189 Q84,-189 107.5,-171 Q131,-153 131,-122 Q131,-65 43,-69 L90,-4 Q48,5 48,53 Q48,83 57,132 L123,504 L59,504 L62,522 L126,522 L145,630 L167,630 L148,522 L251,522 L248,504"/> 
            <glyph glyph-name="Ť" unicode="&#x164;" horiz-adv-x="657" d=" M379,736 L330,830 L354,830 L393,751 L459,830 L485,830 L404,736 M653,670 L389,670 L271,0 L249,0 L367,670 L103,670 L107,690 L657,690"/> 
            <glyph glyph-name="ť" unicode="&#x165;" horiz-adv-x="276" d=" M276,690 L276,687 L218,582 L200,582 L249,690 M148,522 L251,522 L248,504 L145,504 L79,128 Q70,80 70,57 Q70,26 92,16.5 Q114,7 164,14 L161,-4 Q140,-7 116,-7 Q48,-7 48,53 Q48,83 57,132 L123,504 L59,504 L62,522 L126,522 L145,630 L167,630"/> 
            <glyph glyph-name="Ŧ" unicode="&#x166;" horiz-adv-x="657" d=" M389,670 L332,344 L488,344 L484,323 L328,323 L271,0 L249,0 L306,323 L174,323 L178,344 L310,344 L367,670 L103,670 L107,690 L657,690 L653,670"/> 
            <glyph glyph-name="ŧ" unicode="&#x167;" horiz-adv-x="251" d=" M145,504 L118,351 L182,351 L178,330 L114,330 L79,128 Q70,80 70,57 Q70,26 92,16.5 Q114,7 164,14 L161,-4 Q140,-7 116,-7 Q48,-7 48,53 Q48,83 57,132 L92,330 L38,330 L42,351 L96,351 L123,504 L59,504 L62,522 L126,522 L145,630 L167,630 L148,522 L251,522 L248,504"/> 
            <glyph glyph-name="Ū" unicode="&#x16A;" horiz-adv-x="609" d=" M471,772 L331,772 L335,793 L475,793 M609,690 L529,239 Q523,204 515,172 Q494,87 433,36.5 Q372,-14 267,-14 Q176,-14 126,30.5 Q76,75 76,147 Q76,187 85,239 L165,690 L187,690 L107,235 Q98,183 98,148 Q98,86 141,46.5 Q184,7 271,7 Q365,7 420.5,53.5 Q476,100 495,178 Q501,201 508,240 L587,690"/> 
            </font>
</defs>
</svg>
