<?xml version="1.0" standalone="no"?>
<!DOCTYPE svg PUBLIC "-//W3C//DTD SVG 1.1//EN" "http://www.w3.org/Graphics/SVG/1.1/DTD/svg11.dtd" >
<svg xmlns="http://www.w3.org/2000/svg">
    <defs>
        <font id="NotoSerif-BoldItalic">
            <font-face font-family="NotoSerif-BoldItalic"
                       units-per-em="2048"
                       ascent="2189"
                       descent="-600"
                       bbox="-1012 -571 3017 2167"
                    />
            <missing-glyph horiz-adv-x="0" />
            
            <glyph glyph-name="!" unicode="&#x21;" horiz-adv-x="786" d=" M430,1462 L786,1462 L432,467 L313,467 M502,168 Q502,117 486.5,81.5 Q471,46 445.5,24.5 Q420,3 388,-6.5 Q356,-16 324,-16 Q249,-16 203.5,20 Q158,56 158,131 Q158,173 170.5,207 Q183,241 206,265 Q229,289 262,302 Q295,315 336,315 Q371,315 401.5,306 Q432,297 454.5,279 Q477,261 489.5,233 Q502,205 502,168"/> 
            <glyph glyph-name="&quot;" unicode="&#x22;" horiz-adv-x="1126" d=" M807,1462 L1126,1462 L913,899 L778,899 M360,1462 L680,1462 L446,899 L311,899"/> 
            <glyph glyph-name="#" unicode="&#x23;" horiz-adv-x="1157" d=" M1036,551 L1022,410 L766,410 L647,0 L502,0 L621,410 L408,410 L287,0 L141,0 L262,410 L57,410 L72,551 L303,551 L414,922 L176,922 L193,1065 L457,1065 L569,1462 L717,1462 L602,1065 L815,1065 L932,1462 L1077,1462 L961,1065 L1157,1065 L1141,922 L918,922 L809,551 M449,551 L664,551 L774,922 L559,922"/> 
            <glyph glyph-name="$" unicode="&#x24;" horiz-adv-x="1141" d=" M1030,481 Q1030,386 995.5,312 Q961,238 896.5,186 Q832,134 740.5,106 Q649,78 535,76 L485,-162 L371,-162 L422,78 Q235,93 143,165 Q51,237 51,352 Q51,449 110.5,493 Q170,537 279,537 Q279,465 291,410 Q303,355 325.5,315 Q348,275 379,249 Q410,223 449,209 L541,645 Q468,684 412,723.5 Q356,763 317.5,809.5 Q279,856 259.5,911.5 Q240,967 240,1038 Q240,1123 273.5,1190.5 Q307,1258 368,1305 Q429,1352 514.5,1378 Q600,1404 705,1407 L737,1556 L852,1556 L817,1403 Q979,1390 1060,1335 Q1141,1280 1141,1196 Q1141,1154 1129,1121 Q1117,1088 1090,1065 Q1063,1042 1018.5,1030 Q974,1018 909,1018 Q909,1055 902,1093.5 Q895,1132 881,1167.5 Q867,1203 844.5,1231.5 Q822,1260 791,1276 L705,872 L752,848 Q893,774 961.5,686 Q1030,598 1030,481 M768,389 Q768,417 763,441.5 Q758,466 744,489 Q730,512 705.5,536 Q681,560 643,586 L559,193 Q607,194 645.5,208.5 Q684,223 711,249 Q738,275 753,311 Q768,347 768,389 M504,1106 Q504,1047 528.5,1008 Q553,969 602,934 L678,1290 Q643,1285 611.5,1272.5 Q580,1260 556,1237.5 Q532,1215 518,1182.5 Q504,1150 504,1106"/> 
            <glyph glyph-name="%" unicode="&#x25;" horiz-adv-x="1765" d=" M526,0 L367,0 L1382,1462 L1536,1462 M147,872 Q147,936 159,1006 Q171,1076 196.5,1144 Q222,1212 260,1273.5 Q298,1335 350.5,1381.5 Q403,1428 469.5,1455.5 Q536,1483 618,1483 Q696,1483 752,1460 Q808,1437 844,1396 Q880,1355 897.5,1299 Q915,1243 915,1178 Q915,1119 902.5,1051 Q890,983 865,916 Q840,849 801,787 Q762,725 708.5,677.5 Q655,630 587,601.5 Q519,573 436,573 Q370,573 316.5,592.5 Q263,612 225.5,650 Q188,688 167.5,743.5 Q147,799 147,872 M612,1376 Q572,1376 538.5,1348.5 Q505,1321 478,1277 Q451,1233 430.5,1177 Q410,1121 396.5,1063 Q383,1005 376,950.5 Q369,896 369,856 Q369,775 389,726.5 Q409,678 459,678 Q499,678 532.5,705.5 Q566,733 593,777 Q620,821 640.5,877.5 Q661,934 674.5,992 Q688,1050 695,1104.5 Q702,1159 702,1200 Q702,1282 682.5,1328 Q663,1374 612,1376 M997,279 Q997,343 1009,413 Q1021,483 1046.5,551 Q1072,619 1110,680 Q1148,741 1200.5,787.5 Q1253,834 1319.5,861.5 Q1386,889 1468,889 Q1546,889 1602,866 Q1658,843 1694,802 Q1730,761 1747.5,705 Q1765,649 1765,584 Q1765,525 1752.5,457.5 Q1740,390 1715,322.5 Q1690,255 1651,193.5 Q1612,132 1558.5,84.5 Q1505,37 1437,8.5 Q1369,-20 1286,-20 Q1220,-20 1166.5,-0.5 Q1113,19 1075.5,56.5 Q1038,94 1017.5,150 Q997,206 997,279 M1462,782 Q1422,782 1388.5,754.5 Q1355,727 1328,683 Q1301,639 1280.5,583 Q1260,527 1246.5,469 Q1233,411 1226,356.5 Q1219,302 1219,262 Q1219,181 1239,132.5 Q1259,84 1309,84 Q1349,84 1382.5,111.5 Q1416,139 1443,183 Q1470,227 1490.5,283.5 Q1511,340 1524.5,398 Q1538,456 1545,510.5 Q1552,565 1552,606 Q1552,688 1532.5,734 Q1513,780 1462,782"/> 
            <glyph glyph-name="&amp;" unicode="&#x26;" horiz-adv-x="1622" d=" M1110,0 L1008,141 Q923,69 810.5,24.5 Q698,-20 549,-20 Q425,-20 335,9 Q245,38 186,90 Q127,142 98.5,212 Q70,282 70,365 Q70,467 106,539.5 Q142,612 203,665 Q264,718 345,756 Q426,794 516,827 Q470,906 445,982 Q420,1058 420,1130 Q420,1218 451,1284 Q482,1350 540.5,1394 Q599,1438 684.5,1460.5 Q770,1483 879,1483 Q973,1483 1041.5,1462.5 Q1110,1442 1155,1406 Q1200,1370 1221.5,1321.5 Q1243,1273 1243,1217 Q1243,1146 1222,1092.5 Q1201,1039 1153.5,994 Q1106,949 1030,908.5 Q954,868 844,823 L1096,492 Q1131,566 1156,643 Q1181,720 1196,795 L1212,872 L1622,872 L1599,764 L1581,764 Q1546,764 1513,760 Q1480,756 1448.5,741.5 Q1417,727 1389,700 Q1361,673 1337,627 Q1306,567 1271.5,499.5 Q1237,432 1192,362 L1321,193 Q1352,151 1398.5,130 Q1445,109 1511,109 L1526,109 L1503,0 M371,381 Q371,324 387,275.5 Q403,227 434,192 Q465,157 510,137 Q555,117 612,117 Q708,117 786.5,153.5 Q865,190 928,252 L594,715 Q533,681 490.5,645 Q448,609 421.5,568.5 Q395,528 383,481.5 Q371,435 371,381 M1010,1188 Q1010,1269 973.5,1314.5 Q937,1360 864,1360 Q828,1360 797,1346 Q766,1332 743.5,1305 Q721,1278 708.5,1238 Q696,1198 696,1147 Q696,1088 716,1035 Q736,982 776,922 Q839,949 883.5,976 Q928,1003 956,1034 Q984,1065 997,1102.5 Q1010,1140 1010,1188"/> 
            <glyph glyph-name="'" unicode="&#x27;" horiz-adv-x="659" d=" M340,1462 L659,1462 L446,899 L311,899"/> 
            <glyph glyph-name="(" unicode="&#x28;" horiz-adv-x="944" d=" M401,285 Q401,222 410,159 Q419,96 440,38.5 Q461,-19 495.5,-68.5 Q530,-118 580,-154 L553,-285 Q429,-242 340.5,-174 Q252,-106 195.5,-19.5 Q139,67 112.5,168.5 Q86,270 86,381 Q86,508 109.5,637 Q133,766 180,888 Q227,1010 298,1121 Q369,1232 464.5,1323 Q560,1414 679.5,1480.5 Q799,1547 944,1581 L924,1452 Q847,1410 786.5,1355 Q726,1300 679,1238 Q632,1176 597,1109 Q562,1042 536.5,976 Q511,910 493.5,848 Q476,786 463,733 Q425,579 413,468.5 Q401,358 401,285"/> 
            <glyph glyph-name=")" unicode="&#x29;" horiz-adv-x="768" d=" M453,1014 Q453,1077 444,1140 Q435,1203 414,1260 Q393,1317 358.5,1366.5 Q324,1416 274,1452 L301,1583 Q425,1540 513.5,1472 Q602,1404 658.5,1317.5 Q715,1231 741.5,1129.5 Q768,1028 768,918 Q768,791 744.5,662 Q721,533 674,411 Q627,289 556,178 Q485,67 389.5,-24 Q294,-115 174.5,-182 Q55,-249 -90,-285 L-70,-154 Q7,-112 67.5,-57 Q128,-2 175,60 Q222,122 257,189 Q292,256 317.5,322 Q343,388 360.5,450 Q378,512 391,565 Q429,720 441,829.5 Q453,939 453,1014"/> 
            <glyph glyph-name="*" unicode="&#x2A;" horiz-adv-x="1200" d=" M336,1323 L469,1507 L721,1227 L725,1567 L950,1520 L809,1212 L1153,1358 L1200,1139 L872,1126 L1167,979 L1034,801 L778,1073 L780,733 L557,780 L692,1094 L350,944 L301,1161 L631,1178"/> 
            <glyph glyph-name="+" unicode="&#x2B;" horiz-adv-x="1044" d=" M678,659 L678,293 L530,293 L530,659 L166,659 L166,805 L530,805 L530,1171 L678,1171 L678,805 L1044,805 L1044,659"/> 
            <glyph glyph-name="," unicode="&#x2C;" horiz-adv-x="418" d=" M418,127 Q418,49 389.5,-21 Q361,-91 304.5,-148 Q248,-205 163.5,-246.5 Q79,-288 -33,-309 L-10,-201 Q201,-151 201,-31 Q201,-10 192.5,5.5 Q184,21 171,33.5 Q158,46 143.5,58 Q129,70 116,85.5 Q103,101 94.5,121.5 Q86,142 86,172 Q86,205 98.5,231 Q111,257 132,275.5 Q153,294 181,303.5 Q209,313 240,313 Q277,313 309.5,300.5 Q342,288 366,264.5 Q390,241 404,206.5 Q418,172 418,127"/> 
            <glyph glyph-name="-" unicode="&#x2D;" horiz-adv-x="600" d=" M20,451 L68,666 L600,666 L553,451"/> 
            <glyph glyph-name="." unicode="&#x2E;" horiz-adv-x="414" d=" M414,168 Q414,117 398.5,81.5 Q383,46 357.5,24.5 Q332,3 300,-6.5 Q268,-16 236,-16 Q162,-16 116,20 Q70,56 70,131 Q70,173 82.5,207 Q95,241 118.5,265 Q142,289 174.5,302 Q207,315 248,315 Q283,315 313.5,306 Q344,297 366.5,279 Q389,261 401.5,233 Q414,205 414,168"/> 
            <glyph glyph-name="/" unicode="&#x2F;" horiz-adv-x="821" d=" M-51,-248 L-211,-248 L662,1556 L821,1556"/> 
            <glyph glyph-name="0" unicode="&#x30;" horiz-adv-x="1155" d=" M76,473 Q76,579 93.5,695 Q111,811 146.5,923.5 Q182,1036 236,1138 Q290,1240 363.5,1317 Q437,1394 530,1439.5 Q623,1485 737,1485 Q825,1485 901,1457.5 Q977,1430 1033.5,1372.5 Q1090,1315 1122.5,1226.5 Q1155,1138 1155,1016 Q1155,913 1138,795.5 Q1121,678 1086.5,562.5 Q1052,447 999,341 Q946,235 873.5,154 Q801,73 708,25 Q615,-23 502,-23 Q407,-23 328.5,9 Q250,41 194,104 Q138,167 107,259.5 Q76,352 76,473 M356,385 Q356,248 399,182.5 Q442,117 514,117 Q574,117 625,164.5 Q676,212 717,291 Q758,370 789.5,471 Q821,572 842,679.5 Q863,787 874,892 Q885,997 885,1083 Q885,1218 843.5,1283 Q802,1348 727,1348 Q669,1348 619,1301 Q569,1254 528,1176 Q487,1098 455,997 Q423,896 401,789 Q379,682 367.5,577 Q356,472 356,385"/> 
            <glyph glyph-name="1" unicode="&#x31;" horiz-adv-x="969" d=" M969,1470 L709,248 Q706,235 701,212 Q696,189 696,176 Q696,154 707.5,140.5 Q719,127 740,120 Q761,113 789,111 Q817,109 850,109 L950,109 L928,0 L82,0 L104,109 L225,109 Q298,109 343,138.5 Q388,168 403,242 L561,987 Q574,1049 586,1100 Q598,1151 608,1189 Q619,1233 629,1268 L621,1268 Q573,1218 532.5,1178.5 Q492,1139 457,1111.5 Q422,1084 389.5,1069.5 Q357,1055 324,1055 Q280,1055 252.5,1094.5 Q225,1134 225,1206 Q260,1215 297,1227 Q334,1239 376,1257 Q418,1275 466.5,1300.5 Q515,1326 573,1364 L739,1470"/> 
            <glyph glyph-name="2" unicode="&#x32;" horiz-adv-x="1149" d=" M-29,0 L14,211 L492,614 Q596,702 663,775 Q730,848 769,912.5 Q808,977 823,1037.5 Q838,1098 838,1163 Q838,1205 828.5,1240.5 Q819,1276 800.5,1301.5 Q782,1327 755,1341.5 Q728,1356 694,1356 Q643,1356 603.5,1329 Q564,1302 536,1255.5 Q508,1209 491.5,1146 Q475,1083 471,1010 Q420,1010 377,1020.5 Q334,1031 302.5,1052.5 Q271,1074 253.5,1107.5 Q236,1141 236,1186 Q236,1247 267.5,1301 Q299,1355 359.5,1395.5 Q420,1436 509.5,1459.5 Q599,1483 715,1483 Q820,1483 901,1463 Q982,1443 1037,1406.5 Q1092,1370 1120.5,1317 Q1149,1264 1149,1198 Q1149,1130 1121,1064.5 Q1093,999 1037.5,930 Q982,861 899,785.5 Q816,710 707,621 L215,225 L692,225 Q741,225 775.5,239.5 Q810,254 834,277.5 Q858,301 874.5,331 Q891,361 905,393 L920,430 L1040,430 L940,0"/> 
            <glyph glyph-name="3" unicode="&#x33;" horiz-adv-x="1147" d=" M457,125 Q508,125 556,145 Q604,165 641,205.5 Q678,246 700.5,306 Q723,366 723,446 Q723,564 647,628 Q571,692 434,692 L346,692 L367,819 L432,819 Q518,819 591,845 Q664,871 717.5,919 Q771,967 801,1034 Q831,1101 831,1182 Q831,1220 822.5,1252.5 Q814,1285 797,1308.5 Q780,1332 753.5,1345 Q727,1358 690,1358 Q634,1358 594.5,1333 Q555,1308 528,1266 Q501,1224 484,1168.5 Q467,1113 457,1053 Q408,1053 365.5,1059.5 Q323,1066 292,1081 Q261,1096 243,1121 Q225,1146 225,1184 Q225,1247 264.5,1301.5 Q304,1356 372,1396.5 Q440,1437 531.5,1460 Q623,1483 727,1483 Q821,1483 898.5,1463.5 Q976,1444 1031.5,1406.5 Q1087,1369 1117,1314.5 Q1147,1260 1147,1190 Q1147,1118 1121.5,1049 Q1096,980 1044.5,922.5 Q993,865 915.5,822.5 Q838,780 735,762 Q806,754 863,731 Q920,708 959.5,670 Q999,632 1020.5,579.5 Q1042,527 1042,461 Q1042,370 1016,299 Q990,228 945,175 Q900,122 840,84.5 Q780,47 712,24 Q644,1 571.5,-9.5 Q499,-20 430,-20 Q310,-20 227.5,2.5 Q145,25 94,60.5 Q43,96 20.5,140 Q-2,184 -2,227 Q-2,308 57.5,354.5 Q117,401 223,401 Q223,341 237,290.5 Q251,240 280,203.5 Q309,167 353,146 Q397,125 457,125"/> 
            <glyph glyph-name="4" unicode="&#x34;" horiz-adv-x="1110" d=" M674,874 Q682,915 693,963.5 Q704,1012 716.5,1064 Q729,1116 743,1168 Q757,1220 772,1268 Q750,1233 721,1191 Q692,1149 661.5,1106.5 Q631,1064 602,1026 Q573,988 551,961 L188,516 L598,516 M264,0 L285,109 L344,109 Q374,109 405,112.5 Q436,116 463,130.5 Q490,145 511,174.5 Q532,204 543,256 L569,381 L0,381 L29,508 L813,1462 L1100,1462 L897,516 L1110,516 L1081,381 L868,381 L842,254 Q839,242 836.5,221 Q834,200 834,190 Q834,164 843.5,148 Q853,132 870.5,123.5 Q888,115 913,112 Q938,109 969,109 L1006,109 L983,0"/> 
            <glyph glyph-name="5" unicode="&#x35;" horiz-adv-x="1167" d=" M434,123 Q501,123 555.5,146 Q610,169 648.5,215 Q687,261 708,330.5 Q729,400 729,492 Q729,558 710,607 Q691,656 658,689 Q625,722 579.5,738 Q534,754 481,754 Q444,754 414,750 Q384,746 359,739.5 Q334,733 312,725 Q290,717 270,709 L184,752 L393,1462 L1167,1462 L1108,1090 L983,1090 Q985,1116 987,1145.5 Q989,1175 989,1188 Q989,1211 968,1225 Q947,1239 889,1239 L477,1239 L356,856 Q394,867 444,878 Q494,889 569,889 Q675,889 761,864 Q847,839 907.5,790.5 Q968,742 1001,670.5 Q1034,599 1034,506 Q1034,394 991,297.5 Q948,201 867.5,130.5 Q787,60 671,20 Q555,-20 408,-20 Q301,-20 227,-1 Q153,18 107,50.5 Q61,83 40.5,126.5 Q20,170 20,219 Q20,253 31.5,282.5 Q43,312 66.5,334.5 Q90,357 126,370 Q162,383 211,383 Q212,339 221.5,293 Q231,247 255.5,209 Q280,171 323,147 Q366,123 434,123"/> 
            <glyph glyph-name="6" unicode="&#x36;" horiz-adv-x="1206" d=" M829,1362 Q697,1362 598,1221.5 Q499,1081 436,795 Q459,813 489,831 Q519,849 556.5,863.5 Q594,878 638.5,887.5 Q683,897 735,897 Q824,897 889.5,868 Q955,839 997.5,789.5 Q1040,740 1060.5,674 Q1081,608 1081,535 Q1081,427 1047.5,327 Q1014,227 945.5,150 Q877,73 773.5,26.5 Q670,-20 530,-20 Q442,-20 364.5,10.5 Q287,41 229,103 Q171,165 137.5,257.5 Q104,350 104,475 Q104,603 127.5,727 Q151,851 196.5,963 Q242,1075 308,1170 Q374,1265 458.5,1335 Q543,1405 645.5,1444 Q748,1483 866,1483 Q950,1483 1013.5,1466 Q1077,1449 1120,1419.5 Q1163,1390 1184.5,1352 Q1206,1314 1206,1272 Q1206,1190 1139,1144 Q1072,1098 950,1098 Q950,1148 946.5,1195.5 Q943,1243 930.5,1280 Q918,1317 894,1339.5 Q870,1362 829,1362 M641,772 Q608,772 575.5,762.5 Q543,753 513,738 Q483,723 457,704 Q431,685 410,666 Q385,517 385,410 Q385,255 432,184 Q479,113 559,113 Q611,113 654,144 Q697,175 728,229.5 Q759,284 776,358 Q793,432 793,518 Q793,642 754.5,707 Q716,772 641,772"/> 
            <glyph glyph-name="7" unicode="&#x37;" horiz-adv-x="1262" d=" M213,0 L1022,1239 L496,1239 Q440,1239 404,1212.5 Q368,1186 354,1135 L326,1032 L201,1032 L285,1462 L1262,1462 L1239,1341 L387,0"/> 
            <glyph glyph-name="8" unicode="&#x38;" horiz-adv-x="1161" d=" M506,-20 Q398,-20 310,6 Q222,32 159,79 Q96,126 61.5,190.5 Q27,255 27,332 Q27,418 58,480 Q89,542 143,589 Q197,636 270.5,672 Q344,708 430,741 Q386,774 350,814.5 Q314,855 288,901 Q262,947 247.5,998 Q233,1049 233,1104 Q233,1181 261.5,1250 Q290,1319 352.5,1370.5 Q415,1422 513.5,1452.5 Q612,1483 752,1483 Q849,1483 925,1460.5 Q1001,1438 1053.5,1398 Q1106,1358 1133.5,1303 Q1161,1248 1161,1184 Q1161,1106 1136,1046.5 Q1111,987 1065.5,940 Q1020,893 956.5,855.5 Q893,818 817,784 Q870,750 915.5,711.5 Q961,673 994,627.5 Q1027,582 1046,529 Q1065,476 1065,414 Q1065,302 1024,220 Q983,138 908.5,85 Q834,32 731.5,6 Q629,-20 506,-20 M522,98 Q576,98 624,114 Q672,130 708,162.5 Q744,195 765,243 Q786,291 786,356 Q786,406 771,448 Q756,490 727,527.5 Q698,565 654.5,598.5 Q611,632 553,664 Q436,616 369.5,533 Q303,450 303,324 Q303,218 361,158 Q419,98 522,98 M903,1169 Q903,1211 893.5,1246.5 Q884,1282 864,1308 Q844,1334 813.5,1349 Q783,1364 741,1364 Q693,1364 652,1346.5 Q611,1329 581,1296.5 Q551,1264 533.5,1218 Q516,1172 516,1114 Q516,954 690,848 Q749,879 790,914.5 Q831,950 856,990 Q881,1030 892,1075 Q903,1120 903,1169"/> 
            <glyph glyph-name="9" unicode="&#x39;" horiz-adv-x="1139" d=" M391,109 Q466,109 526.5,148 Q587,187 637.5,262 Q688,337 730,447.5 Q772,558 811,702 Q785,675 753,650 Q721,625 683,605.5 Q645,586 600,574.5 Q555,563 502,563 Q420,563 356,588.5 Q292,614 248.5,659 Q205,704 182.5,766.5 Q160,829 160,903 Q160,1031 206.5,1138 Q253,1245 332,1321.5 Q411,1398 515.5,1440.5 Q620,1483 737,1483 Q829,1483 903.5,1456 Q978,1429 1030.5,1377.5 Q1083,1326 1111,1251 Q1139,1176 1139,1079 Q1139,1055 1137,1019 Q1135,983 1130.5,941 Q1126,899 1118.5,852.5 Q1111,806 1100,760 Q1078,661 1044.5,565 Q1011,469 964.5,382.5 Q918,296 858.5,222 Q799,148 725,94.5 Q651,41 562.5,10.5 Q474,-20 369,-20 Q287,-20 228,-3 Q169,14 131,42.5 Q93,71 75,109 Q57,147 57,190 Q57,259 99.5,295.5 Q142,332 217,332 Q218,293 228,253 Q238,213 259,181 Q280,149 312.5,129 Q345,109 391,109 M606,711 Q646,712 680.5,726 Q715,740 744.5,762.5 Q774,785 798,813 Q822,841 840,870 Q846,895 851.5,925 Q857,955 861,985 Q865,1015 867.5,1043 Q870,1071 870,1092 Q870,1159 859,1207.5 Q848,1256 827.5,1286.5 Q807,1317 779.5,1331.5 Q752,1346 719,1346 Q661,1346 612.5,1308 Q564,1270 529,1208.5 Q494,1147 474.5,1069.5 Q455,992 455,913 Q455,813 496,762 Q537,711 606,711"/> 
            <glyph glyph-name=":" unicode="&#x3A;" horiz-adv-x="614" d=" M434,168 Q434,117 418.5,81.5 Q403,46 377.5,24.5 Q352,3 320,-6.5 Q288,-16 256,-16 Q182,-16 136,20 Q90,56 90,131 Q90,173 102.5,207 Q115,241 138.5,265 Q162,289 194.5,302 Q227,315 268,315 Q303,315 333.5,306 Q364,297 386.5,279 Q409,261 421.5,233 Q434,205 434,168 M614,961 Q614,909 598.5,873.5 Q583,838 557.5,816.5 Q532,795 500,785.5 Q468,776 436,776 Q362,776 316,812 Q270,848 270,924 Q270,965 282.5,999 Q295,1033 318.5,1057 Q342,1081 375,1094.5 Q408,1108 449,1108 Q484,1108 514.5,1099 Q545,1090 567,1072 Q589,1054 601.5,1026 Q614,998 614,961"/> 
            <glyph glyph-name=";" unicode="&#x3B;" horiz-adv-x="614" d=" M428,127 Q428,49 399.5,-21 Q371,-91 314.5,-148 Q258,-205 173.5,-246.5 Q89,-288 -23,-309 L0,-201 Q211,-151 211,-31 Q211,-10 202.5,5.5 Q194,21 181,33.5 Q168,46 153.5,58 Q139,70 126,85.5 Q113,101 104.5,121.5 Q96,142 96,172 Q96,205 108.5,231 Q121,257 142,275.5 Q163,294 191,303.5 Q219,313 250,313 Q287,313 319.5,300.5 Q352,288 376,264.5 Q400,241 414,206.5 Q428,172 428,127 M614,961 Q614,909 598.5,873.5 Q583,838 557.5,816.5 Q532,795 500,785.5 Q468,776 436,776 Q362,776 316,812 Q270,848 270,924 Q270,965 282.5,999 Q295,1033 318.5,1057 Q342,1081 375,1094.5 Q408,1108 449,1108 Q484,1108 514.5,1099 Q545,1090 567,1072 Q589,1054 601.5,1026 Q614,998 614,961"/> 
            <glyph glyph-name="&lt;" unicode="&#x3C;" horiz-adv-x="1044" d=" M166,690 L166,774 L1044,1253 L1044,1092 L385,731 L1044,375 L1044,213"/> 
            <glyph glyph-name="=" unicode="&#x3D;" horiz-adv-x="1053" d=" M1053,604 L1053,461 L166,461 L166,604 M1053,1001 L1053,858 L166,858 L166,1001"/> 
            <glyph glyph-name="&gt;" unicode="&#x3E;" horiz-adv-x="1044" d=" M166,213 L166,375 L825,731 L166,1092 L166,1253 L1044,774 L1044,690"/> 
            <glyph glyph-name="?" unicode="&#x3F;" horiz-adv-x="1122" d=" M1122,1143 Q1122,1054 1083,980.5 Q1044,907 976,846.5 Q908,786 814.5,737 Q721,688 612,649 L539,467 L408,467 L403,721 Q494,754 567.5,793.5 Q641,833 693.5,883.5 Q746,934 774.5,998.5 Q803,1063 803,1147 Q803,1198 791.5,1237 Q780,1276 760.5,1303 Q741,1330 713.5,1344 Q686,1358 655,1358 Q607,1358 572.5,1333 Q538,1308 515,1266.5 Q492,1225 479,1171 Q466,1117 459,1059 Q207,1059 207,1217 Q207,1272 240,1320.5 Q273,1369 334.5,1405 Q396,1441 483.5,1462 Q571,1483 680,1483 Q782,1483 864,1463 Q946,1443 1003,1401 Q1060,1359 1091,1295 Q1122,1231 1122,1143 M602,168 Q602,117 586.5,81.5 Q571,46 545.5,24.5 Q520,3 488,-6.5 Q456,-16 424,-16 Q350,-16 304,20 Q258,56 258,131 Q258,173 270.5,207 Q283,241 306.5,265 Q330,289 362.5,302 Q395,315 436,315 Q471,315 501.5,306 Q532,297 554.5,279 Q577,261 589.5,233 Q602,205 602,168"/> 
            <glyph glyph-name="@" unicode="&#x40;" horiz-adv-x="1790" d=" M1790,803 Q1790,650 1753,530 Q1716,410 1656,327.5 Q1596,245 1520.5,201.5 Q1445,158 1368,158 Q1277,158 1213.5,202.5 Q1150,247 1116,350 L1104,350 Q1083,310 1056,275 Q1029,240 995,214 Q961,188 918,173 Q875,158 821,158 Q756,158 698,179 Q640,200 596,243 Q552,286 526,352 Q500,418 500,508 Q500,563 513,627 Q526,691 554,754.5 Q582,818 626,877.5 Q670,937 731,982.5 Q792,1028 871.5,1055.5 Q951,1083 1051,1083 Q1122,1083 1172.5,1065 Q1223,1047 1255,1022 L1341,1065 L1391,1065 L1305,553 Q1302,541 1299.5,522 Q1297,503 1295,483 Q1293,463 1291.5,444.5 Q1290,426 1290,414 Q1290,372 1299,345 Q1308,318 1322,302.5 Q1336,287 1354,281.5 Q1372,276 1389,276 Q1429,276 1471,310 Q1513,344 1547,409.5 Q1581,475 1602.5,572 Q1624,669 1624,795 Q1624,935 1581.5,1040.5 Q1539,1146 1463,1216.5 Q1387,1287 1282.5,1322.5 Q1178,1358 1055,1358 Q958,1358 863.5,1331 Q769,1304 683.5,1252 Q598,1200 526,1124.5 Q454,1049 401,952.5 Q348,856 318.5,739 Q289,622 289,487 Q289,306 343,178 Q397,50 489.5,-31 Q582,-112 705.5,-149 Q829,-186 967,-186 Q1050,-186 1129,-171 Q1208,-156 1279,-132 Q1350,-108 1411,-77 Q1472,-46 1520,-14 L1569,-92 Q1515,-133 1446,-169 Q1377,-205 1297,-232 Q1217,-259 1126,-275 Q1035,-291 938,-291 Q821,-291 713,-269.5 Q605,-248 510.5,-204 Q416,-160 338,-94.5 Q260,-29 204.5,59 Q149,147 118.5,257 Q88,367 88,500 Q88,637 121.5,762 Q155,887 216.5,993.5 Q278,1100 366,1186.5 Q454,1273 563,1334.5 Q672,1396 799.5,1429 Q927,1462 1069,1462 Q1246,1462 1381,1411 Q1516,1360 1607,1271.5 Q1698,1183 1744,1062.5 Q1790,942 1790,803 M752,487 Q752,385 788,330.5 Q824,276 883,276 Q926,276 957.5,297 Q989,318 1011,352.5 Q1033,387 1047,430 Q1061,473 1069,518 L1151,936 Q1145,950 1133.5,960.5 Q1122,971 1107,978.5 Q1092,986 1075,989.5 Q1058,993 1042,993 Q990,993 948.5,967 Q907,941 875,898.5 Q843,856 819.5,801.5 Q796,747 781,691 Q766,635 759,581.5 Q752,528 752,487"/> 
            <glyph glyph-name="A" unicode="&#x41;" horiz-adv-x="1456" d=" M438,481 L338,297 Q318,260 308.5,232 Q299,204 299,182 Q299,144 327,126.5 Q355,109 414,109 L455,109 L432,0 L-100,0 L-78,109 L-35,109 Q-7,109 14.5,115.5 Q36,122 56,140 Q76,158 97.5,189 Q119,220 147,268 L842,1462 L1122,1462 L1294,256 Q1299,224 1307.5,197 Q1316,170 1330,150.5 Q1344,131 1365.5,120 Q1387,109 1419,109 L1456,109 L1434,0 L758,0 L780,109 L827,109 Q893,109 932,129.5 Q971,150 971,195 Q971,212 970,228.5 Q969,245 967,260 L936,481 M885,950 Q880,995 875.5,1034.5 Q871,1074 867.5,1111 Q864,1148 861.5,1183 Q859,1218 858,1255 Q843,1218 828,1186.5 Q813,1155 796,1122.5 Q779,1090 758.5,1053.5 Q738,1017 711,969 L508,606 L922,606"/> 
            <glyph glyph-name="B" unicode="&#x42;" horiz-adv-x="1374" d=" M-25,109 L2,109 Q34,109 64.5,113 Q95,117 120,130 Q145,143 163.5,167 Q182,191 190,231 L399,1217 Q404,1237 408,1256.5 Q412,1276 412,1284 Q412,1306 401,1320 Q390,1334 370.5,1341.5 Q351,1349 323.5,1351.5 Q296,1354 264,1354 L238,1354 L260,1462 L895,1462 Q1133,1462 1253.5,1384.5 Q1374,1307 1374,1155 Q1374,1071 1348.5,1007 Q1323,943 1278,896.5 Q1233,850 1172,820 Q1111,790 1040,774 L1038,766 Q1093,756 1139,732 Q1185,708 1218,670.5 Q1251,633 1269.5,582 Q1288,531 1288,467 Q1288,355 1250,268 Q1212,181 1138,121.5 Q1064,62 953.5,31 Q843,0 698,0 L-47,0 M489,125 L631,125 Q718,125 778.5,148 Q839,171 877,216 Q915,261 932.5,327.5 Q950,394 950,481 Q950,593 899,647.5 Q848,702 741,702 L612,702 M639,829 L754,829 Q899,829 963.5,904.5 Q1028,980 1028,1120 Q1028,1229 979,1283 Q930,1337 836,1337 L745,1337"/> 
            <glyph glyph-name="C" unicode="&#x43;" horiz-adv-x="1440" d=" M823,152 Q894,152 951,168 Q1008,184 1053,210.5 Q1098,237 1132,270 Q1166,303 1192,338 Q1204,329 1215.5,310 Q1227,291 1227,268 Q1227,217 1196,165.5 Q1165,114 1104.5,72.5 Q1044,31 955,5.5 Q866,-20 750,-20 Q603,-20 487.5,16.5 Q372,53 292.5,123.5 Q213,194 171,296.5 Q129,399 129,530 Q129,653 158,772 Q187,891 242,998 Q297,1105 376.5,1195 Q456,1285 556.5,1351 Q657,1417 777,1454 Q897,1491 1034,1491 Q1136,1491 1212.5,1473.5 Q1289,1456 1339.5,1424.5 Q1390,1393 1415,1347.5 Q1440,1302 1440,1247 Q1440,1202 1418,1168 Q1396,1134 1357.5,1110.5 Q1319,1087 1266,1075 Q1213,1063 1151,1063 Q1151,1106 1145,1158 Q1139,1210 1120.5,1255 Q1102,1300 1068,1330 Q1034,1360 977,1360 Q896,1360 827.5,1323 Q759,1286 702.5,1222.5 Q646,1159 602.5,1075 Q559,991 529.5,897.5 Q500,804 484.5,706.5 Q469,609 469,518 Q469,343 558,247.5 Q647,152 823,152"/> 
            <glyph glyph-name="D" unicode="&#x44;" horiz-adv-x="1536" d=" M-27,109 L2,109 Q34,109 64.5,113 Q95,117 120,130 Q145,143 163.5,167 Q182,191 190,231 L403,1237 Q407,1248 409.5,1262 Q412,1276 412,1284 Q412,1306 401,1320 Q390,1334 370.5,1341.5 Q351,1349 323.5,1351.5 Q296,1354 264,1354 L238,1354 L260,1462 L915,1462 Q1062,1462 1177.5,1426 Q1293,1390 1372.5,1319.5 Q1452,1249 1494,1145 Q1536,1041 1536,905 Q1536,783 1510.5,668.5 Q1485,554 1435.5,453.5 Q1386,353 1313,269.5 Q1240,186 1144,126 Q1048,66 929.5,33 Q811,0 672,0 L-49,0 M584,127 Q728,127 841,185.5 Q954,244 1032,349.5 Q1110,455 1151,601 Q1192,747 1192,922 Q1192,1029 1167,1107.5 Q1142,1186 1095.5,1237 Q1049,1288 982.5,1312.5 Q916,1337 834,1337 L748,1337 L492,127"/> 
            <glyph glyph-name="E" unicode="&#x45;" horiz-adv-x="1372" d=" M-25,109 L2,109 Q34,109 64.5,113 Q95,117 120,130 Q145,143 163.5,167 Q182,191 190,231 L403,1237 Q407,1248 409.5,1262 Q412,1276 412,1284 Q412,1306 401,1320 Q390,1334 370.5,1341.5 Q351,1349 323.5,1351.5 Q296,1354 264,1354 L238,1354 L260,1462 L1372,1462 L1300,1081 L1155,1081 Q1156,1088 1157.5,1106 Q1159,1124 1160.5,1143.5 Q1162,1163 1163.5,1179.5 Q1165,1196 1165,1200 Q1165,1228 1157,1253 Q1149,1278 1132,1297 Q1115,1316 1087.5,1326.5 Q1060,1337 1020,1337 L748,1337 L639,825 L1104,825 L1077,702 L612,702 L489,125 L813,125 Q861,125 899,138.5 Q937,152 965,175 Q993,198 1012.5,228.5 Q1032,259 1044,293 L1077,381 L1223,381 L1128,0 L-47,0"/> 
            <glyph glyph-name="F" unicode="&#x46;" horiz-adv-x="1386" d=" M514,242 Q509,219 506.5,202.5 Q504,186 504,178 Q504,156 515,142.5 Q526,129 546,121.5 Q566,114 593.5,111.5 Q621,109 653,109 L680,109 L657,0 L-47,0 L-25,109 L2,109 Q34,109 64.5,113 Q95,117 120,130 Q145,143 163.5,167 Q182,191 190,231 L399,1214 Q412,1267 412,1284 Q412,1306 401,1320 Q390,1334 370.5,1341.5 Q351,1349 323.5,1351.5 Q296,1354 264,1354 L238,1354 L260,1462 L1386,1462 L1315,1081 L1169,1081 Q1171,1098 1173,1117 Q1175,1136 1176.5,1153.5 Q1178,1171 1179,1183.5 Q1180,1196 1180,1200 Q1180,1229 1172,1254 Q1164,1279 1146,1297.5 Q1128,1316 1098.5,1326.5 Q1069,1337 1026,1337 L748,1337 L629,778 L1114,778 L1090,657 L604,657"/> 
            <glyph glyph-name="G" unicode="&#x47;" horiz-adv-x="1567" d=" M1544,590 L1542,590 Q1508,590 1476.5,585.5 Q1445,581 1419.5,568 Q1394,555 1375,530 Q1356,505 1348,465 L1270,74 Q1208,50 1148.5,32.5 Q1089,15 1027.5,3 Q966,-9 901,-14.5 Q836,-20 764,-20 Q606,-20 487.5,18 Q369,56 289,127 Q209,198 169,299.5 Q129,401 129,528 Q129,660 160,782.5 Q191,905 249,1011 Q307,1117 391,1204 Q475,1291 580,1353 Q685,1415 810.5,1449 Q936,1483 1077,1483 Q1195,1483 1282,1462 Q1369,1441 1427,1407 Q1485,1373 1513.5,1329 Q1542,1285 1542,1239 Q1542,1199 1518.5,1164.5 Q1495,1130 1455,1104.5 Q1415,1079 1360.5,1064 Q1306,1049 1245,1049 Q1245,1113 1231.5,1168.5 Q1218,1224 1189.5,1265 Q1161,1306 1117.5,1329 Q1074,1352 1014,1352 Q936,1352 865,1320 Q794,1288 733,1231 Q672,1174 622.5,1095 Q573,1016 538,922 Q503,828 484,721.5 Q465,615 465,504 Q465,418 482,347.5 Q499,277 536.5,226 Q574,175 632.5,147 Q691,119 774,119 Q821,119 870,127 Q919,135 956,147 L1024,451 Q1036,505 1036,520 Q1036,542 1025,556 Q1014,570 994.5,577.5 Q975,585 948,587.5 Q921,590 889,590 L862,590 L885,698 L1567,698"/> 
            <glyph glyph-name="H" unicode="&#x48;" horiz-adv-x="1823" d=" M807,0 L829,109 L856,109 Q889,109 920,113 Q951,117 977,130.5 Q1003,144 1021.5,168 Q1040,192 1049,233 L1147,700 L612,700 L512,225 Q509,214 506.5,200 Q504,186 504,178 Q504,156 515,142.5 Q526,129 546,121.5 Q566,114 593.5,111.5 Q621,109 653,109 L680,109 L657,0 L-47,0 L-25,109 L2,109 Q34,109 64.5,113 Q95,117 120,130 Q145,143 163.5,167 Q182,191 190,231 L399,1214 Q412,1267 412,1284 Q412,1306 401,1320 Q390,1334 370.5,1341.5 Q351,1349 323.5,1351.5 Q296,1354 264,1354 L238,1354 L260,1462 L967,1462 L944,1354 L918,1354 Q884,1354 852.5,1349.5 Q821,1345 795,1332 Q769,1319 750,1294 Q731,1269 723,1229 L639,825 L1174,825 L1260,1223 Q1265,1244 1267.5,1260 Q1270,1276 1270,1284 Q1270,1306 1258.5,1320 Q1247,1334 1227,1341.5 Q1207,1349 1179.5,1351.5 Q1152,1354 1120,1354 L1094,1354 L1116,1462 L1823,1462 L1800,1354 L1774,1354 Q1741,1354 1710,1349.5 Q1679,1345 1653,1332 Q1627,1319 1608.5,1294 Q1590,1269 1581,1229 L1370,225 Q1367,214 1364.5,200 Q1362,186 1362,178 Q1362,156 1373,142.5 Q1384,129 1403.5,121.5 Q1423,114 1450,111.5 Q1477,109 1509,109 L1536,109 L1513,0"/> 
            <glyph glyph-name="I" unicode="&#x49;" horiz-adv-x="967" d=" M-47,0 L-25,109 L2,109 Q34,109 64.5,113 Q95,117 120,130 Q145,143 163.5,167 Q182,191 190,231 L403,1237 Q407,1248 409.5,1262 Q412,1276 412,1284 Q412,1306 401,1320 Q390,1334 370.5,1341.5 Q351,1349 323.5,1351.5 Q296,1354 264,1354 L238,1354 L260,1462 L967,1462 L944,1354 L918,1354 Q884,1354 852.5,1349.5 Q821,1345 795,1332 Q769,1319 750,1294 Q731,1269 723,1229 L512,225 Q510,214 507,200 Q504,186 504,178 Q504,156 515,142.5 Q526,129 546,121.5 Q566,114 593.5,111.5 Q621,109 653,109 L680,109 L657,0"/> 
            <glyph glyph-name="J" unicode="&#x4A;" horiz-adv-x="967" d=" M463,-6 Q437,-131 376,-222.5 Q315,-314 232,-374 Q149,-434 49,-463 Q-51,-492 -156,-492 Q-211,-492 -248.5,-486 Q-286,-480 -324,-469 L-295,-356 Q-282,-361 -265.5,-364.5 Q-249,-368 -231,-370.5 Q-213,-373 -195,-374 Q-177,-375 -162,-375 Q-109,-375 -63.5,-356 Q-18,-337 19.5,-293.5 Q57,-250 87,-179.5 Q117,-109 139,-6 L403,1237 Q407,1248 409.5,1262 Q412,1276 412,1284 Q412,1306 401,1320 Q390,1334 370.5,1341.5 Q351,1349 323.5,1351.5 Q296,1354 264,1354 L238,1354 L260,1462 L967,1462 L944,1354 L918,1354 Q884,1354 852.5,1349.5 Q821,1345 795,1332 Q769,1319 750,1294 Q731,1269 723,1229"/> 
            <glyph glyph-name="K" unicode="&#x4B;" horiz-adv-x="1659" d=" M1036,1110 Q1078,1147 1104.5,1176.5 Q1131,1206 1146.5,1229.5 Q1162,1253 1168,1271 Q1174,1289 1174,1303 Q1174,1329 1154,1342.5 Q1134,1356 1083,1356 L1106,1462 L1659,1462 L1636,1356 Q1595,1356 1557,1346 Q1519,1336 1480,1315 Q1441,1294 1398.5,1262 Q1356,1230 1307,1186 L975,893 L1214,317 Q1239,260 1259.5,220 Q1280,180 1301.5,155.5 Q1323,131 1348.5,120 Q1374,109 1409,109 L1415,109 L1395,0 L1288,0 Q1186,0 1118.5,12.5 Q1051,25 1004.5,57 Q958,89 925.5,143.5 Q893,198 860,283 L709,674 L588,588 L512,225 Q510,214 507,200 Q504,186 504,178 Q504,156 515,142.5 Q526,129 546,121.5 Q566,114 593.5,111.5 Q621,109 653,109 L680,109 L657,0 L-47,0 L-25,109 L2,109 Q34,109 64.5,113 Q95,117 120,130 Q145,143 163.5,167 Q182,191 190,231 L399,1214 Q412,1267 412,1284 Q412,1306 401,1320 Q390,1334 370.5,1341.5 Q351,1349 323.5,1351.5 Q296,1354 264,1354 L238,1354 L260,1462 L967,1462 L944,1354 L918,1354 Q884,1354 852.5,1349.5 Q821,1345 795,1332 Q769,1319 750,1294 Q731,1269 723,1229 L621,743"/> 
            <glyph glyph-name="L" unicode="&#x4C;" horiz-adv-x="1266" d=" M834,125 Q890,125 931,139 Q972,153 1002.5,180.5 Q1033,208 1056,250 Q1079,292 1098,348 L1135,457 L1266,457 L1153,0 L-47,0 L-25,109 L2,109 Q34,109 64.5,113 Q95,117 120,130 Q145,143 163.5,167 Q182,191 190,231 L399,1214 Q412,1267 412,1284 Q412,1306 401,1320 Q390,1334 370.5,1341.5 Q351,1349 323.5,1351.5 Q296,1354 264,1354 L238,1354 L260,1462 L967,1462 L944,1354 L918,1354 Q884,1354 852.5,1349.5 Q821,1345 795,1332 Q769,1319 750,1294 Q731,1269 723,1229 L492,125"/> 
            <glyph glyph-name="M" unicode="&#x4D;" horiz-adv-x="2097" d=" M2097,1462 L2075,1354 L2048,1354 Q2015,1354 1984,1349.5 Q1953,1345 1927,1332 Q1901,1319 1882.5,1294 Q1864,1269 1855,1229 L1645,225 Q1641,214 1638.5,200 Q1636,186 1636,178 Q1636,156 1647,142.5 Q1658,129 1677.5,121.5 Q1697,114 1724.5,111.5 Q1752,109 1784,109 L1810,109 L1788,0 L1090,0 L1112,109 L1139,109 Q1172,109 1203,113 Q1234,117 1259.5,130.5 Q1285,144 1304,168 Q1323,192 1331,233 L1548,1260 L870,0 L729,0 L563,1260 L346,242 Q341,219 338.5,202.5 Q336,186 336,178 Q336,156 347,142.5 Q358,129 378,121.5 Q398,114 425.5,111.5 Q453,109 485,109 L492,109 L469,0 L-47,0 L-25,109 L2,109 Q34,109 64.5,113 Q95,117 120,130 Q145,143 163.5,167 Q182,191 190,231 L399,1214 Q412,1267 412,1284 Q412,1306 401,1320 Q390,1334 370.5,1341.5 Q351,1349 323.5,1351.5 Q296,1354 264,1354 L238,1354 L260,1462 L831,1462 L969,467 L1505,1462"/> 
            <glyph glyph-name="N" unicode="&#x4E;" horiz-adv-x="1780" d=" M1094,0 L539,1159 L346,242 Q341,219 338.5,202.5 Q336,186 336,178 Q336,156 347,142.5 Q358,129 378,121.5 Q398,114 425.5,111.5 Q453,109 485,109 L492,109 L469,0 L-47,0 L-25,109 L2,109 Q34,109 64.5,113 Q95,117 120,130 Q145,143 163.5,167 Q182,191 190,231 L399,1214 Q412,1267 412,1284 Q412,1306 401,1320 Q390,1334 370.5,1341.5 Q351,1349 323.5,1351.5 Q296,1354 264,1354 L238,1354 L260,1462 L715,1462 L1214,412 L1386,1221 Q1397,1268 1397,1284 Q1397,1306 1385.5,1320 Q1374,1334 1354,1341.5 Q1334,1349 1306.5,1351.5 Q1279,1354 1247,1354 L1241,1354 L1264,1462 L1780,1462 L1757,1354 L1731,1354 Q1699,1354 1668.5,1349.5 Q1638,1345 1613,1332 Q1588,1319 1569.5,1295 Q1551,1271 1542,1231 L1282,0"/> 
            <glyph glyph-name="O" unicode="&#x4F;" horiz-adv-x="1567" d=" M129,545 Q129,643 153.5,751 Q178,859 227,963.5 Q276,1068 349,1162.5 Q422,1257 518.5,1328.5 Q615,1400 736,1442.5 Q857,1485 1001,1485 Q1114,1485 1216.5,1452 Q1319,1419 1397,1350 Q1475,1281 1521,1175 Q1567,1069 1567,922 Q1567,828 1543.5,721 Q1520,614 1472.5,509 Q1425,404 1353.5,308 Q1282,212 1185.5,138.5 Q1089,65 967.5,21 Q846,-23 700,-23 Q579,-23 474.5,13.5 Q370,50 293.5,122 Q217,194 173,300 Q129,406 129,545 M463,496 Q463,395 484.5,322.5 Q506,250 543.5,203.5 Q581,157 632,135 Q683,113 741,113 Q826,113 895.5,154 Q965,195 1020,263.5 Q1075,332 1115.5,420.5 Q1156,509 1182.5,604 Q1209,699 1222,793.5 Q1235,888 1235,969 Q1235,1069 1214,1141 Q1193,1213 1156.5,1260 Q1120,1307 1069,1329.5 Q1018,1352 958,1352 Q873,1352 803.5,1311 Q734,1270 679,1201.5 Q624,1133 583,1044.5 Q542,956 515.5,860.5 Q489,765 476,670.5 Q463,576 463,496"/> 
            <glyph glyph-name="P" unicode="&#x50;" horiz-adv-x="1368" d=" M610,678 L696,678 Q789,678 853.5,706 Q918,734 958,784.5 Q998,835 1016,904.5 Q1034,974 1034,1057 Q1034,1134 1016.5,1188 Q999,1242 968,1276 Q937,1310 893.5,1325.5 Q850,1341 799,1341 L754,1341 M512,225 Q509,214 506.5,200 Q504,186 504,178 Q504,156 515,142.5 Q526,129 546,121.5 Q566,114 593.5,111.5 Q621,109 653,109 L721,109 L698,0 L-47,0 L-25,109 L2,109 Q34,109 64.5,113 Q95,117 120,130 Q145,143 163.5,167 Q182,191 190,231 L399,1214 Q412,1267 412,1284 Q412,1306 401,1320 Q390,1334 370.5,1341.5 Q351,1349 323.5,1351.5 Q296,1354 264,1354 L238,1354 L260,1462 L846,1462 Q966,1462 1063,1436.5 Q1160,1411 1227.5,1360.5 Q1295,1310 1331.5,1235.5 Q1368,1161 1368,1063 Q1368,1011 1358,953 Q1348,895 1322.5,839 Q1297,783 1252,732.5 Q1207,682 1137.5,643.5 Q1068,605 970.5,582 Q873,559 741,559 L586,559"/> 
            <glyph glyph-name="Q" unicode="&#x51;" horiz-adv-x="1565" d=" M127,545 Q127,643 151.5,751 Q176,859 225,963.5 Q274,1068 347,1162.5 Q420,1257 516.5,1328.5 Q613,1400 734,1442.5 Q855,1485 999,1485 Q1112,1485 1214.5,1452 Q1317,1419 1395,1350 Q1473,1281 1519,1175 Q1565,1069 1565,922 Q1565,838 1546.5,745 Q1528,652 1491.5,558.5 Q1455,465 1399,376.5 Q1343,288 1268.5,213.5 Q1194,139 1100,83 Q1006,27 893,0 Q896,-113 914,-185.5 Q932,-258 963,-299.5 Q994,-341 1035.5,-357 Q1077,-373 1128,-373 L1161,-373 L1135,-492 L987,-492 Q895,-492 816,-464.5 Q737,-437 678.5,-378.5 Q620,-320 586,-228 Q552,-136 549,-6 Q456,13 378.5,57.5 Q301,102 245,171.5 Q189,241 158,334.5 Q127,428 127,545 M461,496 Q461,395 482.5,322.5 Q504,250 541.5,203.5 Q579,157 630,135 Q681,113 739,113 Q824,113 893.5,154 Q963,195 1018,263.5 Q1073,332 1113.5,420.5 Q1154,509 1180.5,604 Q1207,699 1220,793.5 Q1233,888 1233,969 Q1233,1069 1212,1141 Q1191,1213 1154.5,1260 Q1118,1307 1067,1329.5 Q1016,1352 956,1352 Q871,1352 801.5,1311 Q732,1270 677,1201.5 Q622,1133 581,1044.5 Q540,956 513.5,860.5 Q487,765 474,670.5 Q461,576 461,496 M700,-23"/> 
            <glyph glyph-name="R" unicode="&#x52;" horiz-adv-x="1405" d=" M621,754 L748,754 Q813,754 869.5,773 Q926,792 967.5,832.5 Q1009,873 1033,937.5 Q1057,1002 1057,1094 Q1057,1163 1045,1210 Q1033,1257 1008,1286.5 Q983,1316 945,1328.5 Q907,1341 856,1341 L752,1341 M918,1462 Q1163,1462 1284,1377 Q1405,1292 1405,1120 Q1405,1016 1371.5,943 Q1338,870 1285.5,820.5 Q1233,771 1168,742 Q1103,713 1040,698 L1182,317 Q1203,259 1223,219 Q1243,179 1265.5,154.5 Q1288,130 1314.5,119.5 Q1341,109 1376,109 L1384,109 L1362,0 L1341,0 Q1234,0 1155.5,9 Q1077,18 1021,43.5 Q965,69 928,114.5 Q891,160 868,233 L739,635 L598,635 L518,260 Q510,223 507,204.5 Q504,186 504,178 Q504,156 515,142.5 Q526,129 546,121.5 Q566,114 593.5,111.5 Q621,109 653,109 L721,109 L698,0 L-47,0 L-25,109 L2,109 Q34,109 64.5,113 Q95,117 120,130 Q145,143 163.5,167 Q182,191 190,231 L399,1214 Q412,1267 412,1284 Q412,1306 401,1320 Q390,1334 370.5,1341.5 Q351,1349 323.5,1351.5 Q296,1354 264,1354 L238,1354 L260,1462"/> 
            <glyph glyph-name="S" unicode="&#x53;" horiz-adv-x="1219" d=" M535,-20 Q408,-20 313,3 Q218,26 155,66 Q92,106 60.5,160.5 Q29,215 29,279 Q29,327 48.5,363 Q68,399 103.5,423 Q139,447 187.5,459 Q236,471 295,471 Q295,377 315,308 Q335,239 371,193.5 Q407,148 457,126 Q507,104 567,104 Q625,104 670,120.5 Q715,137 746.5,165.5 Q778,194 794.5,232.5 Q811,271 811,315 Q811,358 800.5,394 Q790,430 762,464 Q734,498 685,533 Q636,568 559,610 Q479,654 418.5,700.5 Q358,747 317.5,801 Q277,855 256.5,919.5 Q236,984 236,1065 Q236,1157 273,1234 Q310,1311 379,1366.5 Q448,1422 546,1452.5 Q644,1483 766,1483 Q880,1483 965,1465 Q1050,1447 1106.5,1416 Q1163,1385 1191,1343 Q1219,1301 1219,1253 Q1219,1170 1156,1122.5 Q1093,1075 950,1075 Q950,1121 941,1171 Q932,1221 909,1262.5 Q886,1304 847,1331 Q808,1358 748,1358 Q707,1358 666.5,1345 Q626,1332 594,1306 Q562,1280 542,1240.5 Q522,1201 522,1147 Q522,1093 539,1055 Q556,1017 590,984.5 Q624,952 675,921.5 Q726,891 795,854 Q950,770 1024,668.5 Q1098,567 1098,436 Q1098,327 1058.5,242 Q1019,157 945.5,99 Q872,41 768,10.5 Q664,-20 535,-20"/> 
            <glyph glyph-name="T" unicode="&#x54;" horiz-adv-x="1507" d=" M213,0 L236,109 L262,109 Q294,109 324.5,113 Q355,117 380,130 Q405,143 423.5,167 Q442,191 451,231 L682,1337 L518,1337 Q470,1337 436.5,1325 Q403,1313 378.5,1289.5 Q354,1266 337,1232 Q320,1198 305,1153 L276,1065 L139,1065 L233,1462 L1507,1462 L1436,1065 L1298,1065 Q1299,1072 1301.5,1096.5 Q1304,1121 1307,1149 Q1310,1177 1312.5,1200.5 Q1315,1224 1315,1229 Q1315,1283 1282.5,1310 Q1250,1337 1171,1337 L1008,1337 L772,225 Q770,214 767,200 Q764,186 764,178 Q764,156 775,142.5 Q786,129 806,121.5 Q826,114 853.5,111.5 Q881,109 913,109 L940,109 L918,0"/> 
            <glyph glyph-name="U" unicode="&#x55;" horiz-adv-x="1700" d=" M772,125 Q865,125 929,152 Q993,179 1036,226.5 Q1079,274 1105,339.5 Q1131,405 1147,483 L1305,1223 Q1308,1240 1310.5,1258 Q1313,1276 1313,1284 Q1313,1306 1302,1320 Q1291,1334 1271.5,1341.5 Q1252,1349 1224.5,1351.5 Q1197,1354 1165,1354 L1139,1354 L1161,1462 L1700,1462 L1677,1354 L1651,1354 Q1618,1354 1587,1349.5 Q1556,1345 1530,1332 Q1504,1319 1485.5,1294 Q1467,1269 1458,1229 L1294,451 Q1270,336 1222.5,248 Q1175,160 1101.5,100.5 Q1028,41 928,10.5 Q828,-20 698,-20 Q578,-20 486,3.5 Q394,27 331,72.5 Q268,118 235.5,184 Q203,250 203,334 Q203,350 205,374 Q207,398 210,423.5 Q213,449 217,473.5 Q221,498 225,516 L375,1214 Q387,1269 387,1284 Q387,1306 376,1320 Q365,1334 345.5,1341.5 Q326,1349 299,1351.5 Q272,1354 240,1354 L213,1354 L236,1462 L944,1462 L922,1354 L895,1354 Q861,1354 829.5,1349.5 Q798,1345 772,1332.5 Q746,1320 727.5,1296 Q709,1272 700,1233 L545,512 Q541,494 536.5,472 Q532,450 528.5,426.5 Q525,403 522.5,379 Q520,355 520,334 Q520,231 584,178 Q648,125 772,125"/> 
            <glyph glyph-name="V" unicode="&#x56;" horiz-adv-x="1634" d=" M659,1272 Q659,1255 660.5,1235.5 Q662,1216 664,1202 L729,662 Q733,626 736.5,578.5 Q740,531 741.5,482.5 Q743,434 744,390.5 Q745,347 745,319 Q757,347 770.5,378 Q784,409 796.5,438 Q809,467 820,492 Q831,517 840,532 L1208,1194 Q1228,1229 1236.5,1255 Q1245,1281 1245,1303 Q1245,1333 1215,1343.5 Q1185,1354 1126,1354 L1079,1354 L1100,1462 L1634,1462 L1612,1354 L1563,1354 Q1533,1354 1511.5,1349 Q1490,1344 1471,1329.5 Q1452,1315 1433,1288 Q1414,1261 1389,1217 L707,0 L502,0 L330,1255 Q325,1286 313.5,1305.5 Q302,1325 285.5,1336 Q269,1347 247.5,1350.5 Q226,1354 201,1354 L174,1354 L197,1462 L872,1462 L850,1354 L803,1354 Q737,1354 698,1337.5 Q659,1321 659,1272"/> 
            <glyph glyph-name="W" unicode="&#x57;" horiz-adv-x="2390" d=" M2367,1354 L2318,1354 Q2288,1354 2265,1348 Q2242,1342 2222.5,1325.5 Q2203,1309 2183.5,1279.5 Q2164,1250 2142,1204 L1569,0 L1335,0 L1194,977 L696,0 L442,0 L332,1255 Q329,1286 318,1305.5 Q307,1325 289.5,1336 Q272,1347 250,1350.5 Q228,1354 203,1354 L176,1354 L199,1462 L868,1462 L846,1354 L799,1354 Q733,1354 694,1337.5 Q655,1321 655,1272 Q655,1255 656,1233 Q657,1211 659,1182 L698,672 Q701,645 704,600.5 Q707,556 709.5,507 Q712,458 713.5,410.5 Q715,363 715,330 Q736,390 764,450.5 Q792,511 823,571 L1280,1448 L1430,1448 L1546,666 Q1560,569 1570.5,480.5 Q1581,392 1581,326 Q1593,360 1610,405 Q1627,450 1647.5,500.5 Q1668,551 1691,603 Q1714,655 1737,705 L1964,1194 Q1978,1223 1986.5,1252 Q1995,1281 1995,1303 Q1995,1333 1968,1343.5 Q1941,1354 1882,1354 L1835,1354 L1855,1462 L2390,1462"/> 
            <glyph glyph-name="X" unicode="&#x58;" horiz-adv-x="1632" d=" M1610,1354 L1591,1354 Q1561,1354 1536,1347 Q1511,1340 1484.5,1323 Q1458,1306 1428.5,1278 Q1399,1250 1360,1208 L975,803 L1227,217 Q1255,154 1292.5,131.5 Q1330,109 1368,109 L1395,109 L1372,0 L696,0 L719,109 L750,109 Q811,109 838.5,127.5 Q866,146 866,180 Q866,209 856,244.5 Q846,280 827,322 L702,604 L416,307 Q379,269 356.5,234 Q334,199 334,170 Q334,155 339,144 Q344,133 356.5,125 Q369,117 390.5,113 Q412,109 446,109 L453,109 L430,0 L-86,0 L-63,109 L-43,109 Q-12,109 14.5,116.5 Q41,124 68.5,141 Q96,158 127.5,186 Q159,214 199,256 L651,723 L422,1249 Q407,1283 391.5,1304 Q376,1325 357,1336 Q338,1347 314.5,1350.5 Q291,1354 262,1354 L244,1354 L266,1462 L944,1462 L922,1354 L874,1354 Q823,1354 800.5,1339 Q778,1324 778,1296 Q778,1276 787.5,1246.5 Q797,1217 815,1174 L924,920 L1165,1178 Q1193,1207 1215,1241 Q1237,1275 1237,1303 Q1237,1329 1212,1341.5 Q1187,1354 1139,1354 L1133,1354 L1155,1462 L1632,1462"/> 
            <glyph glyph-name="Y" unicode="&#x59;" horiz-adv-x="1620" d=" M227,0 L250,109 L305,109 Q337,109 367,113.5 Q397,118 422,131.5 Q447,145 465,169 Q483,193 492,233 L551,518 L330,1245 Q321,1275 311.5,1296 Q302,1317 289,1329.5 Q276,1342 256.5,1348 Q237,1354 207,1354 L180,1354 L203,1462 L868,1462 L846,1354 L754,1354 Q707,1354 687.5,1338 Q668,1322 668,1294 Q668,1276 674,1242 Q680,1208 692,1161 L766,872 Q773,842 781,808 Q789,774 795.5,740 Q802,706 806.5,673.5 Q811,641 813,616 Q832,657 871,720 Q910,783 963,858 L1165,1147 Q1190,1182 1208.5,1223 Q1227,1264 1227,1298 Q1227,1326 1198.5,1340 Q1170,1354 1102,1354 L1059,1354 L1083,1462 L1620,1462 L1597,1354 L1559,1354 Q1536,1354 1516.5,1348 Q1497,1342 1477,1326.5 Q1457,1311 1434.5,1285.5 Q1412,1260 1384,1221 L877,516 L815,225 Q813,214 810,200 Q807,186 807,178 Q807,156 818,142.5 Q829,129 849,121.5 Q869,114 896.5,111.5 Q924,109 956,109 L1006,109 L983,0"/> 
            <glyph glyph-name="Z" unicode="&#x5A;" horiz-adv-x="1444" d=" M1423,1358 L412,125 L834,125 Q880,125 921,137 Q962,149 996,175 Q1030,201 1057,243.5 Q1084,286 1102,348 L1124,422 L1272,422 L1174,0 L-4,0 L14,102 L1024,1337 L668,1337 Q575,1337 518.5,1295 Q462,1253 436,1159 L401,1040 L254,1040 L354,1462 L1444,1462"/> 
            <glyph glyph-name="[" unicode="&#x5B;" horiz-adv-x="997" d=" M43,-262 L430,1556 L997,1556 L975,1448 L887,1448 Q853,1448 821.5,1443 Q790,1438 763,1422.5 Q736,1407 716,1378 Q696,1349 686,1300 L410,-6 Q407,-22 405,-34 Q403,-46 403,-57 Q403,-89 414,-108 Q425,-127 444.5,-137 Q464,-147 490,-150.5 Q516,-154 545,-154 L633,-154 L610,-262"/> 
            <glyph glyph-name="\" unicode="&#x5C;" horiz-adv-x="475" d=" M221,1556 L365,1556 L475,-248 L332,-248"/> 
            <glyph glyph-name="]" unicode="&#x5D;" horiz-adv-x="844" d=" M844,1556 L457,-262 L-109,-262 L-86,-154 L2,-154 Q36,-154 67.5,-149 Q99,-144 125,-128.5 Q151,-113 171,-83.5 Q191,-54 201,-6 L477,1300 Q483,1331 483,1352 Q483,1383 472,1402 Q461,1421 442,1431.5 Q423,1442 397,1445 Q371,1448 342,1448 L254,1448 L276,1556"/> 
            <glyph glyph-name="^" unicode="&#x5E;" horiz-adv-x="1092" d=" M569,1462 L657,1462 L1092,537 L932,537 L612,1239 L297,537 L137,537"/> 
            <glyph glyph-name="_" unicode="&#x5F;" horiz-adv-x="799" d=" M772,-291 L-186,-291 L-160,-170 L799,-170"/> 
            <glyph glyph-name="`" unicode="&#x60;" horiz-adv-x="958" d=" M831,1241 Q787,1267 737.5,1307 Q688,1347 642,1390.5 Q596,1434 557.5,1476 Q519,1518 498,1548 L504,1569 L805,1569 Q817,1532 836.5,1489 Q856,1446 877,1405 Q898,1364 919.5,1328 Q941,1292 958,1268 L952,1241"/> 
            <glyph glyph-name="a" unicode="&#x61;" horiz-adv-x="1292" d=" M969,-20 Q878,-20 823,21.5 Q768,63 768,143 Q768,175 771,205.5 Q774,236 782,276 L768,276 Q730,205 692.5,149.5 Q655,94 609,56.5 Q563,19 506.5,-0.5 Q450,-20 375,-20 Q302,-20 247,8.5 Q192,37 155.5,87 Q119,137 100.5,205.5 Q82,274 82,354 Q82,434 100.5,521.5 Q119,609 156,694 Q193,779 247.5,856 Q302,933 373.5,991 Q445,1049 533,1083.5 Q621,1118 725,1118 Q765,1118 806.5,1111.5 Q848,1105 886,1095 Q924,1085 957.5,1072.5 Q991,1060 1014,1047 L1122,1096 L1231,1096 L1096,457 Q1092,440 1086,412 Q1080,384 1074.5,352.5 Q1069,321 1065,291.5 Q1061,262 1061,242 Q1061,191 1081,166 Q1101,141 1133,141 Q1162,141 1188.5,153.5 Q1215,166 1247,184 L1292,102 Q1266,82 1233,60.5 Q1200,39 1159.5,21 Q1119,3 1071.5,-8.5 Q1024,-20 969,-20 M393,352 Q393,293 401.5,253 Q410,213 424.5,188.5 Q439,164 459.5,153.5 Q480,143 504,143 Q549,143 597,182 Q645,221 687,284.5 Q729,348 762.5,428 Q796,508 813,590 L885,930 Q865,959 829.5,973 Q794,987 754,987 Q694,987 644.5,956 Q595,925 555,873 Q515,821 484.5,755 Q454,689 433.5,618 Q413,547 403,478 Q393,409 393,352"/> 
            <glyph glyph-name="b" unicode="&#x62;" horiz-adv-x="1194" d=" M315,1274 Q318,1287 321,1301 Q324,1315 326,1327.5 Q328,1340 329,1349 Q330,1358 330,1362 Q330,1390 324,1407 Q318,1424 305,1433 Q292,1442 271,1445 Q250,1448 221,1448 L174,1448 L193,1556 L690,1556 L608,1167 Q604,1148 595.5,1119 Q587,1090 576.5,1056 Q566,1022 553.5,986.5 Q541,951 530,919 Q519,887 510,861 Q501,835 496,821 L506,821 Q543,896 583,951.5 Q623,1007 670,1044 Q717,1081 772,1099.5 Q827,1118 895,1118 Q960,1118 1015,1094 Q1070,1070 1109.5,1023.5 Q1149,977 1171.5,907.5 Q1194,838 1194,748 Q1194,665 1174,576 Q1154,487 1115,401.5 Q1076,316 1019.5,239.5 Q963,163 889.5,105.5 Q816,48 727,14 Q638,-20 535,-20 Q493,-20 454,-14 Q415,-8 381.5,2 Q348,12 320.5,25 Q293,38 274,53 L158,-6 L43,-6 M883,733 Q883,794 874.5,836 Q866,878 851,904 Q836,930 816,942 Q796,954 774,954 Q736,954 701,931.5 Q666,909 634.5,873 Q603,837 576.5,792.5 Q550,748 529.5,703.5 Q509,659 495,619.5 Q481,580 475,555 L391,168 Q413,143 447,127 Q481,111 524,111 Q584,111 634,142.5 Q684,174 724,225.5 Q764,277 793.5,343 Q823,409 843,478 Q863,547 873,613.5 Q883,680 883,733"/> 
            <glyph glyph-name="c" unicode="&#x63;" horiz-adv-x="1081" d=" M621,135 Q675,135 718.5,149.5 Q762,164 797,188 Q832,212 859,242 Q886,272 907,303 Q920,291 929,267.5 Q938,244 938,213 Q938,173 914.5,131.5 Q891,90 841.5,56.5 Q792,23 716,1.5 Q640,-20 535,-20 Q442,-20 359.5,6 Q277,32 215.5,85 Q154,138 118,217 Q82,296 82,403 Q82,479 101,561.5 Q120,644 158,723.5 Q196,803 252.5,874.5 Q309,946 384,1000 Q459,1054 552,1086 Q645,1118 756,1118 Q841,1118 902.5,1100.5 Q964,1083 1003.5,1053.5 Q1043,1024 1062,984.5 Q1081,945 1081,901 Q1081,869 1067.5,838.5 Q1054,808 1024,783.5 Q994,759 946.5,744 Q899,729 831,729 Q831,783 821.5,831.5 Q812,880 793,916.5 Q774,953 746.5,974 Q719,995 682,995 Q638,995 599.5,965.5 Q561,936 529,887.5 Q497,839 472.5,776.5 Q448,714 430.5,647.5 Q413,581 404,516.5 Q395,452 395,399 Q395,274 452,204.5 Q509,135 621,135"/> 
            <glyph glyph-name="d" unicode="&#x64;" horiz-adv-x="1329" d=" M393,352 Q393,294 401.5,254 Q410,214 424.5,189.5 Q439,165 459.5,154 Q480,143 504,143 Q549,143 596.5,182 Q644,221 686,284 Q728,347 761.5,427 Q795,507 813,590 L885,930 Q863,958 825,972.5 Q787,987 750,987 Q692,987 643,955.5 Q594,924 554.5,872.5 Q515,821 484.5,754.5 Q454,688 434,617.5 Q414,547 403.5,477.5 Q393,408 393,352 M1092,440 Q1089,425 1083.5,397.5 Q1078,370 1073,340 Q1068,310 1064.5,281 Q1061,252 1061,233 Q1061,185 1083,163 Q1105,141 1133,141 Q1159,141 1190.5,155 Q1222,169 1247,184 L1292,104 Q1265,82 1231,60 Q1197,38 1156.5,20 Q1116,2 1069,-9 Q1022,-20 969,-20 Q924,-20 887,-9.5 Q850,1 823.5,21 Q797,41 782.5,71.5 Q768,102 768,143 Q768,162 769,177 Q770,192 771.5,206.5 Q773,221 775.5,237.5 Q778,254 782,276 L770,276 Q732,197 690,141 Q648,85 600.5,49 Q553,13 498.5,-3.5 Q444,-20 381,-20 Q302,-20 245.5,10 Q189,40 152.5,91 Q116,142 99,210 Q82,278 82,354 Q82,434 100.5,521.5 Q119,609 155.5,694 Q192,779 245.5,856 Q299,933 369,991 Q439,1049 524.5,1083.5 Q610,1118 711,1118 Q771,1118 823,1105 Q875,1092 915,1069 Q918,1082 921,1099.5 Q924,1117 927.5,1134.5 Q931,1152 934.5,1167.5 Q938,1183 940,1192 L958,1274 Q961,1287 964,1301 Q967,1315 969,1327.5 Q971,1340 972,1349 Q973,1358 973,1362 Q973,1390 967,1407 Q961,1424 948,1433 Q935,1442 914,1445 Q893,1448 864,1448 L817,1448 L836,1556 L1329,1556"/> 
            <glyph glyph-name="e" unicode="&#x65;" horiz-adv-x="1085" d=" M618,135 Q668,135 713,149.5 Q758,164 796.5,187.5 Q835,211 865.5,240.5 Q896,270 918,301 Q930,286 937,262.5 Q944,239 944,213 Q944,176 920,135 Q896,94 846.5,59.5 Q797,25 720.5,2.5 Q644,-20 539,-20 Q445,-20 362,6 Q279,32 216.5,84.5 Q154,137 118,216.5 Q82,296 82,403 Q82,479 102,562 Q122,645 161.5,724.5 Q201,804 259.5,875.5 Q318,947 395,1001 Q472,1055 567.5,1086.5 Q663,1118 776,1118 Q923,1118 1004,1054.5 Q1085,991 1085,877 Q1085,794 1039,718 Q993,642 912,584.5 Q831,527 719,493 Q607,459 475,459 Q458,459 438,459 Q418,459 399,461 Q396,441 395.5,420.5 Q395,400 395,383 Q395,264 450.5,199.5 Q506,135 618,135 M690,995 Q640,995 595,957.5 Q550,920 514,860 Q478,800 452,725.5 Q426,651 414,578 L432,578 Q508,578 573.5,598 Q639,618 687.5,655.5 Q736,693 763.5,745 Q791,797 791,862 Q791,925 764.5,960 Q738,995 690,995"/> 
            <glyph glyph-name="f" unicode="&#x66;" horiz-adv-x="1153" d=" M870,958 L610,958 L416,43 Q393,-66 356.5,-148 Q320,-230 274.5,-289.5 Q229,-349 176,-388 Q123,-427 67,-450 Q11,-473 -47,-482.5 Q-105,-492 -160,-492 Q-175,-492 -193,-490.5 Q-211,-489 -228,-486.5 Q-245,-484 -260,-481 Q-275,-478 -285,-475 L-260,-356 Q-243,-361 -216,-366 Q-189,-371 -166,-371 Q-116,-371 -77.5,-354 Q-39,-337 -8.5,-296.5 Q22,-256 46.5,-188 Q71,-120 92,-18 L299,958 L113,958 L133,1055 L330,1098 L346,1174 Q370,1275 410,1350.5 Q450,1426 509,1476.5 Q568,1527 647.5,1552 Q727,1577 831,1577 Q910,1577 970.5,1563 Q1031,1549 1071.5,1525 Q1112,1501 1132.5,1468.5 Q1153,1436 1153,1399 Q1153,1331 1093,1293 Q1033,1255 918,1255 Q918,1294 913.5,1330.5 Q909,1367 898,1395 Q887,1423 869,1439.5 Q851,1456 823,1456 Q758,1456 723.5,1400 Q689,1344 668,1229 L641,1098 L899,1098"/> 
            <glyph glyph-name="g" unicode="&#x67;" horiz-adv-x="1284" d=" M182,674 Q182,745 213.5,823.5 Q245,902 308.5,967.5 Q372,1033 468,1075.5 Q564,1118 694,1118 Q762,1118 821.5,1102.5 Q881,1087 926,1053 Q949,1082 975,1107.5 Q1001,1133 1030,1151.5 Q1059,1170 1092,1181 Q1125,1192 1163,1192 Q1226,1192 1255,1161.5 Q1284,1131 1284,1083 Q1284,1058 1277.5,1032 Q1271,1006 1256,985 Q1241,964 1215.5,951 Q1190,938 1153,938 Q1153,980 1134.5,1003 Q1116,1026 1081,1026 Q1053,1026 1030,1016 Q1007,1006 987,989 Q1009,960 1023.5,916 Q1038,872 1038,825 Q1038,780 1025,730.5 Q1012,681 986,632.5 Q960,584 920,539.5 Q880,495 825,461 Q770,427 700,407 Q630,387 545,387 Q536,387 521.5,387.5 Q507,388 492,388.5 Q477,389 463,390 Q449,391 440,393 Q392,372 360,344.5 Q328,317 328,285 Q328,268 336.5,257 Q345,246 359.5,239.5 Q374,233 394,229 Q414,225 438,223 L668,201 Q818,187 901.5,119.5 Q985,52 985,-78 Q985,-171 942.5,-247.5 Q900,-324 818.5,-378 Q737,-432 618.5,-462 Q500,-492 348,-492 Q223,-492 134.5,-473.5 Q46,-455 -10,-421 Q-66,-387 -92.5,-338.5 Q-119,-290 -119,-231 Q-119,-177 -91.5,-133 Q-64,-89 -18,-56.5 Q28,-24 87,-2 Q146,20 209,31 Q189,41 170,58.5 Q151,76 136.5,98.5 Q122,121 113,146.5 Q104,172 104,199 Q104,231 117,259 Q130,287 157,314 Q184,341 226,368.5 Q268,396 326,428 Q258,460 220,523 Q182,586 182,674 M721,-174 Q721,-116 676.5,-85 Q632,-54 526,-45 L344,-29 Q299,-35 259.5,-52 Q220,-69 190,-94 Q160,-119 142.5,-150.5 Q125,-182 125,-217 Q125,-249 136.5,-276.5 Q148,-304 176.5,-324.5 Q205,-345 254.5,-357 Q304,-369 379,-369 Q469,-369 533.5,-353 Q598,-337 639.5,-310 Q681,-283 701,-247.5 Q721,-212 721,-174 M551,512 Q587,512 617,529 Q647,546 671,574 Q695,602 713,637.5 Q731,673 742.5,711 Q754,749 760,785.5 Q766,822 766,852 Q766,924 737.5,957.5 Q709,991 655,991 Q602,991 562,956 Q522,921 495,869 Q468,817 454,758.5 Q440,700 440,653 Q440,578 469,545 Q498,512 551,512"/> 
            <glyph glyph-name="h" unicode="&#x68;" horiz-adv-x="1311" d=" M754,190 Q754,234 761.5,295 Q769,356 786,434 L821,596 Q826,616 832.5,645 Q839,674 844.5,705.5 Q850,737 854,768.5 Q858,800 858,825 Q858,844 854.5,865 Q851,886 842,903 Q833,920 816,931 Q799,942 772,942 Q737,942 702.5,918.5 Q668,895 636,856.5 Q604,818 575.5,768.5 Q547,719 523.5,667 Q500,615 483,565 Q466,515 457,475 L350,0 L43,0 L313,1274 Q316,1287 319,1301 Q322,1315 324,1327.5 Q326,1340 327,1349 Q328,1358 328,1362 Q328,1390 322,1407 Q316,1424 303,1433 Q290,1442 269,1445 Q248,1448 219,1448 L176,1448 L195,1556 L690,1556 L594,1106 Q586,1075 576.5,1036 Q567,997 558,962 Q547,921 537,879 L549,879 Q588,940 629.5,985 Q671,1030 719,1059.5 Q767,1089 823.5,1103.5 Q880,1118 948,1118 Q1013,1118 1058,1099 Q1103,1080 1130.5,1047.5 Q1158,1015 1170,972.5 Q1182,930 1182,883 Q1182,857 1178,827.5 Q1174,798 1168.5,768 Q1163,738 1156.5,708 Q1150,678 1145,651 L1098,432 Q1085,376 1077,327.5 Q1069,279 1069,236 Q1069,191 1088,167 Q1107,143 1141,143 Q1173,143 1199.5,155 Q1226,167 1262,190 L1311,121 Q1286,95 1255,69.5 Q1224,44 1185.5,24 Q1147,4 1100,-8 Q1053,-20 997,-20 Q880,-20 817,35.5 Q754,91 754,190"/> 
            <glyph glyph-name="i" unicode="&#x69;" horiz-adv-x="692" d=" M621,1098 L479,432 Q467,376 459,327.5 Q451,279 451,236 Q451,191 469.5,167 Q488,143 522,143 Q554,143 581,155 Q608,167 643,190 L692,121 Q668,95 637,69.5 Q606,44 567,24 Q528,4 481.5,-8 Q435,-20 379,-20 Q261,-20 198,35.5 Q135,91 135,190 Q135,234 143,295 Q151,356 168,434 L248,815 Q251,828 253.5,842 Q256,856 258,868.5 Q260,881 261,890 Q262,899 262,903 Q262,931 256,948 Q250,965 237,974 Q224,983 203.5,986 Q183,989 154,989 L117,989 L135,1098 M479,1282 Q445,1282 416,1289.5 Q387,1297 365.5,1313 Q344,1329 331.5,1353 Q319,1377 319,1409 Q319,1454 334.5,1485.5 Q350,1517 376,1537.5 Q402,1558 437,1567.5 Q472,1577 510,1577 Q543,1577 572.5,1570 Q602,1563 624.5,1547 Q647,1531 660.5,1506.5 Q674,1482 674,1448 Q674,1406 657.5,1374.5 Q641,1343 613.5,1322.5 Q586,1302 551,1292 Q516,1282 479,1282"/> 
            <glyph glyph-name="j" unicode="&#x6A;" horiz-adv-x="674" d=" M479,1282 Q445,1282 416,1289.5 Q387,1297 365.5,1313 Q344,1329 331.5,1353 Q319,1377 319,1409 Q319,1454 334.5,1485.5 Q350,1517 376,1537.5 Q402,1558 437,1567.5 Q472,1577 510,1577 Q543,1577 572.5,1570 Q602,1563 624.5,1547 Q647,1531 660.5,1506.5 Q674,1482 674,1448 Q674,1406 657.5,1374.5 Q641,1343 613.5,1322.5 Q586,1302 551,1292 Q516,1282 479,1282 M621,1098 L383,-16 Q355,-153 308,-244.5 Q261,-336 199.5,-391 Q138,-446 66,-469 Q-6,-492 -84,-492 Q-149,-492 -196,-485 Q-243,-478 -287,-467 L-262,-360 Q-247,-365 -219.5,-370 Q-192,-375 -170,-375 Q-122,-375 -86.5,-357.5 Q-51,-340 -23,-298 Q5,-256 27.5,-187 Q50,-118 72,-16 L248,815 Q251,828 253.5,842 Q256,856 258,868.5 Q260,881 261,890 Q262,899 262,903 Q262,931 256,948 Q250,965 237,974 Q224,983 203.5,986 Q183,989 154,989 L117,989 L135,1098"/> 
            <glyph glyph-name="k" unicode="&#x6B;" horiz-adv-x="1300" d=" M438,408 L350,0 L43,0 L313,1274 Q316,1287 319,1301 Q322,1315 324,1327.5 Q326,1340 327,1349 Q328,1358 328,1362 Q328,1390 322,1407 Q316,1424 303,1433 Q290,1442 269,1445 Q248,1448 219,1448 L176,1448 L195,1556 L690,1556 L582,1057 Q564,976 550.5,912.5 Q537,849 523.5,792 Q510,735 495.5,678 Q481,621 463,553 L782,842 Q807,864 822,881 Q837,898 845.5,910.5 Q854,923 857,932.5 Q860,942 860,950 Q860,972 835,983.5 Q810,995 764,995 L784,1098 L1300,1098 L1280,995 Q1209,995 1131,953.5 Q1053,912 954,821 L791,670 L944,336 Q977,264 1008,220 Q1039,176 1066,151 Q1093,126 1116,117.5 Q1139,109 1157,109 L1165,109 L1143,0 L1038,0 Q963,0 904,10.5 Q845,21 800,44.5 Q755,68 723,104.5 Q691,141 670,193 L549,479"/> 
            <glyph glyph-name="l" unicode="&#x6C;" horiz-adv-x="690" d=" M489,143 Q521,143 548,155 Q575,167 610,190 L659,121 Q635,95 604,69.5 Q573,44 534.5,24 Q496,4 449,-8 Q402,-20 346,-20 Q228,-20 165,35.5 Q102,91 102,190 Q102,278 135,434 L313,1274 Q316,1287 319,1301 Q322,1315 324,1327.5 Q326,1340 327,1349 Q328,1358 328,1362 Q328,1390 322,1407 Q316,1424 303,1433 Q290,1442 269,1445 Q248,1448 219,1448 L176,1448 L195,1556 L690,1556 L446,432 Q434,376 426,327.5 Q418,279 418,236 Q418,191 436.5,167 Q455,143 489,143"/> 
            <glyph glyph-name="m" unicode="&#x6D;" horiz-adv-x="1952" d=" M1638,-14 Q1521,-14 1458,42 Q1395,98 1395,197 Q1395,240 1402.5,301 Q1410,362 1427,440 L1462,602 Q1467,622 1473.5,651 Q1480,680 1485.5,711.5 Q1491,743 1495,774.5 Q1499,806 1499,831 Q1499,850 1495.5,871 Q1492,892 1483,909 Q1474,926 1458,937 Q1442,948 1417,948 Q1384,948 1351.5,925 Q1319,902 1288,864.5 Q1257,827 1229.5,778.5 Q1202,730 1179.5,679 Q1157,628 1141,578.5 Q1125,529 1118,489 L1102,403 Q1098,382 1092.5,345.5 Q1087,309 1081,267 Q1075,225 1069,181 Q1063,137 1058.5,99.5 Q1054,62 1051.5,35 Q1049,8 1049,0 L731,0 Q731,12 734.5,42 Q738,72 744,112.5 Q750,153 758,200 Q766,247 774,294 Q782,341 790,383.5 Q798,426 805,457 L836,600 Q840,619 845.5,648 Q851,677 856.5,708.5 Q862,740 866,772 Q870,804 870,829 Q870,848 868,868 Q866,888 859.5,904.5 Q853,921 839.5,931.5 Q826,942 803,942 Q769,942 735.5,921 Q702,900 671,865 Q640,830 612,785 Q584,740 561.5,692.5 Q539,645 522.5,598.5 Q506,552 498,514 L383,0 L76,0 L248,815 Q251,828 253.5,842 Q256,856 258,868.5 Q260,881 261,890 Q262,899 262,903 Q262,931 256,948 Q250,965 237,974 Q224,983 203.5,986 Q183,989 154,989 L117,989 L135,1098 L610,1098 L571,889 L586,889 Q626,951 668.5,994.5 Q711,1038 758,1065.5 Q805,1093 857.5,1105.5 Q910,1118 971,1118 Q1035,1118 1078,1100 Q1121,1082 1147,1051 Q1173,1020 1184.5,980 Q1196,940 1196,895 L1196,879 L1208,879 Q1246,940 1286.5,986 Q1327,1032 1374,1062.5 Q1421,1093 1476,1108.5 Q1531,1124 1597,1124 Q1660,1124 1703,1105 Q1746,1086 1773,1053.5 Q1800,1021 1811.5,978.5 Q1823,936 1823,889 Q1823,863 1819,833.5 Q1815,804 1809.5,774 Q1804,744 1797.5,714 Q1791,684 1786,657 L1739,438 Q1726,383 1718,334 Q1710,285 1710,242 Q1710,197 1729,173.5 Q1748,150 1782,150 Q1814,150 1840.5,162 Q1867,174 1903,197 L1952,127 Q1927,101 1896,75.5 Q1865,50 1826.5,30 Q1788,10 1741,-2 Q1694,-14 1638,-14"/> 
            <glyph glyph-name="n" unicode="&#x6E;" horiz-adv-x="1343" d=" M786,190 Q786,278 819,434 L852,596 Q856,616 862,645 Q868,674 874,705.5 Q880,737 884.5,768.5 Q889,800 889,825 Q889,844 885.5,865 Q882,886 872.5,903 Q863,920 846.5,931 Q830,942 803,942 Q768,942 733.5,918.5 Q699,895 667,856.5 Q635,818 606,768.5 Q577,719 553.5,667 Q530,615 513,565 Q496,515 487,475 L383,0 L76,0 L248,815 Q251,828 253.5,842 Q256,856 258,868.5 Q260,881 261,890 Q262,899 262,903 Q262,931 256,948 Q250,965 237,974 Q224,983 203.5,986 Q183,989 154,989 L117,989 L135,1098 L590,1098 L567,879 L580,879 Q619,940 660.5,985 Q702,1030 750,1059.5 Q798,1089 854.5,1103.5 Q911,1118 979,1118 Q1044,1118 1088.5,1099 Q1133,1080 1160.5,1047.5 Q1188,1015 1200,972.5 Q1212,930 1212,883 Q1212,857 1208.5,827.5 Q1205,798 1199.5,768 Q1194,738 1187.5,708 Q1181,678 1176,651 L1130,432 Q1118,376 1110,327.5 Q1102,279 1102,236 Q1102,191 1120.5,167 Q1139,143 1174,143 Q1206,143 1232.5,155 Q1259,167 1294,190 L1343,121 Q1319,95 1288,69.5 Q1257,44 1218.5,24 Q1180,4 1133,-8 Q1086,-20 1030,-20 Q912,-20 849,35.5 Q786,91 786,190"/> 
            <glyph glyph-name="o" unicode="&#x6F;" horiz-adv-x="1182" d=" M82,410 Q82,487 100,569 Q118,651 154.5,730 Q191,809 246,879.5 Q301,950 375.5,1003 Q450,1056 544.5,1087 Q639,1118 754,1118 Q842,1118 920,1093.5 Q998,1069 1056,1017 Q1114,965 1148,883.5 Q1182,802 1182,688 Q1182,614 1165,533 Q1148,452 1112.5,373.5 Q1077,295 1022.5,223.5 Q968,152 894,98 Q820,44 726,12 Q632,-20 516,-20 Q420,-20 340,6.5 Q260,33 203,86.5 Q146,140 114,221 Q82,302 82,410 M553,127 Q608,127 652.5,158.5 Q697,190 732.5,241.5 Q768,293 794,359 Q820,425 836.5,495 Q853,565 861.5,632.5 Q870,700 870,754 Q870,875 828.5,928 Q787,981 715,981 Q663,981 619,951 Q575,921 539.5,871 Q504,821 477,756.5 Q450,692 431.5,623 Q413,554 404,485.5 Q395,417 395,360 Q395,235 437,181 Q479,127 553,127"/> 
            <glyph glyph-name="p" unicode="&#x70;" horiz-adv-x="1194" d=" M885,733 Q885,775 879.5,814.5 Q874,854 861.5,885 Q849,916 827.5,935 Q806,954 774,954 Q740,954 706.5,934.5 Q673,915 641.5,882 Q610,849 582.5,806 Q555,763 532.5,716.5 Q510,670 493.5,623 Q477,576 469,535 L391,168 Q400,159 415,148.5 Q430,138 449,130 Q468,122 490.5,116.5 Q513,111 537,111 Q592,111 639.5,141 Q687,171 725.5,221 Q764,271 794,335.5 Q824,400 844,469 Q864,538 874.5,606.5 Q885,675 885,733 M-61,-492 L217,815 Q220,828 222.5,842 Q225,856 227,868.5 Q229,881 230,890 Q231,899 231,903 Q231,931 225,948 Q219,965 206,974 Q193,983 172.5,986 Q152,989 123,989 L86,989 L104,1098 L545,1098 L492,825 L506,825 Q541,889 578,943 Q615,997 660,1036 Q705,1075 762,1096.5 Q819,1118 895,1118 Q962,1118 1017.5,1094 Q1073,1070 1112,1023 Q1151,976 1172.5,907 Q1194,838 1194,748 Q1194,674 1176.5,588.5 Q1159,503 1124,417.5 Q1089,332 1036.5,253 Q984,174 913,113.5 Q842,53 753.5,16.5 Q665,-20 559,-20 Q497,-20 443.5,-7.5 Q390,5 350,27 Q349,11 346,-6 Q344,-20 341,-37.5 Q338,-55 334,-72 L305,-209 Q302,-222 299.5,-236 Q297,-250 295,-262.5 Q293,-275 292,-284 Q291,-293 291,-297 Q291,-325 297,-342 Q303,-359 316,-368 Q329,-377 349.5,-380 Q370,-383 399,-383 L477,-383 L459,-492"/> 
            <glyph glyph-name="q" unicode="&#x71;" horiz-adv-x="1235" d=" M393,360 Q393,301 401.5,260 Q410,219 424.5,193 Q439,167 459.5,155 Q480,143 504,143 Q535,143 566.5,161.5 Q598,180 629,212.5 Q660,245 688.5,289 Q717,333 740.5,383 Q764,433 782.5,486.5 Q801,540 811,592 L885,930 Q871,953 836,970 Q801,987 752,987 Q691,987 641,955 Q591,923 551,870.5 Q511,818 481.5,751 Q452,684 432.5,614.5 Q413,545 403,478.5 Q393,412 393,360 M705,-82 Q708,-66 713,-42.5 Q718,-19 724,9 Q730,37 736.5,67.5 Q743,98 749,128 Q764,198 782,276 L770,276 Q735,209 698,154.5 Q661,100 615.5,61 Q570,22 511,1 Q452,-20 373,-20 Q308,-20 254.5,4 Q201,28 163,75 Q125,122 103.5,192 Q82,262 82,354 Q82,434 101.5,521.5 Q121,609 158,694 Q195,779 249.5,856 Q304,933 374,991 Q444,1049 528.5,1083.5 Q613,1118 711,1118 Q756,1118 799,1112 Q842,1106 881,1096.5 Q920,1087 953,1075 Q986,1063 1012,1051 L1133,1118 L1235,1118 L954,-209 Q948,-235 944,-264 Q940,-293 940,-313 Q940,-350 965,-366.5 Q990,-383 1049,-383 L1126,-383 L1108,-492 L623,-492"/> 
            <glyph glyph-name="r" unicode="&#x72;" horiz-adv-x="1141" d=" M262,918 Q262,956 237,972.5 Q212,989 154,989 L117,989 L135,1098 L588,1098 L545,817 L555,817 Q590,891 625.5,947 Q661,1003 703.5,1041 Q746,1079 800,1098.5 Q854,1118 926,1118 Q1035,1118 1088,1077 Q1141,1036 1141,958 Q1141,852 1079,800 Q1017,748 899,748 Q899,794 894.5,831.5 Q890,869 878.5,895.5 Q867,922 847.5,936 Q828,950 799,950 Q770,950 738,926.5 Q706,903 674,862 Q642,821 611.5,764.5 Q581,708 553,641.5 Q525,575 502,502 Q479,429 463,354 L385,0 L76,0 L250,823 Q253,840 257.5,868 Q262,896 262,918"/> 
            <glyph glyph-name="s" unicode="&#x73;" horiz-adv-x="997" d=" M457,102 Q499,102 535,112.5 Q571,123 597,142.5 Q623,162 638,190.5 Q653,219 653,256 Q653,291 639.5,318 Q626,345 597.5,368.5 Q569,392 525.5,415 Q482,438 422,467 Q362,495 313.5,527 Q265,559 231,598 Q197,637 178.5,685 Q160,733 160,793 Q160,868 192,928 Q224,988 284,1030.5 Q344,1073 429.5,1095.5 Q515,1118 623,1118 Q726,1118 797.5,1102 Q869,1086 913.5,1059.5 Q958,1033 977.5,998 Q997,963 997,926 Q997,844 934,807 Q871,770 762,770 Q762,811 754,852.5 Q746,894 727,928 Q708,962 678,983 Q648,1004 604,1004 Q564,1004 532.5,992.5 Q501,981 478.5,961.5 Q456,942 444,916 Q432,890 432,860 Q432,826 445.5,801 Q459,776 487.5,754 Q516,732 560,710.5 Q604,689 664,662 Q730,632 778,598.5 Q826,565 857.5,525.5 Q889,486 904.5,439.5 Q920,393 920,336 Q920,253 888.5,187 Q857,121 794,75 Q731,29 638,4.5 Q545,-20 422,-20 Q334,-20 262.5,-5 Q191,10 140.5,39 Q90,68 62.5,110 Q35,152 35,205 Q35,253 54,286 Q73,319 103.5,339.5 Q134,360 173.5,369.5 Q213,379 254,379 Q254,324 265,274 Q276,224 300,185.5 Q324,147 362.5,124.5 Q401,102 457,102"/> 
            <glyph glyph-name="t" unicode="&#x74;" horiz-adv-x="872" d=" M553,147 Q601,147 640,163 Q679,179 713,201 L760,123 Q726,94 688.5,68 Q651,42 607,22.5 Q563,3 512.5,-8.5 Q462,-20 403,-20 Q347,-20 298.5,-5.5 Q250,9 214,38.5 Q178,68 157.5,113 Q137,158 137,219 Q137,237 138.5,259 Q140,281 143,304 Q146,327 150,349.5 Q154,372 158,391 L281,958 L123,958 L145,1063 Q189,1063 241,1078 Q293,1093 347.5,1127 Q402,1161 456.5,1216 Q511,1271 559,1350 L678,1350 L625,1098 L872,1098 L844,958 L594,958 L471,397 Q460,352 455.5,315.5 Q451,279 451,250 Q451,199 479,173 Q507,147 553,147"/> 
            <glyph glyph-name="u" unicode="&#x75;" horiz-adv-x="1346" d=" M793,176 Q793,185 794,197 Q795,209 796.5,222 Q798,235 799.5,246.5 Q801,258 803,266 L786,266 Q741,202 697.5,150 Q654,98 605,60.5 Q556,23 499,2.5 Q442,-18 369,-18 Q303,-18 258,0.5 Q213,19 186,50 Q159,81 147,122.5 Q135,164 135,209 Q135,260 147,321 Q159,382 170,434 L244,795 Q252,837 257,871 Q262,905 262,922 Q262,963 237,976 Q212,989 154,989 L117,989 L135,1098 L627,1098 L492,485 Q486,461 480,431 Q474,401 469,371 Q464,341 460.5,314 Q457,287 457,268 Q457,223 476,196.5 Q495,170 545,170 Q590,170 637.5,210.5 Q685,251 728.5,315.5 Q772,380 806,459.5 Q840,539 858,616 L967,1098 L1272,1098 L1133,432 Q1120,376 1112,327.5 Q1104,279 1104,236 Q1104,191 1122.5,167 Q1141,143 1176,143 Q1208,143 1234.5,155 Q1261,167 1296,190 L1346,121 Q1321,95 1290,69.5 Q1259,44 1220.5,24 Q1182,4 1135,-8 Q1088,-20 1032,-20 Q964,-20 918.5,-4.5 Q873,11 845,37.5 Q817,64 805,99.5 Q793,135 793,176"/> 
            <glyph glyph-name="v" unicode="&#x76;" horiz-adv-x="1135" d=" M195,881 Q189,913 177.5,934 Q166,955 148.5,967 Q131,979 107,984 Q83,989 53,989 L33,989 L57,1098 L459,1098 L553,492 Q568,388 574.5,306.5 Q581,225 586,174 L592,174 Q662,246 726,329 Q790,412 839,495.5 Q888,579 917,657.5 Q946,736 946,799 Q946,868 907,900 Q868,932 811,932 Q811,1016 857,1066 Q903,1116 981,1116 Q1013,1116 1041,1105.5 Q1069,1095 1090,1072 Q1111,1049 1123,1013 Q1135,977 1135,926 Q1135,846 1109,759 Q1083,672 1040.5,584.5 Q998,497 943,412.5 Q888,328 829.5,252.5 Q771,177 714,112.5 Q657,48 610,2 L340,-18"/> 
            <glyph glyph-name="w" unicode="&#x77;" horiz-adv-x="1745" d=" M1745,944 Q1745,838 1700,720 Q1655,602 1580,479.5 Q1505,357 1408,235.5 Q1311,114 1208,2 L958,-20 Q958,43 956.5,116.5 Q955,190 953.5,268 Q952,346 950.5,424 Q949,502 947,573 Q945,644 943,704 Q941,764 940,807 Q860,617 757,412.5 Q654,208 518,6 L250,-12 L229,840 Q228,887 217,916 Q206,945 187.5,961.5 Q169,978 143.5,983.5 Q118,989 88,989 L76,989 L109,1098 L504,1098 Q510,996 515,894.5 Q520,793 523,704.5 Q526,616 528,545.5 Q530,475 530,434 Q530,356 529,308.5 Q528,261 528,256 L543,256 Q594,337 645,433 Q696,529 746,635 Q796,741 844,853.5 Q892,966 936,1079 L1186,1087 Q1192,1036 1197.5,962 Q1203,888 1208,804 Q1213,720 1217.5,632 Q1222,544 1225.5,465.5 Q1229,387 1231,323.5 Q1233,260 1233,225 L1247,225 Q1337,336 1396,425.5 Q1455,515 1489.5,589 Q1524,663 1538,723 Q1552,783 1552,834 Q1552,864 1543,888 Q1534,912 1520,929.5 Q1506,947 1487.5,957.5 Q1469,968 1450,973 Q1453,1012 1466.5,1039.5 Q1480,1067 1500.5,1084.5 Q1521,1102 1547,1110 Q1573,1118 1602,1118 Q1670,1118 1707.5,1073 Q1745,1028 1745,944"/> 
            <glyph glyph-name="x" unicode="&#x78;" horiz-adv-x="1243" d=" M-41,0 L-20,109 L6,109 Q35,109 58.5,113.5 Q82,118 105.5,132 Q129,146 157,172 Q185,198 223,240 L481,524 L340,864 Q324,903 308.5,927 Q293,951 275,965 Q257,979 235,984 Q213,989 184,989 L160,989 L180,1098 L565,1098 L709,709 L993,1098 L1243,1098 L1223,989 L1186,989 Q1156,989 1132.5,983 Q1109,977 1085.5,960.5 Q1062,944 1035.5,915.5 Q1009,887 973,842 L762,598 L911,254 Q930,211 946.5,183 Q963,155 981,138.5 Q999,122 1021,115.5 Q1043,109 1073,109 L1100,109 L1079,0 L682,0 L528,414 L209,0"/> 
            <glyph glyph-name="y" unicode="&#x79;" horiz-adv-x="1135" d=" M160,881 Q143,942 110.5,965.5 Q78,989 18,989 L-2,989 L23,1098 L424,1098 L559,567 Q569,527 580,473.5 Q591,420 601,366.5 Q611,313 618,266.5 Q625,220 627,195 L633,195 Q694,277 748,360 Q802,443 842.5,521.5 Q883,600 906.5,671 Q930,742 930,801 Q930,870 896.5,906 Q863,942 803,942 Q803,982 815.5,1014.5 Q828,1047 850,1070 Q872,1093 902,1105.5 Q932,1118 967,1118 Q1050,1118 1092.5,1072 Q1135,1026 1135,944 Q1135,864 1108,775 Q1081,686 1031,586 Q981,486 909.5,374 Q838,262 748,137 Q674,33 609,-54 Q544,-141 481.5,-211 Q419,-281 354.5,-333.5 Q290,-386 217.5,-421.5 Q145,-457 59.5,-474.5 Q-26,-492 -131,-492 Q-190,-492 -245.5,-482 Q-301,-472 -344,-455 L-313,-340 Q-289,-348 -245.5,-357.5 Q-202,-367 -139,-367 Q-45,-367 33,-342 Q111,-317 177.5,-274.5 Q244,-232 302.5,-175 Q361,-118 416,-53"/> 
            <glyph glyph-name="z" unicode="&#x7A;" horiz-adv-x="1092" d=" M715,139 Q750,139 777,155.5 Q804,172 824.5,198.5 Q845,225 861,258 Q877,291 891,324 L911,371 L1030,371 L942,0 L0,0 L23,104 L707,958 L446,958 Q405,958 377,944.5 Q349,931 327.5,907 Q306,883 288.5,849 Q271,815 252,774 L248,766 L123,766 L213,1098 L1092,1098 L1069,991 L383,139"/> 
            <glyph glyph-name="{" unicode="&#x7B;" horiz-adv-x="1067" d=" M487,-256 Q341,-256 268,-197 Q195,-138 195,-33 Q195,-24 195.5,-13 Q196,-2 198,14 Q200,30 204,53.5 Q208,77 215,111 L276,397 Q283,426 283,453 Q283,493 267.5,519 Q252,545 224.5,560.5 Q197,576 160,582 Q123,588 80,590 L106,715 Q157,716 202.5,724.5 Q248,733 284.5,754 Q321,775 347,811.5 Q373,848 385,905 L459,1257 Q475,1334 505,1390.5 Q535,1447 583.5,1483.5 Q632,1520 703,1538 Q774,1556 872,1556 L1067,1556 L1044,1448 L965,1448 Q921,1448 890.5,1435 Q860,1422 838.5,1397 Q817,1372 803,1334.5 Q789,1297 778,1249 L702,901 Q682,808 617.5,748.5 Q553,689 428,662 L424,645 Q517,620 560.5,574.5 Q604,529 604,461 Q604,434 598,403 L522,53 Q516,27 514,4 Q512,-19 512,-39 Q512,-92 538,-119.5 Q564,-147 627,-147 L707,-147 L682,-256"/> 
            <glyph glyph-name="|" unicode="&#x7C;" horiz-adv-x="678" d=" M678,-492 L530,-492 L530,1556 L678,1556"/> 
            <glyph glyph-name="}" unicode="&#x7D;" horiz-adv-x="877" d=" M469,1559 Q616,1559 689,1500 Q762,1441 762,1335 Q762,1326 761.5,1315 Q761,1304 758.5,1288 Q756,1272 752,1249 Q748,1226 741,1192 L680,905 Q674,875 674,850 Q674,809 689.5,783 Q705,757 732.5,742 Q760,727 797,720.5 Q834,714 877,713 L850,588 Q799,586 754,578 Q709,570 672.5,549 Q636,528 609.5,491.5 Q583,455 571,397 L498,45 Q482,-32 452,-88.5 Q422,-145 373,-181.5 Q324,-218 253,-236 Q182,-254 84,-254 L-111,-254 L-88,-145 L-8,-145 Q36,-145 66.5,-132 Q97,-119 118.5,-94 Q140,-69 153.5,-32 Q167,5 178,53 L254,401 Q274,494 338.5,553.5 Q403,613 528,641 L532,657 Q440,682 396,728 Q352,774 352,842 Q352,869 358,899 L434,1249 Q440,1275 442,1298 Q444,1321 444,1341 Q444,1394 418.5,1422 Q393,1450 330,1450 L250,1450 L274,1559"/> 
            <glyph glyph-name="~" unicode="&#x7E;" horiz-adv-x="1049" d=" M714,537 Q608,596 557,641 Q506,686 458,730 Q410,774 360,774 Q307,774 276,717.5 Q245,661 245,537 L94,537 Q94,727 164.5,825.5 Q235,924 369,924 Q448,924 520,872.5 Q592,821 662.5,753.5 Q733,686 784,686 Q834,686 863,744 Q892,802 897,924 L1049,924 Q1039,714 971.5,625.5 Q904,537 774,537"/> 
            <glyph glyph-name="" unicode="&#xA1;" horiz-adv-x="653" d=" M381,-367 L25,-367 L379,629 L498,629 M309,928 Q309,979 324.5,1014.5 Q340,1050 365.5,1071.5 Q391,1093 423,1102.5 Q455,1112 487,1112 Q562,1112 607.5,1076 Q653,1040 653,965 Q653,923 640.5,889 Q628,855 605,831 Q582,807 549,793.5 Q516,780 475,780 Q440,780 409.5,789 Q379,798 356.5,816 Q334,834 321.5,862 Q309,890 309,928"/> 
            <glyph glyph-name="" unicode="&#xA2;" horiz-adv-x="1178" d=" M692,324 Q751,324 798,338.5 Q845,353 882.5,377 Q920,401 949,431 Q978,461 1001,492 Q1014,479 1024,455.5 Q1034,432 1034,401 Q1034,363 1011,323 Q988,283 940,249.5 Q892,216 818,193.5 Q744,171 643,168 L608,0 L481,0 L518,174 Q437,186 367,217.5 Q297,249 246,301 Q195,353 166,425.5 Q137,498 137,592 Q137,663 154.5,740.5 Q172,818 207,894 Q242,970 294.5,1039.5 Q347,1109 416,1165 Q485,1221 570.5,1258.5 Q656,1296 758,1307 L791,1462 L918,1462 L885,1311 Q962,1306 1017.5,1287 Q1073,1268 1108.5,1239 Q1144,1210 1161,1173 Q1178,1136 1178,1096 Q1178,1064 1164,1033.5 Q1150,1003 1120,978.5 Q1090,954 1042.5,939 Q995,924 928,924 Q928,998 909,1059 Q890,1120 852,1155 L676,324 M451,588 Q451,504 477.5,445.5 Q504,387 557,356 L731,1186 Q687,1176 649.5,1141.5 Q612,1107 581,1057 Q550,1007 526,946 Q502,885 485,822 Q468,759 459.5,698 Q451,637 451,588"/> 
            <glyph glyph-name="" unicode="&#xA3;" horiz-adv-x="1190" d=" M600,711 Q601,703 602,691 Q603,679 604,665 Q605,651 605.5,636 Q606,621 606,608 Q606,545 586,493.5 Q566,442 528,398.5 Q490,355 435,317.5 Q380,280 309,246 L311,238 Q365,258 409,266 Q453,274 492,274 Q538,274 587,262.5 Q636,251 682.5,237.5 Q729,224 770.5,212.5 Q812,201 844,201 Q879,201 906,205.5 Q933,210 956.5,219.5 Q980,229 1003,244 Q1026,259 1053,281 L1118,178 Q1094,153 1054,119 Q1014,85 965.5,54 Q917,23 863,1.5 Q809,-20 758,-20 Q707,-20 658.5,-5.5 Q610,9 559.5,27 Q509,45 454,59.5 Q399,74 336,74 Q295,74 260.5,70.5 Q226,67 194.5,59.5 Q163,52 131.5,40 Q100,28 66,12 L33,-2 L-12,106 L57,150 Q108,180 159.5,221.5 Q211,263 252.5,316 Q294,369 320,434.5 Q346,500 346,578 Q346,612 342.5,644.5 Q339,677 334,709 L98,709 L127,834 L319,834 Q313,872 306,925 Q299,978 299,1028 Q299,1136 337,1221 Q375,1306 444.5,1364 Q514,1422 612.5,1452.5 Q711,1483 831,1483 Q918,1483 985,1465.5 Q1052,1448 1097.5,1417.5 Q1143,1387 1166.5,1346.5 Q1190,1306 1190,1260 Q1190,1172 1124,1125.5 Q1058,1079 934,1079 Q934,1219 894,1288.5 Q854,1358 784,1358 Q681,1358 626,1272 Q571,1186 571,1028 Q571,968 578,918.5 Q585,869 590,834 L954,834 L926,709"/> 
            <glyph glyph-name="" unicode="&#xA4;" horiz-adv-x="1038" d=" M227,729 Q227,788 244,842.5 Q261,897 293,942 L170,1065 L272,1167 L395,1044 Q440,1073 491.5,1089.5 Q543,1106 602,1106 Q659,1106 711.5,1089.5 Q764,1073 809,1042 L936,1169 L1038,1065 L913,938 Q944,893 961.5,840.5 Q979,788 979,729 Q979,670 963,618.5 Q947,567 918,522 L1038,401 L936,299 L815,420 Q769,389 715,371.5 Q661,354 602,354 Q543,354 489.5,370.5 Q436,387 391,418 L272,299 L168,403 L287,522 Q227,614 227,729 M367,729 Q367,680 385.5,637 Q404,594 435.5,561.5 Q467,529 510,510.5 Q553,492 602,492 Q653,492 696,510.5 Q739,529 770.5,561.5 Q802,594 820,637 Q838,680 838,729 Q838,780 820,823.5 Q802,867 770.5,899.5 Q739,932 696,950.5 Q653,969 602,969 Q553,969 510,950.5 Q467,932 435.5,899.5 Q404,867 385.5,823.5 Q367,780 367,729"/> 
            <glyph glyph-name="" unicode="&#xA5;" horiz-adv-x="1318" d=" M782,698 L1044,698 L1019,578 L733,578 L706,459 L993,459 L968,338 L682,338 L659,240 Q654,218 651.5,202 Q649,186 649,178 Q649,156 660,142.5 Q671,129 690.5,121.5 Q710,114 737,111.5 Q764,109 796,109 L845,109 L823,0 L90,0 L112,109 L167,109 Q199,109 229,113.5 Q259,118 284,131.5 Q309,145 327,169 Q345,193 354,233 L376,338 L90,338 L114,459 L401,459 L428,578 L141,578 L165,698 L436,698 L311,1245 Q304,1276 297,1296.5 Q290,1317 278.5,1330 Q267,1343 248.5,1348.5 Q230,1354 200,1354 L174,1354 L196,1462 L755,1462 L733,1354 L675,1354 Q629,1354 609,1338 Q589,1322 589,1294 Q589,1276 597,1238.5 Q605,1201 614,1153 L651,958 Q663,893 672.5,833 Q682,773 682,731 Q693,759 714,798 Q735,837 761,881 L919,1147 Q941,1184 961,1224 Q981,1264 981,1298 Q981,1326 958,1340 Q935,1354 901,1354 L860,1354 L884,1462 L1318,1462 L1296,1354 L1290,1354 Q1243,1354 1198.5,1315 Q1154,1276 1101,1194"/> 
            <glyph glyph-name="" unicode="&#xA6;" horiz-adv-x="676" d=" M676,737 L528,737 L528,1556 L676,1556 M676,-492 L528,-492 L528,328 L676,328"/> 
            <glyph glyph-name="" unicode="&#xA7;" horiz-adv-x="1108" d=" M444,-236 Q351,-236 277,-218 Q203,-200 151.5,-167.5 Q100,-135 72.5,-89.5 Q45,-44 45,10 Q45,62 64,95.5 Q83,129 112,147.5 Q141,166 175,173 Q209,180 238,180 Q238,115 253.5,60 Q269,5 298.5,-35 Q328,-75 370.5,-98 Q413,-121 467,-121 Q520,-121 562.5,-104 Q605,-87 634.5,-58 Q664,-29 680,11 Q696,51 696,96 Q696,137 685,169.5 Q674,202 644,233.5 Q614,265 562,299 Q510,333 428,377 Q350,418 299,459 Q248,500 218,542 Q188,584 176,629 Q164,674 164,723 Q164,773 180.5,814.5 Q197,856 224,890.5 Q251,925 285.5,952.5 Q320,980 356,1001 Q338,1030 322.5,1077 Q307,1124 307,1186 Q307,1274 342.5,1343 Q378,1412 438.5,1459 Q499,1506 579,1531 Q659,1556 748,1556 Q841,1556 908.5,1538.5 Q976,1521 1020.5,1491 Q1065,1461 1086.5,1420.5 Q1108,1380 1108,1335 Q1108,1291 1093.5,1261.5 Q1079,1232 1052,1214.5 Q1025,1197 987.5,1189.5 Q950,1182 905,1182 Q905,1237 893.5,1285 Q882,1333 859.5,1368 Q837,1403 804,1423.5 Q771,1444 729,1444 Q692,1444 655.5,1432 Q619,1420 589.5,1395 Q560,1370 542,1331.5 Q524,1293 524,1241 Q524,1196 536.5,1162.5 Q549,1129 578,1099.5 Q607,1070 654.5,1041 Q702,1012 772,975 Q847,935 899,897.5 Q951,860 983.5,821.5 Q1016,783 1030,742.5 Q1044,702 1044,655 Q1044,607 1028.5,564 Q1013,521 986,482.5 Q959,444 923.5,411.5 Q888,379 848,354 Q866,325 880.5,281.5 Q895,238 895,184 Q895,97 863,20.5 Q831,-56 772,-113 Q713,-170 629.5,-203 Q546,-236 444,-236 M639,784 Q573,815 518.5,846.5 Q464,878 418,915 Q386,891 365,861.5 Q344,832 344,788 Q344,755 355,727 Q366,699 392,672.5 Q418,646 462.5,618.5 Q507,591 575,559 Q632,531 686.5,499 Q741,467 776,438 Q808,464 827,498.5 Q846,533 846,575 Q846,598 837,623 Q828,648 804.5,674 Q781,700 741,727.5 Q701,755 639,784"/> 
            <glyph glyph-name="" unicode="&#xA8;" horiz-adv-x="1044" d=" M616,1417 Q616,1377 605,1350 Q594,1323 577,1306 Q560,1289 538,1281.5 Q516,1274 494,1274 Q443,1274 412,1301.5 Q381,1329 381,1386 Q381,1452 414,1491 Q447,1530 504,1530 Q553,1530 584.5,1502 Q616,1474 616,1417 M1044,1417 Q1044,1377 1033,1350 Q1022,1323 1005,1306 Q988,1289 966,1281.5 Q944,1274 922,1274 Q871,1274 840,1301.5 Q809,1329 809,1386 Q809,1452 842,1491 Q875,1530 932,1530 Q981,1530 1012.5,1502 Q1044,1474 1044,1417"/> 
            <glyph glyph-name="" unicode="&#xA9;" horiz-adv-x="1634" d=" M129,731 Q129,835 156,931.5 Q183,1028 231.5,1111.5 Q280,1195 349,1264 Q418,1333 501.5,1382 Q585,1431 681,1458 Q777,1485 881,1485 Q985,1485 1081,1458 Q1177,1431 1260.5,1382 Q1344,1333 1413,1264 Q1482,1195 1531,1111.5 Q1580,1028 1607,931.5 Q1634,835 1634,731 Q1634,627 1607,531 Q1580,435 1531,351.5 Q1482,268 1413,199.5 Q1344,131 1260.5,82 Q1177,33 1081,6.5 Q985,-20 881,-20 Q777,-20 681,6.5 Q585,33 501.5,82 Q418,131 349,199.5 Q280,268 231.5,351.5 Q183,435 156,531 Q129,627 129,731 M242,731 Q242,643 265,561.5 Q288,480 329.5,409 Q371,338 429,279.5 Q487,221 558,179.5 Q629,138 711,115 Q793,92 881,92 Q970,92 1051.5,115 Q1133,138 1204.5,179.5 Q1276,221 1334.5,279.5 Q1393,338 1434.5,409 Q1476,480 1499,561.5 Q1522,643 1522,731 Q1522,864 1471.5,980.5 Q1421,1097 1334,1184 Q1247,1271 1130.5,1321.5 Q1014,1372 881,1372 Q793,1372 711,1349 Q629,1326 558,1284.5 Q487,1243 429,1184.5 Q371,1126 329.5,1054.5 Q288,983 265,901 Q242,819 242,731 M918,365 Q964,365 1004,377 Q1044,389 1076.5,409 Q1109,429 1132,453.5 Q1155,478 1169,504 Q1182,495 1190,478.5 Q1198,462 1198,440 Q1198,412 1179,383 Q1160,354 1121.5,330 Q1083,306 1025.5,291 Q968,276 891,276 Q789,276 712,309 Q635,342 583.5,402 Q532,462 506.5,546 Q481,630 481,733 Q481,833 509,916 Q537,999 592.5,1059 Q648,1119 730,1152.5 Q812,1186 920,1186 Q990,1186 1043,1174.5 Q1096,1163 1130.5,1143.5 Q1165,1124 1182.5,1097.5 Q1200,1071 1200,1040 Q1200,1018 1189,1000 Q1178,982 1159.5,969.5 Q1141,957 1115.5,950.5 Q1090,944 1061,944 Q1061,972 1053.5,1000 Q1046,1028 1029,1050.5 Q1012,1073 984,1086.5 Q956,1100 915,1100 Q843,1100 792.5,1076 Q742,1052 710,1005 Q678,958 663.5,889.5 Q649,821 649,733 Q649,556 718,460.5 Q787,365 918,365"/> 
            <glyph glyph-name="" unicode="&#xAA;" horiz-adv-x="981" d=" M772,782 Q704,782 666.5,809.5 Q629,837 629,885 Q629,910 632.5,942 Q636,974 639,997 L631,997 Q605,949 575.5,910 Q546,871 512,843 Q478,815 438.5,799.5 Q399,784 354,784 Q303,784 265.5,801.5 Q228,819 203.5,849.5 Q179,880 167.5,921 Q156,962 156,1010 Q156,1058 168,1111 Q180,1164 205,1215.5 Q230,1267 268.5,1313 Q307,1359 358.5,1394 Q410,1429 475.5,1449.5 Q541,1470 621,1470 Q676,1470 712.5,1458 Q749,1446 780,1427 L852,1456 L922,1456 L846,1083 Q838,1041 830.5,1007.5 Q823,974 823,948 Q823,895 866,895 Q886,895 908.5,904.5 Q931,914 954,928 L981,879 Q968,865 946.5,848 Q925,831 898,816.5 Q871,802 838.5,792 Q806,782 772,782 M395,1022 Q395,988 400,965.5 Q405,943 414,929 Q423,915 434.5,909 Q446,903 459,903 Q486,903 515,927.5 Q544,952 569,989.5 Q594,1027 614,1070 Q634,1113 643,1151 L692,1346 Q680,1364 654.5,1374 Q629,1384 604,1384 Q570,1384 541,1366.5 Q512,1349 489,1319.5 Q466,1290 448.5,1252 Q431,1214 419,1174 Q407,1134 401,1094.5 Q395,1055 395,1022"/> 
            <glyph glyph-name="" unicode="&#xAB;" horiz-adv-x="1087" d=" M143,621 L532,963 L676,963 L383,553 L502,143 L358,143 L121,514 M555,621 L944,963 L1087,963 L795,553 L913,143 L770,143 L532,514"/> 
            <glyph glyph-name="" unicode="&#xAC;" horiz-adv-x="1044" d=" M1044,805 L1044,293 L897,293 L897,659 L166,659 L166,805"/> 
            <glyph glyph-name="" unicode="&#xAD;" horiz-adv-x="600" d=" M20,451 L68,666 L600,666 L553,451"/> 
            <glyph glyph-name="" unicode="&#xAE;" horiz-adv-x="1634" d=" M494,358 L520,358 Q540,358 558,360.5 Q576,363 590,370.5 Q604,378 612.5,392 Q621,406 621,430 L621,1030 Q621,1054 612.5,1068 Q604,1082 590,1089.5 Q576,1097 558,1099.5 Q540,1102 520,1102 L494,1102 L494,1174 L862,1174 Q1214,1174 1214,930 Q1214,881 1198,844 Q1182,807 1156,780 Q1130,753 1096.5,734.5 Q1063,716 1028,705 L1210,412 Q1220,395 1229.5,384.5 Q1239,374 1252,368 Q1265,362 1282,360 Q1299,358 1325,358 L1325,289 L1108,289 L883,670 L774,670 L774,430 Q775,406 783.5,392 Q792,378 805.5,370.5 Q819,363 836.5,360.5 Q854,358 874,358 L903,358 L903,289 L494,289 M774,748 L860,748 Q915,748 952.5,759 Q990,770 1012,792 Q1034,814 1043.5,848 Q1053,882 1053,928 Q1053,973 1042,1005 Q1031,1037 1007,1056.5 Q983,1076 945.5,1085 Q908,1094 854,1094 L774,1094 M129,731 Q129,835 156,931.5 Q183,1028 231.5,1111.5 Q280,1195 349,1264 Q418,1333 501.5,1382 Q585,1431 681,1458 Q777,1485 881,1485 Q985,1485 1081,1458 Q1177,1431 1260.5,1382 Q1344,1333 1413,1264 Q1482,1195 1531,1111.5 Q1580,1028 1607,931.5 Q1634,835 1634,731 Q1634,627 1607,531 Q1580,435 1531,351.5 Q1482,268 1413,199.5 Q1344,131 1260.5,82 Q1177,33 1081,6.5 Q985,-20 881,-20 Q777,-20 681,6.5 Q585,33 501.5,82 Q418,131 349,199.5 Q280,268 231.5,351.5 Q183,435 156,531 Q129,627 129,731 M242,731 Q242,643 265,561.5 Q288,480 329.5,409 Q371,338 429,279.5 Q487,221 558,179.5 Q629,138 711,115 Q793,92 881,92 Q970,92 1051.5,115 Q1133,138 1204.5,179.5 Q1276,221 1334.5,279.5 Q1393,338 1434.5,409 Q1476,480 1499,561.5 Q1522,643 1522,731 Q1522,864 1471.5,980.5 Q1421,1097 1334,1184 Q1247,1271 1130.5,1321.5 Q1014,1372 881,1372 Q793,1372 711,1349 Q629,1326 558,1284.5 Q487,1243 429,1184.5 Q371,1126 329.5,1054.5 Q288,983 265,901 Q242,819 242,731"/> 
            <glyph glyph-name="" unicode="&#xAF;" horiz-adv-x="950" d=" M950,1556 L-10,1556 L-10,1677 L950,1677"/> 
            <glyph glyph-name="" unicode="&#xB0;" horiz-adv-x="846" d=" M225,1151 Q225,1215 249,1272 Q273,1329 315,1371 Q357,1413 413.5,1437.5 Q470,1462 535,1462 Q599,1462 656,1437.5 Q713,1413 755,1371 Q797,1329 821.5,1272 Q846,1215 846,1151 Q846,1086 821.5,1030 Q797,974 755,932 Q713,890 656,866 Q599,842 535,842 Q470,842 413.5,866 Q357,890 315,932 Q273,974 249,1030 Q225,1086 225,1151 M367,1151 Q367,1116 380,1085.5 Q393,1055 416,1031.5 Q439,1008 469.5,994.5 Q500,981 535,981 Q571,981 602,994.5 Q633,1008 656,1031.5 Q679,1055 692,1085.5 Q705,1116 705,1151 Q705,1187 692,1218.5 Q679,1250 656,1273 Q633,1296 602,1309.5 Q571,1323 535,1323 Q500,1323 469.5,1309.5 Q439,1296 416,1273 Q393,1250 380,1218.5 Q367,1187 367,1151"/> 
            <glyph glyph-name="" unicode="&#xB1;" horiz-adv-x="1044" d=" M1044,0 L166,0 L166,145 L1044,145 M678,659 L678,293 L530,293 L530,659 L166,659 L166,805 L530,805 L530,1171 L678,1171 L678,805 L1044,805 L1044,659"/> 
            <glyph glyph-name="" unicode="&#xB2;" horiz-adv-x="827" d=" M59,586 L88,733 L391,954 Q453,999 495,1040.5 Q537,1082 562,1122 Q587,1162 597.5,1202.5 Q608,1243 608,1286 Q608,1306 603.5,1325 Q599,1344 589,1358.5 Q579,1373 562.5,1382 Q546,1391 522,1391 Q493,1391 470,1374 Q447,1357 429.5,1329 Q412,1301 400.5,1264.5 Q389,1228 385,1188 Q313,1188 271,1217 Q229,1246 229,1292 Q229,1334 251,1369 Q273,1404 314.5,1429.5 Q356,1455 415,1469 Q474,1483 549,1483 Q613,1483 664.5,1469.5 Q716,1456 752,1432 Q788,1408 807.5,1374 Q827,1340 827,1298 Q827,1255 812.5,1215.5 Q798,1176 762.5,1133.5 Q727,1091 669,1041.5 Q611,992 524,930 L268,745 L569,745 Q617,745 641.5,770 Q666,795 678,829 L694,872 L774,872 L717,586"/> 
            <glyph glyph-name="" unicode="&#xB3;" horiz-adv-x="823" d=" M360,573 Q211,573 135,617.5 Q59,662 59,739 Q59,767 70.5,788.5 Q82,810 102.5,825 Q123,840 151,848 Q179,856 211,856 Q211,827 220,795.5 Q229,764 249,738.5 Q269,713 301,696.5 Q333,680 379,680 Q416,680 448.5,689 Q481,698 505,718.5 Q529,739 543,771 Q557,803 557,848 Q557,876 546,902 Q535,928 512.5,947 Q490,966 454.5,977.5 Q419,989 371,989 L303,989 L319,1085 L389,1085 Q432,1085 471,1099.5 Q510,1114 539.5,1141 Q569,1168 586.5,1207.5 Q604,1247 604,1298 Q604,1339 585.5,1365 Q567,1391 526,1391 Q493,1391 468.5,1376.5 Q444,1362 426.5,1337 Q409,1312 398.5,1280 Q388,1248 383,1212 Q308,1212 262.5,1234.5 Q217,1257 217,1307 Q217,1343 239,1375 Q261,1407 302.5,1431 Q344,1455 404,1469 Q464,1483 539,1483 Q612,1483 665.5,1468.5 Q719,1454 754,1428.5 Q789,1403 806,1369 Q823,1335 823,1296 Q823,1242 804,1202 Q785,1162 750.5,1133 Q716,1104 668.5,1085 Q621,1066 565,1055 L563,1044 Q657,1033 713.5,987 Q770,941 770,856 Q770,787 739,734 Q708,681 653.5,645.5 Q599,610 523.5,591.5 Q448,573 360,573"/> 
            <glyph glyph-name="" unicode="&#xB4;" horiz-adv-x="1069" d=" M504,1268 Q532,1297 565,1335 Q598,1373 630.5,1413.5 Q663,1454 693.5,1494 Q724,1534 748,1569 L1069,1569 L1063,1548 Q1047,1530 1019,1505.5 Q991,1481 955.5,1453 Q920,1425 879.5,1395.5 Q839,1366 797,1338 Q755,1310 714,1284.5 Q673,1259 637,1241 L498,1241"/> 
            <glyph glyph-name="" unicode="&#xB5;" horiz-adv-x="1354" d=" M803,188 Q768,141 734.5,102.5 Q701,64 664,37 Q627,10 585,-5 Q543,-20 492,-20 Q401,-20 338,20.5 Q275,61 238,127 Q231,91 225.5,53 Q220,15 216.5,-21 Q213,-57 211,-89.5 Q209,-122 209,-147 Q209,-182 215.5,-210.5 Q222,-239 240.5,-260 Q259,-281 291.5,-294.5 Q324,-308 375,-313 Q367,-358 343.5,-392 Q320,-426 286.5,-448 Q253,-470 212,-481 Q171,-492 129,-492 Q100,-492 75.5,-484.5 Q51,-477 33.5,-459.5 Q16,-442 6,-414 Q-4,-386 -4,-344 Q-4,-283 13,-207 Q30,-131 57,-34 Q84,63 117,185 Q150,307 182,461 L317,1098 L629,1098 L492,455 Q489,440 485,420 Q481,400 477.5,377.5 Q474,355 471.5,332.5 Q469,310 469,291 Q469,263 475.5,238 Q482,213 496.5,194.5 Q511,176 532.5,165 Q554,154 584,154 Q679,154 744,245.5 Q809,337 850,532 L971,1098 L1282,1098 L1141,432 Q1128,376 1120,327.5 Q1112,279 1112,236 Q1112,191 1131,167 Q1150,143 1184,143 Q1216,143 1242.5,155 Q1269,167 1305,190 L1354,121 Q1329,95 1298,69.5 Q1267,44 1227,24 Q1187,4 1138,-8 Q1089,-20 1028,-20 Q965,-20 923.5,-2.5 Q882,15 857.5,43.5 Q833,72 823,109.5 Q813,147 813,188"/> 
            <glyph glyph-name="" unicode="&#xB6;" horiz-adv-x="1251" d=" M909,1430 L737,1430 L737,-227 L395,-227 L395,-119 L422,-119 Q456,-119 487,-114.5 Q518,-110 540.5,-94.5 Q563,-79 576.5,-50 Q590,-21 590,27 L590,791 L444,791 Q354,791 294,823.5 Q234,856 198,911.5 Q162,967 146.5,1039.5 Q131,1112 131,1192 Q131,1274 148,1341 Q165,1408 203,1456 Q241,1504 301.5,1530 Q362,1556 449,1556 L1251,1556 L1251,1448 L1225,1448 Q1190,1448 1159.5,1443 Q1129,1438 1106.5,1422.5 Q1084,1407 1070.5,1378 Q1057,1349 1057,1300 L1057,27 Q1057,-21 1070.5,-50 Q1084,-79 1106.5,-94.5 Q1129,-110 1159.5,-114.5 Q1190,-119 1225,-119 L1251,-119 L1251,-227 L909,-227"/> 
            <glyph glyph-name="" unicode="&#xB7;" horiz-adv-x="518" d=" M518,746 Q518,695 502.5,659.5 Q487,624 461.5,602.5 Q436,581 404,571.5 Q372,562 340,562 Q266,562 220,598 Q174,634 174,709 Q174,751 186.5,785 Q199,819 222.5,843 Q246,867 278.5,880 Q311,893 352,893 Q387,893 417.5,884 Q448,875 470.5,857 Q493,839 505.5,811 Q518,783 518,746"/> 
            <glyph glyph-name="" unicode="&#xB8;" horiz-adv-x="569" d=" M387,-70 Q428,-75 461.5,-90 Q495,-105 519,-127.5 Q543,-150 556,-178.5 Q569,-207 569,-240 Q569,-306 538.5,-353.5 Q508,-401 457,-432 Q406,-463 340.5,-477.5 Q275,-492 205,-492 Q173,-492 129.5,-484.5 Q86,-477 51,-465 L78,-344 Q113,-352 148,-356 Q183,-360 211,-360 Q242,-360 270,-354 Q298,-348 318,-335.5 Q338,-323 350,-303.5 Q362,-284 362,-256 Q362,-236 351.5,-219.5 Q341,-203 323,-190.5 Q305,-178 280,-171 Q255,-164 227,-162 L309,18 L426,18"/> 
            <glyph glyph-name="" unicode="&#xB9;" horiz-adv-x="727" d=" M717,1473 L571,784 Q566,766 564.5,751 Q563,736 563,731 Q563,713 569.5,702.5 Q576,692 587,686.5 Q598,681 612.5,679.5 Q627,678 643,678 L727,678 L709,588 L131,588 L150,678 L254,678 Q273,678 290.5,680.5 Q308,683 322,691 Q336,699 346.5,714.5 Q357,730 362,756 L485,1337 Q427,1280 381.5,1245 Q336,1210 299,1210 Q270,1210 255,1239.5 Q240,1269 240,1311 Q264,1315 288,1322 Q312,1329 338,1340 Q364,1351 394,1367 Q424,1383 459,1405 L565,1473"/> 
            <glyph glyph-name="" unicode="&#xBA;" horiz-adv-x="922" d=" M922,1219 Q922,1176 910,1127 Q898,1078 873,1029 Q848,980 810.5,935 Q773,890 721.5,855.5 Q670,821 605,800.5 Q540,780 461,780 Q390,780 332,796.5 Q274,813 233,846 Q192,879 169.5,927 Q147,975 147,1038 Q147,1084 160.5,1134.5 Q174,1185 200,1233 Q226,1281 265,1324.5 Q304,1368 356,1401 Q408,1434 472,1453.5 Q536,1473 612,1473 Q676,1473 732.5,1458 Q789,1443 831,1412 Q873,1381 897.5,1333 Q922,1285 922,1219 M692,1225 Q692,1293 671,1328.5 Q650,1364 602,1364 Q550,1364 508.5,1331 Q467,1298 438.5,1247.5 Q410,1197 394.5,1138 Q379,1079 379,1028 Q379,959 402,921 Q425,883 471,883 Q526,883 567.5,917.5 Q609,952 636.5,1004 Q664,1056 678,1115.5 Q692,1175 692,1225"/> 
            <glyph glyph-name="" unicode="&#xBB;" horiz-adv-x="1010" d=" M987,487 L600,143 L457,143 L752,553 L631,963 L774,963 L1010,594 M575,487 L188,143 L45,143 L340,553 L219,963 L362,963 L598,594"/> 
            <glyph glyph-name="" unicode="&#xBC;" horiz-adv-x="1650" d=" M896,1473 L750,784 Q745,766 743.5,751 Q742,736 742,731 Q742,713 748.5,702.5 Q755,692 766,686.5 Q777,681 791.5,679.5 Q806,678 822,678 L906,678 L888,588 L310,588 L329,678 L433,678 Q452,678 469.5,680.5 Q487,683 501,691 Q515,699 525.5,714.5 Q536,730 541,756 L664,1337 Q606,1280 560.5,1245 Q515,1210 478,1210 Q449,1210 434,1239.5 Q419,1269 419,1311 Q443,1315 467,1322 Q491,1329 517,1340 Q543,1351 573,1367 Q603,1383 638,1405 L744,1473 M460,0 L286,0 L1325,1462 L1497,1462 M1466,65776 L1458,65740 Q1453,65718 1451.5,65701 Q1450,65684 1450,65678 Q1450,65661 1455.5,65651 Q1461,65641 1471,65635.5 Q1481,65630 1494,65628.5 Q1507,65627 1521,65627 L1562,65627 L1544,65537 L1073,65537 L1091,65627 L1149,65627 Q1166,65627 1181.5,65629.5 Q1197,65632 1210.5,65640 Q1224,65648 1234,65663.5 Q1244,65679 1249,65705 L1263,65776 L876,65776 L893,65858 L1421,66422 L1603,66422 L1491,65885 L1650,65885 L1626,65776 M1335,66114 Q1341,66146 1352,66177.5 Q1363,66209 1374,66247 Q1363,66230 1350,66214 Q1337,66198 1331,66190 L1044,65885 L1288,65885"/> 
            <glyph glyph-name="" unicode="&#xBD;" horiz-adv-x="1667" d=" M896,1473 L750,784 Q745,766 743.5,751 Q742,736 742,731 Q742,713 748.5,702.5 Q755,692 766,686.5 Q777,681 791.5,679.5 Q806,678 822,678 L906,678 L888,588 L310,588 L329,678 L433,678 Q452,678 469.5,680.5 Q487,683 501,691 Q515,699 525.5,714.5 Q536,730 541,756 L664,1337 Q606,1280 560.5,1245 Q515,1210 478,1210 Q449,1210 434,1239.5 Q419,1269 419,1311 Q443,1315 467,1322 Q491,1329 517,1340 Q543,1351 573,1367 Q603,1383 638,1405 L744,1473 M450,0 L276,0 L1315,1462 L1487,1462 M899,65537 L928,65684 L1231,65905 Q1293,65950 1335,65991.5 Q1377,66033 1402,66073 Q1427,66113 1437.5,66153.5 Q1448,66194 1448,66237 Q1448,66257 1443.5,66276 Q1439,66295 1429,66309.5 Q1419,66324 1402.5,66333 Q1386,66342 1362,66342 Q1333,66342 1310,66325 Q1287,66308 1269.5,66280 Q1252,66252 1240.5,66215.5 Q1229,66179 1225,66139 Q1153,66139 1111,66168 Q1069,66197 1069,66243 Q1069,66285 1091,66320 Q1113,66355 1154.5,66380.5 Q1196,66406 1255,66420 Q1314,66434 1389,66434 Q1453,66434 1504.5,66420.5 Q1556,66407 1592,66383 Q1628,66359 1647.5,66325 Q1667,66291 1667,66249 Q1667,66206 1652.5,66166.5 Q1638,66127 1602.5,66084.5 Q1567,66042 1509,65992.5 Q1451,65943 1364,65881 L1108,65696 L1409,65696 Q1457,65696 1481.5,65721 Q1506,65746 1518,65780 L1534,65823 L1614,65823 L1557,65537"/> 
            <glyph glyph-name="" unicode="&#xBE;" horiz-adv-x="1658" d=" M514,0 L340,0 L1379,1462 L1551,1462 M1474,65776 L1466,65740 Q1461,65718 1459.5,65701 Q1458,65684 1458,65678 Q1458,65661 1463.5,65651 Q1469,65641 1479,65635.5 Q1489,65630 1502,65628.5 Q1515,65627 1529,65627 L1570,65627 L1552,65537 L1081,65537 L1099,65627 L1157,65627 Q1174,65627 1189.5,65629.5 Q1205,65632 1218.5,65640 Q1232,65648 1242,65663.5 Q1252,65679 1257,65705 L1271,65776 L884,65776 L901,65858 L1429,66422 L1611,66422 L1499,65885 L1658,65885 L1634,65776 M1343,66114 Q1349,66146 1360,66177.5 Q1371,66209 1382,66247 Q1371,66230 1358,66214 Q1345,66198 1339,66190 L1052,65885 L1296,65885 M613,573 Q464,573 388,617.5 Q312,662 312,739 Q312,767 323.5,788.5 Q335,810 355.5,825 Q376,840 404,848 Q432,856 464,856 Q464,827 473,795.5 Q482,764 502,738.5 Q522,713 554,696.5 Q586,680 632,680 Q669,680 701.5,689 Q734,698 758,718.5 Q782,739 796,771 Q810,803 810,848 Q810,876 799,902 Q788,928 765.5,947 Q743,966 707.5,977.5 Q672,989 624,989 L556,989 L572,1085 L642,1085 Q685,1085 724,1099.5 Q763,1114 792.5,1141 Q822,1168 839.5,1207.5 Q857,1247 857,1298 Q857,1339 838.5,1365 Q820,1391 779,1391 Q746,1391 721.5,1376.5 Q697,1362 679.5,1337 Q662,1312 651.5,1280 Q641,1248 636,1212 Q561,1212 515.5,1234.5 Q470,1257 470,1307 Q470,1343 492,1375 Q514,1407 555.5,1431 Q597,1455 657,1469 Q717,1483 792,1483 Q865,1483 918.5,1468.5 Q972,1454 1007,1428.5 Q1042,1403 1059,1369 Q1076,1335 1076,1296 Q1076,1242 1057,1202 Q1038,1162 1003.5,1133 Q969,1104 921.5,1085 Q874,1066 818,1055 L816,1044 Q910,1033 966.5,987 Q1023,941 1023,856 Q1023,787 992,734 Q961,681 906.5,645.5 Q852,610 776.5,591.5 Q701,573 613,573"/> 
            <glyph glyph-name="" unicode="&#xBF;" horiz-adv-x="920" d=" M4,-49 Q4,40 43,113.5 Q82,187 150,247.5 Q218,308 311.5,356.5 Q405,405 514,444 L588,627 L719,627 L723,373 Q632,340 558.5,300.5 Q485,261 433,210.5 Q381,160 352.5,95.5 Q324,31 324,-53 Q324,-104 335,-143 Q346,-182 366,-209 Q386,-236 412.5,-250 Q439,-264 471,-264 Q519,-264 553.5,-239 Q588,-214 611,-173 Q634,-132 647.5,-78 Q661,-24 668,35 Q920,35 920,-123 Q920,-178 887,-226.5 Q854,-275 792.5,-311 Q731,-347 643,-368 Q555,-389 446,-389 Q344,-389 262,-369 Q180,-349 123,-307.5 Q66,-266 35,-202 Q4,-138 4,-49 M524,926 Q524,977 539.5,1012.5 Q555,1048 580.5,1069.5 Q606,1091 638,1100.5 Q670,1110 702,1110 Q777,1110 822.5,1074 Q868,1038 868,963 Q868,921 855.5,887 Q843,853 820,829 Q797,805 764,791.5 Q731,778 690,778 Q655,778 624.5,787 Q594,796 571.5,814 Q549,832 536.5,860 Q524,888 524,926"/> 
            <glyph glyph-name="" unicode="&#xC0;" horiz-adv-x="1456" d=" M438,481 L338,297 Q318,260 308.5,232 Q299,204 299,182 Q299,144 327,126.5 Q355,109 414,109 L455,109 L432,0 L-100,0 L-78,109 L-35,109 Q-7,109 14.5,115.5 Q36,122 56,140 Q76,158 97.5,189 Q119,220 147,268 L842,1462 L1122,1462 L1294,256 Q1299,224 1307.5,197 Q1316,170 1330,150.5 Q1344,131 1365.5,120 Q1387,109 1419,109 L1456,109 L1434,0 L758,0 L780,109 L827,109 Q893,109 932,129.5 Q971,150 971,195 Q971,212 970,228.5 Q969,245 967,260 L936,481 M885,950 Q880,995 875.5,1034.5 Q871,1074 867.5,1111 Q864,1148 861.5,1183 Q859,1218 858,1255 Q843,1218 828,1186.5 Q813,1155 796,1122.5 Q779,1090 758.5,1053.5 Q738,1017 711,969 L508,606 L922,606 M987,1579 Q943,1605 893.5,1645 Q844,1685 798,1728.5 Q752,1772 713.5,1814 Q675,1856 654,1886 L660,1907 L961,1907 Q973,1870 992.5,1827 Q1012,1784 1033,1743 Q1054,1702 1075.5,1666 Q1097,1630 1114,1606 L1108,1579"/> 
            <glyph glyph-name="" unicode="&#xC1;" horiz-adv-x="1456" d=" M438,481 L338,297 Q318,260 308.5,232 Q299,204 299,182 Q299,144 327,126.5 Q355,109 414,109 L455,109 L432,0 L-100,0 L-78,109 L-35,109 Q-7,109 14.5,115.5 Q36,122 56,140 Q76,158 97.5,189 Q119,220 147,268 L842,1462 L1122,1462 L1294,256 Q1299,224 1307.5,197 Q1316,170 1330,150.5 Q1344,131 1365.5,120 Q1387,109 1419,109 L1456,109 L1434,0 L758,0 L780,109 L827,109 Q893,109 932,129.5 Q971,150 971,195 Q971,212 970,228.5 Q969,245 967,260 L936,481 M885,950 Q880,995 875.5,1034.5 Q871,1074 867.5,1111 Q864,1148 861.5,1183 Q859,1218 858,1255 Q843,1218 828,1186.5 Q813,1155 796,1122.5 Q779,1090 758.5,1053.5 Q738,1017 711,969 L508,606 L922,606 M864,1606 Q892,1635 925,1673 Q958,1711 990.5,1751.5 Q1023,1792 1053.5,1832 Q1084,1872 1108,1907 L1429,1907 L1423,1886 Q1407,1868 1379,1843.5 Q1351,1819 1315.5,1791 Q1280,1763 1239.5,1733.5 Q1199,1704 1157,1676 Q1115,1648 1074,1622.5 Q1033,1597 997,1579 L858,1579"/> 
            <glyph glyph-name="" unicode="&#xC2;" horiz-adv-x="1456" d=" M438,481 L338,297 Q318,260 308.5,232 Q299,204 299,182 Q299,144 327,126.5 Q355,109 414,109 L455,109 L432,0 L-100,0 L-78,109 L-35,109 Q-7,109 14.5,115.5 Q36,122 56,140 Q76,158 97.5,189 Q119,220 147,268 L842,1462 L1122,1462 L1294,256 Q1299,224 1307.5,197 Q1316,170 1330,150.5 Q1344,131 1365.5,120 Q1387,109 1419,109 L1456,109 L1434,0 L758,0 L780,109 L827,109 Q893,109 932,129.5 Q971,150 971,195 Q971,212 970,228.5 Q969,245 967,260 L936,481 M885,950 Q880,995 875.5,1034.5 Q871,1074 867.5,1111 Q864,1148 861.5,1183 Q859,1218 858,1255 Q843,1218 828,1186.5 Q813,1155 796,1122.5 Q779,1090 758.5,1053.5 Q738,1017 711,969 L508,606 L922,606 M619,1606 Q649,1635 687,1672.5 Q725,1710 765,1750 Q805,1790 843,1830.5 Q881,1871 910,1907 L1186,1907 Q1199,1875 1219,1835 Q1239,1795 1261.5,1754 Q1284,1713 1306,1674 Q1328,1635 1346,1606 L1340,1579 L1211,1579 Q1193,1596 1169,1619 Q1145,1642 1120,1667 Q1095,1692 1070.5,1717 Q1046,1742 1028,1763 Q1001,1742 967,1717 Q933,1692 898,1667 Q863,1642 830,1619 Q797,1596 772,1579 L613,1579"/> 
            <glyph glyph-name="" unicode="&#xC3;" horiz-adv-x="1456" d=" M438,481 L338,297 Q318,260 308.5,232 Q299,204 299,182 Q299,144 327,126.5 Q355,109 414,109 L455,109 L432,0 L-100,0 L-78,109 L-35,109 Q-7,109 14.5,115.5 Q36,122 56,140 Q76,158 97.5,189 Q119,220 147,268 L842,1462 L1122,1462 L1294,256 Q1299,224 1307.5,197 Q1316,170 1330,150.5 Q1344,131 1365.5,120 Q1387,109 1419,109 L1456,109 L1434,0 L758,0 L780,109 L827,109 Q893,109 932,129.5 Q971,150 971,195 Q971,212 970,228.5 Q969,245 967,260 L936,481 M885,950 Q880,995 875.5,1034.5 Q871,1074 867.5,1111 Q864,1148 861.5,1183 Q859,1218 858,1255 Q843,1218 828,1186.5 Q813,1155 796,1122.5 Q779,1090 758.5,1053.5 Q738,1017 711,969 L508,606 L922,606 M1188,1774 Q1214,1774 1233,1783 Q1252,1792 1265.5,1807 Q1279,1822 1287.5,1841.5 Q1296,1861 1301,1882 L1424,1882 Q1413,1833 1390.5,1779.5 Q1368,1726 1334.5,1681.5 Q1301,1637 1256.5,1608 Q1212,1579 1157,1579 Q1102,1579 1058,1599 Q1014,1619 977,1643.5 Q940,1668 907.5,1688 Q875,1708 842,1708 Q821,1708 802,1699 Q783,1690 768,1675 Q753,1660 743,1640.5 Q733,1621 729,1600 L607,1600 Q616,1646 639.5,1699.5 Q663,1753 699,1798 Q735,1843 781.5,1873 Q828,1903 883,1903 Q937,1903 979.5,1883 Q1022,1863 1057.5,1838.5 Q1093,1814 1124.5,1794 Q1156,1774 1188,1774"/> 
            <glyph glyph-name="" unicode="&#xC4;" horiz-adv-x="1456" d=" M438,481 L338,297 Q318,260 308.5,232 Q299,204 299,182 Q299,144 327,126.5 Q355,109 414,109 L455,109 L432,0 L-100,0 L-78,109 L-35,109 Q-7,109 14.5,115.5 Q36,122 56,140 Q76,158 97.5,189 Q119,220 147,268 L842,1462 L1122,1462 L1294,256 Q1299,224 1307.5,197 Q1316,170 1330,150.5 Q1344,131 1365.5,120 Q1387,109 1419,109 L1456,109 L1434,0 L758,0 L780,109 L827,109 Q893,109 932,129.5 Q971,150 971,195 Q971,212 970,228.5 Q969,245 967,260 L936,481 M885,950 Q880,995 875.5,1034.5 Q871,1074 867.5,1111 Q864,1148 861.5,1183 Q859,1218 858,1255 Q843,1218 828,1186.5 Q813,1155 796,1122.5 Q779,1090 758.5,1053.5 Q738,1017 711,969 L508,606 L922,606 M913,1755 Q913,1715 902,1688 Q891,1661 874,1644 Q857,1627 835,1619.5 Q813,1612 791,1612 Q740,1612 709,1639.5 Q678,1667 678,1724 Q678,1790 711,1829 Q744,1868 801,1868 Q850,1868 881.5,1840 Q913,1812 913,1755 M1341,1755 Q1341,1715 1330,1688 Q1319,1661 1302,1644 Q1285,1627 1263,1619.5 Q1241,1612 1219,1612 Q1168,1612 1137,1639.5 Q1106,1667 1106,1724 Q1106,1790 1139,1829 Q1172,1868 1229,1868 Q1278,1868 1309.5,1840 Q1341,1812 1341,1755"/> 
            </font>
</defs>
</svg>
